G04 Layer: TopLayer*
G04 EasyEDA v6.5.34, 2023-08-30 20:05:19*
G04 d9d8768bc7e54bd19914c32b40fdea81,ed70181f279245e6aff80281ee7dc86a,10*
G04 Gerber Generator version 0.2*
G04 Scale: 100 percent, Rotated: No, Reflected: No *
G04 Dimensions in millimeters *
G04 leading zeros omitted , absolute positions ,4 integer and 5 decimal *
%FSLAX45Y45*%
%MOMM*%

%AMMACRO1*21,1,$1,$2,0,0,$3*%
%ADD10C,0.5000*%
%ADD11MACRO1,1.377X1.1325X90.0000*%
%ADD12O,2.0450048X0.58801*%
%ADD13MACRO1,1.35X1.41X0.0000*%
%ADD14R,1.3500X1.4100*%
%ADD15R,1.3970X1.0160*%
%ADD16R,1.4000X1.5000*%
%ADD17C,1.5240*%
%ADD18C,0.0172*%

%LPD*%
G36*
X5500878Y4881524D02*
G01*
X5497017Y4882286D01*
X5492546Y4885639D01*
X5490464Y4888687D01*
X5489600Y4892243D01*
X5490057Y4895900D01*
X5494629Y4904435D01*
X5496356Y4910175D01*
X5497017Y4916576D01*
X5497017Y5065572D01*
X5496356Y5072024D01*
X5494629Y5077764D01*
X5491835Y5082997D01*
X5488025Y5087620D01*
X5483402Y5091430D01*
X5478170Y5094224D01*
X5472430Y5095951D01*
X5465978Y5096611D01*
X5326989Y5096611D01*
X5320538Y5095951D01*
X5314848Y5094224D01*
X5309565Y5091430D01*
X5304536Y5087264D01*
X5301183Y5085435D01*
X5297424Y5084978D01*
X5293715Y5085943D01*
X5290667Y5088178D01*
X5288635Y5091379D01*
X5287924Y5095138D01*
X5287924Y5179822D01*
X5288686Y5183682D01*
X5290870Y5186984D01*
X5576316Y5472379D01*
X5579719Y5476138D01*
X5582666Y5479948D01*
X5585256Y5484063D01*
X5587492Y5488330D01*
X5589371Y5492800D01*
X5590794Y5497423D01*
X5591860Y5502148D01*
X5592470Y5506974D01*
X5592724Y5512003D01*
X5592724Y5583123D01*
X5593537Y5587136D01*
X5595924Y5590540D01*
X5599430Y5592673D01*
X5603544Y5593232D01*
X5607507Y5592165D01*
X5610707Y5589574D01*
X5613247Y5586476D01*
X5617870Y5582666D01*
X5623153Y5579872D01*
X5628843Y5578144D01*
X5635294Y5577484D01*
X5662218Y5577484D01*
X5662218Y5636920D01*
X5602884Y5636920D01*
X5598972Y5637682D01*
X5595670Y5639866D01*
X5593486Y5643168D01*
X5592724Y5647080D01*
X5592724Y5709920D01*
X5593486Y5713831D01*
X5595670Y5717133D01*
X5598972Y5719318D01*
X5602884Y5720080D01*
X5662218Y5720080D01*
X5662218Y5767324D01*
X5662980Y5771235D01*
X5665165Y5774537D01*
X5668467Y5776722D01*
X5672378Y5777484D01*
X5732221Y5777484D01*
X5736132Y5776722D01*
X5739434Y5774537D01*
X5741619Y5771235D01*
X5742381Y5767324D01*
X5742381Y5720080D01*
X5800293Y5720080D01*
X5800293Y5748477D01*
X5799683Y5754928D01*
X5797956Y5760669D01*
X5795111Y5765901D01*
X5788456Y5774131D01*
X5787491Y5778500D01*
X5788456Y5782868D01*
X5795111Y5791098D01*
X5797956Y5796330D01*
X5799683Y5802071D01*
X5800191Y5807252D01*
X5801258Y5810859D01*
X5803595Y5813856D01*
X5806897Y5815787D01*
X5810605Y5816396D01*
X5814314Y5815584D01*
X5817463Y5813399D01*
X5935929Y5694984D01*
X5938113Y5691682D01*
X5938875Y5687822D01*
X5938875Y5541060D01*
X5938062Y5536946D01*
X5935624Y5533593D01*
X5932068Y5531459D01*
X5927953Y5530900D01*
X5917285Y5534304D01*
X5910834Y5534964D01*
X5798566Y5534964D01*
X5792114Y5534304D01*
X5786424Y5532577D01*
X5781141Y5529783D01*
X5776518Y5525973D01*
X5772759Y5521350D01*
X5769914Y5516118D01*
X5768187Y5510377D01*
X5767578Y5503926D01*
X5767578Y5392724D01*
X5766816Y5388813D01*
X5764580Y5385511D01*
X5761278Y5383326D01*
X5757418Y5382564D01*
X5736945Y5382564D01*
X5736945Y5323992D01*
X5789422Y5323992D01*
X5789422Y5326075D01*
X5790234Y5329986D01*
X5792419Y5333288D01*
X5795721Y5335473D01*
X5799582Y5336235D01*
X5910834Y5336235D01*
X5917285Y5336895D01*
X5927953Y5340299D01*
X5932068Y5339740D01*
X5935624Y5337606D01*
X5938062Y5334254D01*
X5938875Y5330139D01*
X5938875Y5100167D01*
X5938367Y5096916D01*
X5936792Y5093970D01*
X5934354Y5091734D01*
X5929477Y5088432D01*
X5918962Y5079238D01*
X5909767Y5068722D01*
X5901994Y5057140D01*
X5895848Y5044643D01*
X5891326Y5031435D01*
X5888634Y5017719D01*
X5887720Y5003800D01*
X5888634Y4989880D01*
X5889802Y4984089D01*
X5889904Y4980736D01*
X5888939Y4977587D01*
X5887008Y4974894D01*
X5796584Y4884470D01*
X5793282Y4882286D01*
X5789422Y4881524D01*
G37*

%LPC*%
G36*
X5734050Y4907026D02*
G01*
X5742940Y4911394D01*
X5754522Y4919167D01*
X5765038Y4928362D01*
X5774232Y4938877D01*
X5782005Y4950460D01*
X5786374Y4959350D01*
X5734050Y4959350D01*
G37*
G36*
X5645150Y4907026D02*
G01*
X5645150Y4959350D01*
X5592826Y4959350D01*
X5597194Y4950460D01*
X5604967Y4938877D01*
X5614162Y4928362D01*
X5624677Y4919167D01*
X5636260Y4911394D01*
G37*
G36*
X5592826Y5048250D02*
G01*
X5645150Y5048250D01*
X5645150Y5100574D01*
X5636260Y5096205D01*
X5624677Y5088432D01*
X5614162Y5079238D01*
X5604967Y5068722D01*
X5597194Y5057140D01*
G37*
G36*
X5734050Y5048250D02*
G01*
X5786374Y5048250D01*
X5782005Y5057140D01*
X5774232Y5068722D01*
X5765038Y5079238D01*
X5754522Y5088432D01*
X5742940Y5096205D01*
X5734050Y5100574D01*
G37*
G36*
X5736945Y5183835D02*
G01*
X5758434Y5183835D01*
X5764885Y5184495D01*
X5770575Y5186222D01*
X5775858Y5189016D01*
X5780481Y5192826D01*
X5784240Y5197449D01*
X5787085Y5202682D01*
X5788812Y5208422D01*
X5789422Y5214823D01*
X5789422Y5242407D01*
X5736945Y5242407D01*
G37*
G36*
X5646166Y5183835D02*
G01*
X5667654Y5183835D01*
X5667654Y5242407D01*
X5615178Y5242407D01*
X5615178Y5214823D01*
X5615787Y5208422D01*
X5617514Y5202682D01*
X5620359Y5197449D01*
X5624118Y5192826D01*
X5628741Y5189016D01*
X5634024Y5186222D01*
X5639714Y5184495D01*
G37*
G36*
X5615178Y5323992D02*
G01*
X5667654Y5323992D01*
X5667654Y5382564D01*
X5646166Y5382564D01*
X5639714Y5381904D01*
X5634024Y5380177D01*
X5628741Y5377383D01*
X5624118Y5373573D01*
X5620359Y5368950D01*
X5617514Y5363718D01*
X5615787Y5357977D01*
X5615178Y5351526D01*
G37*
G36*
X5742381Y5577484D02*
G01*
X5769305Y5577484D01*
X5775756Y5578144D01*
X5781446Y5579872D01*
X5786729Y5582666D01*
X5791352Y5586476D01*
X5795111Y5591098D01*
X5797956Y5596331D01*
X5799683Y5602071D01*
X5800293Y5608472D01*
X5800293Y5636920D01*
X5742381Y5636920D01*
G37*

%LPD*%
G36*
X3933850Y4220718D02*
G01*
X3929837Y4221988D01*
X3926687Y4224782D01*
X3922674Y4230217D01*
X3893616Y4272534D01*
X3866235Y4316018D01*
X3840581Y4360468D01*
X3816654Y4405934D01*
X3794506Y4452264D01*
X3774186Y4499406D01*
X3755694Y4547311D01*
X3739083Y4595876D01*
X3724351Y4645101D01*
X3711549Y4694834D01*
X3700678Y4745024D01*
X3691788Y4795570D01*
X3684828Y4846472D01*
X3679850Y4897577D01*
X3676904Y4948834D01*
X3675887Y5000193D01*
X3676904Y5051552D01*
X3679901Y5102809D01*
X3684879Y5153914D01*
X3691839Y5204764D01*
X3700729Y5255361D01*
X3711651Y5305552D01*
X3724452Y5355285D01*
X3739184Y5404459D01*
X3755796Y5453024D01*
X3774338Y5500928D01*
X3794658Y5548071D01*
X3816807Y5594400D01*
X3840784Y5639866D01*
X3866438Y5684316D01*
X3893820Y5727750D01*
X3922877Y5770118D01*
X3953560Y5811266D01*
X3985818Y5851245D01*
X4019550Y5889955D01*
X4022801Y5893358D01*
X4026103Y5895695D01*
X4030014Y5896559D01*
X4033977Y5895848D01*
X4037329Y5893663D01*
X4039565Y5890361D01*
X4040378Y5886399D01*
X4040378Y5786323D01*
X4040987Y5779922D01*
X4042714Y5774182D01*
X4045559Y5768949D01*
X4049318Y5764326D01*
X4053941Y5760516D01*
X4059224Y5757722D01*
X4064914Y5755995D01*
X4071365Y5755335D01*
X4183634Y5755335D01*
X4190085Y5755995D01*
X4194200Y5757214D01*
X4197908Y5757621D01*
X4201566Y5756656D01*
X4204614Y5754420D01*
X4206595Y5751220D01*
X4207306Y5747512D01*
X4207306Y5720080D01*
X4265218Y5720080D01*
X4265218Y5767324D01*
X4265980Y5771235D01*
X4268165Y5774537D01*
X4271467Y5776722D01*
X4275378Y5777484D01*
X4335221Y5777484D01*
X4339132Y5776722D01*
X4342434Y5774537D01*
X4344619Y5771235D01*
X4345381Y5767324D01*
X4345381Y5720080D01*
X4403293Y5720080D01*
X4403293Y5748477D01*
X4402683Y5754928D01*
X4400956Y5760669D01*
X4398111Y5765901D01*
X4391456Y5774131D01*
X4390491Y5778500D01*
X4391456Y5782868D01*
X4398111Y5791098D01*
X4400956Y5796330D01*
X4402683Y5802071D01*
X4403293Y5808522D01*
X4403293Y5813501D01*
X4404004Y5817158D01*
X4405934Y5820359D01*
X4408881Y5822594D01*
X4412488Y5823610D01*
X4415078Y5823864D01*
X4419650Y5824880D01*
X4424273Y5826353D01*
X4428744Y5828182D01*
X4433062Y5830417D01*
X4437126Y5833059D01*
X4440986Y5836005D01*
X4444695Y5839409D01*
X4503115Y5897829D01*
X4506417Y5900013D01*
X4510278Y5900775D01*
X4586732Y5900775D01*
X4590643Y5900013D01*
X4593894Y5897829D01*
X4596130Y5894527D01*
X4596892Y5890615D01*
X4596130Y5886754D01*
X4593894Y5883452D01*
X4590643Y5881268D01*
X4586630Y5879592D01*
X4582363Y5877356D01*
X4578248Y5874766D01*
X4574438Y5871819D01*
X4570679Y5868416D01*
X4520184Y5817920D01*
X4516780Y5814161D01*
X4513834Y5810351D01*
X4511243Y5806236D01*
X4509008Y5801969D01*
X4507128Y5797499D01*
X4505706Y5792876D01*
X4504639Y5788152D01*
X4504029Y5783326D01*
X4503775Y5778296D01*
X4503775Y5577078D01*
X4502962Y5573064D01*
X4500676Y5569712D01*
X4497222Y5567578D01*
X4493209Y5566918D01*
X4489246Y5567934D01*
X4485995Y5570372D01*
X4482338Y5574538D01*
X4471822Y5583732D01*
X4460240Y5591505D01*
X4451350Y5595874D01*
X4451350Y5543550D01*
X4493615Y5543550D01*
X4497527Y5542788D01*
X4500829Y5540552D01*
X4503013Y5537301D01*
X4503775Y5533390D01*
X4503775Y5464810D01*
X4503013Y5460898D01*
X4500829Y5457647D01*
X4497527Y5455412D01*
X4493615Y5454650D01*
X4451350Y5454650D01*
X4451350Y5410352D01*
X4450588Y5406491D01*
X4448352Y5403189D01*
X4310684Y5265470D01*
X4307382Y5263286D01*
X4303522Y5262524D01*
X4140403Y5262524D01*
X4135374Y5262270D01*
X4130548Y5261660D01*
X4125823Y5260594D01*
X4121200Y5259171D01*
X4116730Y5257292D01*
X4112463Y5255056D01*
X4108348Y5252466D01*
X4104538Y5249519D01*
X4100779Y5246116D01*
X3961384Y5106720D01*
X3957980Y5102961D01*
X3955034Y5099151D01*
X3952443Y5095036D01*
X3950208Y5090769D01*
X3948328Y5086299D01*
X3946906Y5081676D01*
X3945839Y5076952D01*
X3945229Y5072126D01*
X3944975Y5067096D01*
X3944975Y4230827D01*
X3944112Y4226712D01*
X3941673Y4223308D01*
X3938015Y4221226D01*
G37*

%LPC*%
G36*
X4362450Y5402326D02*
G01*
X4362450Y5454650D01*
X4310126Y5454650D01*
X4314494Y5445760D01*
X4322267Y5434177D01*
X4331462Y5423662D01*
X4341977Y5414467D01*
X4353560Y5406694D01*
G37*
G36*
X4310126Y5543550D02*
G01*
X4362450Y5543550D01*
X4362450Y5610606D01*
X4363313Y5614720D01*
X4365752Y5618124D01*
X4369358Y5620258D01*
X4374692Y5621934D01*
X4389678Y5624931D01*
X4403293Y5625896D01*
X4403293Y5636920D01*
X4345381Y5636920D01*
X4345381Y5567324D01*
X4344619Y5563463D01*
X4342434Y5560161D01*
X4339132Y5557926D01*
X4335221Y5557164D01*
X4317644Y5557164D01*
X4314494Y5552440D01*
G37*
G36*
X4238294Y5577484D02*
G01*
X4265218Y5577484D01*
X4265218Y5636920D01*
X4207306Y5636920D01*
X4207306Y5608472D01*
X4207916Y5602071D01*
X4209643Y5596331D01*
X4212488Y5591098D01*
X4216247Y5586476D01*
X4220870Y5582666D01*
X4226153Y5579872D01*
X4231843Y5578144D01*
G37*

%LPD*%
G36*
X4332478Y3979824D02*
G01*
X4328617Y3980586D01*
X4325315Y3982770D01*
X4228947Y4079189D01*
X4226712Y4082491D01*
X4225950Y4086351D01*
X4225950Y4141419D01*
X4170883Y4141419D01*
X4166971Y4142232D01*
X4163669Y4144416D01*
X4058970Y4249115D01*
X4056786Y4252417D01*
X4056024Y4256278D01*
X4056024Y5040122D01*
X4056786Y5043982D01*
X4058970Y5047284D01*
X4160215Y5148529D01*
X4163517Y5150713D01*
X4167378Y5151475D01*
X4330496Y5151475D01*
X4335526Y5151729D01*
X4340352Y5152339D01*
X4345076Y5153406D01*
X4349699Y5154828D01*
X4354169Y5156708D01*
X4358436Y5158943D01*
X4362551Y5161534D01*
X4366361Y5164480D01*
X4370120Y5167884D01*
X4598416Y5396179D01*
X4601819Y5399938D01*
X4604766Y5403748D01*
X4607356Y5407863D01*
X4609592Y5412130D01*
X4611471Y5416600D01*
X4612894Y5421223D01*
X4613960Y5425948D01*
X4614570Y5430774D01*
X4614824Y5435803D01*
X4614824Y5511647D01*
X4615586Y5515559D01*
X4617821Y5518912D01*
X4621174Y5521096D01*
X4625136Y5521807D01*
X4629048Y5520944D01*
X4634280Y5518658D01*
X4643831Y5516219D01*
X4654143Y5515406D01*
X4669078Y5515406D01*
X4669078Y5554268D01*
X4624984Y5554268D01*
X4621072Y5555030D01*
X4617770Y5557215D01*
X4615586Y5560517D01*
X4614824Y5564428D01*
X4614824Y5586171D01*
X4615586Y5590082D01*
X4617770Y5593384D01*
X4621072Y5595569D01*
X4624984Y5596331D01*
X4669078Y5596331D01*
X4669078Y5632246D01*
X4669840Y5636107D01*
X4672025Y5639409D01*
X4675327Y5641594D01*
X4679238Y5642406D01*
X4773879Y5642406D01*
X4777740Y5641594D01*
X4781042Y5639409D01*
X4783226Y5636107D01*
X4784039Y5632246D01*
X4784039Y5596331D01*
X4836515Y5596331D01*
X4840427Y5595569D01*
X4843729Y5593384D01*
X4845913Y5590082D01*
X4846675Y5586171D01*
X4846675Y5564428D01*
X4845913Y5560517D01*
X4843729Y5557215D01*
X4840427Y5555030D01*
X4836515Y5554268D01*
X4784039Y5554268D01*
X4784039Y5515406D01*
X4798974Y5515406D01*
X4809236Y5516219D01*
X4818837Y5518658D01*
X4827879Y5522620D01*
X4830978Y5524652D01*
X4835042Y5526176D01*
X4839360Y5525922D01*
X4843170Y5523839D01*
X4845761Y5520385D01*
X4846675Y5516168D01*
X4846675Y5488178D01*
X4845913Y5484317D01*
X4843729Y5481015D01*
X4597400Y5234736D01*
X4593996Y5230977D01*
X4591050Y5227167D01*
X4588459Y5223052D01*
X4586224Y5218785D01*
X4584344Y5214315D01*
X4582922Y5209692D01*
X4581855Y5204968D01*
X4581245Y5200142D01*
X4580991Y5195112D01*
X4580991Y5106771D01*
X4580229Y5102860D01*
X4578045Y5099558D01*
X4574743Y5097373D01*
X4570831Y5096611D01*
X4567021Y5096611D01*
X4560570Y5095951D01*
X4554829Y5094224D01*
X4549597Y5091430D01*
X4544974Y5087620D01*
X4541164Y5082997D01*
X4538370Y5077764D01*
X4536643Y5072024D01*
X4535982Y5065572D01*
X4535982Y5056784D01*
X4535220Y5052872D01*
X4533036Y5049570D01*
X4529734Y5047386D01*
X4525822Y5046624D01*
X4515307Y5046624D01*
X4511395Y5047386D01*
X4508093Y5049570D01*
X4505909Y5052872D01*
X4505147Y5056784D01*
X4505147Y5059426D01*
X4504486Y5065877D01*
X4502759Y5071618D01*
X4499965Y5076850D01*
X4496155Y5081473D01*
X4491532Y5085283D01*
X4486300Y5088077D01*
X4480560Y5089804D01*
X4474108Y5090464D01*
X4361891Y5090464D01*
X4355439Y5089804D01*
X4349699Y5088077D01*
X4344466Y5085283D01*
X4339844Y5081473D01*
X4336034Y5076850D01*
X4333240Y5071618D01*
X4331512Y5065877D01*
X4330852Y5059426D01*
X4330852Y4922266D01*
X4329938Y4918049D01*
X4327398Y4914595D01*
X4323638Y4912512D01*
X4319371Y4912156D01*
X4315307Y4913630D01*
X4309922Y4917033D01*
X4307332Y4919268D01*
X4305706Y4922266D01*
X4305147Y4925618D01*
X4305147Y4950307D01*
X4279341Y4950307D01*
X4288028Y4948529D01*
X4292041Y4947158D01*
X4295648Y4945024D01*
X4298086Y4941620D01*
X4298950Y4937506D01*
X4298950Y4870450D01*
X4351274Y4870450D01*
X4347768Y4877511D01*
X4346752Y4881676D01*
X4347514Y4885893D01*
X4349953Y4889449D01*
X4353610Y4891633D01*
X4357878Y4892141D01*
X4361891Y4891735D01*
X4474108Y4891735D01*
X4480560Y4892395D01*
X4486300Y4894122D01*
X4491532Y4896916D01*
X4496155Y4900726D01*
X4499965Y4905349D01*
X4502759Y4910582D01*
X4504486Y4916322D01*
X4505147Y4922723D01*
X4505147Y4925415D01*
X4505909Y4929327D01*
X4508093Y4932629D01*
X4511395Y4934813D01*
X4515307Y4935575D01*
X4525822Y4935575D01*
X4529734Y4934813D01*
X4533036Y4932629D01*
X4535220Y4929327D01*
X4535982Y4925415D01*
X4535982Y4916576D01*
X4536643Y4910175D01*
X4538370Y4904435D01*
X4541164Y4899152D01*
X4544974Y4894580D01*
X4549597Y4890770D01*
X4554829Y4887976D01*
X4560570Y4886198D01*
X4567021Y4885588D01*
X4696815Y4885588D01*
X4700727Y4884826D01*
X4704029Y4882591D01*
X4706213Y4879340D01*
X4706975Y4875428D01*
X4706975Y4865878D01*
X4706213Y4862017D01*
X4704029Y4858715D01*
X4678984Y4833670D01*
X4675682Y4831486D01*
X4671822Y4830724D01*
X4496003Y4830724D01*
X4490974Y4830470D01*
X4486148Y4829860D01*
X4481423Y4828794D01*
X4476800Y4827371D01*
X4472330Y4825492D01*
X4468063Y4823256D01*
X4463948Y4820666D01*
X4460138Y4817719D01*
X4456379Y4814316D01*
X4404360Y4762296D01*
X4400956Y4758537D01*
X4398010Y4754727D01*
X4395419Y4750612D01*
X4393184Y4746345D01*
X4391304Y4741875D01*
X4389882Y4737252D01*
X4388815Y4732528D01*
X4388205Y4727702D01*
X4387951Y4722672D01*
X4387951Y4693107D01*
X4387088Y4688941D01*
X4384497Y4685487D01*
X4380738Y4683404D01*
X4375099Y4681677D01*
X4369866Y4678883D01*
X4365244Y4675073D01*
X4361434Y4670450D01*
X4358640Y4665218D01*
X4356912Y4659477D01*
X4356252Y4653026D01*
X4356252Y4516323D01*
X4356912Y4509922D01*
X4358640Y4504182D01*
X4361434Y4498949D01*
X4365244Y4494326D01*
X4369866Y4490516D01*
X4375099Y4487722D01*
X4380839Y4485995D01*
X4387291Y4485335D01*
X4404715Y4485335D01*
X4408627Y4484573D01*
X4411929Y4482388D01*
X4414113Y4479086D01*
X4414875Y4475175D01*
X4414875Y4356303D01*
X4415129Y4351274D01*
X4415739Y4346448D01*
X4416806Y4341723D01*
X4418228Y4337100D01*
X4420108Y4332630D01*
X4422343Y4328363D01*
X4424934Y4324248D01*
X4427880Y4320438D01*
X4431385Y4316577D01*
X4433366Y4313428D01*
X4434078Y4309719D01*
X4434078Y4236923D01*
X4434687Y4230522D01*
X4436414Y4224782D01*
X4439259Y4219549D01*
X4443018Y4214926D01*
X4447641Y4211116D01*
X4452924Y4208322D01*
X4458614Y4206595D01*
X4465066Y4205935D01*
X4577334Y4205935D01*
X4583785Y4206595D01*
X4589475Y4208322D01*
X4594758Y4211116D01*
X4599381Y4214926D01*
X4603140Y4219549D01*
X4605985Y4224782D01*
X4607712Y4230522D01*
X4608322Y4236923D01*
X4608322Y4369155D01*
X4609134Y4373016D01*
X4611319Y4376318D01*
X4614621Y4378502D01*
X4618482Y4379315D01*
X4622393Y4378502D01*
X4625695Y4376318D01*
X4654499Y4347464D01*
X4658817Y4343603D01*
X4661103Y4340606D01*
X4662119Y4336999D01*
X4662830Y4329785D01*
X4664557Y4324096D01*
X4667351Y4318812D01*
X4671161Y4314240D01*
X4675733Y4310430D01*
X4681016Y4307636D01*
X4686757Y4305858D01*
X4693158Y4305249D01*
X4831892Y4305249D01*
X4838293Y4305858D01*
X4844034Y4307636D01*
X4849317Y4310430D01*
X4853889Y4314240D01*
X4857699Y4318812D01*
X4860493Y4324096D01*
X4862271Y4329836D01*
X4862880Y4336237D01*
X4862880Y4406696D01*
X4863642Y4410557D01*
X4865878Y4413859D01*
X4869180Y4416094D01*
X4873040Y4416856D01*
X4876952Y4416094D01*
X4880203Y4413859D01*
X4913680Y4380382D01*
X4915916Y4377131D01*
X4916678Y4373219D01*
X4916678Y4236923D01*
X4917287Y4230522D01*
X4919014Y4224782D01*
X4921859Y4219549D01*
X4925618Y4214926D01*
X4930241Y4211116D01*
X4935524Y4208322D01*
X4941214Y4206595D01*
X4947666Y4205935D01*
X5059934Y4205935D01*
X5066385Y4206595D01*
X5072075Y4208322D01*
X5077358Y4211116D01*
X5081981Y4214926D01*
X5085740Y4219549D01*
X5088585Y4224782D01*
X5090312Y4230522D01*
X5090922Y4236923D01*
X5090922Y4373626D01*
X5090312Y4380077D01*
X5088585Y4385818D01*
X5085740Y4391050D01*
X5081981Y4395673D01*
X5077358Y4399483D01*
X5072075Y4402277D01*
X5066385Y4404004D01*
X5059934Y4404664D01*
X5050586Y4404664D01*
X5046268Y4405630D01*
X5042712Y4408373D01*
X4939893Y4511192D01*
X4937709Y4514494D01*
X4936947Y4518355D01*
X4936947Y4653026D01*
X4936286Y4659477D01*
X4934559Y4665218D01*
X4931765Y4670450D01*
X4927955Y4675073D01*
X4923332Y4678883D01*
X4918100Y4681677D01*
X4912614Y4683353D01*
X4908854Y4685436D01*
X4906314Y4688890D01*
X4905400Y4693056D01*
X4905400Y4932273D01*
X4906314Y4936490D01*
X4908854Y4939944D01*
X4912614Y4942027D01*
X4916881Y4942382D01*
X4920894Y4940909D01*
X4923993Y4937912D01*
X4931867Y4926177D01*
X4941062Y4915662D01*
X4951577Y4906467D01*
X4963160Y4898694D01*
X4972050Y4894326D01*
X4972050Y4946650D01*
X4915560Y4946650D01*
X4911648Y4947412D01*
X4908346Y4949647D01*
X4906162Y4952898D01*
X4905400Y4956810D01*
X4905400Y5025390D01*
X4906162Y5029301D01*
X4908346Y5032552D01*
X4911648Y5034788D01*
X4915560Y5035550D01*
X4972050Y5035550D01*
X4972050Y5087874D01*
X4963160Y5083505D01*
X4951577Y5075732D01*
X4941062Y5066538D01*
X4931867Y5056022D01*
X4923993Y5044287D01*
X4920894Y5041290D01*
X4916881Y5039817D01*
X4912614Y5040172D01*
X4908854Y5042255D01*
X4906314Y5045710D01*
X4905400Y5049926D01*
X4905400Y5116220D01*
X4906162Y5120081D01*
X4908397Y5123383D01*
X5163413Y5377129D01*
X5166715Y5379313D01*
X5170576Y5380075D01*
X5302453Y5380075D01*
X5306364Y5379313D01*
X5309666Y5377129D01*
X5311851Y5373827D01*
X5312613Y5369915D01*
X5311851Y5366054D01*
X5309666Y5362752D01*
X5193284Y5246420D01*
X5189880Y5242661D01*
X5186934Y5238851D01*
X5184343Y5234736D01*
X5182108Y5230469D01*
X5180228Y5225999D01*
X5178806Y5221376D01*
X5177739Y5216652D01*
X5177129Y5211826D01*
X5176875Y5206796D01*
X5176875Y4737303D01*
X5177129Y4732274D01*
X5177739Y4727448D01*
X5178806Y4722723D01*
X5180228Y4718100D01*
X5182108Y4713630D01*
X5184343Y4709363D01*
X5186883Y4705350D01*
X5191252Y4699863D01*
X5193080Y4696358D01*
X5193436Y4692446D01*
X5192268Y4688687D01*
X5189778Y4685639D01*
X5186273Y4683810D01*
X5182362Y4683404D01*
X5175808Y4684064D01*
X5063591Y4684064D01*
X5057140Y4683404D01*
X5051399Y4681677D01*
X5046167Y4678883D01*
X5041544Y4675073D01*
X5037734Y4670450D01*
X5034940Y4665218D01*
X5033213Y4659477D01*
X5032552Y4653026D01*
X5032552Y4516323D01*
X5033213Y4509922D01*
X5034940Y4504182D01*
X5037734Y4498949D01*
X5041544Y4494326D01*
X5046167Y4490516D01*
X5051399Y4487722D01*
X5057140Y4485995D01*
X5065420Y4485335D01*
X5068519Y4484827D01*
X5071364Y4483404D01*
X5073599Y4481220D01*
X5077256Y4476242D01*
X5080609Y4472584D01*
X5141772Y4411370D01*
X5144008Y4408068D01*
X5144770Y4404207D01*
X5144770Y4336237D01*
X5145379Y4329836D01*
X5147157Y4324096D01*
X5149951Y4318812D01*
X5153761Y4314240D01*
X5158333Y4310430D01*
X5163616Y4307636D01*
X5169357Y4305858D01*
X5175758Y4305249D01*
X5314492Y4305249D01*
X5320893Y4305858D01*
X5326634Y4307636D01*
X5331917Y4310430D01*
X5336489Y4314240D01*
X5340299Y4318812D01*
X5343093Y4324096D01*
X5344871Y4329836D01*
X5345480Y4336237D01*
X5345480Y4419396D01*
X5346242Y4423257D01*
X5348478Y4426559D01*
X5351780Y4428794D01*
X5355640Y4429556D01*
X5359552Y4428794D01*
X5362803Y4426559D01*
X5381244Y4408170D01*
X5383326Y4405122D01*
X5384190Y4401464D01*
X5383682Y4397806D01*
X5381904Y4394555D01*
X5379059Y4391050D01*
X5376214Y4385818D01*
X5374487Y4380077D01*
X5373878Y4373626D01*
X5373878Y4236923D01*
X5374487Y4230522D01*
X5376214Y4224782D01*
X5379059Y4219549D01*
X5382818Y4214926D01*
X5387441Y4211116D01*
X5392724Y4208322D01*
X5398414Y4206595D01*
X5404866Y4205935D01*
X5517134Y4205935D01*
X5523585Y4206595D01*
X5529275Y4208322D01*
X5534558Y4211116D01*
X5539181Y4214926D01*
X5542940Y4219549D01*
X5545785Y4224782D01*
X5547512Y4230522D01*
X5548122Y4236923D01*
X5548122Y4373626D01*
X5547512Y4380077D01*
X5545785Y4385818D01*
X5542940Y4391050D01*
X5539181Y4395673D01*
X5534558Y4399483D01*
X5529275Y4402277D01*
X5523230Y4404106D01*
X5519826Y4405934D01*
X5517286Y4408932D01*
X5516118Y4412640D01*
X5515660Y4416602D01*
X5514594Y4421276D01*
X5513171Y4425899D01*
X5511292Y4430369D01*
X5509056Y4434636D01*
X5506466Y4438751D01*
X5503519Y4442561D01*
X5500116Y4446320D01*
X5409793Y4536592D01*
X5407609Y4539894D01*
X5406847Y4543755D01*
X5406847Y4653026D01*
X5406186Y4659477D01*
X5404459Y4665218D01*
X5401665Y4670450D01*
X5397855Y4675073D01*
X5393232Y4678883D01*
X5388000Y4681677D01*
X5382260Y4683404D01*
X5375808Y4684064D01*
X5367832Y4684064D01*
X5363565Y4685030D01*
X5360060Y4687671D01*
X5358688Y4689297D01*
X5290870Y4757115D01*
X5288686Y4760417D01*
X5287924Y4764278D01*
X5287924Y4887061D01*
X5288635Y4890820D01*
X5290667Y4894021D01*
X5293715Y4896256D01*
X5297424Y4897221D01*
X5301183Y4896764D01*
X5304536Y4894935D01*
X5309565Y4890770D01*
X5314848Y4887976D01*
X5320538Y4886198D01*
X5326989Y4885588D01*
X5336997Y4885588D01*
X5340604Y4884928D01*
X5343753Y4882997D01*
X5345988Y4880102D01*
X5348427Y4875479D01*
X5351018Y4871364D01*
X5353964Y4867554D01*
X5357368Y4863795D01*
X5434279Y4786884D01*
X5438038Y4783480D01*
X5441848Y4780534D01*
X5445963Y4777943D01*
X5450230Y4775708D01*
X5454700Y4773828D01*
X5459323Y4772406D01*
X5464048Y4771339D01*
X5468874Y4770729D01*
X5473903Y4770475D01*
X5816396Y4770475D01*
X5821426Y4770729D01*
X5826252Y4771339D01*
X5830976Y4772406D01*
X5835599Y4773828D01*
X5840069Y4775708D01*
X5844336Y4777943D01*
X5848451Y4780534D01*
X5852261Y4783480D01*
X5856020Y4786884D01*
X5965494Y4896408D01*
X5968187Y4898339D01*
X5971336Y4899304D01*
X5974689Y4899202D01*
X5980480Y4898034D01*
X5994400Y4897120D01*
X6008319Y4898034D01*
X6022035Y4900726D01*
X6035243Y4905248D01*
X6047740Y4911394D01*
X6059322Y4919167D01*
X6069838Y4928362D01*
X6079032Y4938877D01*
X6086805Y4950460D01*
X6092952Y4962956D01*
X6097473Y4976164D01*
X6100165Y4989880D01*
X6101080Y5003800D01*
X6100165Y5017719D01*
X6097473Y5031435D01*
X6092952Y5044643D01*
X6086805Y5057140D01*
X6079032Y5068722D01*
X6069838Y5079238D01*
X6059322Y5088432D01*
X6054445Y5091734D01*
X6052007Y5093970D01*
X6050432Y5096916D01*
X6049924Y5100167D01*
X6049924Y5714796D01*
X6049670Y5719826D01*
X6049060Y5724652D01*
X6047994Y5729376D01*
X6046571Y5733999D01*
X6044692Y5738469D01*
X6042456Y5742736D01*
X6039866Y5746851D01*
X6036919Y5750661D01*
X6033516Y5754420D01*
X5870295Y5917590D01*
X5866587Y5920994D01*
X5862726Y5923940D01*
X5858662Y5926582D01*
X5854344Y5928817D01*
X5849874Y5930646D01*
X5845251Y5932119D01*
X5840526Y5933135D01*
X5835751Y5933795D01*
X5830671Y5933998D01*
X5810453Y5933998D01*
X5806592Y5934760D01*
X5803290Y5936996D01*
X5801106Y5940298D01*
X5800293Y5944158D01*
X5800293Y5948527D01*
X5799683Y5954928D01*
X5797956Y5960668D01*
X5795111Y5965901D01*
X5791352Y5970524D01*
X5786729Y5974334D01*
X5781446Y5977128D01*
X5775756Y5978855D01*
X5769305Y5979515D01*
X5635294Y5979515D01*
X5628843Y5978855D01*
X5623153Y5977128D01*
X5617870Y5974334D01*
X5613247Y5970524D01*
X5609488Y5965901D01*
X5606643Y5960668D01*
X5604916Y5954928D01*
X5604306Y5948527D01*
X5604306Y5944158D01*
X5603494Y5940298D01*
X5601309Y5936996D01*
X5598007Y5934760D01*
X5594146Y5933998D01*
X5578703Y5933998D01*
X5574792Y5934760D01*
X5571540Y5936996D01*
X5513120Y5995416D01*
X5509361Y5998819D01*
X5505551Y6001766D01*
X5501436Y6004356D01*
X5497169Y6006592D01*
X5492699Y6008471D01*
X5488076Y6009894D01*
X5483352Y6010960D01*
X5478526Y6011570D01*
X5473496Y6011824D01*
X5378043Y6011824D01*
X5363768Y6015380D01*
X5353456Y6016193D01*
X5217109Y6016193D01*
X5213197Y6017006D01*
X5209895Y6019190D01*
X5174996Y6054140D01*
X5172760Y6057392D01*
X5171998Y6061303D01*
X5171998Y6063792D01*
X5172913Y6068009D01*
X5175453Y6071412D01*
X5179212Y6073495D01*
X5184800Y6075222D01*
X5190032Y6078016D01*
X5194655Y6081826D01*
X5198465Y6086449D01*
X5201259Y6091682D01*
X5202986Y6097422D01*
X5203647Y6103823D01*
X5203647Y6240526D01*
X5202986Y6246977D01*
X5201259Y6252718D01*
X5198465Y6257950D01*
X5194655Y6262573D01*
X5190032Y6266383D01*
X5184800Y6269177D01*
X5179060Y6270904D01*
X5172608Y6271564D01*
X5060391Y6271564D01*
X5053939Y6270904D01*
X5048199Y6269177D01*
X5042966Y6266383D01*
X5038344Y6262573D01*
X5034534Y6257950D01*
X5031740Y6252718D01*
X5030012Y6246977D01*
X5029352Y6240526D01*
X5029352Y6103823D01*
X5030012Y6097422D01*
X5031740Y6091682D01*
X5034534Y6086449D01*
X5038344Y6081826D01*
X5042966Y6078016D01*
X5048199Y6075222D01*
X5053787Y6073546D01*
X5057546Y6071463D01*
X5060086Y6068009D01*
X5061000Y6063792D01*
X5061000Y6034328D01*
X5061204Y6029248D01*
X5061864Y6024473D01*
X5062880Y6019749D01*
X5064353Y6015126D01*
X5066182Y6010656D01*
X5068417Y6006338D01*
X5071059Y6002274D01*
X5074005Y5998413D01*
X5077409Y5994704D01*
X5154879Y5917184D01*
X5158638Y5913780D01*
X5162448Y5910834D01*
X5166563Y5908243D01*
X5170830Y5906008D01*
X5175199Y5904179D01*
X5181498Y5902401D01*
X5185156Y5900470D01*
X5187746Y5897270D01*
X5188864Y5893308D01*
X5188305Y5889244D01*
X5186172Y5885688D01*
X5182819Y5883300D01*
X5179720Y5881979D01*
X5171440Y5876544D01*
X5164175Y5869838D01*
X5158079Y5862066D01*
X5153355Y5853328D01*
X5150154Y5843981D01*
X5148529Y5834227D01*
X5148529Y5824372D01*
X5150154Y5814618D01*
X5153355Y5805271D01*
X5158079Y5796534D01*
X5164175Y5788761D01*
X5171440Y5782056D01*
X5179720Y5776620D01*
X5183225Y5775096D01*
X5186426Y5772861D01*
X5188559Y5769610D01*
X5189270Y5765800D01*
X5188559Y5761990D01*
X5186426Y5758738D01*
X5183225Y5756503D01*
X5179720Y5754979D01*
X5171440Y5749544D01*
X5164175Y5742838D01*
X5158079Y5735066D01*
X5153355Y5726328D01*
X5150154Y5716981D01*
X5148529Y5707227D01*
X5148529Y5697372D01*
X5150154Y5687618D01*
X5153355Y5678271D01*
X5158079Y5669534D01*
X5164175Y5661761D01*
X5171440Y5655056D01*
X5179974Y5649468D01*
X5182971Y5646420D01*
X5184495Y5642356D01*
X5184140Y5638088D01*
X5182057Y5634278D01*
X5178602Y5631738D01*
X5174386Y5630824D01*
X5131003Y5630824D01*
X5125974Y5630570D01*
X5121148Y5629960D01*
X5116423Y5628894D01*
X5111800Y5627471D01*
X5107330Y5625592D01*
X5103063Y5623356D01*
X5098948Y5620766D01*
X5095138Y5617819D01*
X5091379Y5614416D01*
X4975047Y5498033D01*
X4971745Y5495848D01*
X4967884Y5495086D01*
X4963972Y5495848D01*
X4960670Y5498033D01*
X4958486Y5501335D01*
X4957724Y5505246D01*
X4957724Y5651296D01*
X4957470Y5656326D01*
X4956860Y5661152D01*
X4955794Y5665876D01*
X4954371Y5670499D01*
X4952492Y5674969D01*
X4950256Y5679236D01*
X4947666Y5683351D01*
X4944719Y5687161D01*
X4941316Y5690920D01*
X4890820Y5741416D01*
X4887061Y5744819D01*
X4883251Y5747766D01*
X4879136Y5750356D01*
X4874869Y5752592D01*
X4870399Y5754471D01*
X4865776Y5755894D01*
X4861052Y5756960D01*
X4856226Y5757570D01*
X4851196Y5757824D01*
X4833213Y5757824D01*
X4828997Y5758738D01*
X4825542Y5761278D01*
X4823460Y5765088D01*
X4823104Y5769356D01*
X4824628Y5773420D01*
X4827625Y5776468D01*
X4836160Y5782056D01*
X4843424Y5788761D01*
X4849520Y5796534D01*
X4854244Y5805271D01*
X4857445Y5814618D01*
X4859070Y5824372D01*
X4859070Y5834227D01*
X4857445Y5843981D01*
X4854244Y5853328D01*
X4849520Y5862066D01*
X4843424Y5869838D01*
X4836160Y5876544D01*
X4827625Y5882132D01*
X4824628Y5885180D01*
X4823104Y5889244D01*
X4823460Y5893511D01*
X4825542Y5897321D01*
X4828997Y5899861D01*
X4833213Y5900775D01*
X4863896Y5900775D01*
X4868926Y5901029D01*
X4873752Y5901639D01*
X4878476Y5902706D01*
X4883099Y5904128D01*
X4887569Y5906008D01*
X4891836Y5908243D01*
X4895951Y5910834D01*
X4899761Y5913780D01*
X4903520Y5917184D01*
X4955540Y5969203D01*
X4958943Y5972962D01*
X4961890Y5976772D01*
X4964480Y5980887D01*
X4966716Y5985154D01*
X4968595Y5989624D01*
X4970018Y5994247D01*
X4971084Y5998972D01*
X4971694Y6003798D01*
X4971948Y6008827D01*
X4971948Y6063792D01*
X4972862Y6067958D01*
X4975402Y6071412D01*
X4979162Y6073495D01*
X4984800Y6075222D01*
X4990033Y6078016D01*
X4994656Y6081826D01*
X4998466Y6086449D01*
X5001260Y6091682D01*
X5002987Y6097422D01*
X5003647Y6103823D01*
X5003647Y6240526D01*
X5002987Y6246977D01*
X5001260Y6252718D01*
X4998466Y6257950D01*
X4994656Y6262573D01*
X4990033Y6266383D01*
X4984800Y6269177D01*
X4979060Y6270904D01*
X4972608Y6271564D01*
X4860391Y6271564D01*
X4853940Y6270904D01*
X4848199Y6269177D01*
X4842967Y6266383D01*
X4838344Y6262573D01*
X4834534Y6257950D01*
X4831740Y6252718D01*
X4830013Y6246977D01*
X4829352Y6240526D01*
X4829352Y6103823D01*
X4830013Y6097422D01*
X4831740Y6091682D01*
X4834534Y6086449D01*
X4838344Y6081826D01*
X4842967Y6078016D01*
X4848199Y6075222D01*
X4853686Y6073546D01*
X4857445Y6071463D01*
X4860036Y6068009D01*
X4860899Y6063843D01*
X4860899Y6035802D01*
X4860137Y6031941D01*
X4857953Y6028639D01*
X4844084Y6014770D01*
X4840782Y6012586D01*
X4836922Y6011824D01*
X4823510Y6011824D01*
X4809236Y6015380D01*
X4798974Y6016193D01*
X4654143Y6016193D01*
X4643831Y6015380D01*
X4633671Y6012688D01*
X4629556Y6011824D01*
X4483303Y6011824D01*
X4478274Y6011570D01*
X4473448Y6010960D01*
X4468723Y6009894D01*
X4464100Y6008471D01*
X4459630Y6006592D01*
X4455363Y6004356D01*
X4451248Y6001766D01*
X4447438Y5998819D01*
X4443679Y5995416D01*
X4413300Y5964986D01*
X4409795Y5962700D01*
X4405630Y5962040D01*
X4401566Y5963107D01*
X4398264Y5965748D01*
X4394352Y5970524D01*
X4389729Y5974334D01*
X4384446Y5977128D01*
X4378756Y5978855D01*
X4372305Y5979515D01*
X4238294Y5979515D01*
X4231843Y5978855D01*
X4226153Y5977128D01*
X4220870Y5974334D01*
X4216247Y5970524D01*
X4212488Y5965901D01*
X4209643Y5960668D01*
X4208932Y5958332D01*
X4207103Y5954826D01*
X4204004Y5952286D01*
X4200245Y5951169D01*
X4196283Y5951524D01*
X4190085Y5953404D01*
X4183634Y5954064D01*
X4107687Y5954064D01*
X4103725Y5954877D01*
X4100372Y5957163D01*
X4098188Y5960567D01*
X4097528Y5964529D01*
X4098442Y5968492D01*
X4100880Y5971743D01*
X4129532Y5997752D01*
X4168851Y6030722D01*
X4209440Y6062218D01*
X4251248Y6092037D01*
X4294124Y6120282D01*
X4338116Y6146800D01*
X4383074Y6171590D01*
X4428947Y6194653D01*
X4475734Y6215888D01*
X4523282Y6235293D01*
X4571542Y6252819D01*
X4620412Y6268516D01*
X4669891Y6282283D01*
X4719878Y6294120D01*
X4770272Y6304026D01*
X4820970Y6311950D01*
X4872024Y6317894D01*
X4923180Y6321856D01*
X4974488Y6323838D01*
X5025847Y6323838D01*
X5077155Y6321856D01*
X5128361Y6317843D01*
X5179364Y6311900D01*
X5230114Y6303924D01*
X5280507Y6294018D01*
X5330444Y6282182D01*
X5379923Y6268415D01*
X5428843Y6252718D01*
X5477103Y6235141D01*
X5524601Y6215735D01*
X5571388Y6194450D01*
X5617260Y6171387D01*
X5662218Y6146596D01*
X5706160Y6120028D01*
X5749086Y6091834D01*
X5790844Y6061964D01*
X5831433Y6030518D01*
X5870752Y5997498D01*
X5908802Y5962954D01*
X5945428Y5926988D01*
X5980684Y5889650D01*
X6014415Y5850940D01*
X6046673Y5810961D01*
X6077305Y5769762D01*
X6106363Y5727446D01*
X6133744Y5683961D01*
X6159398Y5639511D01*
X6183325Y5594045D01*
X6205474Y5547715D01*
X6225794Y5500573D01*
X6244285Y5452668D01*
X6260896Y5404104D01*
X6275628Y5354878D01*
X6288430Y5305145D01*
X6299301Y5254955D01*
X6308191Y5204409D01*
X6315151Y5153507D01*
X6320129Y5102402D01*
X6323076Y5051145D01*
X6324092Y4999786D01*
X6323076Y4948428D01*
X6320078Y4897170D01*
X6315100Y4846066D01*
X6308140Y4795215D01*
X6299250Y4744618D01*
X6288328Y4694428D01*
X6275527Y4644694D01*
X6260795Y4595520D01*
X6244183Y4546955D01*
X6225641Y4499051D01*
X6205321Y4451908D01*
X6183172Y4405579D01*
X6159195Y4360113D01*
X6133541Y4315663D01*
X6106160Y4272229D01*
X6077102Y4229862D01*
X6046419Y4188714D01*
X6014161Y4148734D01*
X6003442Y4136440D01*
X5999988Y4133850D01*
X5995822Y4132935D01*
X5991606Y4133850D01*
X5988151Y4136390D01*
X5986068Y4140149D01*
X5985713Y4144416D01*
X5986170Y4148074D01*
X5986424Y4153103D01*
X5986424Y4482642D01*
X5987389Y4487011D01*
X5990132Y4490516D01*
X5994755Y4494326D01*
X5998565Y4498949D01*
X6001359Y4504182D01*
X6003086Y4509922D01*
X6003747Y4516323D01*
X6003747Y4653026D01*
X6003086Y4659477D01*
X6001359Y4665218D01*
X5998565Y4670450D01*
X5994755Y4675073D01*
X5990132Y4678883D01*
X5984900Y4681677D01*
X5979160Y4683404D01*
X5972708Y4684064D01*
X5860491Y4684064D01*
X5854039Y4683404D01*
X5848299Y4681677D01*
X5843066Y4678883D01*
X5838444Y4675073D01*
X5834634Y4670450D01*
X5831840Y4665218D01*
X5830112Y4659477D01*
X5829452Y4653026D01*
X5829452Y4516323D01*
X5830112Y4509922D01*
X5831840Y4504182D01*
X5834634Y4498949D01*
X5838444Y4494326D01*
X5843066Y4490516D01*
X5848299Y4487722D01*
X5854039Y4485995D01*
X5860491Y4485335D01*
X5865215Y4485335D01*
X5869127Y4484573D01*
X5872429Y4482388D01*
X5874613Y4479086D01*
X5875375Y4475175D01*
X5875375Y4180078D01*
X5874613Y4176217D01*
X5872429Y4172915D01*
X5843930Y4144416D01*
X5840628Y4142232D01*
X5836716Y4141419D01*
X5769000Y4141419D01*
X5769000Y4091635D01*
X5772912Y4089857D01*
X5775756Y4086606D01*
X5776976Y4082440D01*
X5776366Y4078173D01*
X5774029Y4074566D01*
X5682284Y3982770D01*
X5678982Y3980586D01*
X5675122Y3979824D01*
G37*

%LPC*%
G36*
X4693158Y4091889D02*
G01*
X4721250Y4091889D01*
X4721250Y4141419D01*
X4662170Y4141419D01*
X4662170Y4122877D01*
X4662779Y4116476D01*
X4664557Y4110736D01*
X4667351Y4105452D01*
X4671161Y4100880D01*
X4675733Y4097070D01*
X4681016Y4094276D01*
X4686757Y4092498D01*
G37*
G36*
X5286400Y4091889D02*
G01*
X5314492Y4091889D01*
X5320893Y4092498D01*
X5326634Y4094276D01*
X5331917Y4097070D01*
X5336489Y4100880D01*
X5340299Y4105452D01*
X5343093Y4110736D01*
X5344871Y4116476D01*
X5345480Y4122877D01*
X5345480Y4141419D01*
X5286400Y4141419D01*
G37*
G36*
X4803800Y4091889D02*
G01*
X4831892Y4091889D01*
X4838293Y4092498D01*
X4844034Y4094276D01*
X4849317Y4097070D01*
X4853889Y4100880D01*
X4857699Y4105452D01*
X4860493Y4110736D01*
X4862271Y4116476D01*
X4862880Y4122877D01*
X4862880Y4141419D01*
X4803800Y4141419D01*
G37*
G36*
X5175758Y4091889D02*
G01*
X5203850Y4091889D01*
X5203850Y4141419D01*
X5144770Y4141419D01*
X5144770Y4122877D01*
X5145379Y4116476D01*
X5147157Y4110736D01*
X5149951Y4105452D01*
X5153761Y4100880D01*
X5158333Y4097070D01*
X5163616Y4094276D01*
X5169357Y4092498D01*
G37*
G36*
X4308500Y4091889D02*
G01*
X4336592Y4091889D01*
X4342993Y4092498D01*
X4348734Y4094276D01*
X4354017Y4097070D01*
X4358589Y4100880D01*
X4362399Y4105452D01*
X4365193Y4110736D01*
X4366971Y4116476D01*
X4367580Y4122877D01*
X4367580Y4141419D01*
X4308500Y4141419D01*
G37*
G36*
X5658358Y4091889D02*
G01*
X5686450Y4091889D01*
X5686450Y4141419D01*
X5627370Y4141419D01*
X5627370Y4122877D01*
X5627979Y4116476D01*
X5629757Y4110736D01*
X5632551Y4105452D01*
X5636361Y4100880D01*
X5640933Y4097070D01*
X5646216Y4094276D01*
X5651957Y4092498D01*
G37*
G36*
X5627370Y4204919D02*
G01*
X5686450Y4204919D01*
X5686450Y4254500D01*
X5658358Y4254500D01*
X5651957Y4253890D01*
X5646216Y4252112D01*
X5640933Y4249318D01*
X5636361Y4245508D01*
X5632551Y4240936D01*
X5629757Y4235653D01*
X5627979Y4229912D01*
X5627370Y4223512D01*
G37*
G36*
X5144770Y4204919D02*
G01*
X5203850Y4204919D01*
X5203850Y4254500D01*
X5175758Y4254500D01*
X5169357Y4253890D01*
X5163616Y4252112D01*
X5158333Y4249318D01*
X5153761Y4245508D01*
X5149951Y4240936D01*
X5147157Y4235653D01*
X5145379Y4229912D01*
X5144770Y4223512D01*
G37*
G36*
X5769000Y4204919D02*
G01*
X5828080Y4204919D01*
X5828080Y4223512D01*
X5827471Y4229912D01*
X5825693Y4235653D01*
X5822899Y4240936D01*
X5819089Y4245508D01*
X5814517Y4249318D01*
X5809234Y4252112D01*
X5803493Y4253890D01*
X5797092Y4254500D01*
X5769000Y4254500D01*
G37*
G36*
X4803800Y4204919D02*
G01*
X4862880Y4204919D01*
X4862880Y4223512D01*
X4862271Y4229912D01*
X4860493Y4235653D01*
X4857699Y4240936D01*
X4853889Y4245508D01*
X4849317Y4249318D01*
X4844034Y4252112D01*
X4838293Y4253890D01*
X4831892Y4254500D01*
X4803800Y4254500D01*
G37*
G36*
X4662170Y4204919D02*
G01*
X4721250Y4204919D01*
X4721250Y4254500D01*
X4693158Y4254500D01*
X4686757Y4253890D01*
X4681016Y4252112D01*
X4675733Y4249318D01*
X4671161Y4245508D01*
X4667351Y4240936D01*
X4664557Y4235653D01*
X4662779Y4229912D01*
X4662170Y4223512D01*
G37*
G36*
X4308500Y4204919D02*
G01*
X4367580Y4204919D01*
X4367580Y4223512D01*
X4366971Y4229912D01*
X4365193Y4235653D01*
X4362399Y4240936D01*
X4358589Y4245508D01*
X4354017Y4249318D01*
X4348734Y4252112D01*
X4342993Y4253890D01*
X4336592Y4254500D01*
X4308500Y4254500D01*
G37*
G36*
X5286400Y4204919D02*
G01*
X5345480Y4204919D01*
X5345480Y4223512D01*
X5344871Y4229912D01*
X5343093Y4235653D01*
X5340299Y4240936D01*
X5336489Y4245508D01*
X5331917Y4249318D01*
X5326634Y4252112D01*
X5320893Y4253890D01*
X5314492Y4254500D01*
X5286400Y4254500D01*
G37*
G36*
X4166870Y4204919D02*
G01*
X4225950Y4204919D01*
X4225950Y4254500D01*
X4197858Y4254500D01*
X4191457Y4253890D01*
X4185716Y4252112D01*
X4180433Y4249318D01*
X4175861Y4245508D01*
X4172051Y4240936D01*
X4169257Y4235653D01*
X4167479Y4229912D01*
X4166870Y4223512D01*
G37*
G36*
X5658358Y4305249D02*
G01*
X5797092Y4305249D01*
X5803493Y4305858D01*
X5809234Y4307636D01*
X5814517Y4310430D01*
X5819089Y4314240D01*
X5822899Y4318812D01*
X5825693Y4324096D01*
X5827471Y4329836D01*
X5828080Y4336237D01*
X5828080Y4436872D01*
X5827471Y4443272D01*
X5825693Y4449013D01*
X5822899Y4454296D01*
X5819089Y4458868D01*
X5814517Y4462678D01*
X5809234Y4465472D01*
X5803493Y4467250D01*
X5797092Y4467860D01*
X5787948Y4467860D01*
X5783935Y4468672D01*
X5780582Y4471009D01*
X5778398Y4474464D01*
X5777788Y4478528D01*
X5778804Y4482490D01*
X5781294Y4485690D01*
X5790133Y4490516D01*
X5794756Y4494326D01*
X5798566Y4498949D01*
X5801360Y4504182D01*
X5803087Y4509922D01*
X5803747Y4516323D01*
X5803747Y4653026D01*
X5803087Y4659477D01*
X5801360Y4665218D01*
X5798566Y4670450D01*
X5794756Y4675073D01*
X5790133Y4678883D01*
X5784900Y4681677D01*
X5779160Y4683404D01*
X5772708Y4684064D01*
X5660491Y4684064D01*
X5654040Y4683404D01*
X5648299Y4681677D01*
X5643067Y4678883D01*
X5638444Y4675073D01*
X5634634Y4670450D01*
X5631840Y4665218D01*
X5630113Y4659477D01*
X5629452Y4653026D01*
X5629452Y4516323D01*
X5630113Y4509922D01*
X5631840Y4504182D01*
X5634634Y4498949D01*
X5638444Y4494326D01*
X5643067Y4490516D01*
X5648299Y4487722D01*
X5651855Y4486656D01*
X5655564Y4484573D01*
X5658154Y4481118D01*
X5659018Y4476902D01*
X5658154Y4472736D01*
X5655564Y4469282D01*
X5651855Y4467199D01*
X5646216Y4465472D01*
X5640933Y4462678D01*
X5636361Y4458868D01*
X5632551Y4454296D01*
X5629757Y4449013D01*
X5627979Y4443272D01*
X5627370Y4436872D01*
X5627370Y4336237D01*
X5627979Y4329836D01*
X5629757Y4324096D01*
X5632551Y4318812D01*
X5636361Y4314240D01*
X5640933Y4310430D01*
X5646216Y4307636D01*
X5651957Y4305858D01*
G37*
G36*
X4197858Y4305249D02*
G01*
X4336592Y4305249D01*
X4342993Y4305858D01*
X4348734Y4307636D01*
X4354017Y4310430D01*
X4358589Y4314240D01*
X4362399Y4318812D01*
X4365193Y4324096D01*
X4366971Y4329836D01*
X4367580Y4336237D01*
X4367580Y4436872D01*
X4366971Y4443272D01*
X4365193Y4449013D01*
X4362399Y4454296D01*
X4358589Y4458868D01*
X4354017Y4462678D01*
X4348734Y4465472D01*
X4342993Y4467250D01*
X4336592Y4467860D01*
X4314748Y4467860D01*
X4310735Y4468672D01*
X4307382Y4471009D01*
X4305198Y4474464D01*
X4304588Y4478528D01*
X4305604Y4482490D01*
X4308094Y4485690D01*
X4316933Y4490516D01*
X4321556Y4494326D01*
X4325366Y4498949D01*
X4328160Y4504182D01*
X4329887Y4509922D01*
X4330547Y4516323D01*
X4330547Y4653026D01*
X4329887Y4659477D01*
X4328160Y4665218D01*
X4325366Y4670450D01*
X4321556Y4675073D01*
X4316933Y4678883D01*
X4311700Y4681677D01*
X4305960Y4683404D01*
X4299508Y4684064D01*
X4187291Y4684064D01*
X4180840Y4683404D01*
X4175099Y4681677D01*
X4169867Y4678883D01*
X4165244Y4675073D01*
X4161434Y4670450D01*
X4158640Y4665218D01*
X4156913Y4659477D01*
X4156252Y4653026D01*
X4156252Y4516323D01*
X4156913Y4509922D01*
X4158640Y4504182D01*
X4161434Y4498949D01*
X4165244Y4494326D01*
X4169867Y4490516D01*
X4175099Y4487722D01*
X4180687Y4485995D01*
X4184446Y4483912D01*
X4186986Y4480509D01*
X4187901Y4476292D01*
X4187901Y4472736D01*
X4187240Y4469180D01*
X4185361Y4466031D01*
X4182516Y4463796D01*
X4180433Y4462678D01*
X4175861Y4458868D01*
X4172051Y4454296D01*
X4169257Y4449013D01*
X4167479Y4443272D01*
X4166870Y4436872D01*
X4166870Y4336237D01*
X4167479Y4329836D01*
X4169257Y4324096D01*
X4172051Y4318812D01*
X4175861Y4314240D01*
X4180433Y4310430D01*
X4185716Y4307636D01*
X4191457Y4305858D01*
G37*
G36*
X4210050Y4729226D02*
G01*
X4210050Y4781550D01*
X4157726Y4781550D01*
X4162094Y4772660D01*
X4169867Y4761077D01*
X4179062Y4750562D01*
X4189577Y4741367D01*
X4201160Y4733594D01*
G37*
G36*
X4298950Y4729226D02*
G01*
X4307840Y4733594D01*
X4319422Y4741367D01*
X4329938Y4750562D01*
X4339132Y4761077D01*
X4346905Y4772660D01*
X4351274Y4781550D01*
X4298950Y4781550D01*
G37*
G36*
X4157726Y4870450D02*
G01*
X4210050Y4870450D01*
X4210050Y4871415D01*
X4193489Y4871415D01*
X4189628Y4872177D01*
X4186326Y4874412D01*
X4184091Y4877714D01*
X4183329Y4881575D01*
X4183329Y4950307D01*
X4130852Y4950307D01*
X4130852Y4922723D01*
X4131513Y4916322D01*
X4133240Y4910582D01*
X4136034Y4905349D01*
X4139844Y4900726D01*
X4144467Y4896916D01*
X4149699Y4894122D01*
X4155389Y4892395D01*
X4159199Y4890262D01*
X4161739Y4886706D01*
X4162551Y4882438D01*
X4161536Y4878171D01*
G37*
G36*
X5060950Y4894326D02*
G01*
X5069840Y4898694D01*
X5081422Y4906467D01*
X5091938Y4915662D01*
X5101132Y4926177D01*
X5108905Y4937760D01*
X5113274Y4946650D01*
X5060950Y4946650D01*
G37*
G36*
X4130852Y5031892D02*
G01*
X4183329Y5031892D01*
X4183329Y5090464D01*
X4161891Y5090464D01*
X4155440Y5089804D01*
X4149699Y5088077D01*
X4144467Y5085283D01*
X4139844Y5081473D01*
X4136034Y5076850D01*
X4133240Y5071618D01*
X4131513Y5065877D01*
X4130852Y5059426D01*
G37*
G36*
X4252671Y5031892D02*
G01*
X4305147Y5031892D01*
X4305147Y5059426D01*
X4304487Y5065877D01*
X4302760Y5071618D01*
X4299966Y5076850D01*
X4296156Y5081473D01*
X4291533Y5085283D01*
X4286300Y5088077D01*
X4280560Y5089804D01*
X4274108Y5090464D01*
X4252671Y5090464D01*
G37*
G36*
X5060950Y5035550D02*
G01*
X5113274Y5035550D01*
X5108905Y5044440D01*
X5101132Y5056022D01*
X5091938Y5066538D01*
X5081422Y5075732D01*
X5069840Y5083505D01*
X5060950Y5087874D01*
G37*

%LPD*%
D10*
X5003800Y4305300D02*
G01*
X5003800Y4368800D01*
X4849799Y4522800D01*
X4849799Y4584700D01*
X4649800Y4584700D02*
G01*
X4649800Y4430699D01*
X4693945Y4386554D01*
X4762525Y4386554D01*
X4849875Y4584700D02*
G01*
X4849875Y5143500D01*
X5143500Y5435600D01*
X5346700Y5435600D01*
X5448300Y5537200D01*
X5448300Y5651500D01*
X5397500Y5702300D01*
X5281168Y5702300D01*
X4726431Y5829300D02*
G01*
X4610100Y5829300D01*
X4559300Y5778500D01*
X4559300Y5435600D01*
X4330700Y5207000D01*
X4140200Y5207000D01*
X4000500Y5067300D01*
X4000500Y4229100D01*
X4305300Y3924300D01*
X5702300Y3924300D01*
X5930900Y4152900D01*
X5930900Y4584700D01*
X5916675Y4584700D01*
X5319775Y4584700D02*
G01*
X5319775Y4649723D01*
X5232400Y4737100D01*
X5232400Y5207000D01*
X5537200Y5511800D01*
X5537200Y5740400D01*
X5448300Y5829300D01*
X5281168Y5829300D01*
X5281168Y5575300D02*
G01*
X5130800Y5575300D01*
X4762500Y5207000D01*
X4762500Y4838700D01*
X4699000Y4775200D01*
X4495800Y4775200D01*
X4443475Y4722876D01*
X4443475Y4584700D01*
X5727725Y4386554D02*
G01*
X5716600Y4397679D01*
X5716600Y4584700D01*
X5461000Y4305300D02*
G01*
X5461000Y4406900D01*
X5319699Y4548200D01*
X5319699Y4584700D01*
X4521200Y4305300D02*
G01*
X4470400Y4356100D01*
X4470400Y4584700D01*
X4443399Y4584700D01*
X5854700Y5435600D02*
G01*
X5994400Y5435600D01*
X4127500Y5854700D02*
G01*
X4151299Y5878499D01*
X4305300Y5878499D01*
X4267225Y4386554D02*
G01*
X4243400Y4410379D01*
X4243400Y4584700D01*
X5245125Y4386554D02*
G01*
X5119700Y4511979D01*
X5119700Y4584700D01*
X5396484Y4991100D02*
G01*
X5396484Y4903215D01*
X5473700Y4826000D01*
X5816600Y4826000D01*
X5994400Y5003800D01*
X5994400Y5003800D02*
G01*
X5994400Y5715000D01*
X5830900Y5878499D01*
X5702300Y5878499D01*
X4636515Y5195315D02*
G01*
X4636515Y4991100D01*
X4417999Y4991100D02*
G01*
X4636515Y4991100D01*
X4726559Y5956300D02*
G01*
X4483100Y5956300D01*
X4405299Y5878499D01*
X4343400Y5878499D01*
X4726431Y5956300D02*
G01*
X4864100Y5956300D01*
X4916424Y6008623D01*
X4916424Y6172200D01*
X5281040Y5956300D02*
G01*
X5473700Y5956300D01*
X5551500Y5878499D01*
X5702300Y5878499D01*
X5281040Y5956300D02*
G01*
X5194300Y5956300D01*
X5116499Y6034100D01*
X5116499Y6172200D01*
X4726559Y5702300D02*
G01*
X4851400Y5702300D01*
X4902200Y5651500D01*
X4902200Y5461000D01*
X4838700Y5397500D01*
X4838700Y5397500D02*
G01*
X4636515Y5195315D01*
D11*
G01*
X4127505Y5854700D03*
G01*
X5854705Y5435600D03*
G01*
X5702305Y5283200D03*
G01*
X4521205Y4305300D03*
G01*
X5003805Y4305300D03*
G01*
X5461005Y4305300D03*
D12*
G01*
X4726559Y5956300D03*
G01*
X4726559Y5829300D03*
G01*
X4726559Y5702300D03*
G01*
X4726559Y5575300D03*
G01*
X5281040Y5956300D03*
G01*
X5281040Y5829300D03*
G01*
X5281040Y5702300D03*
G01*
X5281040Y5575300D03*
D11*
G01*
X4418004Y4991100D03*
G01*
X4217995Y4991100D03*
G01*
X5116504Y6172200D03*
G01*
X4916495Y6172200D03*
D13*
G01*
X5702300Y5678497D03*
D14*
G01*
X5702300Y5878499D03*
D13*
G01*
X4305300Y5878502D03*
D14*
G01*
X4305300Y5678500D03*
D11*
G01*
X5916604Y4584700D03*
G01*
X5716595Y4584700D03*
G01*
X5319704Y4584700D03*
G01*
X5119695Y4584700D03*
G01*
X4849804Y4584700D03*
G01*
X4649795Y4584700D03*
G01*
X4443404Y4584700D03*
G01*
X4243395Y4584700D03*
D15*
G01*
X4267225Y4386554D03*
G01*
X4267225Y4173194D03*
G01*
X4762525Y4386554D03*
G01*
X4762525Y4173194D03*
G01*
X5245125Y4386554D03*
G01*
X5245125Y4173194D03*
G01*
X5727725Y4386554D03*
G01*
X5727725Y4173194D03*
D16*
G01*
X4636515Y4991100D03*
G01*
X5396484Y4991100D03*
D17*
G01*
X5689600Y5003800D03*
G01*
X5994400Y5003800D03*
G01*
X4406900Y5499100D03*
G01*
X4254500Y4826000D03*
G01*
X5016500Y4991100D03*
M02*
