G04 Layer: BottomSilkscreenLayer*
G04 EasyEDA v6.5.22, 2023-02-12 10:45:47*
G04 3d9444fe1cb54b23bce2806f6c367247,ed70181f279245e6aff80281ee7dc86a,10*
G04 Gerber Generator version 0.2*
G04 Scale: 100 percent, Rotated: No, Reflected: No *
G04 Dimensions in millimeters *
G04 leading zeros omitted , absolute positions ,4 integer and 5 decimal *
%FSLAX45Y45*%
%MOMM*%

%ADD10C,0.1524*%
%ADD11C,0.2540*%

%LPD*%
G36*
X5000396Y6316827D02*
G01*
X4982768Y6316675D01*
X4972507Y6315964D01*
X4967478Y6314490D01*
X4965649Y6311900D01*
X4963312Y6300978D01*
X4956149Y6262573D01*
X4953914Y6252006D01*
X4951831Y6249924D01*
X4947005Y6246876D01*
X4940249Y6243218D01*
X4932375Y6239357D01*
X4924247Y6235700D01*
X4916678Y6232601D01*
X4910429Y6230518D01*
X4906467Y6229705D01*
X4903216Y6231229D01*
X4896459Y6235242D01*
X4876139Y6248603D01*
X4848555Y6267450D01*
X4800142Y6219037D01*
X4828082Y6178600D01*
X4831232Y6173571D01*
X4833569Y6169152D01*
X4835042Y6165189D01*
X4835702Y6161379D01*
X4835601Y6157518D01*
X4834737Y6153302D01*
X4833112Y6148578D01*
X4827625Y6136538D01*
X4816449Y6113373D01*
X4751832Y6101943D01*
X4750765Y6060236D01*
X4750714Y6047028D01*
X4751222Y6042304D01*
X4752238Y6038646D01*
X4754016Y6035751D01*
X4756607Y6033566D01*
X4760214Y6031839D01*
X4764989Y6030417D01*
X4778705Y6027775D01*
X4815636Y6021222D01*
X4823155Y6003950D01*
X4828895Y5990082D01*
X4837125Y5969203D01*
X4799787Y5914948D01*
X4848098Y5866638D01*
X4882997Y5890564D01*
X4891684Y5896000D01*
X4898186Y5899708D01*
X4901539Y5901080D01*
X4903774Y5900623D01*
X4907280Y5899454D01*
X4920488Y5893511D01*
X4924298Y5892292D01*
X4927142Y5891885D01*
X4928666Y5892444D01*
X4934204Y5904941D01*
X4957724Y5961634D01*
X4968036Y5987288D01*
X4972304Y5998768D01*
X4971237Y6000546D01*
X4968189Y6003798D01*
X4953660Y6017056D01*
X4949596Y6021120D01*
X4945989Y6025134D01*
X4942840Y6029198D01*
X4940147Y6033262D01*
X4937861Y6037478D01*
X4935982Y6041796D01*
X4934508Y6046317D01*
X4933391Y6051042D01*
X4932578Y6055969D01*
X4932121Y6061252D01*
X4931968Y6066840D01*
X4932273Y6073444D01*
X4933137Y6079896D01*
X4934508Y6086144D01*
X4936439Y6092088D01*
X4938826Y6097778D01*
X4941722Y6103213D01*
X4945075Y6108293D01*
X4948885Y6113018D01*
X4953101Y6117437D01*
X4957724Y6121400D01*
X4962702Y6125006D01*
X4968087Y6128156D01*
X4973777Y6130848D01*
X4979771Y6133084D01*
X4986121Y6134760D01*
X4992725Y6135979D01*
X4999228Y6136487D01*
X5005781Y6136233D01*
X5012385Y6135217D01*
X5018887Y6133592D01*
X5025288Y6131255D01*
X5031536Y6128359D01*
X5037480Y6124854D01*
X5043068Y6120790D01*
X5048300Y6116269D01*
X5053076Y6111240D01*
X5057343Y6105753D01*
X5061000Y6099860D01*
X5065115Y6091682D01*
X5067604Y6084417D01*
X5068773Y6076645D01*
X5068976Y6066840D01*
X5068773Y6061202D01*
X5068316Y6055969D01*
X5067503Y6050991D01*
X5066334Y6046317D01*
X5064810Y6041796D01*
X5062880Y6037478D01*
X5060594Y6033262D01*
X5057851Y6029096D01*
X5054650Y6025032D01*
X5050993Y6020917D01*
X5046878Y6016752D01*
X5027625Y5999784D01*
X5060391Y5919317D01*
X5065928Y5906160D01*
X5069992Y5897727D01*
X5071618Y5894984D01*
X5073040Y5893104D01*
X5074412Y5892038D01*
X5075783Y5891580D01*
X5077155Y5891682D01*
X5080406Y5893104D01*
X5084673Y5895441D01*
X5093512Y5899454D01*
X5097018Y5900623D01*
X5099304Y5901080D01*
X5102656Y5899759D01*
X5109108Y5896051D01*
X5117744Y5890615D01*
X5152339Y5866841D01*
X5201158Y5914796D01*
X5163667Y5969203D01*
X5177637Y6003899D01*
X5185105Y6021019D01*
X5235397Y6030417D01*
X5240375Y6031890D01*
X5244134Y6033617D01*
X5246827Y6035802D01*
X5248605Y6038646D01*
X5249672Y6042304D01*
X5250129Y6046978D01*
X5250230Y6052820D01*
X5249011Y6101943D01*
X5184394Y6113272D01*
X5173167Y6136487D01*
X5167731Y6148578D01*
X5166106Y6153302D01*
X5165191Y6157518D01*
X5165090Y6161379D01*
X5165801Y6165189D01*
X5167274Y6169152D01*
X5169611Y6173571D01*
X5176774Y6184544D01*
X5200650Y6219037D01*
X5152288Y6267399D01*
X5113426Y6241237D01*
X5104079Y6235242D01*
X5097322Y6231229D01*
X5094173Y6229705D01*
X5090109Y6230467D01*
X5083911Y6232601D01*
X5076342Y6235649D01*
X5060543Y6243015D01*
X5053838Y6246672D01*
X5049062Y6249670D01*
X5046980Y6251803D01*
X5044694Y6262471D01*
X5037480Y6300978D01*
X5035143Y6311900D01*
X5033314Y6314490D01*
X5028336Y6315964D01*
X5018024Y6316675D01*
G37*
D10*
X4089400Y5779515D02*
G01*
X4089400Y5670550D01*
X4089400Y5779515D02*
G01*
X4042663Y5779515D01*
X4027170Y5774436D01*
X4021836Y5769102D01*
X4016756Y5758687D01*
X4016756Y5748273D01*
X4021836Y5737860D01*
X4027170Y5732779D01*
X4042663Y5727700D01*
X4089400Y5727700D02*
G01*
X4042663Y5727700D01*
X4027170Y5722365D01*
X4021836Y5717286D01*
X4016756Y5706871D01*
X4016756Y5691123D01*
X4021836Y5680710D01*
X4027170Y5675629D01*
X4042663Y5670550D01*
X4089400Y5670550D01*
X3982465Y5758687D02*
G01*
X3972052Y5764021D01*
X3956304Y5779515D01*
X3956304Y5670550D01*
D11*
X4588931Y5775474D02*
G01*
X4217001Y5770031D01*
X3953931Y5497888D01*
X3953931Y5283804D01*
X6052139Y5291127D02*
G01*
X6050869Y5509567D01*
X5774009Y5773727D01*
X5415267Y5773727D01*
X5497657Y4283806D02*
G01*
X5592579Y4229227D01*
X5638299Y4248277D01*
X6051049Y4630546D01*
X6053589Y4719446D01*
X3954912Y4720686D02*
G01*
X3954912Y4633442D01*
X4395602Y4232122D01*
X4509902Y4279112D01*
M02*
