G04 Layer: TopSolderMaskLayer*
G04 EasyEDA v6.5.22, 2023-02-12 10:45:47*
G04 3d9444fe1cb54b23bce2806f6c367247,ed70181f279245e6aff80281ee7dc86a,10*
G04 Gerber Generator version 0.2*
G04 Scale: 100 percent, Rotated: No, Reflected: No *
G04 Dimensions in millimeters *
G04 leading zeros omitted , absolute positions ,4 integer and 5 decimal *
%FSLAX45Y45*%
%MOMM*%

%AMMACRO1*1,1,$1,$2,$3*1,1,$1,$4,$5*1,1,$1,0-$2,0-$3*1,1,$1,0-$4,0-$5*20,1,$1,$2,$3,$4,$5,0*20,1,$1,$4,$5,0-$2,0-$3,0*20,1,$1,0-$2,0-$3,0-$4,0-$5,0*20,1,$1,0-$4,0-$5,$2,$3,0*4,1,4,$2,$3,$4,$5,0-$2,0-$3,0-$4,0-$5,$2,$3,0*%
%ADD10C,0.2000*%
%ADD11O,2.1466048X0.68961*%
%ADD12MACRO1,0.1016X0.6985X0.508X0.6985X-0.508*%
%ADD13MACRO1,0.1016X-0.7X-0.75X-0.7X0.75*%
%ADD14MACRO1,0.1016X-0.5663X-0.6885X-0.5663X0.6885*%
%ADD15MACRO1,0.1016X0.5663X-0.6885X0.5663X0.6885*%
%ADD16MACRO1,0.1016X-0.675X0.705X0.675X0.705*%
%ADD17MACRO1,0.1016X-0.675X-0.705X0.675X-0.705*%
%ADD18MACRO1,0.1016X0.675X-0.705X-0.675X-0.705*%
%ADD19MACRO1,0.1016X0.675X0.705X-0.675X0.705*%
%ADD20C,1.6256*%

%LPD*%
D10*
X3873500Y4670805D02*
G01*
X3887215Y4677410D01*
X3907536Y4697984D01*
X3907536Y4554728D01*
X4075429Y4725162D02*
G01*
X3952493Y4506976D01*
X4202175Y4697984D02*
G01*
X4133850Y4697984D01*
X4127245Y4636515D01*
X4133850Y4643373D01*
X4154424Y4650231D01*
X4174743Y4650231D01*
X4195318Y4643373D01*
X4209034Y4629657D01*
X4215891Y4609337D01*
X4215891Y4595621D01*
X4209034Y4575302D01*
X4195318Y4561586D01*
X4174743Y4554728D01*
X4154424Y4554728D01*
X4133850Y4561586D01*
X4127245Y4568444D01*
X4120388Y4582160D01*
X4375658Y4663947D02*
G01*
X4375658Y4670805D01*
X4382515Y4684268D01*
X4389374Y4691126D01*
X4402836Y4697984D01*
X4430268Y4697984D01*
X4443729Y4691126D01*
X4450588Y4684268D01*
X4457445Y4670805D01*
X4457445Y4657089D01*
X4450588Y4643373D01*
X4436872Y4623054D01*
X4368800Y4554728D01*
X4464304Y4554728D01*
X4631943Y4725162D02*
G01*
X4509261Y4506976D01*
X4676902Y4670805D02*
G01*
X4690618Y4677410D01*
X4711191Y4697984D01*
X4711191Y4554728D01*
X4797043Y4697984D02*
G01*
X4776470Y4691126D01*
X4763008Y4670805D01*
X4756150Y4636515D01*
X4756150Y4616195D01*
X4763008Y4582160D01*
X4776470Y4561586D01*
X4797043Y4554728D01*
X4810506Y4554728D01*
X4831079Y4561586D01*
X4844795Y4582160D01*
X4851400Y4616195D01*
X4851400Y4636515D01*
X4844795Y4670805D01*
X4831079Y4691126D01*
X4810506Y4697984D01*
X4797043Y4697984D01*
X5033772Y4697984D02*
G01*
X4965700Y4602479D01*
X5068061Y4602479D01*
X5033772Y4697984D02*
G01*
X5033772Y4554728D01*
X5235702Y4725162D02*
G01*
X5113020Y4506976D01*
X5287518Y4663947D02*
G01*
X5287518Y4670805D01*
X5294375Y4684268D01*
X5301234Y4691126D01*
X5314695Y4697984D01*
X5342127Y4697984D01*
X5355590Y4691126D01*
X5362447Y4684268D01*
X5369306Y4670805D01*
X5369306Y4657089D01*
X5362447Y4643373D01*
X5348986Y4623054D01*
X5280659Y4554728D01*
X5376163Y4554728D01*
X5462015Y4697984D02*
G01*
X5441695Y4691126D01*
X5427979Y4670805D01*
X5421122Y4636515D01*
X5421122Y4616195D01*
X5427979Y4582160D01*
X5441695Y4561586D01*
X5462015Y4554728D01*
X5475731Y4554728D01*
X5496052Y4561586D01*
X5509768Y4582160D01*
X5516625Y4616195D01*
X5516625Y4636515D01*
X5509768Y4670805D01*
X5496052Y4691126D01*
X5475731Y4697984D01*
X5462015Y4697984D01*
X5660136Y4697984D02*
G01*
X5639815Y4691126D01*
X5632958Y4677410D01*
X5632958Y4663947D01*
X5639815Y4650231D01*
X5653277Y4643373D01*
X5680709Y4636515D01*
X5701029Y4629657D01*
X5714745Y4616195D01*
X5721604Y4602479D01*
X5721604Y4582160D01*
X5714745Y4568444D01*
X5707888Y4561586D01*
X5687568Y4554728D01*
X5660136Y4554728D01*
X5639815Y4561586D01*
X5632958Y4568444D01*
X5626100Y4582160D01*
X5626100Y4602479D01*
X5632958Y4616195D01*
X5646674Y4629657D01*
X5666993Y4636515D01*
X5694172Y4643373D01*
X5707888Y4650231D01*
X5714745Y4663947D01*
X5714745Y4677410D01*
X5707888Y4691126D01*
X5687568Y4697984D01*
X5660136Y4697984D01*
X5889243Y4725162D02*
G01*
X5766561Y4506976D01*
X6002527Y4697984D02*
G01*
X5934202Y4602479D01*
X6036563Y4602479D01*
X6002527Y4697984D02*
G01*
X6002527Y4554728D01*
X6122415Y4697984D02*
G01*
X6102095Y4691126D01*
X6088379Y4670805D01*
X6081522Y4636515D01*
X6081522Y4616195D01*
X6088379Y4582160D01*
X6102095Y4561586D01*
X6122415Y4554728D01*
X6136131Y4554728D01*
X6156452Y4561586D01*
X6170168Y4582160D01*
X6177025Y4616195D01*
X6177025Y4636515D01*
X6170168Y4670805D01*
X6156452Y4691126D01*
X6136131Y4697984D01*
X6122415Y4697984D01*
D11*
G01*
X4726559Y5956300D03*
G01*
X4726559Y5829300D03*
G01*
X4726559Y5702300D03*
G01*
X4726559Y5575300D03*
G01*
X5281040Y5956300D03*
G01*
X5281040Y5829300D03*
G01*
X5281040Y5702300D03*
G01*
X5281040Y5575300D03*
D12*
G01*
X4267225Y4386554D03*
G01*
X4267225Y4173194D03*
G01*
X4762525Y4386554D03*
G01*
X4762525Y4173194D03*
G01*
X5245125Y4386554D03*
G01*
X5245125Y4173194D03*
G01*
X5727725Y4386554D03*
G01*
X5727725Y4173194D03*
D13*
G01*
X4636508Y4991096D03*
G01*
X5396494Y4991096D03*
D14*
G01*
X4418004Y4991100D03*
D15*
G01*
X4217995Y4991100D03*
D14*
G01*
X5116504Y6172200D03*
D15*
G01*
X4916495Y6172200D03*
D16*
G01*
X5702300Y5678497D03*
D17*
G01*
X5702300Y5878502D03*
D18*
G01*
X4305300Y5878502D03*
D19*
G01*
X4305300Y5678497D03*
D20*
G01*
X5041900Y4330700D03*
G01*
X5689600Y5003800D03*
G01*
X5994400Y5003800D03*
G01*
X4406900Y5499100D03*
G01*
X4254500Y4826000D03*
M02*
