G04 Layer: BottomSolderMaskLayer*
G04 EasyEDA v6.5.22, 2022-11-24 10:27:38*
G04 c2ffbf048bd549cebe30352b3eb0f613,ed70181f279245e6aff80281ee7dc86a,10*
G04 Gerber Generator version 0.2*
G04 Scale: 100 percent, Rotated: No, Reflected: No *
G04 Dimensions in millimeters *
G04 leading zeros omitted , absolute positions ,4 integer and 5 decimal *
%FSLAX45Y45*%
%MOMM*%

%AMMACRO1*1,1,$1,$2,$3*1,1,$1,$4,$5*1,1,$1,0-$2,0-$3*1,1,$1,0-$4,0-$5*20,1,$1,$2,$3,$4,$5,0*20,1,$1,$4,$5,0-$2,0-$3,0*20,1,$1,0-$2,0-$3,0-$4,0-$5,0*20,1,$1,0-$4,0-$5,$2,$3,0*4,1,4,$2,$3,$4,$5,0-$2,0-$3,0-$4,0-$5,$2,$3,0*%
%ADD10C,0.1524*%
%ADD11C,0.1520*%
%ADD12MACRO1,0.1016X-0.8001X0.8001X-0.8001X-0.8001*%
%ADD13C,1.7018*%
%ADD14MACRO1,0.1016X0.508X0.6985X-0.508X0.6985*%
%ADD15MACRO1,0.1016X0.7X-0.75X0.7X0.75*%
%ADD16C,1.7272*%
%ADD17C,0.0132*%

%LPD*%
G36*
X5521248Y5811012D02*
G01*
X5521248Y5541010D01*
X5538978Y5536539D01*
X5547309Y5535168D01*
X5556707Y5534710D01*
X5566156Y5535168D01*
X5574436Y5536539D01*
X5581548Y5538724D01*
X5584240Y5540095D01*
X5586476Y5541873D01*
X5588203Y5544159D01*
X5589574Y5547156D01*
X5590590Y5550916D01*
X5591302Y5555640D01*
X5591759Y5561482D01*
X5592165Y5576976D01*
X5592216Y5632907D01*
X5748731Y5632856D01*
X5788761Y5632500D01*
X5822137Y5631789D01*
X5846622Y5630875D01*
X5854801Y5630316D01*
X5861253Y5629452D01*
X5861710Y5629148D01*
X5860288Y5624830D01*
X5856325Y5615889D01*
X5850534Y5603646D01*
X5843473Y5589422D01*
X5836513Y5574690D01*
X5833872Y5568340D01*
X5831840Y5562600D01*
X5830468Y5557469D01*
X5829655Y5552897D01*
X5829452Y5548884D01*
X5829858Y5545429D01*
X5830874Y5542432D01*
X5832551Y5539943D01*
X5834888Y5537962D01*
X5837834Y5536336D01*
X5841441Y5535117D01*
X5845657Y5534304D01*
X5850585Y5533847D01*
X5861456Y5533796D01*
X5870448Y5534304D01*
X5874308Y5534914D01*
X5877915Y5535879D01*
X5881319Y5537301D01*
X5884672Y5539232D01*
X5888075Y5541772D01*
X5891530Y5544972D01*
X5895238Y5548985D01*
X5903671Y5559552D01*
X5914136Y5574182D01*
X5937605Y5608726D01*
X5945530Y5621274D01*
X5951474Y5631942D01*
X5953760Y5636818D01*
X5957214Y5646064D01*
X5958433Y5650687D01*
X5960059Y5660339D01*
X5960821Y5671159D01*
X5960973Y5677255D01*
X5960973Y5725109D01*
X5592927Y5725109D01*
X5588660Y5806694D01*
G37*
G36*
X5721908Y5473293D02*
G01*
X5686704Y5472887D01*
X5673191Y5472379D01*
X5661710Y5471566D01*
X5651804Y5470296D01*
X5642914Y5468569D01*
X5634634Y5466283D01*
X5626455Y5463336D01*
X5617870Y5459679D01*
X5597398Y5449874D01*
X5584494Y5443169D01*
X5572810Y5436260D01*
X5562295Y5429097D01*
X5557469Y5425440D01*
X5548630Y5417769D01*
X5540857Y5409742D01*
X5537352Y5405526D01*
X5534101Y5401208D01*
X5531104Y5396738D01*
X5525820Y5387340D01*
X5523484Y5382412D01*
X5519572Y5371998D01*
X5517896Y5366512D01*
X5515203Y5354980D01*
X5513324Y5342534D01*
X5512155Y5329174D01*
X5511731Y5316423D01*
X5590387Y5316423D01*
X5590692Y5321604D01*
X5591556Y5326684D01*
X5592927Y5331561D01*
X5594858Y5336286D01*
X5597296Y5340858D01*
X5600242Y5345226D01*
X5603697Y5349341D01*
X5607608Y5353253D01*
X5611977Y5356910D01*
X5616803Y5360263D01*
X5622086Y5363413D01*
X5627776Y5366207D01*
X5633923Y5368696D01*
X5640425Y5370880D01*
X5646318Y5372404D01*
X5653024Y5373725D01*
X5660288Y5374843D01*
X5667908Y5375706D01*
X5683199Y5376672D01*
X5690412Y5376672D01*
X5697067Y5376367D01*
X5727446Y5374030D01*
X5663438Y5310581D01*
X5646216Y5294223D01*
X5633262Y5282996D01*
X5628081Y5279186D01*
X5623661Y5276392D01*
X5619851Y5274564D01*
X5616498Y5273649D01*
X5613501Y5273598D01*
X5610809Y5274208D01*
X5608218Y5275529D01*
X5603138Y5280304D01*
X5598261Y5287568D01*
X5594197Y5296357D01*
X5591454Y5305704D01*
X5590590Y5311140D01*
X5590387Y5316423D01*
X5511731Y5316423D01*
X5511698Y5307634D01*
X5512257Y5294020D01*
X5513476Y5281269D01*
X5515457Y5269382D01*
X5518200Y5258308D01*
X5521373Y5248910D01*
X5737606Y5248910D01*
X5801868Y5313883D01*
X5816803Y5328361D01*
X5830468Y5341061D01*
X5842254Y5351424D01*
X5851550Y5358892D01*
X5855055Y5361381D01*
X5857697Y5362905D01*
X5859373Y5363413D01*
X5863590Y5362143D01*
X5868720Y5358790D01*
X5874054Y5353761D01*
X5879033Y5347665D01*
X5882843Y5341569D01*
X5885789Y5335371D01*
X5887974Y5329123D01*
X5889345Y5322874D01*
X5889853Y5316677D01*
X5889599Y5310581D01*
X5888583Y5304637D01*
X5886754Y5298897D01*
X5884113Y5293410D01*
X5880709Y5288229D01*
X5876544Y5283403D01*
X5871616Y5278983D01*
X5865012Y5274157D01*
X5861710Y5272024D01*
X5854700Y5268417D01*
X5846419Y5265369D01*
X5836158Y5262676D01*
X5823102Y5260187D01*
X5806440Y5257596D01*
X5785408Y5254802D01*
X5737606Y5248910D01*
X5521373Y5248910D01*
X5523788Y5243068D01*
X5526074Y5238343D01*
X5531307Y5229352D01*
X5534253Y5225084D01*
X5540857Y5216906D01*
X5548376Y5209286D01*
X5556910Y5202072D01*
X5561533Y5198618D01*
X5571591Y5191963D01*
X5582666Y5185613D01*
X5602681Y5175707D01*
X5610860Y5172049D01*
X5618632Y5169103D01*
X5626455Y5166715D01*
X5634837Y5164886D01*
X5644184Y5163515D01*
X5654954Y5162550D01*
X5667705Y5161889D01*
X5700776Y5161330D01*
X5755538Y5161330D01*
X5790133Y5161788D01*
X5803900Y5162245D01*
X5815736Y5162956D01*
X5825998Y5163972D01*
X5835040Y5165242D01*
X5843117Y5166918D01*
X5850686Y5168900D01*
X5857951Y5171389D01*
X5865368Y5174284D01*
X5873191Y5177688D01*
X5885332Y5183733D01*
X5891174Y5186984D01*
X5902502Y5194096D01*
X5913170Y5201869D01*
X5923076Y5210098D01*
X5927750Y5214366D01*
X5936284Y5223256D01*
X5940247Y5227777D01*
X5947257Y5237022D01*
X5950356Y5241696D01*
X5953150Y5246420D01*
X5957773Y5255869D01*
X5959551Y5260594D01*
X5961075Y5265572D01*
X5962497Y5271617D01*
X5964936Y5285994D01*
X5966714Y5301843D01*
X5967476Y5317286D01*
X5967374Y5332526D01*
X5966460Y5346649D01*
X5964783Y5359704D01*
X5963615Y5365902D01*
X5960618Y5377586D01*
X5956655Y5388406D01*
X5954369Y5393537D01*
X5951778Y5398465D01*
X5945886Y5407863D01*
X5942533Y5412282D01*
X5935014Y5420766D01*
X5926328Y5428742D01*
X5916523Y5436260D01*
X5905449Y5443423D01*
X5893104Y5450281D01*
X5879439Y5456936D01*
X5870346Y5460949D01*
X5861761Y5464200D01*
X5853125Y5466842D01*
X5843828Y5468924D01*
X5833364Y5470550D01*
X5821172Y5471668D01*
X5806795Y5472480D01*
X5789574Y5472938D01*
G37*
G36*
X5583377Y5086502D02*
G01*
X5566816Y5086096D01*
X5553151Y5085181D01*
X5542076Y5083708D01*
X5537403Y5082743D01*
X5533288Y5081574D01*
X5529681Y5080203D01*
X5526582Y5078628D01*
X5523941Y5076850D01*
X5521655Y5074869D01*
X5519775Y5072634D01*
X5518251Y5070094D01*
X5517032Y5067350D01*
X5516067Y5064353D01*
X5514848Y5057444D01*
X5514289Y5049367D01*
X5514187Y5034432D01*
X5514340Y5024882D01*
X5515051Y5016957D01*
X5515711Y5013553D01*
X5516626Y5010556D01*
X5517896Y5007864D01*
X5519521Y5005476D01*
X5521553Y5003444D01*
X5524042Y5001666D01*
X5527090Y5000142D01*
X5530646Y4998821D01*
X5534812Y4997754D01*
X5539638Y4996891D01*
X5545175Y4996180D01*
X5558536Y4995265D01*
X5575249Y4994808D01*
X5644388Y4994452D01*
X5665876Y4993995D01*
X5684926Y4993182D01*
X5701639Y4992014D01*
X5716219Y4990439D01*
X5728766Y4988458D01*
X5739434Y4986020D01*
X5748375Y4983073D01*
X5752236Y4981397D01*
X5755690Y4979619D01*
X5758840Y4977688D01*
X5761634Y4975656D01*
X5764072Y4973421D01*
X5766206Y4971084D01*
X5768086Y4968595D01*
X5769660Y4965954D01*
X5772150Y4960874D01*
X5774080Y4956048D01*
X5775350Y4951476D01*
X5775909Y4947005D01*
X5775858Y4942586D01*
X5775096Y4938115D01*
X5773572Y4933543D01*
X5771337Y4928819D01*
X5768340Y4923739D01*
X5764580Y4918354D01*
X5754573Y4906213D01*
X5732576Y4881118D01*
X5587949Y4881067D01*
X5567984Y4880864D01*
X5552440Y4880356D01*
X5540806Y4879594D01*
X5532424Y4878374D01*
X5529275Y4877562D01*
X5526735Y4876596D01*
X5524652Y4875530D01*
X5523026Y4874260D01*
X5521756Y4872837D01*
X5519928Y4869434D01*
X5518658Y4865166D01*
X5517388Y4859832D01*
X5516321Y4854194D01*
X5515508Y4848301D01*
X5514594Y4836261D01*
X5514543Y4824374D01*
X5514848Y4818735D01*
X5515406Y4813401D01*
X5516219Y4808474D01*
X5517235Y4804003D01*
X5518861Y4799330D01*
X5520029Y4797856D01*
X5521858Y4796485D01*
X5524500Y4795316D01*
X5528106Y4794199D01*
X5532882Y4793284D01*
X5538978Y4792421D01*
X5555640Y4791100D01*
X5579364Y4790135D01*
X5611418Y4789525D01*
X5653074Y4789119D01*
X5982716Y4788916D01*
X5989116Y4804918D01*
X5991961Y4812639D01*
X5993993Y4819904D01*
X5995212Y4826914D01*
X5995670Y4833772D01*
X5995314Y4840630D01*
X5994196Y4847691D01*
X5992266Y4855057D01*
X5988304Y4866132D01*
X5985764Y4871364D01*
X5984189Y4873396D01*
X5982258Y4875174D01*
X5979820Y4876647D01*
X5976772Y4877866D01*
X5972962Y4878832D01*
X5968288Y4879594D01*
X5955741Y4880559D01*
X5938062Y4881016D01*
X5873699Y4881168D01*
X5853887Y4881422D01*
X5839764Y4881981D01*
X5834532Y4882388D01*
X5830468Y4882946D01*
X5827471Y4883607D01*
X5825439Y4884470D01*
X5824220Y4885486D01*
X5823864Y4886655D01*
X5824118Y4888077D01*
X5825032Y4889703D01*
X5831332Y4897475D01*
X5834278Y4902098D01*
X5837072Y4907381D01*
X5839764Y4913223D01*
X5842254Y4919573D01*
X5844540Y4926279D01*
X5848400Y4940604D01*
X5849975Y4948021D01*
X5852261Y4962855D01*
X5852922Y4970119D01*
X5853226Y4977130D01*
X5853176Y4983835D01*
X5852769Y4990134D01*
X5851956Y4995926D01*
X5850686Y5001768D01*
X5849061Y5007457D01*
X5847130Y5013096D01*
X5844844Y5018582D01*
X5842254Y5023916D01*
X5839358Y5029149D01*
X5836158Y5034178D01*
X5832703Y5039055D01*
X5828944Y5043779D01*
X5824931Y5048300D01*
X5820613Y5052618D01*
X5816041Y5056733D01*
X5811266Y5060594D01*
X5806236Y5064252D01*
X5800953Y5067655D01*
X5793181Y5071973D01*
X5788152Y5074107D01*
X5782360Y5075986D01*
X5775604Y5077663D01*
X5767781Y5079136D01*
X5758586Y5080406D01*
X5747867Y5081524D01*
X5735421Y5082489D01*
X5704586Y5084064D01*
X5664555Y5085283D01*
X5614162Y5086350D01*
G37*
G36*
X5541772Y4732223D02*
G01*
X5524296Y4692396D01*
X5522010Y4686198D01*
X5519978Y4679950D01*
X5516626Y4667148D01*
X5514289Y4654143D01*
X5512917Y4641037D01*
X5512460Y4627930D01*
X5512562Y4621377D01*
X5512917Y4614875D01*
X5514340Y4601972D01*
X5516626Y4589373D01*
X5519775Y4577181D01*
X5523839Y4565396D01*
X5528665Y4554220D01*
X5534355Y4543704D01*
X5537504Y4538675D01*
X5540857Y4533900D01*
X5544413Y4529328D01*
X5552084Y4520895D01*
X5556199Y4517034D01*
X5560517Y4513427D01*
X5564022Y4510836D01*
X5571845Y4506061D01*
X5580735Y4501794D01*
X5590590Y4497984D01*
X5601208Y4494682D01*
X5612587Y4491837D01*
X5624525Y4489551D01*
X5636971Y4487722D01*
X5649772Y4486402D01*
X5662828Y4485589D01*
X5676036Y4485284D01*
X5689244Y4485487D01*
X5702401Y4486198D01*
X5715304Y4487418D01*
X5727954Y4489145D01*
X5740146Y4491431D01*
X5751830Y4494225D01*
X5762802Y4497527D01*
X5773064Y4501388D01*
X5777839Y4503470D01*
X5786729Y4508144D01*
X5792774Y4511802D01*
X5803696Y4519269D01*
X5808624Y4523079D01*
X5813196Y4526991D01*
X5817463Y4531055D01*
X5821426Y4535271D01*
X5828538Y4544263D01*
X5831687Y4549089D01*
X5834634Y4554169D01*
X5837428Y4559503D01*
X5842406Y4571136D01*
X5844692Y4577435D01*
X5846826Y4584090D01*
X5849315Y4594352D01*
X5850991Y4605782D01*
X5851906Y4618126D01*
X5852058Y4631080D01*
X5851499Y4644390D01*
X5850178Y4657699D01*
X5848248Y4670806D01*
X5845556Y4683353D01*
X5842254Y4695037D01*
X5838342Y4705604D01*
X5833414Y4716526D01*
X5831179Y4720640D01*
X5828893Y4723942D01*
X5826404Y4726584D01*
X5823610Y4728565D01*
X5820257Y4730038D01*
X5816295Y4731004D01*
X5811520Y4731664D01*
X5798972Y4732172D01*
X5783326Y4732070D01*
X5776518Y4731664D01*
X5770473Y4731004D01*
X5765292Y4730038D01*
X5760872Y4728768D01*
X5757214Y4727194D01*
X5754319Y4725314D01*
X5752236Y4723079D01*
X5750864Y4720488D01*
X5750255Y4717542D01*
X5750356Y4714240D01*
X5751220Y4710582D01*
X5752795Y4706518D01*
X5755081Y4702048D01*
X5758027Y4697171D01*
X5765952Y4685893D01*
X5769660Y4679950D01*
X5772861Y4674108D01*
X5775553Y4668418D01*
X5777738Y4662830D01*
X5779414Y4657293D01*
X5780582Y4651908D01*
X5781243Y4646676D01*
X5781395Y4641494D01*
X5781090Y4636465D01*
X5780227Y4631537D01*
X5778855Y4626762D01*
X5777026Y4622088D01*
X5774639Y4617567D01*
X5771743Y4613148D01*
X5768390Y4608880D01*
X5764784Y4605070D01*
X5760770Y4601514D01*
X5756351Y4598212D01*
X5751576Y4595164D01*
X5746496Y4592370D01*
X5741060Y4589830D01*
X5735370Y4587595D01*
X5729478Y4585563D01*
X5723331Y4583785D01*
X5717032Y4582261D01*
X5704027Y4580026D01*
X5697372Y4579315D01*
X5690666Y4578858D01*
X5683910Y4578654D01*
X5677154Y4578756D01*
X5670448Y4579112D01*
X5663793Y4579721D01*
X5657291Y4580636D01*
X5650839Y4581804D01*
X5644591Y4583226D01*
X5638495Y4584954D01*
X5632602Y4586986D01*
X5627014Y4589221D01*
X5621680Y4591812D01*
X5616651Y4594656D01*
X5611926Y4597755D01*
X5607608Y4601210D01*
X5603392Y4605274D01*
X5599734Y4609846D01*
X5596585Y4614875D01*
X5594045Y4620209D01*
X5591962Y4625898D01*
X5590489Y4631842D01*
X5589524Y4637989D01*
X5589066Y4644288D01*
X5589219Y4650689D01*
X5589879Y4657090D01*
X5591098Y4663541D01*
X5592876Y4669891D01*
X5595213Y4676140D01*
X5598058Y4682236D01*
X5601462Y4688078D01*
X5613349Y4704283D01*
X5616194Y4708855D01*
X5618327Y4712919D01*
X5619699Y4716475D01*
X5620359Y4719624D01*
X5620207Y4722368D01*
X5619242Y4724704D01*
X5617464Y4726635D01*
X5614924Y4728260D01*
X5611469Y4729581D01*
X5607202Y4730597D01*
X5602020Y4731308D01*
X5595975Y4731816D01*
X5581142Y4732223D01*
G37*
G36*
X5707227Y4441342D02*
G01*
X5701690Y4441291D01*
X5696305Y4440986D01*
X5691022Y4440428D01*
X5685891Y4439615D01*
X5680913Y4438548D01*
X5663133Y4434027D01*
X5663133Y4288942D01*
X5719876Y4288942D01*
X5720029Y4310684D01*
X5720689Y4326636D01*
X5721248Y4332732D01*
X5721959Y4337710D01*
X5722874Y4341622D01*
X5723991Y4344619D01*
X5725312Y4346803D01*
X5726887Y4348226D01*
X5728716Y4348988D01*
X5730849Y4349191D01*
X5735421Y4348835D01*
X5740552Y4347718D01*
X5746038Y4345990D01*
X5751728Y4343704D01*
X5757519Y4340961D01*
X5763158Y4337862D01*
X5768594Y4334510D01*
X5773572Y4331004D01*
X5778042Y4327398D01*
X5781751Y4323791D01*
X5784596Y4320286D01*
X5786374Y4316984D01*
X5788456Y4310329D01*
X5789777Y4303268D01*
X5790336Y4295902D01*
X5790234Y4288485D01*
X5789371Y4281220D01*
X5787847Y4274159D01*
X5785662Y4267606D01*
X5782767Y4261662D01*
X5780481Y4258716D01*
X5777077Y4255414D01*
X5772708Y4251909D01*
X5767527Y4248251D01*
X5761837Y4244594D01*
X5749544Y4237736D01*
X5737555Y4232249D01*
X5732119Y4230319D01*
X5727446Y4229100D01*
X5723636Y4228642D01*
X5722874Y4229862D01*
X5722162Y4233418D01*
X5721502Y4238955D01*
X5720486Y4255262D01*
X5719927Y4276801D01*
X5719876Y4288942D01*
X5663133Y4288942D01*
X5663133Y4226864D01*
X5640070Y4231284D01*
X5635091Y4232554D01*
X5629808Y4234535D01*
X5624322Y4237024D01*
X5618835Y4240022D01*
X5613552Y4243425D01*
X5608574Y4247083D01*
X5604052Y4250893D01*
X5600242Y4254804D01*
X5593638Y4262882D01*
X5591200Y4266641D01*
X5589219Y4270502D01*
X5587746Y4274667D01*
X5586679Y4279290D01*
X5586018Y4284522D01*
X5585714Y4290669D01*
X5585714Y4297832D01*
X5586679Y4316069D01*
X5588050Y4334967D01*
X5590946Y4364228D01*
X5592470Y4377385D01*
X5594045Y4388612D01*
X5597906Y4410303D01*
X5596839Y4416755D01*
X5592368Y4420819D01*
X5583834Y4423765D01*
X5575808Y4424883D01*
X5566460Y4424730D01*
X5557062Y4423460D01*
X5548680Y4421124D01*
X5545785Y4419803D01*
X5543042Y4418076D01*
X5540349Y4415993D01*
X5537758Y4413504D01*
X5535269Y4410659D01*
X5530646Y4403801D01*
X5526481Y4395622D01*
X5522823Y4386072D01*
X5519572Y4375251D01*
X5516880Y4363212D01*
X5514695Y4350054D01*
X5513070Y4335830D01*
X5512003Y4320590D01*
X5511546Y4304436D01*
X5511647Y4289247D01*
X5512460Y4276140D01*
X5513882Y4263593D01*
X5515965Y4251604D01*
X5518708Y4240174D01*
X5522061Y4229354D01*
X5526074Y4219041D01*
X5530748Y4209389D01*
X5536031Y4200296D01*
X5541924Y4191762D01*
X5548477Y4183887D01*
X5551932Y4180128D01*
X5559399Y4173169D01*
X5563311Y4169867D01*
X5571693Y4163771D01*
X5580634Y4158335D01*
X5590133Y4153458D01*
X5600242Y4149242D01*
X5610961Y4145635D01*
X5622188Y4142689D01*
X5634024Y4140403D01*
X5640171Y4139437D01*
X5652820Y4138117D01*
X5666079Y4137406D01*
X5679846Y4137355D01*
X5694172Y4138015D01*
X5708497Y4139285D01*
X5722162Y4141114D01*
X5735167Y4143603D01*
X5747461Y4146702D01*
X5759094Y4150410D01*
X5770067Y4154728D01*
X5780379Y4159707D01*
X5790031Y4165295D01*
X5798972Y4171442D01*
X5807303Y4178300D01*
X5814974Y4185716D01*
X5822035Y4193844D01*
X5828385Y4202531D01*
X5834126Y4211878D01*
X5839256Y4221886D01*
X5843727Y4232503D01*
X5845403Y4237329D01*
X5848197Y4247743D01*
X5850280Y4259173D01*
X5851652Y4271365D01*
X5852363Y4284065D01*
X5852363Y4297070D01*
X5851702Y4310126D01*
X5850382Y4323130D01*
X5848400Y4335729D01*
X5845810Y4347768D01*
X5842609Y4359046D01*
X5838748Y4369358D01*
X5836615Y4374032D01*
X5834430Y4378096D01*
X5831890Y4382058D01*
X5825947Y4389831D01*
X5818784Y4397248D01*
X5814822Y4400854D01*
X5806186Y4407662D01*
X5796737Y4414012D01*
X5786577Y4419854D01*
X5775858Y4425086D01*
X5770321Y4427524D01*
X5758992Y4431792D01*
X5747461Y4435348D01*
X5735828Y4438142D01*
X5724245Y4440072D01*
X5712815Y4441139D01*
G37*
G36*
X5882995Y4172661D02*
G01*
X5882995Y4051350D01*
X5522417Y4051350D01*
X5517591Y4029506D01*
X5516727Y4024629D01*
X5515711Y4013149D01*
X5515559Y4006951D01*
X5515965Y3994556D01*
X5516524Y3988714D01*
X5517337Y3983431D01*
X5521909Y3959148D01*
X5882995Y3959148D01*
X5882995Y3838549D01*
X5924245Y3838651D01*
X5937199Y3839413D01*
X5947816Y3840734D01*
X5951778Y3841546D01*
X5954725Y3842461D01*
X5956401Y3843426D01*
X5956960Y3845051D01*
X5957925Y3854450D01*
X5958687Y3871010D01*
X5959246Y3893870D01*
X5959602Y3921912D01*
X5959652Y3971594D01*
X5957468Y4168343D01*
G37*
G36*
X5743600Y3770376D02*
G01*
X5713526Y3769918D01*
X5699861Y3769461D01*
X5686958Y3768750D01*
X5663133Y3766616D01*
X5651957Y3765092D01*
X5641187Y3763314D01*
X5630672Y3761181D01*
X5620308Y3758692D01*
X5610047Y3755796D01*
X5599734Y3752494D01*
X5589270Y3748786D01*
X5578551Y3744569D01*
X5567476Y3739896D01*
X5555945Y3734714D01*
X5531154Y3722725D01*
X5506364Y3709873D01*
X5497626Y3704844D01*
X5488584Y3699103D01*
X5479288Y3692855D01*
X5469788Y3685997D01*
X5460136Y3678682D01*
X5440629Y3662730D01*
X5421020Y3645357D01*
X5401767Y3626916D01*
X5392369Y3617366D01*
X5378754Y3602837D01*
X5369966Y3593084D01*
X5361533Y3583279D01*
X5345887Y3563772D01*
X5338775Y3554171D01*
X5332120Y3544722D01*
X5326075Y3535527D01*
X5320639Y3526536D01*
X5314797Y3516020D01*
X5309057Y3505098D01*
X5303570Y3493820D01*
X5298287Y3482289D01*
X5293258Y3470503D01*
X5288432Y3458514D01*
X5283911Y3446424D01*
X5279644Y3434232D01*
X5275681Y3422040D01*
X5268722Y3397808D01*
X5264454Y3380028D01*
X5262067Y3368497D01*
X5260086Y3357219D01*
X5258511Y3346297D01*
X5257342Y3335731D01*
X5256631Y3325672D01*
X5255310Y3274720D01*
X5442610Y3272536D01*
X5509310Y3271215D01*
X5558942Y3269538D01*
X5574741Y3268675D01*
X5583986Y3267557D01*
X5586272Y3266287D01*
X5587695Y3264408D01*
X5588203Y3261817D01*
X5587746Y3258413D01*
X5586323Y3254044D01*
X5583936Y3248558D01*
X5580430Y3241903D01*
X5558485Y3203752D01*
X5540705Y3171748D01*
X5533999Y3158896D01*
X5528665Y3147923D01*
X5524601Y3138678D01*
X5521756Y3131007D01*
X5520029Y3124657D01*
X5519369Y3119526D01*
X5519369Y3117392D01*
X5520182Y3113735D01*
X5520893Y3112262D01*
X5521858Y3110941D01*
X5523534Y3109518D01*
X5526278Y3108248D01*
X5529884Y3107080D01*
X5534355Y3105962D01*
X5545480Y3104083D01*
X5559094Y3102559D01*
X5574639Y3101492D01*
X5591403Y3100781D01*
X5608828Y3100476D01*
X5626354Y3100527D01*
X5643372Y3101035D01*
X5659272Y3101949D01*
X5673445Y3103321D01*
X5685231Y3105048D01*
X5694172Y3107232D01*
X5697321Y3108502D01*
X5699556Y3109823D01*
X5702757Y3112871D01*
X5706567Y3117240D01*
X5710986Y3122930D01*
X5721807Y3138525D01*
X5735370Y3159810D01*
X5751728Y3186988D01*
X5771083Y3220262D01*
X5817971Y3302457D01*
X5960770Y3549954D01*
X5968898Y3563061D01*
X5976162Y3574186D01*
X5982258Y3582822D01*
X5986780Y3588359D01*
X5988354Y3589832D01*
X5989421Y3590340D01*
X5990640Y3589832D01*
X5992317Y3588410D01*
X5996990Y3582873D01*
X6003036Y3574389D01*
X6010249Y3563467D01*
X6026708Y3536442D01*
X6035344Y3521456D01*
X6051905Y3491331D01*
X6059170Y3477260D01*
X6065418Y3464610D01*
X6070244Y3453942D01*
X6073343Y3445764D01*
X6074206Y3442766D01*
X6074460Y3440633D01*
X6072936Y3436518D01*
X6061303Y3413810D01*
X6040272Y3375151D01*
X6012078Y3324351D01*
X5942939Y3202228D01*
X5902045Y3130956D01*
X5867755Y3071825D01*
X5837783Y3020669D01*
X5814263Y2981452D01*
X5805678Y2967532D01*
X5799531Y2958084D01*
X5796737Y2954172D01*
X5795416Y2953004D01*
X5793587Y2951886D01*
X5791250Y2950870D01*
X5788304Y2949905D01*
X5780582Y2948330D01*
X5770270Y2947060D01*
X5757164Y2946095D01*
X5741009Y2945434D01*
X5698896Y2944926D01*
X5608777Y2944926D01*
X5510326Y3111601D01*
X5379923Y3113989D01*
X5349697Y3113887D01*
X5337048Y3113430D01*
X5325922Y3112617D01*
X5316321Y3111398D01*
X5308244Y3109772D01*
X5301589Y3107588D01*
X5298795Y3106267D01*
X5296357Y3104794D01*
X5294274Y3103219D01*
X5292547Y3101441D01*
X5291175Y3099460D01*
X5290108Y3097377D01*
X5289346Y3095040D01*
X5288940Y3092551D01*
X5288838Y3089808D01*
X5289600Y3083763D01*
X5291632Y3076854D01*
X5294833Y3068980D01*
X5299202Y3060141D01*
X5304688Y3050184D01*
X5311292Y3039160D01*
X5327599Y3013506D01*
X5344109Y2988767D01*
X5351170Y2978962D01*
X5358485Y2969310D01*
X5369814Y2955239D01*
X5377688Y2946095D01*
X5394045Y2928467D01*
X5402529Y2919984D01*
X5411216Y2911703D01*
X5420106Y2903626D01*
X5438444Y2888081D01*
X5447842Y2880664D01*
X5457393Y2873502D01*
X5477052Y2859786D01*
X5487060Y2853283D01*
X5497271Y2847035D01*
X5512765Y2838094D01*
X5533898Y2827020D01*
X5544616Y2821838D01*
X5560923Y2814574D01*
X5582970Y2805734D01*
X5594146Y2801721D01*
X5605373Y2797962D01*
X5622391Y2792831D01*
X5633770Y2789732D01*
X5656732Y2784398D01*
X5668264Y2782112D01*
X5679846Y2780131D01*
X5703112Y2777032D01*
X5714796Y2775864D01*
X5732272Y2774696D01*
X5749798Y2774238D01*
X5761431Y2774238D01*
X5773064Y2774594D01*
X5796330Y2776169D01*
X5807862Y2777439D01*
X5819394Y2779014D01*
X5830874Y2780893D01*
X5842304Y2783078D01*
X5853684Y2785567D01*
X5865977Y2788615D01*
X5878169Y2791917D01*
X5890209Y2795473D01*
X5902096Y2799283D01*
X5913831Y2803347D01*
X5925362Y2807614D01*
X5936792Y2812135D01*
X5948070Y2816910D01*
X5959144Y2821889D01*
X5970117Y2827121D01*
X5991504Y2838297D01*
X6001918Y2844190D01*
X6022289Y2856687D01*
X6032195Y2863291D01*
X6046724Y2873552D01*
X6065418Y2888030D01*
X6074511Y2895549D01*
X6092139Y2911246D01*
X6108954Y2927756D01*
X6124956Y2945028D01*
X6136436Y2958490D01*
X6151016Y2977134D01*
X6157976Y2986684D01*
X6171285Y3006445D01*
X6183680Y3026816D01*
X6189573Y3037281D01*
X6200648Y3058718D01*
X6205829Y3069691D01*
X6213195Y3086455D01*
X6220002Y3103575D01*
X6228232Y3126943D01*
X6233769Y3144875D01*
X6240272Y3169259D01*
X6242913Y3180689D01*
X6244996Y3191306D01*
X6246723Y3202228D01*
X6248196Y3213404D01*
X6249314Y3224733D01*
X6250127Y3236315D01*
X6250686Y3248050D01*
X6250889Y3259937D01*
X6250432Y3284118D01*
X6249771Y3296361D01*
X6248806Y3308654D01*
X6246012Y3333496D01*
X6244234Y3345891D01*
X6242151Y3358337D01*
X6239764Y3370783D01*
X6237122Y3383127D01*
X6232702Y3401618D01*
X6225895Y3425850D01*
X6222085Y3437839D01*
X6218021Y3449624D01*
X6209182Y3472738D01*
X6204407Y3483965D01*
X6199378Y3494989D01*
X6194094Y3505758D01*
X6188608Y3516274D01*
X6182918Y3526536D01*
X6177432Y3535527D01*
X6171387Y3544722D01*
X6164783Y3554171D01*
X6157620Y3563772D01*
X6141974Y3583279D01*
X6133541Y3593084D01*
X6124803Y3602837D01*
X6115761Y3612540D01*
X6097016Y3631590D01*
X6087364Y3640836D01*
X6077610Y3649827D01*
X6058001Y3666896D01*
X6048248Y3674872D01*
X6038545Y3682441D01*
X6028994Y3689502D01*
X6019596Y3696055D01*
X6010402Y3702050D01*
X6001512Y3707434D01*
X5992926Y3712159D01*
X5965901Y3725926D01*
X5953556Y3731920D01*
X5941771Y3737356D01*
X5930493Y3742283D01*
X5919622Y3746703D01*
X5909005Y3750665D01*
X5898642Y3754170D01*
X5888329Y3757269D01*
X5878068Y3759962D01*
X5867654Y3762298D01*
X5856986Y3764229D01*
X5846064Y3765905D01*
X5834684Y3767226D01*
X5822746Y3768293D01*
X5796991Y3769715D01*
X5767832Y3770325D01*
G37*
D10*
X1929018Y5290553D02*
G01*
X1919927Y5263281D01*
X1901746Y5254190D01*
X1883562Y5254190D01*
X1865381Y5263281D01*
X1856290Y5281462D01*
X1847199Y5317827D01*
X1838109Y5345099D01*
X1819927Y5363281D01*
X1801746Y5372371D01*
X1774471Y5372371D01*
X1756290Y5363281D01*
X1747199Y5354190D01*
X1738109Y5326918D01*
X1738109Y5290553D01*
X1747199Y5263281D01*
X1756290Y5254190D01*
X1774471Y5245100D01*
X1801746Y5245100D01*
X1819927Y5254190D01*
X1838109Y5272371D01*
X1847199Y5299646D01*
X1856290Y5336009D01*
X1865381Y5354190D01*
X1883562Y5363281D01*
X1901746Y5363281D01*
X1919927Y5354190D01*
X1929018Y5326918D01*
X1929018Y5290553D01*
X1965380Y5596008D02*
G01*
X1674472Y5432371D01*
X1929018Y5746917D02*
G01*
X1801746Y5656008D01*
X1801746Y5792370D01*
X1929018Y5746917D02*
G01*
X1738109Y5746917D01*
X1929018Y5906917D02*
G01*
X1919927Y5879645D01*
X1892653Y5861461D01*
X1847199Y5852370D01*
X1819927Y5852370D01*
X1774471Y5861461D01*
X1747199Y5879645D01*
X1738109Y5906917D01*
X1738109Y5925098D01*
X1747199Y5952370D01*
X1774471Y5970551D01*
X1819927Y5979645D01*
X1847199Y5979645D01*
X1892653Y5970551D01*
X1919927Y5952370D01*
X1929018Y5925098D01*
X1929018Y5906917D01*
X1929018Y4497809D02*
G01*
X1801746Y4406900D01*
X1801746Y4543262D01*
X1929018Y4497809D02*
G01*
X1738109Y4497809D01*
X1965380Y4766899D02*
G01*
X1674472Y4603262D01*
X1883562Y4835989D02*
G01*
X1892653Y4835989D01*
X1910836Y4845080D01*
X1919927Y4854171D01*
X1929018Y4872352D01*
X1929018Y4908717D01*
X1919927Y4926898D01*
X1910836Y4935989D01*
X1892653Y4945080D01*
X1874471Y4945080D01*
X1856290Y4935989D01*
X1829018Y4917808D01*
X1738109Y4826899D01*
X1738109Y4954170D01*
X1929018Y5068717D02*
G01*
X1919927Y5041445D01*
X1892653Y5023261D01*
X1847199Y5014170D01*
X1819927Y5014170D01*
X1774471Y5023261D01*
X1747199Y5041445D01*
X1738109Y5068717D01*
X1738109Y5086898D01*
X1747199Y5114170D01*
X1774471Y5132351D01*
X1819927Y5141445D01*
X1847199Y5141445D01*
X1892653Y5132351D01*
X1919927Y5114170D01*
X1929018Y5086898D01*
X1929018Y5068717D01*
D11*
X1870862Y3666690D02*
G01*
X1879953Y3666690D01*
X1898136Y3675781D01*
X1907227Y3684871D01*
X1916318Y3703053D01*
X1916318Y3739418D01*
X1907227Y3757599D01*
X1898136Y3766690D01*
X1879953Y3775781D01*
X1861771Y3775781D01*
X1843590Y3766690D01*
X1816318Y3748509D01*
X1725409Y3657600D01*
X1725409Y3784871D01*
X1952680Y4008508D02*
G01*
X1661772Y3844871D01*
X1879953Y4068508D02*
G01*
X1889046Y4086689D01*
X1916318Y4113961D01*
X1725409Y4113961D01*
X1916318Y4228508D02*
G01*
X1907227Y4201236D01*
X1879953Y4183052D01*
X1834499Y4173961D01*
X1807227Y4173961D01*
X1761771Y4183052D01*
X1734499Y4201236D01*
X1725409Y4228508D01*
X1725409Y4246689D01*
X1734499Y4273961D01*
X1761771Y4292145D01*
X1807227Y4301236D01*
X1834499Y4301236D01*
X1879953Y4292145D01*
X1907227Y4273961D01*
X1916318Y4246689D01*
X1916318Y4228508D01*
X1867253Y3035300D02*
G01*
X1876346Y3053481D01*
X1903618Y3080753D01*
X1712709Y3080753D01*
X1939980Y3304390D02*
G01*
X1649072Y3140753D01*
X1903618Y3473480D02*
G01*
X1903618Y3382571D01*
X1821799Y3373480D01*
X1830890Y3382571D01*
X1839981Y3409845D01*
X1839981Y3437117D01*
X1830890Y3464389D01*
X1812709Y3482571D01*
X1785437Y3491661D01*
X1767253Y3491661D01*
X1739981Y3482571D01*
X1721799Y3464389D01*
X1712709Y3437117D01*
X1712709Y3409845D01*
X1721799Y3382571D01*
X1730890Y3373480D01*
X1749071Y3364390D01*
D12*
G01*
X4437001Y5907199D03*
D13*
G01*
X4436999Y5653201D03*
G01*
X4436999Y5399201D03*
G01*
X4436999Y5145201D03*
G01*
X3674999Y5145201D03*
G01*
X3674999Y5399201D03*
G01*
X3674999Y5653201D03*
G01*
X3674999Y5907201D03*
D14*
G01*
X2494279Y5524500D03*
G01*
X2280920Y5524500D03*
G01*
X2494279Y4762500D03*
G01*
X2280920Y4762500D03*
G01*
X2494279Y4000500D03*
G01*
X2280920Y4000500D03*
G01*
X2494279Y3238500D03*
G01*
X2280920Y3238500D03*
D15*
G01*
X4482091Y4330698D03*
G01*
X3722105Y4330698D03*
D16*
G01*
X2489200Y3441700D03*
G01*
X2286000Y3441700D03*
G01*
X2273300Y4203700D03*
G01*
X2476500Y4203700D03*
G01*
X2273300Y4965700D03*
G01*
X2476500Y4965700D03*
G01*
X2273300Y5727700D03*
G01*
X2476500Y5727700D03*
G01*
X4140200Y3479800D03*
G01*
X3898900Y4584700D03*
G01*
X4305300Y4584700D03*
M02*
