G04 Layer: TopSilkscreenLayer*
G04 EasyEDA v6.5.22, 2022-11-24 10:27:38*
G04 c2ffbf048bd549cebe30352b3eb0f613,ed70181f279245e6aff80281ee7dc86a,10*
G04 Gerber Generator version 0.2*
G04 Scale: 100 percent, Rotated: No, Reflected: No *
G04 Dimensions in millimeters *
G04 leading zeros omitted , absolute positions ,4 integer and 5 decimal *
%FSLAX45Y45*%
%MOMM*%

%ADD10C,0.1524*%
%ADD11C,0.2540*%

%LPD*%
D10*
X4622800Y4395215D02*
G01*
X4622800Y4286250D01*
X4622800Y4395215D02*
G01*
X4669536Y4395215D01*
X4685029Y4390136D01*
X4690363Y4384802D01*
X4695443Y4374387D01*
X4695443Y4363973D01*
X4690363Y4353560D01*
X4685029Y4348479D01*
X4669536Y4343400D01*
X4622800Y4343400D02*
G01*
X4669536Y4343400D01*
X4685029Y4338065D01*
X4690363Y4332986D01*
X4695443Y4322571D01*
X4695443Y4306823D01*
X4690363Y4296410D01*
X4685029Y4291329D01*
X4669536Y4286250D01*
X4622800Y4286250D01*
X4729734Y4374387D02*
G01*
X4740147Y4379721D01*
X4755895Y4395215D01*
X4755895Y4286250D01*
X4888991Y5513578D02*
G01*
X4878577Y5508244D01*
X4868163Y5497829D01*
X4863084Y5487670D01*
X4863084Y5466842D01*
X4868163Y5456428D01*
X4878577Y5446013D01*
X4888991Y5440679D01*
X4904740Y5435600D01*
X4930647Y5435600D01*
X4946141Y5440679D01*
X4956556Y5446013D01*
X4966970Y5456428D01*
X4972050Y5466842D01*
X4972050Y5487670D01*
X4966970Y5497829D01*
X4956556Y5508244D01*
X4946141Y5513578D01*
X4883911Y5547868D02*
G01*
X4878577Y5558281D01*
X4863084Y5573776D01*
X4972050Y5573776D01*
X4027677Y5004307D02*
G01*
X4022343Y5014721D01*
X4011929Y5025136D01*
X4001770Y5030215D01*
X3980941Y5030215D01*
X3970527Y5025136D01*
X3960113Y5014721D01*
X3954779Y5004307D01*
X3949700Y4988560D01*
X3949700Y4962652D01*
X3954779Y4947157D01*
X3960113Y4936744D01*
X3970527Y4926329D01*
X3980941Y4921250D01*
X4001770Y4921250D01*
X4011929Y4926329D01*
X4022343Y4936744D01*
X4027677Y4947157D01*
X4067047Y5004307D02*
G01*
X4067047Y5009387D01*
X4072381Y5019802D01*
X4077461Y5025136D01*
X4087875Y5030215D01*
X4108704Y5030215D01*
X4119118Y5025136D01*
X4124197Y5019802D01*
X4129531Y5009387D01*
X4129531Y4998973D01*
X4124197Y4988560D01*
X4113784Y4973065D01*
X4061968Y4921250D01*
X4134611Y4921250D01*
X4000500Y6135115D02*
G01*
X4000500Y6026150D01*
X4000500Y6135115D02*
G01*
X4047236Y6135115D01*
X4062729Y6130036D01*
X4068063Y6124702D01*
X4073143Y6114287D01*
X4073143Y6103873D01*
X4068063Y6093460D01*
X4062729Y6088379D01*
X4047236Y6083300D01*
X4000500Y6083300D01*
X4036822Y6083300D02*
G01*
X4073143Y6026150D01*
X4107434Y6114287D02*
G01*
X4117847Y6119621D01*
X4133595Y6135115D01*
X4133595Y6026150D01*
X3834384Y5384800D02*
G01*
X3943350Y5384800D01*
X3834384Y5384800D02*
G01*
X3834384Y5431536D01*
X3839463Y5447029D01*
X3844797Y5452363D01*
X3855211Y5457444D01*
X3865625Y5457444D01*
X3876040Y5452363D01*
X3881120Y5447029D01*
X3886200Y5431536D01*
X3886200Y5384800D01*
X3886200Y5421121D02*
G01*
X3943350Y5457444D01*
X3860291Y5497068D02*
G01*
X3855211Y5497068D01*
X3844797Y5502147D01*
X3839463Y5507481D01*
X3834384Y5517895D01*
X3834384Y5538470D01*
X3839463Y5548884D01*
X3844797Y5554218D01*
X3855211Y5559297D01*
X3865625Y5559297D01*
X3876040Y5554218D01*
X3891534Y5543804D01*
X3943350Y5491734D01*
X3943350Y5564631D01*
D11*
X4542368Y4238774D02*
G01*
X4914298Y4233331D01*
X5177368Y3961188D01*
X5177368Y3747104D01*
X3079160Y3754427D02*
G01*
X3080430Y3972867D01*
X3357290Y4237027D01*
X3716032Y4237027D01*
X3633642Y2747106D02*
G01*
X3538720Y2692527D01*
X3493000Y2711577D01*
X3080250Y3093846D01*
X3077710Y3182746D01*
X5176387Y3183986D02*
G01*
X5176387Y3096742D01*
X4735697Y2695422D01*
X4621397Y2742412D01*
D10*
X4646739Y5692919D02*
G01*
X4646739Y5551919D01*
X4827460Y5551919D02*
G01*
X4827460Y5692919D01*
X4812220Y5708159D02*
G01*
X4661979Y5708159D01*
X4646739Y5330680D02*
G01*
X4646739Y5471680D01*
X4827460Y5471680D02*
G01*
X4827460Y5330680D01*
X4812220Y5315440D02*
G01*
X4661979Y5315440D01*
X4232419Y5233860D02*
G01*
X4091419Y5233860D01*
X4091419Y5053139D02*
G01*
X4232419Y5053139D01*
X4247659Y5068379D02*
G01*
X4247659Y5218620D01*
X3870180Y5233860D02*
G01*
X4011180Y5233860D01*
X4011180Y5053139D02*
G01*
X3870180Y5053139D01*
X3854940Y5068379D02*
G01*
X3854940Y5218620D01*
X4003680Y5997209D02*
G01*
X3875186Y5997209D01*
X3875186Y5813790D01*
X4003680Y5813790D01*
X4098919Y5997209D02*
G01*
X4227413Y5997209D01*
X4227413Y5813790D01*
X4098919Y5813790D01*
X4143009Y5508619D02*
G01*
X4143009Y5637113D01*
X3959590Y5637113D01*
X3959590Y5508619D01*
X4143009Y5413380D02*
G01*
X4143009Y5284886D01*
X3959590Y5284886D01*
X3959590Y5413380D01*
G75*
G01*
X4827460Y5692920D02*
G03*
X4812221Y5708160I-15240J0D01*
G75*
G01*
X4661979Y5708160D02*
G03*
X4646740Y5692920I1J-15240D01*
G75*
G01*
X4827460Y5330680D02*
G02*
X4812221Y5315440I-15240J0D01*
G75*
G01*
X4661979Y5315440D02*
G02*
X4646740Y5330680I1J15240D01*
G75*
G01*
X4232420Y5053140D02*
G03*
X4247660Y5068380I0J15240D01*
G75*
G01*
X4247660Y5218620D02*
G03*
X4232420Y5233860I-15240J0D01*
G75*
G01*
X3870180Y5053140D02*
G02*
X3854940Y5068380I0J15240D01*
G75*
G01*
X3854940Y5218620D02*
G02*
X3870180Y5233860I15240J0D01*
M02*
