G04 Layer: TopSolderMaskLayer*
G04 EasyEDA v6.5.22, 2022-11-24 10:27:38*
G04 c2ffbf048bd549cebe30352b3eb0f613,ed70181f279245e6aff80281ee7dc86a,10*
G04 Gerber Generator version 0.2*
G04 Scale: 100 percent, Rotated: No, Reflected: No *
G04 Dimensions in millimeters *
G04 leading zeros omitted , absolute positions ,4 integer and 5 decimal *
%FSLAX45Y45*%
%MOMM*%

%AMMACRO1*1,1,$1,$2,$3*1,1,$1,$4,$5*1,1,$1,0-$2,0-$3*1,1,$1,0-$4,0-$5*20,1,$1,$2,$3,$4,$5,0*20,1,$1,$4,$5,0-$2,0-$3,0*20,1,$1,0-$2,0-$3,0-$4,0-$5,0*20,1,$1,0-$4,0-$5,$2,$3,0*4,1,4,$2,$3,$4,$5,0-$2,0-$3,0-$4,0-$5,$2,$3,0*%
%ADD10C,17.1000*%
%ADD11MACRO1,0.1X1.45X2.6X1.45X-2.6*%
%ADD12MACRO1,0.1016X0.675X-0.705X-0.675X-0.705*%
%ADD13MACRO1,0.1016X0.675X0.705X-0.675X0.705*%
%ADD14MACRO1,0.1016X-0.705X-0.675X-0.705X0.675*%
%ADD15MACRO1,0.1016X0.705X-0.675X0.705X0.675*%
%ADD16MACRO1,0.1016X0.5663X0.6885X0.5663X-0.6885*%
%ADD17MACRO1,0.1016X-0.5663X0.6885X-0.5663X-0.6885*%
%ADD18MACRO1,0.1016X0.6885X-0.5663X-0.6885X-0.5663*%
%ADD19MACRO1,0.1016X0.6885X0.5663X-0.6885X0.5663*%
%ADD20MACRO1,0.1016X-0.8001X0.8001X-0.8001X-0.8001*%
%ADD21C,1.7018*%
%ADD22C,1.7272*%
%ADD23C,0.0106*%

%LPD*%
G36*
X5870143Y5950254D02*
G01*
X5858510Y5950000D01*
X5846826Y5949442D01*
X5835142Y5948578D01*
X5823508Y5947460D01*
X5811875Y5946038D01*
X5800242Y5944311D01*
X5788660Y5942330D01*
X5765596Y5937504D01*
X5754166Y5934710D01*
X5742736Y5931611D01*
X5731408Y5928258D01*
X5720130Y5924651D01*
X5708954Y5920740D01*
X5692292Y5914440D01*
X5670448Y5905093D01*
X5659628Y5900064D01*
X5643676Y5892038D01*
X5622798Y5880455D01*
X5602427Y5867958D01*
X5582666Y5854496D01*
X5572963Y5847384D01*
X5558790Y5836361D01*
X5540502Y5820867D01*
X5531612Y5812790D01*
X5514441Y5795975D01*
X5498084Y5778347D01*
X5490210Y5769203D01*
X5478830Y5755132D01*
X5464505Y5735675D01*
X5447995Y5710936D01*
X5431637Y5685282D01*
X5425084Y5674258D01*
X5419547Y5664352D01*
X5415178Y5655462D01*
X5411978Y5647588D01*
X5409996Y5640679D01*
X5409438Y5637530D01*
X5409234Y5634634D01*
X5409336Y5631942D01*
X5409742Y5629402D01*
X5410454Y5627116D01*
X5411520Y5624982D01*
X5412943Y5623052D01*
X5414670Y5621274D01*
X5416753Y5619648D01*
X5419191Y5618175D01*
X5425135Y5615736D01*
X5432501Y5613806D01*
X5441340Y5612384D01*
X5451652Y5611368D01*
X5463590Y5610758D01*
X5477052Y5610453D01*
X5508853Y5610555D01*
X5630722Y5612841D01*
X5729173Y5779516D01*
X5831128Y5779465D01*
X5852160Y5779211D01*
X5869838Y5778703D01*
X5884468Y5777941D01*
X5896152Y5776823D01*
X5905144Y5775401D01*
X5911596Y5773623D01*
X5913983Y5772607D01*
X5915812Y5771489D01*
X5917844Y5769305D01*
X5922670Y5762244D01*
X5939790Y5734558D01*
X5965139Y5691987D01*
X5996432Y5638444D01*
X6031433Y5577890D01*
X6072428Y5506212D01*
X6120434Y5421426D01*
X6150813Y5367172D01*
X6174790Y5323484D01*
X6183731Y5306822D01*
X6191402Y5291886D01*
X6194450Y5285232D01*
X6194856Y5283860D01*
X6194552Y5281676D01*
X6192418Y5274970D01*
X6188405Y5265470D01*
X6182817Y5253736D01*
X6176060Y5240274D01*
X6160008Y5210606D01*
X6142786Y5180787D01*
X6134557Y5167223D01*
X6126886Y5155285D01*
X6120231Y5145481D01*
X6114846Y5138420D01*
X6112713Y5136083D01*
X6111036Y5134610D01*
X6109817Y5134102D01*
X6108750Y5134610D01*
X6107176Y5136083D01*
X6102654Y5141620D01*
X6096558Y5150256D01*
X6089294Y5161381D01*
X6081166Y5174488D01*
X5972302Y5363006D01*
X5881420Y5521604D01*
X5863590Y5551779D01*
X5848654Y5576011D01*
X5836462Y5594400D01*
X5831382Y5601512D01*
X5826963Y5607202D01*
X5823153Y5611571D01*
X5819952Y5614619D01*
X5817717Y5615990D01*
X5814568Y5617210D01*
X5810504Y5618378D01*
X5800039Y5620308D01*
X5786983Y5621883D01*
X5771896Y5623001D01*
X5755386Y5623712D01*
X5738012Y5624017D01*
X5720435Y5623915D01*
X5703265Y5623407D01*
X5687060Y5622493D01*
X5672429Y5621172D01*
X5659932Y5619496D01*
X5650230Y5617413D01*
X5646623Y5616194D01*
X5643930Y5614924D01*
X5642254Y5613552D01*
X5641289Y5612180D01*
X5640578Y5610707D01*
X5639765Y5607050D01*
X5639917Y5602478D01*
X5641136Y5596788D01*
X5643372Y5589778D01*
X5646826Y5581345D01*
X5651550Y5571286D01*
X5657545Y5559399D01*
X5664962Y5545531D01*
X5684266Y5511292D01*
X5700826Y5482539D01*
X5704281Y5475884D01*
X5706719Y5470448D01*
X5708142Y5466029D01*
X5708599Y5462625D01*
X5708091Y5460034D01*
X5706668Y5458155D01*
X5704382Y5456885D01*
X5697982Y5456021D01*
X5683910Y5455158D01*
X5637022Y5453430D01*
X5571998Y5452059D01*
X5375706Y5449722D01*
X5377027Y5398770D01*
X5377738Y5388711D01*
X5378856Y5378196D01*
X5380431Y5367274D01*
X5382463Y5355996D01*
X5384850Y5344414D01*
X5387594Y5332577D01*
X5394198Y5308498D01*
X5398008Y5296306D01*
X5402122Y5284114D01*
X5406542Y5271973D01*
X5411216Y5259933D01*
X5416143Y5248046D01*
X5421325Y5236362D01*
X5426710Y5224932D01*
X5432298Y5213858D01*
X5438089Y5203139D01*
X5443677Y5193487D01*
X5449417Y5184343D01*
X5455767Y5174996D01*
X5462676Y5165496D01*
X5470042Y5155844D01*
X5477865Y5146090D01*
X5486095Y5136286D01*
X5494680Y5126482D01*
X5512765Y5107076D01*
X5531713Y5088229D01*
X5541416Y5079085D01*
X5551170Y5070246D01*
X5560974Y5061712D01*
X5570778Y5053533D01*
X5580532Y5045760D01*
X5599633Y5031587D01*
X5608929Y5025339D01*
X5617972Y5019649D01*
X5626760Y5014569D01*
X5651550Y5001768D01*
X5676341Y4989728D01*
X5687872Y4984546D01*
X5698947Y4979873D01*
X5709615Y4975707D01*
X5720080Y4971948D01*
X5730443Y4968646D01*
X5740704Y4965801D01*
X5751068Y4963261D01*
X5761583Y4961128D01*
X5772353Y4959350D01*
X5783529Y4957876D01*
X5795162Y4956657D01*
X5807354Y4955692D01*
X5833872Y4954524D01*
X5863996Y4954066D01*
X5888228Y4954117D01*
X5917336Y4954727D01*
X5943142Y4956149D01*
X5955030Y4957216D01*
X5966409Y4958588D01*
X5977382Y4960213D01*
X5987999Y4962194D01*
X5998413Y4964480D01*
X6008725Y4967173D01*
X6019038Y4970272D01*
X6029401Y4973777D01*
X6039967Y4977739D01*
X6050889Y4982159D01*
X6073902Y4992522D01*
X6099403Y5005120D01*
X6113272Y5012283D01*
X6121908Y5017008D01*
X6130798Y5022392D01*
X6139992Y5028387D01*
X6149390Y5034940D01*
X6168644Y5049570D01*
X6178397Y5057546D01*
X6198006Y5074615D01*
X6207760Y5083606D01*
X6226860Y5102301D01*
X6236157Y5111902D01*
X6245199Y5121605D01*
X6262370Y5141163D01*
X6278016Y5160670D01*
X6285179Y5170271D01*
X6291783Y5179720D01*
X6297828Y5188966D01*
X6303264Y5197957D01*
X6309004Y5208168D01*
X6314490Y5218684D01*
X6319774Y5229453D01*
X6329578Y5251704D01*
X6338417Y5274818D01*
X6344412Y5292598D01*
X6348069Y5304637D01*
X6351473Y5316728D01*
X6354622Y5328970D01*
X6357518Y5341315D01*
X6360160Y5353710D01*
X6362496Y5366105D01*
X6366408Y5390997D01*
X6369202Y5415788D01*
X6370523Y5434228D01*
X6371285Y5458510D01*
X6371183Y5470499D01*
X6370828Y5482285D01*
X6370167Y5493969D01*
X6368592Y5511088D01*
X6367119Y5522214D01*
X6365341Y5533136D01*
X6363258Y5543804D01*
X6360668Y5555183D01*
X6355842Y5573572D01*
X6348628Y5597499D01*
X6344615Y5609285D01*
X6335877Y5632297D01*
X6331153Y5643626D01*
X6326225Y5654751D01*
X6318351Y5671108D01*
X6312814Y5681878D01*
X6307074Y5692394D01*
X6301079Y5702808D01*
X6288430Y5723026D01*
X6274917Y5742584D01*
X6260541Y5761380D01*
X6249212Y5774994D01*
X6233414Y5792470D01*
X6221018Y5805068D01*
X6208166Y5817209D01*
X6190386Y5832703D01*
X6171844Y5847334D01*
X6162294Y5854344D01*
X6147612Y5864504D01*
X6127445Y5877204D01*
X6117082Y5883249D01*
X6095898Y5894628D01*
X6074003Y5905093D01*
X6062827Y5909970D01*
X6040018Y5919012D01*
X6028334Y5923178D01*
X6004610Y5930798D01*
X5992469Y5934202D01*
X5974080Y5938875D01*
X5962700Y5941364D01*
X5945530Y5944565D01*
X5928258Y5947003D01*
X5916676Y5948273D01*
X5905093Y5949238D01*
X5881827Y5950204D01*
G37*
G36*
X6003340Y4885893D02*
G01*
X6003340Y4765294D01*
X5642305Y4765294D01*
X5637733Y4741062D01*
X5636920Y4735728D01*
X5636006Y4723739D01*
X5636107Y4711293D01*
X5636463Y4705350D01*
X5637123Y4699812D01*
X5637987Y4694936D01*
X5642762Y4673092D01*
X6003340Y4673092D01*
X6003340Y4551781D01*
X6077813Y4556099D01*
X6079998Y4743856D01*
X6080099Y4778654D01*
X6079947Y4809947D01*
X6079540Y4836820D01*
X6078880Y4858207D01*
X6078067Y4873091D01*
X6077610Y4877765D01*
X6076797Y4881016D01*
X6075121Y4881981D01*
X6072174Y4882896D01*
X6068212Y4883759D01*
X6057595Y4885029D01*
X6044641Y4885791D01*
G37*
G36*
X5793282Y4587138D02*
G01*
X5779770Y4586782D01*
X5766816Y4585766D01*
X5754420Y4584090D01*
X5742584Y4581753D01*
X5731306Y4578807D01*
X5720638Y4575200D01*
X5710529Y4570984D01*
X5700979Y4566158D01*
X5692038Y4560671D01*
X5683707Y4554575D01*
X5675985Y4547870D01*
X5668822Y4540605D01*
X5662320Y4532680D01*
X5659272Y4528515D01*
X5653684Y4519676D01*
X5648706Y4510328D01*
X5644388Y4500321D01*
X5640679Y4489754D01*
X5637631Y4478629D01*
X5635193Y4466945D01*
X5633466Y4454652D01*
X5632348Y4441799D01*
X5631942Y4428439D01*
X5632094Y4411827D01*
X5632856Y4396079D01*
X5634228Y4381347D01*
X5636107Y4367682D01*
X5638546Y4355084D01*
X5641492Y4343654D01*
X5643168Y4338370D01*
X5646877Y4328820D01*
X5651042Y4320641D01*
X5653328Y4317034D01*
X5655665Y4313834D01*
X5658154Y4310938D01*
X5660745Y4308449D01*
X5663387Y4306366D01*
X5666181Y4304639D01*
X5669076Y4303318D01*
X5677458Y4300982D01*
X5686856Y4299712D01*
X5696153Y4299610D01*
X5704179Y4300728D01*
X5712714Y4303623D01*
X5717235Y4307687D01*
X5718302Y4314139D01*
X5714441Y4335830D01*
X5711291Y4360214D01*
X5708446Y4389526D01*
X5707024Y4408373D01*
X5706110Y4426610D01*
X5706059Y4433773D01*
X5706364Y4439920D01*
X5707075Y4445203D01*
X5708091Y4449775D01*
X5709615Y4453940D01*
X5711596Y4457801D01*
X5714034Y4461560D01*
X5717032Y4465472D01*
X5720588Y4469638D01*
X5724448Y4473549D01*
X5728970Y4477410D01*
X5733948Y4481068D01*
X5739231Y4484420D01*
X5744718Y4487418D01*
X5750153Y4489907D01*
X5755487Y4491888D01*
X5760466Y4493158D01*
X5783478Y4497578D01*
X5783478Y4435500D01*
X5840222Y4435500D01*
X5840526Y4458919D01*
X5841339Y4478121D01*
X5841898Y4485487D01*
X5842558Y4491075D01*
X5843270Y4494580D01*
X5844032Y4495800D01*
X5847842Y4495342D01*
X5852515Y4494123D01*
X5857900Y4492193D01*
X5863793Y4489653D01*
X5869940Y4486706D01*
X5876137Y4483404D01*
X5887923Y4476191D01*
X5893054Y4472533D01*
X5897473Y4469028D01*
X5900877Y4465726D01*
X5903112Y4462780D01*
X5906008Y4456836D01*
X5908243Y4450283D01*
X5909767Y4443272D01*
X5910630Y4435957D01*
X5910732Y4428540D01*
X5910173Y4421225D01*
X5908802Y4414113D01*
X5906770Y4407458D01*
X5904941Y4404156D01*
X5902147Y4400651D01*
X5898438Y4397044D01*
X5893968Y4393438D01*
X5888990Y4389932D01*
X5883554Y4386580D01*
X5877864Y4383481D01*
X5872124Y4380738D01*
X5866434Y4378502D01*
X5860948Y4376724D01*
X5855817Y4375607D01*
X5851245Y4375251D01*
X5849112Y4375454D01*
X5847283Y4376267D01*
X5845708Y4377690D01*
X5844336Y4379823D01*
X5843219Y4382820D01*
X5842355Y4386732D01*
X5841593Y4391710D01*
X5840679Y4405122D01*
X5840222Y4435500D01*
X5783478Y4435500D01*
X5783478Y4290415D01*
X5806287Y4284827D01*
X5811418Y4284014D01*
X5816701Y4283456D01*
X5822086Y4283151D01*
X5833211Y4283303D01*
X5844641Y4284370D01*
X5856224Y4286351D01*
X5867857Y4289094D01*
X5879388Y4292650D01*
X5890717Y4296968D01*
X5901639Y4301896D01*
X5912104Y4307433D01*
X5921908Y4313529D01*
X5931001Y4320133D01*
X5939180Y4327194D01*
X5942888Y4330852D01*
X5946292Y4334611D01*
X5949442Y4338472D01*
X5952286Y4342384D01*
X5954826Y4346346D01*
X5959144Y4355134D01*
X5962954Y4365396D01*
X5966206Y4376674D01*
X5968796Y4388713D01*
X5970778Y4401362D01*
X5972098Y4414316D01*
X5972759Y4427423D01*
X5972708Y4440428D01*
X5972048Y4453128D01*
X5970676Y4465269D01*
X5968542Y4476699D01*
X5967272Y4482033D01*
X5965748Y4487164D01*
X5961938Y4497324D01*
X5957163Y4507636D01*
X5951728Y4517339D01*
X5945682Y4526381D01*
X5938977Y4534763D01*
X5931611Y4542536D01*
X5923635Y4549648D01*
X5914948Y4556150D01*
X5905652Y4562043D01*
X5895695Y4567326D01*
X5885078Y4571949D01*
X5873750Y4575962D01*
X5861812Y4579366D01*
X5849162Y4582160D01*
X5835802Y4584344D01*
X5821832Y4585919D01*
X5807354Y4586833D01*
G37*
G36*
X5796381Y4239209D02*
G01*
X5783224Y4238904D01*
X5770168Y4238040D01*
X5757367Y4236770D01*
X5744921Y4234942D01*
X5732983Y4232605D01*
X5721604Y4229760D01*
X5710936Y4226458D01*
X5701131Y4222648D01*
X5692241Y4218381D01*
X5684367Y4213606D01*
X5676595Y4207459D01*
X5672480Y4203598D01*
X5668518Y4199483D01*
X5661253Y4190542D01*
X5657900Y4185767D01*
X5654751Y4180789D01*
X5651804Y4175607D01*
X5646521Y4164736D01*
X5644184Y4159046D01*
X5640171Y4147261D01*
X5637022Y4135069D01*
X5635752Y4128820D01*
X5633923Y4116070D01*
X5633313Y4109618D01*
X5632856Y4096562D01*
X5633262Y4083405D01*
X5634685Y4070299D01*
X5635701Y4063796D01*
X5638546Y4050893D01*
X5640324Y4044543D01*
X5644692Y4032046D01*
X5662117Y3992270D01*
X5709412Y3992321D01*
X5716371Y3992626D01*
X5722416Y3993134D01*
X5727598Y3993845D01*
X5731865Y3994861D01*
X5735269Y3996182D01*
X5737860Y3997807D01*
X5739638Y3999788D01*
X5740603Y4002074D01*
X5740755Y4004818D01*
X5740095Y4007967D01*
X5738723Y4011574D01*
X5736590Y4015587D01*
X5733694Y4020159D01*
X5730138Y4025239D01*
X5725820Y4030827D01*
X5721858Y4036364D01*
X5718454Y4042257D01*
X5715558Y4048302D01*
X5713272Y4054551D01*
X5711494Y4060901D01*
X5710275Y4067352D01*
X5709615Y4073753D01*
X5709462Y4080154D01*
X5709869Y4086453D01*
X5710834Y4092600D01*
X5712358Y4098544D01*
X5714390Y4104233D01*
X5716981Y4109567D01*
X5720130Y4114596D01*
X5723788Y4119168D01*
X5728004Y4123283D01*
X5732322Y4126687D01*
X5736996Y4129786D01*
X5742025Y4132630D01*
X5747410Y4135221D01*
X5752998Y4137507D01*
X5758891Y4139488D01*
X5764936Y4141215D01*
X5771235Y4142638D01*
X5777636Y4143806D01*
X5784189Y4144721D01*
X5790844Y4145330D01*
X5797550Y4145686D01*
X5804306Y4145787D01*
X5817768Y4145127D01*
X5824423Y4144416D01*
X5830976Y4143451D01*
X5837428Y4142181D01*
X5849874Y4138929D01*
X5855766Y4136898D01*
X5861456Y4134612D01*
X5866841Y4132072D01*
X5871972Y4129278D01*
X5876747Y4126229D01*
X5881166Y4122928D01*
X5885180Y4119372D01*
X5888786Y4115612D01*
X5892139Y4111294D01*
X5895035Y4106875D01*
X5897372Y4102354D01*
X5899251Y4097680D01*
X5900623Y4092905D01*
X5901436Y4087977D01*
X5901791Y4082948D01*
X5901639Y4077817D01*
X5900978Y4072534D01*
X5899810Y4067149D01*
X5898083Y4061663D01*
X5895898Y4056024D01*
X5893206Y4050334D01*
X5890006Y4044492D01*
X5886348Y4038600D01*
X5878423Y4027271D01*
X5875426Y4022394D01*
X5873140Y4017924D01*
X5871565Y4013860D01*
X5870752Y4010202D01*
X5870600Y4006900D01*
X5871210Y4003954D01*
X5872581Y4001414D01*
X5874715Y3999179D01*
X5877610Y3997248D01*
X5881217Y3995674D01*
X5885688Y3994404D01*
X5890869Y3993438D01*
X5896864Y3992778D01*
X5903671Y3992372D01*
X5919368Y3992270D01*
X5931865Y3992778D01*
X5936640Y3993438D01*
X5940653Y3994454D01*
X5943955Y3995877D01*
X5946800Y3997909D01*
X5949289Y4000500D01*
X5951575Y4003852D01*
X5953810Y4007916D01*
X5958738Y4018838D01*
X5962650Y4029405D01*
X5965952Y4041140D01*
X5968593Y4053636D01*
X5970574Y4066743D01*
X5971336Y4073398D01*
X5972251Y4086758D01*
X5972454Y4099915D01*
X5972302Y4106367D01*
X5971387Y4118711D01*
X5969660Y4130141D01*
X5968542Y4135424D01*
X5965037Y4147007D01*
X5962802Y4153357D01*
X5960364Y4159300D01*
X5957773Y4164939D01*
X5955030Y4170273D01*
X5952083Y4175353D01*
X5948883Y4180179D01*
X5945479Y4184751D01*
X5941771Y4189171D01*
X5937808Y4193387D01*
X5933592Y4197451D01*
X5924092Y4205224D01*
X5918809Y4208983D01*
X5907125Y4216298D01*
X5898235Y4220972D01*
X5888431Y4225086D01*
X5877814Y4228642D01*
X5866434Y4231690D01*
X5854496Y4234230D01*
X5842050Y4236262D01*
X5829249Y4237736D01*
X5816193Y4238701D01*
G37*
G36*
X5840882Y3935526D02*
G01*
X5741263Y3935069D01*
X5706922Y3934510D01*
X5681268Y3933647D01*
X5662930Y3932377D01*
X5656173Y3931615D01*
X5650738Y3930700D01*
X5646572Y3929735D01*
X5643422Y3928567D01*
X5641238Y3927297D01*
X5639765Y3925874D01*
X5638850Y3924300D01*
X5637631Y3920439D01*
X5636615Y3915968D01*
X5635802Y3911041D01*
X5635244Y3905707D01*
X5634837Y3894226D01*
X5635294Y3882186D01*
X5636717Y3870299D01*
X5637784Y3864610D01*
X5639663Y3857040D01*
X5641136Y3853230D01*
X5642102Y3851605D01*
X5643422Y3850182D01*
X5645048Y3848912D01*
X5647080Y3847846D01*
X5649671Y3846880D01*
X5656630Y3845458D01*
X5666587Y3844442D01*
X5680049Y3843832D01*
X5697728Y3843477D01*
X5720232Y3843324D01*
X5852972Y3843324D01*
X5880354Y3811930D01*
X5884926Y3806088D01*
X5888736Y3800703D01*
X5891733Y3795674D01*
X5893968Y3790899D01*
X5895441Y3786327D01*
X5896254Y3781856D01*
X5896305Y3777437D01*
X5895695Y3772966D01*
X5894425Y3768394D01*
X5892546Y3763568D01*
X5890056Y3758488D01*
X5886602Y3753358D01*
X5884468Y3751021D01*
X5879236Y3746754D01*
X5876086Y3744823D01*
X5872632Y3743045D01*
X5868771Y3741369D01*
X5864504Y3739845D01*
X5854700Y3737152D01*
X5843117Y3734968D01*
X5829604Y3733190D01*
X5813958Y3731818D01*
X5796076Y3730802D01*
X5775807Y3730193D01*
X5753049Y3729888D01*
X5695594Y3729685D01*
X5678932Y3729177D01*
X5665571Y3728262D01*
X5660034Y3727551D01*
X5655208Y3726687D01*
X5651042Y3725621D01*
X5647436Y3724351D01*
X5644438Y3722827D01*
X5641949Y3720998D01*
X5639917Y3718966D01*
X5638292Y3716578D01*
X5637022Y3713937D01*
X5636107Y3710889D01*
X5635396Y3707536D01*
X5634736Y3699611D01*
X5634583Y3679647D01*
X5634888Y3670909D01*
X5635701Y3663391D01*
X5637377Y3657092D01*
X5638647Y3654348D01*
X5640171Y3651859D01*
X5642051Y3649624D01*
X5644286Y3647592D01*
X5646978Y3645814D01*
X5650077Y3644239D01*
X5653684Y3642918D01*
X5657799Y3641699D01*
X5662422Y3640734D01*
X5673496Y3639261D01*
X5687212Y3638346D01*
X5703722Y3637991D01*
X5723432Y3637991D01*
X5773318Y3638905D01*
X5815888Y3640074D01*
X5848858Y3641547D01*
X5873800Y3643477D01*
X5883706Y3644696D01*
X5892241Y3646068D01*
X5899505Y3647592D01*
X5905754Y3649370D01*
X5911138Y3651402D01*
X5915863Y3653688D01*
X5921349Y3656787D01*
X5926632Y3660190D01*
X5931662Y3663848D01*
X5941009Y3671824D01*
X5945276Y3676142D01*
X5949340Y3680663D01*
X5953099Y3685387D01*
X5956554Y3690264D01*
X5959754Y3695293D01*
X5962650Y3700526D01*
X5965240Y3705860D01*
X5967476Y3711346D01*
X5969457Y3716985D01*
X5971032Y3722674D01*
X5972352Y3728516D01*
X5973165Y3734308D01*
X5973572Y3740607D01*
X5973622Y3747312D01*
X5973318Y3754374D01*
X5972657Y3761587D01*
X5970371Y3776421D01*
X5968796Y3783837D01*
X5966968Y3791102D01*
X5964885Y3798163D01*
X5962599Y3804920D01*
X5960110Y3811219D01*
X5957468Y3817061D01*
X5954674Y3822344D01*
X5951728Y3826967D01*
X5945428Y3834739D01*
X5944514Y3836365D01*
X5944209Y3837787D01*
X5944616Y3838956D01*
X5945835Y3839972D01*
X5947867Y3840835D01*
X5950864Y3841496D01*
X5960110Y3842512D01*
X5974283Y3843020D01*
X5994044Y3843274D01*
X6058458Y3843426D01*
X6076086Y3843883D01*
X6082944Y3844290D01*
X6093358Y3845610D01*
X6097168Y3846576D01*
X6100216Y3847795D01*
X6102654Y3849268D01*
X6104585Y3851046D01*
X6106160Y3853129D01*
X6107480Y3855516D01*
X6109919Y3861511D01*
X6112611Y3869385D01*
X6114542Y3876801D01*
X6115710Y3883812D01*
X6116066Y3890721D01*
X6115608Y3897579D01*
X6114389Y3904538D01*
X6112357Y3911803D01*
X6109512Y3919575D01*
X6103112Y3935526D01*
G37*
G36*
X5831332Y3563162D02*
G01*
X5795314Y3562756D01*
X5781446Y3562248D01*
X5769762Y3561486D01*
X5759704Y3560318D01*
X5750915Y3558692D01*
X5742889Y3556609D01*
X5735167Y3553968D01*
X5727242Y3550665D01*
X5709056Y3541877D01*
X5697372Y3535679D01*
X5686806Y3529177D01*
X5677306Y3522370D01*
X5668772Y3515156D01*
X5661253Y3507536D01*
X5654649Y3499408D01*
X5648960Y3490671D01*
X5644184Y3481374D01*
X5641763Y3475583D01*
X5857951Y3475583D01*
X5905804Y3469640D01*
X5926785Y3466846D01*
X5943447Y3464306D01*
X5956554Y3461765D01*
X5966815Y3459073D01*
X5975096Y3456025D01*
X5982106Y3452418D01*
X5988659Y3447999D01*
X5992012Y3445459D01*
X5996940Y3441039D01*
X6001105Y3436213D01*
X6004509Y3431032D01*
X6007100Y3425545D01*
X6008979Y3419805D01*
X6009995Y3413861D01*
X6010249Y3407765D01*
X6009690Y3401568D01*
X6008370Y3395319D01*
X6006185Y3389071D01*
X6003239Y3382873D01*
X5999429Y3376828D01*
X5994450Y3370681D01*
X5989066Y3365652D01*
X5983986Y3362299D01*
X5979718Y3361029D01*
X5978042Y3361588D01*
X5975400Y3363112D01*
X5967628Y3368903D01*
X5957011Y3377844D01*
X5944209Y3389477D01*
X5929833Y3403142D01*
X5914542Y3418281D01*
X5857951Y3475583D01*
X5641763Y3475583D01*
X5638546Y3466134D01*
X5635853Y3455060D01*
X5634736Y3449269D01*
X5633161Y3436924D01*
X5632246Y3423767D01*
X5632127Y3408019D01*
X5710732Y3408019D01*
X5710986Y3413302D01*
X5711799Y3418738D01*
X5714593Y3428085D01*
X5718657Y3436874D01*
X5723534Y3444189D01*
X5728614Y3448913D01*
X5731154Y3450234D01*
X5733897Y3450894D01*
X5736844Y3450793D01*
X5740196Y3449878D01*
X5744057Y3448050D01*
X5748477Y3445306D01*
X5753658Y3441446D01*
X5759653Y3436467D01*
X5774588Y3422751D01*
X5794298Y3403498D01*
X5847842Y3350412D01*
X5817463Y3348075D01*
X5810808Y3347770D01*
X5795975Y3348126D01*
X5788253Y3348736D01*
X5780684Y3349599D01*
X5773420Y3350717D01*
X5766714Y3352037D01*
X5760821Y3353562D01*
X5754319Y3355746D01*
X5748172Y3358235D01*
X5742482Y3361080D01*
X5737199Y3364179D01*
X5732373Y3367582D01*
X5728004Y3371240D01*
X5724093Y3375101D01*
X5720638Y3379266D01*
X5717692Y3383584D01*
X5715254Y3388156D01*
X5713323Y3392881D01*
X5711901Y3397758D01*
X5711037Y3402837D01*
X5710732Y3408019D01*
X5632127Y3408019D01*
X5632551Y3395268D01*
X5633008Y3388461D01*
X5634583Y3375609D01*
X5635599Y3369513D01*
X5638292Y3357930D01*
X5641797Y3347161D01*
X5643880Y3342081D01*
X5648706Y3332327D01*
X5654497Y3323285D01*
X5657748Y3318916D01*
X5665012Y3310636D01*
X5673293Y3302812D01*
X5682691Y3295345D01*
X5693206Y3288233D01*
X5704890Y3281324D01*
X5717794Y3274567D01*
X5738215Y3264814D01*
X5746851Y3261156D01*
X5755030Y3258210D01*
X5763310Y3255873D01*
X5772150Y3254146D01*
X5782106Y3252927D01*
X5793587Y3252063D01*
X5807100Y3251555D01*
X5823153Y3251250D01*
X5864910Y3251149D01*
X5909919Y3251504D01*
X5927140Y3251962D01*
X5941568Y3252774D01*
X5953760Y3253943D01*
X5964174Y3255517D01*
X5973470Y3257600D01*
X5982157Y3260242D01*
X5990742Y3263544D01*
X5999835Y3267506D01*
X6013500Y3274161D01*
X6025845Y3281070D01*
X6031534Y3284575D01*
X6041948Y3291941D01*
X6046724Y3295751D01*
X6051194Y3299663D01*
X6055360Y3303676D01*
X6059271Y3307842D01*
X6062929Y3312160D01*
X6066282Y3316630D01*
X6069330Y3321202D01*
X6072174Y3325977D01*
X6074714Y3330905D01*
X6077051Y3336036D01*
X6079134Y3341370D01*
X6082588Y3352596D01*
X6085128Y3364737D01*
X6086856Y3377844D01*
X6087719Y3391915D01*
X6087872Y3407156D01*
X6087618Y3414725D01*
X6086297Y3430574D01*
X6085332Y3438448D01*
X6082842Y3452825D01*
X6081420Y3458870D01*
X6079947Y3463899D01*
X6078118Y3468573D01*
X6075984Y3473297D01*
X6070752Y3482746D01*
X6064250Y3492093D01*
X6056680Y3501186D01*
X6048095Y3510076D01*
X6038596Y3518560D01*
X6028334Y3526536D01*
X6017310Y3533952D01*
X6005677Y3540760D01*
X5993536Y3546754D01*
X5985764Y3550158D01*
X5978347Y3553104D01*
X5971032Y3555542D01*
X5963513Y3557574D01*
X5955436Y3559200D01*
X5946394Y3560470D01*
X5936132Y3561486D01*
X5924296Y3562197D01*
X5910529Y3562705D01*
X5875934Y3563112D01*
G37*
G36*
X5976518Y3190697D02*
G01*
X5970981Y3190595D01*
X5966053Y3190138D01*
X5961837Y3189325D01*
X5958230Y3188106D01*
X5955284Y3186531D01*
X5952947Y3184499D01*
X5951270Y3182010D01*
X5950254Y3179013D01*
X5949797Y3175558D01*
X5950000Y3171545D01*
X5950813Y3167024D01*
X5952236Y3161893D01*
X5954268Y3156153D01*
X5956858Y3149752D01*
X5960059Y3142742D01*
X5974029Y3114344D01*
X5978956Y3103575D01*
X5981700Y3096818D01*
X5982106Y3095294D01*
X5981649Y3094990D01*
X5978144Y3094431D01*
X5961837Y3093313D01*
X5934913Y3092450D01*
X5899658Y3091840D01*
X5858357Y3091535D01*
X5712561Y3091535D01*
X5712561Y3147466D01*
X5712155Y3162960D01*
X5711698Y3168802D01*
X5710936Y3173526D01*
X5709970Y3177336D01*
X5708599Y3180283D01*
X5706821Y3182569D01*
X5704636Y3184347D01*
X5701944Y3185718D01*
X5698693Y3186887D01*
X5694832Y3187903D01*
X5686552Y3189274D01*
X5677103Y3189732D01*
X5667654Y3189274D01*
X5659374Y3187903D01*
X5641644Y3183483D01*
X5641644Y2913430D01*
X5709056Y2917799D01*
X5713272Y2999333D01*
X6081369Y2999333D01*
X6081318Y3047187D01*
X6080912Y3058922D01*
X6079744Y3069031D01*
X6078778Y3073755D01*
X6077559Y3078378D01*
X6076035Y3082950D01*
X6074156Y3087624D01*
X6069126Y3097631D01*
X6062218Y3109163D01*
X6053175Y3122930D01*
X6028994Y3158134D01*
X6019647Y3170682D01*
X6015634Y3175508D01*
X6011926Y3179470D01*
X6008420Y3182670D01*
X6005068Y3185210D01*
X6001715Y3187141D01*
X5998311Y3188563D01*
X5994704Y3189528D01*
X5990793Y3190138D01*
X5981852Y3190646D01*
G37*
D10*
G01*
X4127500Y3467100D03*
D11*
G01*
X5278501Y3467100D03*
G01*
X2976498Y3467100D03*
D12*
G01*
X4737100Y5611802D03*
D13*
G01*
X4737100Y5411797D03*
D14*
G01*
X4151302Y5143500D03*
D15*
G01*
X3951297Y5143500D03*
D16*
G01*
X3951295Y5905500D03*
D17*
G01*
X4151304Y5905500D03*
D18*
G01*
X4051300Y5561004D03*
D19*
G01*
X4051300Y5360995D03*
D20*
G01*
X4437001Y5907199D03*
D21*
G01*
X4436999Y5653201D03*
G01*
X4436999Y5399201D03*
G01*
X4436999Y5145201D03*
G01*
X3674999Y5145201D03*
G01*
X3674999Y5399201D03*
G01*
X3674999Y5653201D03*
G01*
X3674999Y5907201D03*
D22*
G01*
X2489200Y3441700D03*
G01*
X2286000Y3441700D03*
G01*
X2273300Y4203700D03*
G01*
X2476500Y4203700D03*
G01*
X2273300Y4965700D03*
G01*
X2476500Y4965700D03*
G01*
X2273300Y5727700D03*
G01*
X2476500Y5727700D03*
G01*
X4140200Y3479800D03*
G01*
X3898900Y4584700D03*
G01*
X4305300Y4584700D03*
M02*
