G04 Layer: TopLayer*
G04 EasyEDA v6.5.22, 2022-11-24 10:27:38*
G04 c2ffbf048bd549cebe30352b3eb0f613,ed70181f279245e6aff80281ee7dc86a,10*
G04 Gerber Generator version 0.2*
G04 Scale: 100 percent, Rotated: No, Reflected: No *
G04 Dimensions in millimeters *
G04 leading zeros omitted , absolute positions ,4 integer and 5 decimal *
%FSLAX45Y45*%
%MOMM*%

%AMMACRO1*21,1,$1,$2,0,0,$3*%
%ADD10C,0.5110*%
%ADD11C,17.0000*%
%ADD12R,2.9000X5.2000*%
%ADD13MACRO1,1.35X1.41X0.0000*%
%ADD14R,1.3500X1.4100*%
%ADD15MACRO1,1.35X1.41X90.0000*%
%ADD16MACRO1,1.377X1.1325X-90.0000*%
%ADD17MACRO1,1.377X1.1325X0.0000*%
%ADD18R,1.3770X1.1325*%
%ADD19MACRO1,1.6002X1.6002X-90.0000*%
%ADD20C,1.6002*%
%ADD21C,1.5240*%
%ADD22C,0.0110*%

%LPD*%
G36*
X1230731Y2651302D02*
G01*
X1201115Y2652217D01*
X1172311Y2654808D01*
X1143711Y2659176D01*
X1115466Y2665222D01*
X1087577Y2672994D01*
X1060246Y2682443D01*
X1033526Y2693517D01*
X1007567Y2706166D01*
X982370Y2720340D01*
X958087Y2736037D01*
X934770Y2753207D01*
X912571Y2771698D01*
X891540Y2791510D01*
X871728Y2812592D01*
X853186Y2834792D01*
X836066Y2858058D01*
X820369Y2882341D01*
X806145Y2907538D01*
X793496Y2933547D01*
X782421Y2960268D01*
X773023Y2987598D01*
X765251Y3015437D01*
X759155Y3043732D01*
X754837Y3072282D01*
X752195Y3101086D01*
X751332Y3130753D01*
X751332Y5669229D01*
X752195Y5698896D01*
X754837Y5727700D01*
X759155Y5756249D01*
X765251Y5784545D01*
X773023Y5812383D01*
X782421Y5839714D01*
X793496Y5866434D01*
X806145Y5892444D01*
X820369Y5917641D01*
X836066Y5941923D01*
X853186Y5965190D01*
X871728Y5987389D01*
X891540Y6008471D01*
X912571Y6028283D01*
X934770Y6046774D01*
X958087Y6063945D01*
X982370Y6079642D01*
X1007567Y6093815D01*
X1033526Y6106464D01*
X1060246Y6117539D01*
X1087577Y6126988D01*
X1115466Y6134760D01*
X1143711Y6140805D01*
X1172311Y6145174D01*
X1201115Y6147765D01*
X1230731Y6148679D01*
X6529222Y6148679D01*
X6558889Y6147765D01*
X6587693Y6145174D01*
X6616293Y6140805D01*
X6644538Y6134760D01*
X6672376Y6126988D01*
X6699707Y6117539D01*
X6726428Y6106464D01*
X6752437Y6093815D01*
X6777634Y6079642D01*
X6801916Y6063945D01*
X6825183Y6046774D01*
X6847382Y6028283D01*
X6868464Y6008471D01*
X6888276Y5987389D01*
X6906768Y5965190D01*
X6923938Y5941923D01*
X6939635Y5917641D01*
X6953808Y5892444D01*
X6966508Y5866434D01*
X6977532Y5839714D01*
X6986981Y5812383D01*
X6994753Y5784545D01*
X7000798Y5756249D01*
X7005167Y5727700D01*
X7007758Y5698896D01*
X7008672Y5669229D01*
X7008672Y3130753D01*
X7007758Y3101086D01*
X7005167Y3072282D01*
X7000798Y3043732D01*
X6994753Y3015437D01*
X6986981Y2987598D01*
X6977532Y2960268D01*
X6966508Y2933547D01*
X6953808Y2907538D01*
X6939635Y2882341D01*
X6923938Y2858058D01*
X6906768Y2834792D01*
X6888276Y2812592D01*
X6868464Y2791510D01*
X6847382Y2771698D01*
X6825183Y2753207D01*
X6801916Y2736037D01*
X6777634Y2720340D01*
X6752437Y2706166D01*
X6726428Y2693517D01*
X6699707Y2682443D01*
X6672376Y2672994D01*
X6644538Y2665222D01*
X6616293Y2659176D01*
X6587693Y2654808D01*
X6558889Y2652217D01*
X6529222Y2651302D01*
X4510227Y2651302D01*
X4537608Y2664510D01*
X4575098Y2684780D01*
X4611522Y2706776D01*
X4646879Y2730500D01*
X4681118Y2755849D01*
X4714087Y2782773D01*
X4745736Y2811221D01*
X4776012Y2841193D01*
X4804867Y2872486D01*
X4832146Y2905150D01*
X4857902Y2939034D01*
X4882032Y2974136D01*
X4904486Y3010306D01*
X4925212Y3047492D01*
X4944110Y3085642D01*
X4961229Y3124657D01*
X4976469Y3164382D01*
X4989779Y3204819D01*
X5001209Y3245866D01*
X5010708Y3287369D01*
X5018227Y3329279D01*
X5023713Y3371494D01*
X5027218Y3413912D01*
X5028742Y3456432D01*
X5028234Y3499053D01*
X5025745Y3541522D01*
X5021224Y3583889D01*
X5014722Y3625951D01*
X5006187Y3667658D01*
X4995773Y3708908D01*
X4983378Y3749649D01*
X4969052Y3789781D01*
X4952898Y3829151D01*
X4934864Y3867708D01*
X4915052Y3905402D01*
X4893462Y3942130D01*
X4870196Y3977741D01*
X4845253Y4012234D01*
X4818684Y4045559D01*
X4790592Y4077563D01*
X4761026Y4108196D01*
X4730089Y4137355D01*
X4697730Y4165092D01*
X4664151Y4191254D01*
X4629353Y4215790D01*
X4593437Y4238650D01*
X4556455Y4259783D01*
X4518558Y4279138D01*
X4479798Y4296714D01*
X4440224Y4312412D01*
X4399940Y4326229D01*
X4359046Y4338167D01*
X4317644Y4348124D01*
X4275836Y4356100D01*
X4233722Y4362145D01*
X4228134Y4362653D01*
X4228134Y4483455D01*
X4236974Y4477054D01*
X4250994Y4469333D01*
X4265879Y4463440D01*
X4281424Y4459427D01*
X4297273Y4457446D01*
X4313326Y4457446D01*
X4329176Y4459427D01*
X4344720Y4463440D01*
X4359605Y4469333D01*
X4373626Y4477054D01*
X4386580Y4486452D01*
X4398264Y4497425D01*
X4408474Y4509770D01*
X4417060Y4523282D01*
X4423867Y4537760D01*
X4428794Y4553000D01*
X4431792Y4568698D01*
X4432808Y4584700D01*
X4431792Y4600702D01*
X4428794Y4616399D01*
X4423867Y4631639D01*
X4417060Y4646117D01*
X4408474Y4659630D01*
X4398264Y4671974D01*
X4386580Y4682947D01*
X4373626Y4692345D01*
X4359605Y4700066D01*
X4344720Y4705959D01*
X4329176Y4709972D01*
X4313326Y4711954D01*
X4297273Y4711954D01*
X4281424Y4709972D01*
X4265879Y4705959D01*
X4250994Y4700066D01*
X4236974Y4692345D01*
X4228134Y4685944D01*
X4228134Y5025339D01*
X4231792Y5025694D01*
X4241444Y5028590D01*
X4250283Y5033314D01*
X4258106Y5039715D01*
X4264456Y5047488D01*
X4269181Y5056378D01*
X4272127Y5065979D01*
X4272280Y5067401D01*
X4331106Y5067757D01*
X4332224Y5066080D01*
X4342739Y5053787D01*
X4354677Y5042916D01*
X4367885Y5033568D01*
X4382109Y5025898D01*
X4397197Y5020056D01*
X4412894Y5016093D01*
X4428896Y5014112D01*
X4445101Y5014112D01*
X4461154Y5016093D01*
X4476800Y5020056D01*
X4491888Y5025898D01*
X4506112Y5033568D01*
X4519320Y5042916D01*
X4531258Y5053787D01*
X4541774Y5066080D01*
X4543298Y5068366D01*
X4611827Y5068366D01*
X4623816Y5069281D01*
X4635550Y5072126D01*
X4646676Y5076698D01*
X4656988Y5082997D01*
X4666132Y5090871D01*
X4791456Y5216144D01*
X4799279Y5225338D01*
X4805578Y5235600D01*
X4810201Y5246725D01*
X4812995Y5258460D01*
X4813960Y5270500D01*
X4813960Y5290921D01*
X4824222Y5293918D01*
X4833112Y5298643D01*
X4840884Y5304993D01*
X4847285Y5312816D01*
X4852009Y5321655D01*
X4854905Y5331307D01*
X4855921Y5341315D01*
X4855921Y5482285D01*
X4854905Y5492292D01*
X4852009Y5501944D01*
X4847285Y5510784D01*
X4846421Y5511800D01*
X4847285Y5512816D01*
X4852009Y5521655D01*
X4854905Y5531307D01*
X4855921Y5541314D01*
X4855921Y5682284D01*
X4854905Y5692292D01*
X4852009Y5701944D01*
X4847285Y5710783D01*
X4840884Y5718606D01*
X4833112Y5724956D01*
X4824222Y5729681D01*
X4813960Y5732678D01*
X4813960Y5829300D01*
X4812995Y5841339D01*
X4810201Y5853074D01*
X4805578Y5864199D01*
X4799279Y5874461D01*
X4791456Y5883656D01*
X4713528Y5961532D01*
X4704384Y5969355D01*
X4694072Y5975705D01*
X4682947Y5980277D01*
X4671212Y5983122D01*
X4659223Y5984036D01*
X4568342Y5984036D01*
X4568342Y5987186D01*
X4567326Y5997194D01*
X4564430Y6006846D01*
X4559655Y6015736D01*
X4553305Y6023508D01*
X4545533Y6029858D01*
X4536643Y6034633D01*
X4527042Y6037529D01*
X4517034Y6038494D01*
X4357014Y6038494D01*
X4347006Y6037529D01*
X4337354Y6034633D01*
X4328464Y6029858D01*
X4320692Y6023508D01*
X4314342Y6015736D01*
X4309567Y6006846D01*
X4306671Y5997194D01*
X4305706Y5987186D01*
X4305706Y5983325D01*
X4258360Y5983020D01*
X4258259Y5984341D01*
X4255312Y5993993D01*
X4250588Y6002832D01*
X4244187Y6010656D01*
X4236415Y6017006D01*
X4227576Y6021730D01*
X4217924Y6024676D01*
X4207916Y6025642D01*
X4094683Y6025642D01*
X4084675Y6024676D01*
X4075023Y6021730D01*
X4066184Y6017006D01*
X4058412Y6010656D01*
X4052011Y6002832D01*
X4051300Y6001512D01*
X4050588Y6002832D01*
X4044187Y6010656D01*
X4036415Y6017006D01*
X4027576Y6021730D01*
X4017924Y6024676D01*
X4007916Y6025642D01*
X3976674Y6025642D01*
X3976674Y5930900D01*
X4043375Y5930900D01*
X4043375Y5880100D01*
X3976674Y5880100D01*
X3976674Y5785358D01*
X4007916Y5785358D01*
X4017924Y5786323D01*
X4027576Y5789269D01*
X4036415Y5793994D01*
X4044187Y5800344D01*
X4050588Y5808167D01*
X4051300Y5809488D01*
X4052011Y5808167D01*
X4058412Y5800344D01*
X4066184Y5793994D01*
X4075023Y5789269D01*
X4084675Y5786323D01*
X4094683Y5785358D01*
X4207916Y5785358D01*
X4217924Y5786323D01*
X4227576Y5789269D01*
X4236415Y5793994D01*
X4244187Y5800344D01*
X4250588Y5808167D01*
X4255312Y5817006D01*
X4258259Y5826658D01*
X4258513Y5829300D01*
X4305706Y5829604D01*
X4305706Y5827166D01*
X4306671Y5817158D01*
X4309567Y5807557D01*
X4314342Y5798667D01*
X4320692Y5790895D01*
X4328464Y5784545D01*
X4337354Y5779770D01*
X4347006Y5776874D01*
X4357014Y5775858D01*
X4390288Y5775858D01*
X4374896Y5768898D01*
X4361129Y5760364D01*
X4348530Y5750255D01*
X4337253Y5738622D01*
X4327550Y5725718D01*
X4319473Y5711748D01*
X4313123Y5696864D01*
X4308703Y5681268D01*
X4306265Y5665317D01*
X4305757Y5649163D01*
X4307230Y5633059D01*
X4307789Y5630418D01*
X4298950Y5634075D01*
X4287215Y5636920D01*
X4275175Y5637834D01*
X4167225Y5637834D01*
X4162806Y5646115D01*
X4156456Y5653887D01*
X4148632Y5660288D01*
X4139793Y5665012D01*
X4130141Y5667959D01*
X4120134Y5668924D01*
X3982465Y5668924D01*
X3972458Y5667959D01*
X3962806Y5665012D01*
X3953967Y5660288D01*
X3946144Y5653887D01*
X3939794Y5646115D01*
X3935069Y5637276D01*
X3932123Y5627624D01*
X3931158Y5617616D01*
X3931158Y5504383D01*
X3932123Y5494375D01*
X3935069Y5484723D01*
X3939794Y5475884D01*
X3946144Y5468112D01*
X3953967Y5461711D01*
X3955287Y5461000D01*
X3953967Y5460288D01*
X3946144Y5453888D01*
X3939794Y5446115D01*
X3935069Y5437276D01*
X3932123Y5427624D01*
X3931158Y5417616D01*
X3931158Y5304383D01*
X3932123Y5294376D01*
X3935069Y5284724D01*
X3939794Y5275884D01*
X3946144Y5268112D01*
X3953967Y5261711D01*
X3962806Y5256987D01*
X3972458Y5254040D01*
X3976674Y5253634D01*
X3976674Y5168900D01*
X4029506Y5168900D01*
X4029506Y5118100D01*
X3976674Y5118100D01*
X3976674Y5024678D01*
X4021785Y5024678D01*
X4031792Y5025694D01*
X4041444Y5028590D01*
X4050284Y5033314D01*
X4051300Y5034178D01*
X4052315Y5033314D01*
X4061155Y5028590D01*
X4070807Y5025694D01*
X4074464Y5025339D01*
X4074464Y4366666D01*
X4063695Y4366158D01*
X4021277Y4362145D01*
X3979164Y4356100D01*
X3937355Y4348124D01*
X3895953Y4338167D01*
X3855059Y4326229D01*
X3814775Y4312412D01*
X3775201Y4296714D01*
X3736441Y4279138D01*
X3698544Y4259783D01*
X3661562Y4238650D01*
X3625646Y4215790D01*
X3590848Y4191254D01*
X3557270Y4165092D01*
X3524910Y4137355D01*
X3493973Y4108196D01*
X3464407Y4077563D01*
X3436315Y4045559D01*
X3409746Y4012234D01*
X3384804Y3977741D01*
X3361537Y3942130D01*
X3339947Y3905402D01*
X3320135Y3867708D01*
X3302101Y3829151D01*
X3285947Y3789781D01*
X3271621Y3749649D01*
X3259226Y3708908D01*
X3248812Y3667658D01*
X3240278Y3625951D01*
X3233775Y3583889D01*
X3229254Y3541522D01*
X3226765Y3499053D01*
X3226257Y3456432D01*
X3227781Y3413912D01*
X3231286Y3371494D01*
X3236772Y3329279D01*
X3244291Y3287369D01*
X3253790Y3245866D01*
X3265220Y3204819D01*
X3278530Y3164382D01*
X3293770Y3124657D01*
X3310890Y3085642D01*
X3329787Y3047492D01*
X3350514Y3010306D01*
X3374085Y2972460D01*
X2559151Y2972460D01*
X2362860Y3168751D01*
X2362860Y3340252D01*
X2367280Y3343452D01*
X2378964Y3354425D01*
X2387600Y3364890D01*
X2396236Y3354425D01*
X2407920Y3343452D01*
X2420874Y3334054D01*
X2434894Y3326333D01*
X2449779Y3320440D01*
X2465324Y3316427D01*
X2481173Y3314446D01*
X2497226Y3314446D01*
X2513076Y3316427D01*
X2528620Y3320440D01*
X2543505Y3326333D01*
X2557526Y3334054D01*
X2570480Y3343452D01*
X2582164Y3354425D01*
X2592374Y3366770D01*
X2600960Y3380282D01*
X2607767Y3394760D01*
X2612694Y3410000D01*
X2615692Y3425698D01*
X2616708Y3441700D01*
X2615692Y3457701D01*
X2612694Y3473399D01*
X2607767Y3488639D01*
X2600960Y3503117D01*
X2592374Y3516629D01*
X2582164Y3528974D01*
X2570480Y3539947D01*
X2557526Y3549345D01*
X2543505Y3557066D01*
X2528620Y3562959D01*
X2513076Y3566972D01*
X2497226Y3568954D01*
X2481173Y3568954D01*
X2465324Y3566972D01*
X2449779Y3562959D01*
X2434894Y3557066D01*
X2420874Y3549345D01*
X2407920Y3539947D01*
X2396236Y3528974D01*
X2387600Y3518509D01*
X2378964Y3528974D01*
X2367280Y3539947D01*
X2354326Y3549345D01*
X2350160Y3551631D01*
X2350160Y4102252D01*
X2354580Y4105452D01*
X2366264Y4116425D01*
X2374900Y4126890D01*
X2383536Y4116425D01*
X2395220Y4105452D01*
X2408174Y4096054D01*
X2422194Y4088333D01*
X2437079Y4082440D01*
X2452624Y4078427D01*
X2468473Y4076446D01*
X2484526Y4076446D01*
X2500376Y4078427D01*
X2515920Y4082440D01*
X2530805Y4088333D01*
X2544826Y4096054D01*
X2557780Y4105452D01*
X2569464Y4116425D01*
X2579674Y4128770D01*
X2588260Y4142282D01*
X2595067Y4156760D01*
X2599994Y4172000D01*
X2602992Y4187698D01*
X2604008Y4203700D01*
X2602992Y4219702D01*
X2599994Y4235399D01*
X2595067Y4250639D01*
X2588260Y4265117D01*
X2579674Y4278630D01*
X2569464Y4290974D01*
X2557780Y4301947D01*
X2544826Y4311345D01*
X2530805Y4319066D01*
X2515920Y4324959D01*
X2500376Y4328972D01*
X2484526Y4330954D01*
X2468473Y4330954D01*
X2452624Y4328972D01*
X2437079Y4324959D01*
X2422194Y4319066D01*
X2408174Y4311345D01*
X2395220Y4301947D01*
X2383536Y4290974D01*
X2374900Y4280509D01*
X2366264Y4290974D01*
X2354580Y4301947D01*
X2350160Y4305147D01*
X2350160Y4864252D01*
X2354580Y4867452D01*
X2366264Y4878425D01*
X2374900Y4888890D01*
X2383536Y4878425D01*
X2395220Y4867452D01*
X2408174Y4858054D01*
X2422194Y4850333D01*
X2437079Y4844440D01*
X2452624Y4840427D01*
X2468473Y4838446D01*
X2484526Y4838446D01*
X2500376Y4840427D01*
X2515920Y4844440D01*
X2530805Y4850333D01*
X2544826Y4858054D01*
X2557780Y4867452D01*
X2569464Y4878425D01*
X2579674Y4890770D01*
X2588260Y4904282D01*
X2595067Y4918760D01*
X2599994Y4934000D01*
X2602992Y4949698D01*
X2604008Y4965700D01*
X2602992Y4981702D01*
X2599994Y4997399D01*
X2595067Y5012639D01*
X2588260Y5027117D01*
X2579674Y5040630D01*
X2569464Y5052974D01*
X2557780Y5063947D01*
X2544826Y5073345D01*
X2530805Y5081066D01*
X2515920Y5086959D01*
X2500376Y5090972D01*
X2484526Y5092954D01*
X2468473Y5092954D01*
X2452624Y5090972D01*
X2437079Y5086959D01*
X2422194Y5081066D01*
X2408174Y5073345D01*
X2395220Y5063947D01*
X2383536Y5052974D01*
X2374900Y5042509D01*
X2366264Y5052974D01*
X2354580Y5063947D01*
X2350160Y5067147D01*
X2350160Y5626252D01*
X2354580Y5629452D01*
X2366264Y5640425D01*
X2374900Y5650890D01*
X2383536Y5640425D01*
X2395220Y5629452D01*
X2408174Y5620054D01*
X2422194Y5612333D01*
X2437079Y5606440D01*
X2452624Y5602427D01*
X2468473Y5600446D01*
X2484526Y5600446D01*
X2500376Y5602427D01*
X2515920Y5606440D01*
X2530805Y5612333D01*
X2544826Y5620054D01*
X2557780Y5629452D01*
X2569464Y5640425D01*
X2579674Y5652770D01*
X2588260Y5666282D01*
X2595067Y5680760D01*
X2599994Y5696000D01*
X2602992Y5711698D01*
X2604008Y5727700D01*
X2602992Y5743702D01*
X2599994Y5759399D01*
X2595067Y5774639D01*
X2588260Y5789117D01*
X2579674Y5802630D01*
X2569464Y5814974D01*
X2557780Y5825947D01*
X2544826Y5835345D01*
X2530805Y5843066D01*
X2515920Y5848959D01*
X2500376Y5852972D01*
X2484526Y5854954D01*
X2468473Y5854954D01*
X2452624Y5852972D01*
X2437079Y5848959D01*
X2422194Y5843066D01*
X2408174Y5835345D01*
X2395220Y5825947D01*
X2383536Y5814974D01*
X2374900Y5804509D01*
X2366264Y5814974D01*
X2354580Y5825947D01*
X2341626Y5835345D01*
X2327605Y5843066D01*
X2312720Y5848959D01*
X2297176Y5852972D01*
X2281326Y5854954D01*
X2265273Y5854954D01*
X2249424Y5852972D01*
X2233879Y5848959D01*
X2218994Y5843066D01*
X2204974Y5835345D01*
X2192020Y5825947D01*
X2180336Y5814974D01*
X2170125Y5802630D01*
X2161540Y5789117D01*
X2154732Y5774639D01*
X2149805Y5759399D01*
X2146808Y5743702D01*
X2145792Y5727700D01*
X2146808Y5711698D01*
X2149805Y5696000D01*
X2154732Y5680760D01*
X2161540Y5666282D01*
X2170125Y5652770D01*
X2180336Y5640425D01*
X2192020Y5629452D01*
X2196439Y5626252D01*
X2196439Y5067147D01*
X2192020Y5063947D01*
X2180336Y5052974D01*
X2170125Y5040630D01*
X2161540Y5027117D01*
X2154732Y5012639D01*
X2149805Y4997399D01*
X2146808Y4981702D01*
X2145792Y4965700D01*
X2146808Y4949698D01*
X2149805Y4934000D01*
X2154732Y4918760D01*
X2161540Y4904282D01*
X2170125Y4890770D01*
X2180336Y4878425D01*
X2192020Y4867452D01*
X2196439Y4864252D01*
X2196439Y4305147D01*
X2192020Y4301947D01*
X2180336Y4290974D01*
X2170125Y4278630D01*
X2161540Y4265117D01*
X2154732Y4250639D01*
X2149805Y4235399D01*
X2146808Y4219702D01*
X2145792Y4203700D01*
X2146808Y4187698D01*
X2149805Y4172000D01*
X2154732Y4156760D01*
X2161540Y4142282D01*
X2170125Y4128770D01*
X2180336Y4116425D01*
X2192020Y4105452D01*
X2196439Y4102252D01*
X2196439Y3532174D01*
X2193036Y3528974D01*
X2182825Y3516629D01*
X2174240Y3503117D01*
X2167432Y3488639D01*
X2162505Y3473399D01*
X2159508Y3457701D01*
X2158492Y3441700D01*
X2159508Y3425698D01*
X2162505Y3410000D01*
X2167432Y3394760D01*
X2174240Y3380282D01*
X2182825Y3366770D01*
X2193036Y3354425D01*
X2204720Y3343452D01*
X2209139Y3340252D01*
X2209139Y3136900D01*
X2210104Y3124860D01*
X2212898Y3113125D01*
X2217521Y3102000D01*
X2223820Y3091738D01*
X2231644Y3082544D01*
X2472944Y2841244D01*
X2482138Y2833420D01*
X2492400Y2827121D01*
X2503525Y2822498D01*
X2515260Y2819704D01*
X2527300Y2818739D01*
X3501694Y2818739D01*
X3509264Y2811221D01*
X3540912Y2782773D01*
X3573881Y2755849D01*
X3608120Y2730500D01*
X3643477Y2706776D01*
X3679901Y2684780D01*
X3717391Y2664510D01*
X3744772Y2651302D01*
G37*

%LPC*%
G36*
X6593687Y2846679D02*
G01*
X6613448Y2847644D01*
X6632956Y2850540D01*
X6652158Y2855366D01*
X6670751Y2862021D01*
X6688581Y2870454D01*
X6705549Y2880614D01*
X6721398Y2892399D01*
X6736029Y2905658D01*
X6749288Y2920288D01*
X6761073Y2936138D01*
X6771233Y2953105D01*
X6779666Y2970987D01*
X6786321Y2989580D01*
X6791147Y3008731D01*
X6794042Y3028289D01*
X6795008Y3048000D01*
X6795008Y5689600D01*
X6794042Y5709310D01*
X6791147Y5728868D01*
X6786321Y5748020D01*
X6779666Y5766612D01*
X6771233Y5784494D01*
X6761073Y5801461D01*
X6749288Y5817311D01*
X6736029Y5831941D01*
X6721398Y5845200D01*
X6705549Y5856986D01*
X6688581Y5867146D01*
X6670751Y5875578D01*
X6652158Y5882233D01*
X6632956Y5887059D01*
X6613448Y5889955D01*
X6593687Y5890920D01*
X6573977Y5889955D01*
X6554419Y5887059D01*
X6535267Y5882233D01*
X6516674Y5875578D01*
X6498793Y5867146D01*
X6481876Y5856986D01*
X6465976Y5845200D01*
X6451346Y5831941D01*
X6438087Y5817311D01*
X6426301Y5801461D01*
X6416141Y5784494D01*
X6407708Y5766612D01*
X6401054Y5748020D01*
X6396278Y5728868D01*
X6393383Y5709310D01*
X6392418Y5689600D01*
X6392418Y3048000D01*
X6393383Y3028289D01*
X6396278Y3008731D01*
X6401054Y2989580D01*
X6407708Y2970987D01*
X6416141Y2953105D01*
X6426301Y2936138D01*
X6438087Y2920288D01*
X6451346Y2905658D01*
X6465976Y2892399D01*
X6481876Y2880614D01*
X6498793Y2870454D01*
X6516674Y2862021D01*
X6535267Y2855366D01*
X6554419Y2850540D01*
X6573977Y2847644D01*
G37*
G36*
X1158087Y2846679D02*
G01*
X1177848Y2847644D01*
X1197356Y2850540D01*
X1216558Y2855366D01*
X1235151Y2862021D01*
X1252982Y2870454D01*
X1269949Y2880614D01*
X1285798Y2892399D01*
X1300429Y2905658D01*
X1313688Y2920288D01*
X1325473Y2936138D01*
X1335633Y2953105D01*
X1344066Y2970987D01*
X1350721Y2989580D01*
X1355547Y3008731D01*
X1358442Y3028289D01*
X1359408Y3048000D01*
X1359408Y5689600D01*
X1358442Y5709310D01*
X1355547Y5728868D01*
X1350721Y5748020D01*
X1344066Y5766612D01*
X1335633Y5784494D01*
X1325473Y5801461D01*
X1313688Y5817311D01*
X1300429Y5831941D01*
X1285798Y5845200D01*
X1269949Y5856986D01*
X1252982Y5867146D01*
X1235151Y5875578D01*
X1216558Y5882233D01*
X1197356Y5887059D01*
X1177848Y5889955D01*
X1158087Y5890920D01*
X1138377Y5889955D01*
X1118819Y5887059D01*
X1099667Y5882233D01*
X1081074Y5875578D01*
X1063193Y5867146D01*
X1046276Y5856986D01*
X1030376Y5845200D01*
X1015746Y5831941D01*
X1002487Y5817311D01*
X990701Y5801461D01*
X980541Y5784494D01*
X972108Y5766612D01*
X965453Y5748020D01*
X960678Y5728868D01*
X957783Y5709310D01*
X956818Y5689600D01*
X956818Y3048000D01*
X957783Y3028289D01*
X960678Y3008731D01*
X965453Y2989580D01*
X972108Y2970987D01*
X980541Y2953105D01*
X990701Y2936138D01*
X1002487Y2920288D01*
X1015746Y2905658D01*
X1030376Y2892399D01*
X1046276Y2880614D01*
X1063193Y2870454D01*
X1081074Y2862021D01*
X1099667Y2855366D01*
X1118819Y2850540D01*
X1138377Y2847644D01*
G37*
G36*
X2831490Y3155797D02*
G01*
X2951124Y3155797D01*
X2951124Y3441700D01*
X2780182Y3441700D01*
X2780182Y3207105D01*
X2781198Y3197098D01*
X2784094Y3187446D01*
X2788818Y3178606D01*
X2795219Y3170834D01*
X2802991Y3164433D01*
X2811881Y3159709D01*
X2821482Y3156762D01*
G37*
G36*
X5133492Y3155797D02*
G01*
X5253126Y3155797D01*
X5253126Y3441700D01*
X5082184Y3441700D01*
X5082184Y3207105D01*
X5083200Y3197098D01*
X5086096Y3187446D01*
X5090820Y3178606D01*
X5097221Y3170834D01*
X5104993Y3164433D01*
X5113883Y3159709D01*
X5123484Y3156762D01*
G37*
G36*
X5303926Y3155797D02*
G01*
X5423509Y3155797D01*
X5433517Y3156762D01*
X5443118Y3159709D01*
X5452008Y3164433D01*
X5459780Y3170834D01*
X5466181Y3178606D01*
X5470906Y3187446D01*
X5473801Y3197098D01*
X5474817Y3207105D01*
X5474817Y3441700D01*
X5303926Y3441700D01*
G37*
G36*
X3001924Y3155797D02*
G01*
X3121507Y3155797D01*
X3131515Y3156762D01*
X3141116Y3159709D01*
X3150006Y3164433D01*
X3157778Y3170834D01*
X3164179Y3178606D01*
X3168904Y3187446D01*
X3171799Y3197098D01*
X3172815Y3207105D01*
X3172815Y3441700D01*
X3001924Y3441700D01*
G37*
G36*
X5303926Y3492500D02*
G01*
X5474817Y3492500D01*
X5474817Y3727094D01*
X5473801Y3737101D01*
X5470906Y3746754D01*
X5466181Y3755593D01*
X5459780Y3763365D01*
X5452008Y3769766D01*
X5443118Y3774490D01*
X5433517Y3777437D01*
X5423509Y3778402D01*
X5303926Y3778402D01*
G37*
G36*
X3001924Y3492500D02*
G01*
X3172815Y3492500D01*
X3172815Y3727094D01*
X3171799Y3737101D01*
X3168904Y3746754D01*
X3164179Y3755593D01*
X3157778Y3763365D01*
X3150006Y3769766D01*
X3141116Y3774490D01*
X3131515Y3777437D01*
X3121507Y3778402D01*
X3001924Y3778402D01*
G37*
G36*
X5082184Y3492500D02*
G01*
X5253126Y3492500D01*
X5253126Y3778402D01*
X5133492Y3778402D01*
X5123484Y3777437D01*
X5113883Y3774490D01*
X5104993Y3769766D01*
X5097221Y3763365D01*
X5090820Y3755593D01*
X5086096Y3746754D01*
X5083200Y3737101D01*
X5082184Y3727094D01*
G37*
G36*
X2780182Y3492500D02*
G01*
X2951124Y3492500D01*
X2951124Y3778402D01*
X2831490Y3778402D01*
X2821482Y3777437D01*
X2811881Y3774490D01*
X2802991Y3769766D01*
X2795219Y3763365D01*
X2788818Y3755593D01*
X2784094Y3746754D01*
X2781198Y3737101D01*
X2780182Y3727094D01*
G37*
G36*
X3873500Y4459833D02*
G01*
X3873500Y4559300D01*
X3774186Y4559300D01*
X3775405Y4553000D01*
X3780332Y4537760D01*
X3787140Y4523282D01*
X3795725Y4509770D01*
X3805936Y4497425D01*
X3817620Y4486452D01*
X3830574Y4477054D01*
X3844594Y4469333D01*
X3859479Y4463440D01*
G37*
G36*
X3924300Y4459833D02*
G01*
X3938320Y4463440D01*
X3953205Y4469333D01*
X3967226Y4477054D01*
X3980179Y4486452D01*
X3991864Y4497425D01*
X4002074Y4509770D01*
X4010660Y4523282D01*
X4017467Y4537760D01*
X4022394Y4553000D01*
X4023614Y4559300D01*
X3924300Y4559300D01*
G37*
G36*
X3774186Y4610100D02*
G01*
X3873500Y4610100D01*
X3873500Y4709566D01*
X3859479Y4705959D01*
X3844594Y4700066D01*
X3830574Y4692345D01*
X3817620Y4682947D01*
X3805936Y4671974D01*
X3795725Y4659630D01*
X3787140Y4646117D01*
X3780332Y4631639D01*
X3775405Y4616399D01*
G37*
G36*
X3924300Y4610100D02*
G01*
X4023614Y4610100D01*
X4022394Y4616399D01*
X4017467Y4631639D01*
X4010660Y4646117D01*
X4002074Y4659630D01*
X3991864Y4671974D01*
X3980179Y4682947D01*
X3967226Y4692345D01*
X3953205Y4700066D01*
X3938320Y4705959D01*
X3924300Y4709566D01*
G37*
G36*
X3666896Y5014112D02*
G01*
X3683101Y5014112D01*
X3699154Y5016093D01*
X3714800Y5020056D01*
X3729888Y5025898D01*
X3744112Y5033568D01*
X3757320Y5042916D01*
X3769258Y5053787D01*
X3779774Y5066080D01*
X3788714Y5079542D01*
X3795928Y5094020D01*
X3801313Y5109260D01*
X3804767Y5125059D01*
X3806240Y5141163D01*
X3805783Y5157317D01*
X3803294Y5173268D01*
X3798874Y5188864D01*
X3792575Y5203748D01*
X3784447Y5217718D01*
X3774744Y5230622D01*
X3763467Y5242255D01*
X3750868Y5252364D01*
X3737101Y5260898D01*
X3722420Y5267655D01*
X3707841Y5272278D01*
X3714800Y5274056D01*
X3729888Y5279898D01*
X3744112Y5287568D01*
X3757320Y5296916D01*
X3769258Y5307787D01*
X3779774Y5320080D01*
X3788714Y5333542D01*
X3795928Y5348020D01*
X3801313Y5363260D01*
X3804767Y5379059D01*
X3806240Y5395163D01*
X3805783Y5411317D01*
X3803294Y5427268D01*
X3798874Y5442864D01*
X3792575Y5457748D01*
X3784447Y5471718D01*
X3774744Y5484622D01*
X3763467Y5496255D01*
X3750868Y5506364D01*
X3737101Y5514898D01*
X3722420Y5521655D01*
X3707841Y5526278D01*
X3714800Y5528056D01*
X3729888Y5533898D01*
X3744112Y5541568D01*
X3757320Y5550916D01*
X3769258Y5561787D01*
X3779774Y5574080D01*
X3788714Y5587542D01*
X3795928Y5602020D01*
X3801313Y5617260D01*
X3804767Y5633059D01*
X3806240Y5649163D01*
X3805783Y5665317D01*
X3803294Y5681268D01*
X3798874Y5696864D01*
X3792575Y5711748D01*
X3784447Y5725718D01*
X3774744Y5738622D01*
X3763467Y5750255D01*
X3750868Y5760364D01*
X3737101Y5768898D01*
X3722420Y5775655D01*
X3707841Y5780278D01*
X3714800Y5782056D01*
X3729888Y5787898D01*
X3744112Y5795568D01*
X3757320Y5804916D01*
X3769258Y5815787D01*
X3779774Y5828080D01*
X3788714Y5841542D01*
X3795928Y5856020D01*
X3801313Y5871260D01*
X3803599Y5881776D01*
X3700424Y5881776D01*
X3700424Y5781802D01*
X3691128Y5783529D01*
X3675024Y5784494D01*
X3658870Y5783529D01*
X3649624Y5781802D01*
X3649624Y5881776D01*
X3546398Y5881776D01*
X3548684Y5871260D01*
X3554069Y5856020D01*
X3561283Y5841542D01*
X3570224Y5828080D01*
X3580739Y5815787D01*
X3592677Y5804916D01*
X3605885Y5795568D01*
X3620109Y5787898D01*
X3635197Y5782056D01*
X3642207Y5780278D01*
X3627577Y5775655D01*
X3612896Y5768898D01*
X3599129Y5760364D01*
X3586530Y5750255D01*
X3575253Y5738622D01*
X3565550Y5725718D01*
X3557473Y5711748D01*
X3551123Y5696864D01*
X3546703Y5681268D01*
X3544265Y5665317D01*
X3543757Y5649163D01*
X3545230Y5633059D01*
X3548684Y5617260D01*
X3554069Y5602020D01*
X3561283Y5587542D01*
X3570224Y5574080D01*
X3580739Y5561787D01*
X3592677Y5550916D01*
X3605885Y5541568D01*
X3620109Y5533898D01*
X3635197Y5528056D01*
X3642207Y5526278D01*
X3627577Y5521655D01*
X3612896Y5514898D01*
X3599129Y5506364D01*
X3586530Y5496255D01*
X3575253Y5484622D01*
X3565550Y5471718D01*
X3557473Y5457748D01*
X3551123Y5442864D01*
X3546703Y5427268D01*
X3544265Y5411317D01*
X3543757Y5395163D01*
X3545230Y5379059D01*
X3548684Y5363260D01*
X3554069Y5348020D01*
X3561283Y5333542D01*
X3570224Y5320080D01*
X3580739Y5307787D01*
X3592677Y5296916D01*
X3605885Y5287568D01*
X3620109Y5279898D01*
X3635197Y5274056D01*
X3642207Y5272278D01*
X3627577Y5267655D01*
X3612896Y5260898D01*
X3599129Y5252364D01*
X3586530Y5242255D01*
X3575253Y5230622D01*
X3565550Y5217718D01*
X3557473Y5203748D01*
X3551123Y5188864D01*
X3546703Y5173268D01*
X3544265Y5157317D01*
X3543757Y5141163D01*
X3545230Y5125059D01*
X3548684Y5109260D01*
X3554069Y5094020D01*
X3561283Y5079542D01*
X3570224Y5066080D01*
X3580739Y5053787D01*
X3592677Y5042916D01*
X3605885Y5033568D01*
X3620109Y5025898D01*
X3635197Y5020056D01*
X3650894Y5016093D01*
G37*
G36*
X3880815Y5024678D02*
G01*
X3925874Y5024678D01*
X3925874Y5118100D01*
X3829507Y5118100D01*
X3829507Y5075986D01*
X3830472Y5065979D01*
X3833418Y5056378D01*
X3838143Y5047488D01*
X3844493Y5039715D01*
X3852316Y5033314D01*
X3861155Y5028590D01*
X3870807Y5025694D01*
G37*
G36*
X3829507Y5168900D02*
G01*
X3925874Y5168900D01*
X3925874Y5262321D01*
X3880815Y5262321D01*
X3870807Y5261305D01*
X3861155Y5258409D01*
X3852316Y5253685D01*
X3844493Y5247284D01*
X3838143Y5239512D01*
X3833418Y5230622D01*
X3830472Y5221020D01*
X3829507Y5211013D01*
G37*
G36*
X3894683Y5785358D02*
G01*
X3925874Y5785358D01*
X3925874Y5880100D01*
X3843375Y5880100D01*
X3843375Y5836666D01*
X3844340Y5826658D01*
X3847287Y5817006D01*
X3852011Y5808167D01*
X3858412Y5800344D01*
X3866184Y5793994D01*
X3875024Y5789269D01*
X3884676Y5786323D01*
G37*
G36*
X3843375Y5930900D02*
G01*
X3925874Y5930900D01*
X3925874Y6025642D01*
X3894683Y6025642D01*
X3884676Y6024676D01*
X3875024Y6021730D01*
X3866184Y6017006D01*
X3858412Y6010656D01*
X3852011Y6002832D01*
X3847287Y5993993D01*
X3844340Y5984341D01*
X3843375Y5974334D01*
G37*
G36*
X3546297Y5932576D02*
G01*
X3649624Y5932576D01*
X3649624Y6035802D01*
X3642969Y6034532D01*
X3627577Y6029655D01*
X3612896Y6022898D01*
X3599129Y6014364D01*
X3586530Y6004255D01*
X3575253Y5992622D01*
X3565550Y5979718D01*
X3557473Y5965748D01*
X3551123Y5950864D01*
X3546703Y5935268D01*
G37*
G36*
X3700424Y5932576D02*
G01*
X3803700Y5932576D01*
X3803294Y5935268D01*
X3798874Y5950864D01*
X3792575Y5965748D01*
X3784447Y5979718D01*
X3774744Y5992622D01*
X3763467Y6004255D01*
X3750868Y6014364D01*
X3737101Y6022898D01*
X3722420Y6029655D01*
X3707028Y6034532D01*
X3700424Y6035802D01*
G37*

%LPD*%
D10*
X4127500Y3467100D02*
G01*
X3556000Y2895600D01*
X2527300Y2895600D01*
X2286000Y3136900D01*
X2286000Y3441700D01*
X3951224Y5905500D02*
G01*
X3675125Y5907278D01*
X4151375Y5905500D02*
G01*
X4437125Y5907278D01*
X4436999Y5907201D02*
G01*
X4659198Y5907201D01*
X4737100Y5829300D01*
X4737100Y5611799D01*
X4436999Y5145201D02*
G01*
X4611801Y5145201D01*
X4737100Y5270500D01*
X4737100Y5411800D01*
X4051300Y5560999D02*
G01*
X4275200Y5560999D01*
X4436999Y5399201D01*
X4127500Y3467100D02*
G01*
X4151299Y3490899D01*
X4151299Y5143500D01*
X4151375Y5143500D02*
G01*
X4437125Y5145278D01*
X4151299Y5143500D02*
G01*
X4151299Y5270500D01*
X4060799Y5361000D01*
X4051300Y5361000D01*
X2273300Y5727700D02*
G01*
X2273300Y4965700D01*
X2273300Y4965700D02*
G01*
X2273300Y4203700D01*
X2273300Y4203700D02*
G01*
X2273300Y3454400D01*
X2286000Y3441700D01*
D11*
G01*
X4127500Y3467100D03*
D12*
G01*
X5278500Y3467100D03*
G01*
X2976499Y3467100D03*
D13*
G01*
X4737100Y5611802D03*
D14*
G01*
X4737100Y5411800D03*
D15*
G01*
X4151302Y5143500D03*
G01*
X3951297Y5143500D03*
D16*
G01*
X3951295Y5905500D03*
G01*
X4151304Y5905500D03*
D17*
G01*
X4051300Y5561004D03*
D18*
G01*
X4051300Y5361000D03*
D19*
G01*
X4437001Y5907199D03*
D20*
G01*
X4436999Y5653201D03*
G01*
X4436999Y5399201D03*
G01*
X4436999Y5145201D03*
G01*
X3674999Y5145201D03*
G01*
X3674999Y5399201D03*
G01*
X3674999Y5653201D03*
G01*
X3674999Y5907201D03*
D21*
G01*
X2489200Y3441700D03*
G01*
X2286000Y3441700D03*
G01*
X2273300Y4203700D03*
G01*
X2476500Y4203700D03*
G01*
X2273300Y4965700D03*
G01*
X2476500Y4965700D03*
G01*
X2273300Y5727700D03*
G01*
X2476500Y5727700D03*
G01*
X4140200Y3479800D03*
G01*
X3898900Y4584700D03*
G01*
X4305300Y4584700D03*
M02*
