G04 Layer: BottomSilkscreenLayer*
G04 EasyEDA v6.5.22, 2022-11-24 10:27:38*
G04 c2ffbf048bd549cebe30352b3eb0f613,ed70181f279245e6aff80281ee7dc86a,10*
G04 Gerber Generator version 0.2*
G04 Scale: 100 percent, Rotated: No, Reflected: No *
G04 Dimensions in millimeters *
G04 leading zeros omitted , absolute positions ,4 integer and 5 decimal *
%FSLAX45Y45*%
%MOMM*%

%ADD10C,0.1524*%
%ADD11C,0.2540*%

%LPD*%
G36*
X4065574Y5774486D02*
G01*
X4050792Y5774283D01*
X4037329Y5773572D01*
X4026458Y5772404D01*
X4014978Y5770270D01*
X4003548Y5767578D01*
X3992321Y5764326D01*
X3981196Y5760567D01*
X3970223Y5756300D01*
X3959453Y5751474D01*
X3948937Y5746191D01*
X3938625Y5740450D01*
X3928567Y5734202D01*
X3918813Y5727547D01*
X3909314Y5720435D01*
X3900220Y5712917D01*
X3891432Y5705043D01*
X3882999Y5696712D01*
X3875024Y5688076D01*
X3867454Y5679033D01*
X3860292Y5669686D01*
X3853637Y5659983D01*
X3847541Y5650026D01*
X3841902Y5639663D01*
X3836720Y5628894D01*
X3832047Y5617819D01*
X3827932Y5606440D01*
X3824274Y5594858D01*
X3821176Y5583123D01*
X3818585Y5571236D01*
X3816553Y5559298D01*
X3815130Y5547360D01*
X3814267Y5535472D01*
X3814013Y5523636D01*
X3814368Y5512003D01*
X3815283Y5500522D01*
X3817061Y5487670D01*
X3819398Y5475020D01*
X3822242Y5462625D01*
X3825697Y5450433D01*
X3829710Y5438597D01*
X3834231Y5427014D01*
X3839260Y5415737D01*
X3844798Y5404764D01*
X3850894Y5394147D01*
X3857447Y5383885D01*
X3864508Y5373928D01*
X3872077Y5364378D01*
X3880053Y5355234D01*
X3888536Y5346446D01*
X3897477Y5338064D01*
X3906824Y5330139D01*
X3916629Y5322620D01*
X3926890Y5315610D01*
X3937508Y5309006D01*
X3948582Y5302910D01*
X3961231Y5296814D01*
X3974490Y5291328D01*
X3988104Y5286451D01*
X4001820Y5282336D01*
X4015435Y5279034D01*
X4028643Y5276545D01*
X4041190Y5275021D01*
X4047134Y5274614D01*
X4064406Y5274513D01*
X4064558Y5395976D01*
X4065422Y5435244D01*
X4065828Y5439105D01*
X4067098Y5441188D01*
X4069130Y5442305D01*
X4072128Y5442407D01*
X4076293Y5441391D01*
X4081729Y5439206D01*
X4088688Y5435803D01*
X4130395Y5412536D01*
X4137812Y5408676D01*
X4141317Y5407304D01*
X4143756Y5407609D01*
X4145686Y5408828D01*
X4147159Y5411216D01*
X4148226Y5415076D01*
X4148988Y5420766D01*
X4149445Y5428488D01*
X4149699Y5451551D01*
X4149547Y5467502D01*
X4148988Y5480862D01*
X4148175Y5490565D01*
X4147718Y5493766D01*
X4147159Y5495696D01*
X4145991Y5497068D01*
X4143400Y5499201D01*
X4133748Y5505805D01*
X4117797Y5515813D01*
X4095089Y5529427D01*
X4028033Y5568543D01*
X3968750Y5602833D01*
X3925417Y5628284D01*
X3907332Y5639257D01*
X3903675Y5643930D01*
X3904437Y5648553D01*
X3910228Y5653989D01*
X3921556Y5660999D01*
X3963974Y5685586D01*
X3970578Y5688838D01*
X3976014Y5691022D01*
X3979468Y5691835D01*
X3981704Y5691124D01*
X3992676Y5685790D01*
X4010812Y5676036D01*
X4034536Y5662879D01*
X4099966Y5625439D01*
X4159961Y5590184D01*
X4186326Y5574385D01*
X4208119Y5561025D01*
X4223715Y5551017D01*
X4228693Y5547614D01*
X4231487Y5545429D01*
X4231995Y5544820D01*
X4232706Y5542788D01*
X4233367Y5539689D01*
X4234281Y5530240D01*
X4234840Y5516118D01*
X4235043Y5497068D01*
X4234891Y5475020D01*
X4234332Y5461660D01*
X4233824Y5457444D01*
X4233062Y5454345D01*
X4232148Y5452160D01*
X4230928Y5450433D01*
X4226610Y5447030D01*
X4217873Y5441289D01*
X4206087Y5434025D01*
X4178706Y5418175D01*
X4158183Y5405729D01*
X4153814Y5402681D01*
X4152544Y5401157D01*
X4151579Y5399024D01*
X4150868Y5395671D01*
X4150410Y5390642D01*
X4150055Y5373573D01*
X4150918Y5288584D01*
X4176268Y5300929D01*
X4187037Y5306771D01*
X4197451Y5313019D01*
X4207459Y5319674D01*
X4217111Y5326735D01*
X4226306Y5334203D01*
X4235145Y5341975D01*
X4243527Y5350154D01*
X4251502Y5358638D01*
X4259021Y5367477D01*
X4266082Y5376621D01*
X4272686Y5386070D01*
X4278884Y5395823D01*
X4284573Y5405831D01*
X4289806Y5416143D01*
X4294530Y5426659D01*
X4298746Y5437479D01*
X4302506Y5448452D01*
X4305706Y5459679D01*
X4308449Y5471109D01*
X4310634Y5482742D01*
X4312259Y5494528D01*
X4313377Y5506466D01*
X4313936Y5518556D01*
X4313936Y5530951D01*
X4313377Y5543245D01*
X4312310Y5555284D01*
X4310735Y5567121D01*
X4308602Y5578754D01*
X4305909Y5590133D01*
X4302709Y5601309D01*
X4298950Y5612231D01*
X4294682Y5623001D01*
X4289806Y5633516D01*
X4284472Y5643778D01*
X4278528Y5653887D01*
X4272076Y5663793D01*
X4265066Y5673496D01*
X4257497Y5682996D01*
X4249369Y5692292D01*
X4240377Y5701741D01*
X4230420Y5711088D01*
X4220006Y5719876D01*
X4209135Y5728106D01*
X4197908Y5735777D01*
X4186275Y5742838D01*
X4174337Y5749239D01*
X4162094Y5754979D01*
X4149598Y5760059D01*
X4136948Y5764428D01*
X4124096Y5768086D01*
X4111193Y5770981D01*
X4099661Y5772861D01*
X4087317Y5773877D01*
X4073042Y5774436D01*
G37*
D10*
X4140200Y4992115D02*
G01*
X4140200Y4914137D01*
X4135120Y4898644D01*
X4124706Y4888229D01*
X4108958Y4883150D01*
X4098543Y4883150D01*
X4083050Y4888229D01*
X4072636Y4898644D01*
X4067556Y4914137D01*
X4067556Y4992115D01*
X4033265Y4971287D02*
G01*
X4022852Y4976621D01*
X4007104Y4992115D01*
X4007104Y4883150D01*
X4647928Y4035346D02*
G01*
X4666109Y4053527D01*
X4693381Y4062618D01*
X4729746Y4062618D01*
X4757018Y4053527D01*
X4775200Y4035346D01*
X4775200Y4017162D01*
X4766109Y3998981D01*
X4757018Y3989890D01*
X4738837Y3980799D01*
X4684290Y3962618D01*
X4666109Y3953527D01*
X4657018Y3944437D01*
X4647928Y3926253D01*
X4647928Y3898981D01*
X4666109Y3880799D01*
X4693381Y3871709D01*
X4729746Y3871709D01*
X4757018Y3880799D01*
X4775200Y3898981D01*
X4587928Y4062618D02*
G01*
X4587928Y3871709D01*
X4460654Y4062618D02*
G01*
X4460654Y3871709D01*
X4587928Y3971709D02*
G01*
X4460654Y3971709D01*
X4346110Y4062618D02*
G01*
X4364291Y4053527D01*
X4382472Y4035346D01*
X4391563Y4017162D01*
X4400654Y3989890D01*
X4400654Y3944437D01*
X4391563Y3917162D01*
X4382472Y3898981D01*
X4364291Y3880799D01*
X4346110Y3871709D01*
X4309747Y3871709D01*
X4291563Y3880799D01*
X4273382Y3898981D01*
X4264291Y3917162D01*
X4255201Y3944437D01*
X4255201Y3989890D01*
X4264291Y4017162D01*
X4273382Y4035346D01*
X4291563Y4053527D01*
X4309747Y4062618D01*
X4346110Y4062618D01*
X4195201Y4062618D02*
G01*
X4149747Y3871709D01*
X4104292Y4062618D02*
G01*
X4149747Y3871709D01*
X4104292Y4062618D02*
G01*
X4058838Y3871709D01*
X4013382Y4062618D02*
G01*
X4058838Y3871709D01*
X3889748Y4062618D02*
G01*
X3889748Y3871709D01*
X3953383Y4062618D02*
G01*
X3826111Y4062618D01*
X3766111Y4062618D02*
G01*
X3766111Y3871709D01*
X3706111Y4062618D02*
G01*
X3706111Y3871709D01*
X3706111Y4062618D02*
G01*
X3633383Y3871709D01*
X3560655Y4062618D02*
G01*
X3633383Y3871709D01*
X3560655Y4062618D02*
G01*
X3560655Y3871709D01*
X3500655Y4062618D02*
G01*
X3500655Y3871709D01*
X3500655Y4062618D02*
G01*
X3382474Y4062618D01*
X3500655Y3971709D02*
G01*
X3427930Y3971709D01*
X3500655Y3871709D02*
G01*
X3382474Y3871709D01*
G36*
X2425700Y5588000D02*
G01*
X2349500Y5524500D01*
X2425700Y5461000D01*
G37*
G36*
X2425700Y4826000D02*
G01*
X2349500Y4762500D01*
X2425700Y4699000D01*
G37*
G36*
X2425700Y4064000D02*
G01*
X2349500Y4000500D01*
X2425700Y3937000D01*
G37*
G36*
X2425700Y3302000D02*
G01*
X2349500Y3238500D01*
X2425700Y3175000D01*
G37*
D11*
X3929001Y6034199D02*
G01*
X3802001Y6034199D01*
X4310001Y5018199D02*
G01*
X3802001Y5018199D01*
X3802001Y5018199D02*
G01*
X3802001Y6034199D01*
X4310001Y5018199D02*
G01*
X4310001Y6034199D01*
X4310001Y6034199D02*
G01*
X4183001Y6034199D01*
X2184400Y5600700D02*
G01*
X2184400Y5448300D01*
X2197806Y5614106D02*
G01*
X2197100Y5435600D01*
X2336800Y5626100D02*
G01*
X2209800Y5626100D01*
X2171700Y5588000D01*
X2171700Y5461000D01*
X2209800Y5422900D01*
X2336800Y5422900D01*
X2438400Y5626100D02*
G01*
X2578100Y5626100D01*
X2578100Y5422900D01*
X2438400Y5422900D01*
X2184400Y4838700D02*
G01*
X2184400Y4686300D01*
X2197806Y4852106D02*
G01*
X2197100Y4673600D01*
X2336800Y4864100D02*
G01*
X2209800Y4864100D01*
X2171700Y4826000D01*
X2171700Y4699000D01*
X2209800Y4660900D01*
X2336800Y4660900D01*
X2438400Y4864100D02*
G01*
X2578100Y4864100D01*
X2578100Y4660900D01*
X2438400Y4660900D01*
X2184400Y4076700D02*
G01*
X2184400Y3924300D01*
X2197806Y4090106D02*
G01*
X2197100Y3911600D01*
X2336800Y4102100D02*
G01*
X2209800Y4102100D01*
X2171700Y4064000D01*
X2171700Y3937000D01*
X2209800Y3898900D01*
X2336800Y3898900D01*
X2438400Y4102100D02*
G01*
X2578100Y4102100D01*
X2578100Y3898900D01*
X2438400Y3898900D01*
X2184400Y3314700D02*
G01*
X2184400Y3162300D01*
X2197806Y3328106D02*
G01*
X2197100Y3149600D01*
X2336800Y3340100D02*
G01*
X2209800Y3340100D01*
X2171700Y3302000D01*
X2171700Y3175000D01*
X2209800Y3136900D01*
X2336800Y3136900D01*
X2438400Y3340100D02*
G01*
X2578100Y3340100D01*
X2578100Y3136900D01*
X2438400Y3136900D01*
X4412101Y4510699D02*
G01*
X3792108Y4510699D01*
X3792108Y4150695D02*
G01*
X4412101Y4150695D01*
X4406905Y4203697D02*
G01*
X4356105Y4152897D01*
X4406905Y4457697D02*
G01*
X4356105Y4508497D01*
X3848105Y4508497D02*
G01*
X3797305Y4457697D01*
X3848105Y4152897D02*
G01*
X3797305Y4203697D01*
X3792108Y4510699D02*
G01*
X3792108Y4428812D01*
X3792108Y4232584D02*
G01*
X3792108Y4150695D01*
X4412101Y4510699D02*
G01*
X4412101Y4428812D01*
X4412101Y4232584D02*
G01*
X4412101Y4150695D01*
G75*
G01*
X3929002Y6034199D02*
G03*
X4183002Y6034199I127000J0D01*
G75*
G01
X4259758Y5918200D02*
G03X4259758Y5918200I-17958J0D01*
G75*
G01
X4158894Y4330700D02*
G03X4158894Y4330700I-56794J0D01*
G75*
G01
X4203700Y4330700D02*
G03X4203700Y4330700I-101600J0D01*
G75*
G01
X3955694Y4330700D02*
G03X3955694Y4330700I-56794J0D01*
G75*
G01
X4362094Y4330700D02*
G03X4362094Y4330700I-56794J0D01*
M02*
