G04 Layer: TopPasteMaskLayer*
G04 EasyEDA v6.5.22, 2022-11-24 10:27:38*
G04 c2ffbf048bd549cebe30352b3eb0f613,ed70181f279245e6aff80281ee7dc86a,10*
G04 Gerber Generator version 0.2*
G04 Scale: 100 percent, Rotated: No, Reflected: No *
G04 Dimensions in millimeters *
G04 leading zeros omitted , absolute positions ,4 integer and 5 decimal *
%FSLAX45Y45*%
%MOMM*%

%ADD10C,0.0001*%

%LPD*%
G36*
X5424728Y3727246D02*
G01*
X5133949Y3726942D01*
X5133949Y3207867D01*
X5424728Y3207867D01*
G37*
G36*
X3122726Y3727246D02*
G01*
X2831947Y3726942D01*
X2831947Y3207867D01*
X3122726Y3207867D01*
G37*
G36*
X4712106Y5469788D02*
G01*
X4671110Y5469280D01*
X4666081Y5464302D01*
X4666081Y5349290D01*
X4671110Y5344312D01*
X4799076Y5344312D01*
X4804105Y5349290D01*
X4804105Y5464302D01*
X4799076Y5469280D01*
X4757115Y5468823D01*
X4757115Y5424779D01*
X4712106Y5424779D01*
G37*
G36*
X4671110Y5684316D02*
G01*
X4666081Y5679287D01*
X4666081Y5564276D01*
X4671110Y5559298D01*
X4712106Y5559806D01*
X4712106Y5603798D01*
X4757115Y5603798D01*
X4757115Y5559298D01*
X4799076Y5559298D01*
X4804105Y5564276D01*
X4804105Y5679287D01*
X4799076Y5684316D01*
G37*
G36*
X3888790Y5214518D02*
G01*
X3883812Y5209489D01*
X3883812Y5081524D01*
X3888790Y5076494D01*
X4003801Y5076494D01*
X4008780Y5081524D01*
X4008323Y5123484D01*
X3964279Y5123484D01*
X3964279Y5168493D01*
X4009288Y5168493D01*
X4008780Y5209489D01*
X4003801Y5214518D01*
G37*
G36*
X4103776Y5214518D02*
G01*
X4098798Y5209489D01*
X4099306Y5168493D01*
X4143298Y5168493D01*
X4143298Y5123484D01*
X4098798Y5123484D01*
X4098798Y5081524D01*
X4103776Y5076494D01*
X4218787Y5076494D01*
X4223816Y5081524D01*
X4223816Y5209489D01*
X4218787Y5214518D01*
G37*
G36*
X4101287Y5974486D02*
G01*
X4096308Y5969508D01*
X4096816Y5927496D01*
X4140809Y5927496D01*
X4140809Y5882487D01*
X4095800Y5882487D01*
X4096308Y5841492D01*
X4101287Y5836513D01*
X4216298Y5836513D01*
X4221327Y5841492D01*
X4221327Y5969508D01*
X4216298Y5974486D01*
G37*
G36*
X3886301Y5974486D02*
G01*
X3881323Y5969508D01*
X3881323Y5841492D01*
X3886301Y5836513D01*
X4001312Y5836513D01*
X4006291Y5841492D01*
X4005783Y5882487D01*
X3961790Y5882487D01*
X3961790Y5927496D01*
X4006291Y5927496D01*
X4006291Y5969508D01*
X4001312Y5974486D01*
G37*
G36*
X4028287Y5416499D02*
G01*
X3987292Y5415991D01*
X3982313Y5411012D01*
X3982313Y5296001D01*
X3987292Y5290972D01*
X4115308Y5290972D01*
X4120286Y5296001D01*
X4120286Y5411012D01*
X4115308Y5415991D01*
X4073296Y5415483D01*
X4073296Y5371490D01*
X4028287Y5371490D01*
G37*
G36*
X3987292Y5630976D02*
G01*
X3982313Y5625998D01*
X3982313Y5510987D01*
X3987292Y5506008D01*
X4028287Y5506516D01*
X4028287Y5550509D01*
X4073296Y5550509D01*
X4073296Y5506008D01*
X4115308Y5506008D01*
X4120286Y5510987D01*
X4120286Y5625998D01*
X4115308Y5630976D01*
G37*
M02*
