G04 Layer: TopSolderMaskLayer*
G04 EasyEDA v6.5.34, 2023-09-24 11:42:33*
G04 85920c42d4f548bdae791b01a5babccf,ed70181f279245e6aff80281ee7dc86a,10*
G04 Gerber Generator version 0.2*
G04 Scale: 100 percent, Rotated: No, Reflected: No *
G04 Dimensions in millimeters *
G04 leading zeros omitted , absolute positions ,4 integer and 5 decimal *
%FSLAX45Y45*%
%MOMM*%

%AMMACRO1*1,1,$1,$2,$3*1,1,$1,$4,$5*1,1,$1,0-$2,0-$3*1,1,$1,0-$4,0-$5*20,1,$1,$2,$3,$4,$5,0*20,1,$1,$4,$5,0-$2,0-$3,0*20,1,$1,0-$2,0-$3,0-$4,0-$5,0*20,1,$1,0-$4,0-$5,$2,$3,0*4,1,4,$2,$3,$4,$5,0-$2,0-$3,0-$4,0-$5,$2,$3,0*%
%ADD10C,0.2000*%
%ADD11MACRO1,0.1016X-0.5663X-0.6885X-0.5663X0.6885*%
%ADD12O,2.3516082000000003X0.7315962*%
%ADD13MACRO1,0.1016X0.5663X-0.6885X0.5663X0.6885*%
%ADD14MACRO1,0.1016X-0.675X0.705X0.675X0.705*%
%ADD15MACRO1,0.1016X-0.675X-0.705X0.675X-0.705*%
%ADD16MACRO1,0.1016X0.675X-0.705X-0.675X-0.705*%
%ADD17MACRO1,0.1016X0.675X0.705X-0.675X0.705*%
%ADD18MACRO1,0.1016X0.6985X0.508X0.6985X-0.508*%
%ADD19MACRO1,0.1016X-0.7X-0.75X-0.7X0.75*%
%ADD20C,1.1016*%
%ADD21C,0.0149*%

%LPD*%
G36*
X4431030Y4059936D02*
G01*
X4368292Y3862832D01*
X4380484Y3862832D01*
X4443222Y4059936D01*
G37*
G36*
X4309872Y4047744D02*
G01*
X4303623Y4044391D01*
X4296664Y4041597D01*
X4288739Y4039362D01*
X4279646Y4037584D01*
X4279646Y4026662D01*
X4305808Y4026662D01*
X4305808Y3912615D01*
X4272534Y3912615D01*
X4272534Y3898900D01*
X4352544Y3898900D01*
X4352544Y3912615D01*
X4322318Y3912615D01*
X4322318Y4047744D01*
G37*
G36*
X4468114Y4047744D02*
G01*
X4463288Y3978656D01*
X4472432Y3972814D01*
X4478629Y3976674D01*
X4484573Y3979468D01*
X4490770Y3981145D01*
X4497832Y3981704D01*
X4504740Y3981094D01*
X4510938Y3979316D01*
X4516374Y3976370D01*
X4520946Y3972356D01*
X4524603Y3967327D01*
X4527346Y3961333D01*
X4529023Y3954424D01*
X4529582Y3946651D01*
X4528921Y3938676D01*
X4526991Y3931513D01*
X4523994Y3925265D01*
X4519980Y3919982D01*
X4515104Y3915765D01*
X4509566Y3912666D01*
X4503420Y3910736D01*
X4496816Y3910076D01*
X4490567Y3910431D01*
X4484827Y3911498D01*
X4479645Y3913124D01*
X4474921Y3915206D01*
X4470654Y3917746D01*
X4466691Y3920591D01*
X4463084Y3923639D01*
X4459732Y3926840D01*
X4451350Y3915918D01*
X4455261Y3912209D01*
X4459630Y3908704D01*
X4464456Y3905351D01*
X4469892Y3902405D01*
X4475937Y3899915D01*
X4482642Y3898036D01*
X4490110Y3896817D01*
X4498340Y3896360D01*
X4504436Y3896715D01*
X4510430Y3897884D01*
X4516221Y3899712D01*
X4521758Y3902303D01*
X4526889Y3905605D01*
X4531563Y3909568D01*
X4535779Y3914241D01*
X4539386Y3919524D01*
X4542332Y3925519D01*
X4544517Y3932123D01*
X4545888Y3939336D01*
X4546346Y3947160D01*
X4545939Y3954983D01*
X4544771Y3962044D01*
X4542840Y3968394D01*
X4540250Y3974033D01*
X4537049Y3978960D01*
X4533239Y3983177D01*
X4528972Y3986733D01*
X4524248Y3989628D01*
X4519117Y3991864D01*
X4513630Y3993438D01*
X4507890Y3994353D01*
X4501896Y3994658D01*
X4495292Y3994200D01*
X4489348Y3992930D01*
X4483862Y3990898D01*
X4478528Y3988308D01*
X4482592Y4033520D01*
X4539234Y4033520D01*
X4539234Y4047744D01*
G37*
G36*
X4697577Y3932936D02*
G01*
X4634839Y3735832D01*
X4647031Y3735832D01*
X4709769Y3932936D01*
G37*
G36*
X4572355Y3923284D02*
G01*
X4565751Y3922877D01*
X4559604Y3921709D01*
X4553813Y3919829D01*
X4548428Y3917289D01*
X4543298Y3914140D01*
X4538421Y3910431D01*
X4533747Y3906164D01*
X4529175Y3901440D01*
X4538827Y3892296D01*
X4542180Y3895902D01*
X4545685Y3899204D01*
X4549394Y3902201D01*
X4553305Y3904792D01*
X4557369Y3906875D01*
X4561586Y3908501D01*
X4566005Y3909466D01*
X4570577Y3909822D01*
X4577334Y3909212D01*
X4583125Y3907485D01*
X4588002Y3904742D01*
X4591913Y3901033D01*
X4594961Y3896512D01*
X4597095Y3891279D01*
X4598365Y3885437D01*
X4598771Y3879087D01*
X4598619Y3875227D01*
X4598162Y3871264D01*
X4597349Y3867200D01*
X4596231Y3863086D01*
X4594758Y3858869D01*
X4592980Y3854602D01*
X4588306Y3845661D01*
X4585512Y3841089D01*
X4578756Y3831488D01*
X4570628Y3821429D01*
X4560976Y3810863D01*
X4549800Y3799687D01*
X4537151Y3787952D01*
X4530191Y3781806D01*
X4530191Y3771900D01*
X4622139Y3771900D01*
X4622139Y3786124D01*
X4573727Y3786022D01*
X4555083Y3784854D01*
X4565650Y3795014D01*
X4575403Y3805021D01*
X4584192Y3814775D01*
X4592015Y3824376D01*
X4598771Y3833876D01*
X4601768Y3838549D01*
X4606899Y3847846D01*
X4609033Y3852468D01*
X4612335Y3861663D01*
X4613503Y3866235D01*
X4614367Y3870756D01*
X4614875Y3875328D01*
X4615027Y3879850D01*
X4614722Y3886250D01*
X4613706Y3892245D01*
X4612081Y3897782D01*
X4609846Y3902862D01*
X4607001Y3907434D01*
X4603597Y3911447D01*
X4599686Y3914952D01*
X4595164Y3917899D01*
X4590186Y3920236D01*
X4584700Y3921912D01*
X4578756Y3922928D01*
G37*
G36*
X4879695Y3923284D02*
G01*
X4874615Y3922979D01*
X4869738Y3922115D01*
X4865116Y3920642D01*
X4860798Y3918610D01*
X4856734Y3915918D01*
X4852974Y3912666D01*
X4849520Y3908856D01*
X4846370Y3904386D01*
X4843576Y3899357D01*
X4841087Y3893667D01*
X4838954Y3887419D01*
X4837226Y3880510D01*
X4835804Y3873042D01*
X4834839Y3864914D01*
X4834178Y3856177D01*
X4833975Y3846829D01*
X4849977Y3846829D01*
X4850231Y3857193D01*
X4850942Y3866591D01*
X4852162Y3874973D01*
X4853736Y3882440D01*
X4855768Y3888994D01*
X4858207Y3894632D01*
X4860950Y3899306D01*
X4864100Y3903167D01*
X4867554Y3906062D01*
X4871364Y3908196D01*
X4875377Y3909415D01*
X4879695Y3909822D01*
X4883962Y3909415D01*
X4887976Y3908196D01*
X4891684Y3906062D01*
X4895088Y3903167D01*
X4898136Y3899306D01*
X4900879Y3894632D01*
X4903266Y3888994D01*
X4905248Y3882440D01*
X4906822Y3874973D01*
X4907991Y3866591D01*
X4908702Y3857193D01*
X4908905Y3846829D01*
X4908702Y3836263D01*
X4907991Y3826713D01*
X4906822Y3818128D01*
X4905248Y3810508D01*
X4903266Y3803853D01*
X4900879Y3798112D01*
X4898136Y3793337D01*
X4895088Y3789426D01*
X4891684Y3786378D01*
X4887976Y3784244D01*
X4883962Y3782974D01*
X4879695Y3782568D01*
X4875377Y3782974D01*
X4871364Y3784244D01*
X4867554Y3786378D01*
X4864100Y3789426D01*
X4860950Y3793337D01*
X4858207Y3798112D01*
X4855768Y3803853D01*
X4853736Y3810508D01*
X4852162Y3818128D01*
X4850942Y3826713D01*
X4850231Y3836263D01*
X4849977Y3846829D01*
X4833975Y3846829D01*
X4834178Y3837381D01*
X4834839Y3828542D01*
X4835804Y3820363D01*
X4837226Y3812743D01*
X4838954Y3805783D01*
X4841087Y3799433D01*
X4843576Y3793693D01*
X4846370Y3788562D01*
X4849520Y3784041D01*
X4852974Y3780129D01*
X4856734Y3776827D01*
X4860798Y3774135D01*
X4865116Y3772052D01*
X4869738Y3770528D01*
X4874615Y3769664D01*
X4879695Y3769360D01*
X4884826Y3769664D01*
X4889703Y3770528D01*
X4894275Y3772052D01*
X4898542Y3774135D01*
X4902606Y3776827D01*
X4906314Y3780129D01*
X4909718Y3784041D01*
X4912817Y3788562D01*
X4915560Y3793693D01*
X4917998Y3799433D01*
X4920081Y3805783D01*
X4921808Y3812743D01*
X4923129Y3820363D01*
X4924145Y3828542D01*
X4924704Y3837381D01*
X4924907Y3846829D01*
X4924704Y3856177D01*
X4924145Y3864914D01*
X4923129Y3873042D01*
X4921808Y3880510D01*
X4920081Y3887419D01*
X4917998Y3893667D01*
X4915560Y3899357D01*
X4912817Y3904386D01*
X4909718Y3908856D01*
X4906314Y3912666D01*
X4902606Y3915918D01*
X4898542Y3918610D01*
X4894275Y3920642D01*
X4889703Y3922115D01*
X4884826Y3922979D01*
G37*
G36*
X4767427Y3920744D02*
G01*
X4761331Y3917391D01*
X4754372Y3914597D01*
X4746447Y3912362D01*
X4737455Y3910584D01*
X4737455Y3899662D01*
X4763617Y3899662D01*
X4763617Y3785615D01*
X4730343Y3785615D01*
X4730343Y3771900D01*
X4810353Y3771900D01*
X4810353Y3785615D01*
X4780127Y3785615D01*
X4780127Y3920744D01*
G37*
G36*
X5141976Y3932936D02*
G01*
X5079238Y3735832D01*
X5091430Y3735832D01*
X5154168Y3932936D01*
G37*
G36*
X5208016Y3923284D02*
G01*
X5201310Y3922877D01*
X5195112Y3921709D01*
X5189321Y3919829D01*
X5183936Y3917289D01*
X5178856Y3914140D01*
X5173980Y3910431D01*
X5169357Y3906164D01*
X5164836Y3901440D01*
X5174488Y3892296D01*
X5177790Y3895902D01*
X5181346Y3899204D01*
X5185054Y3902201D01*
X5188915Y3904792D01*
X5192979Y3906875D01*
X5197246Y3908501D01*
X5201666Y3909466D01*
X5206238Y3909822D01*
X5212994Y3909212D01*
X5218785Y3907485D01*
X5223611Y3904742D01*
X5227574Y3901033D01*
X5230571Y3896512D01*
X5232755Y3891279D01*
X5234025Y3885437D01*
X5234432Y3879087D01*
X5234279Y3875227D01*
X5233771Y3871264D01*
X5232958Y3867200D01*
X5231841Y3863086D01*
X5230368Y3858869D01*
X5228590Y3854602D01*
X5226456Y3850182D01*
X5223967Y3845661D01*
X5217922Y3836365D01*
X5214416Y3831488D01*
X5206238Y3821429D01*
X5196586Y3810863D01*
X5185460Y3799687D01*
X5165852Y3781806D01*
X5165852Y3771900D01*
X5257800Y3771900D01*
X5257800Y3786124D01*
X5209286Y3786022D01*
X5190744Y3784854D01*
X5201259Y3795014D01*
X5210911Y3805021D01*
X5219700Y3814775D01*
X5227523Y3824376D01*
X5234330Y3833876D01*
X5237327Y3838549D01*
X5242458Y3847846D01*
X5244592Y3852468D01*
X5246420Y3857091D01*
X5247944Y3861663D01*
X5249113Y3866235D01*
X5249976Y3870756D01*
X5250484Y3875328D01*
X5250688Y3879850D01*
X5250332Y3886250D01*
X5249367Y3892245D01*
X5247741Y3897782D01*
X5245506Y3902862D01*
X5242661Y3907434D01*
X5239258Y3911447D01*
X5235295Y3914952D01*
X5230825Y3917899D01*
X5225796Y3920236D01*
X5220360Y3921912D01*
X5214416Y3922928D01*
G37*
G36*
X5324094Y3923284D02*
G01*
X5318963Y3922979D01*
X5314086Y3922115D01*
X5309514Y3920642D01*
X5305145Y3918610D01*
X5301081Y3915918D01*
X5297322Y3912666D01*
X5293868Y3908856D01*
X5290769Y3904386D01*
X5287924Y3899357D01*
X5285486Y3893667D01*
X5283352Y3887419D01*
X5281574Y3880510D01*
X5280202Y3873042D01*
X5279186Y3864914D01*
X5278577Y3856177D01*
X5278374Y3846829D01*
X5294376Y3846829D01*
X5294630Y3857193D01*
X5295341Y3866591D01*
X5296509Y3874973D01*
X5298135Y3882440D01*
X5300167Y3888994D01*
X5302554Y3894632D01*
X5305348Y3899306D01*
X5308498Y3903167D01*
X5311952Y3906062D01*
X5315712Y3908196D01*
X5319776Y3909415D01*
X5324094Y3909822D01*
X5328361Y3909415D01*
X5332323Y3908196D01*
X5336032Y3906062D01*
X5339435Y3903167D01*
X5342534Y3899306D01*
X5345277Y3894632D01*
X5347614Y3888994D01*
X5349595Y3882440D01*
X5351170Y3874973D01*
X5352338Y3866591D01*
X5353050Y3857193D01*
X5353304Y3846829D01*
X5353050Y3836263D01*
X5352338Y3826713D01*
X5351170Y3818128D01*
X5349595Y3810508D01*
X5347614Y3803853D01*
X5345277Y3798112D01*
X5342534Y3793337D01*
X5339435Y3789426D01*
X5336032Y3786378D01*
X5332323Y3784244D01*
X5328361Y3782974D01*
X5324094Y3782568D01*
X5319776Y3782974D01*
X5315712Y3784244D01*
X5311952Y3786378D01*
X5308498Y3789426D01*
X5305348Y3793337D01*
X5302554Y3798112D01*
X5300167Y3803853D01*
X5298135Y3810508D01*
X5296509Y3818128D01*
X5295341Y3826713D01*
X5294630Y3836263D01*
X5294376Y3846829D01*
X5278374Y3846829D01*
X5278577Y3837381D01*
X5279186Y3828542D01*
X5280202Y3820363D01*
X5281574Y3812743D01*
X5283352Y3805783D01*
X5285486Y3799433D01*
X5287924Y3793693D01*
X5290769Y3788562D01*
X5293868Y3784041D01*
X5297322Y3780129D01*
X5301081Y3776827D01*
X5305145Y3774135D01*
X5309514Y3772052D01*
X5314086Y3770528D01*
X5318963Y3769664D01*
X5324094Y3769360D01*
X5329174Y3769664D01*
X5334050Y3770528D01*
X5338622Y3772052D01*
X5342940Y3774135D01*
X5346954Y3776827D01*
X5350662Y3780129D01*
X5354066Y3784041D01*
X5357164Y3788562D01*
X5359908Y3793693D01*
X5362346Y3799433D01*
X5364429Y3805783D01*
X5366156Y3812743D01*
X5367528Y3820363D01*
X5368493Y3828542D01*
X5369102Y3837381D01*
X5369306Y3846829D01*
X5369102Y3856177D01*
X5368493Y3864914D01*
X5367528Y3873042D01*
X5366156Y3880510D01*
X5364429Y3887419D01*
X5362346Y3893667D01*
X5359908Y3899357D01*
X5357164Y3904386D01*
X5354066Y3908856D01*
X5350662Y3912666D01*
X5346954Y3915918D01*
X5342940Y3918610D01*
X5338622Y3920642D01*
X5334050Y3922115D01*
X5329174Y3922979D01*
G37*
G36*
X5032502Y3920744D02*
G01*
X4970753Y3826510D01*
X4987036Y3826510D01*
X5022850Y3879850D01*
X5034788Y3901440D01*
X5035804Y3901440D01*
X5034889Y3888130D01*
X5034534Y3875024D01*
X5034534Y3826510D01*
X4970753Y3826510D01*
X4969256Y3824224D01*
X4969256Y3813301D01*
X5034534Y3813301D01*
X5034534Y3771900D01*
X5050282Y3771900D01*
X5050282Y3813301D01*
X5070602Y3813301D01*
X5070602Y3826510D01*
X5050282Y3826510D01*
X5050282Y3920744D01*
G37*
G36*
X5523230Y4059936D02*
G01*
X5460492Y3862832D01*
X5472684Y3862832D01*
X5535422Y4059936D01*
G37*
G36*
X5705348Y4050284D02*
G01*
X5700217Y4049979D01*
X5695340Y4049115D01*
X5690768Y4047642D01*
X5686399Y4045610D01*
X5682386Y4042918D01*
X5678627Y4039666D01*
X5675172Y4035856D01*
X5672023Y4031386D01*
X5669178Y4026357D01*
X5666740Y4020667D01*
X5664606Y4014419D01*
X5662828Y4007510D01*
X5661456Y4000042D01*
X5660440Y3991914D01*
X5659831Y3983177D01*
X5659628Y3973829D01*
X5675630Y3973829D01*
X5675884Y3984193D01*
X5676595Y3993591D01*
X5677763Y4001973D01*
X5679389Y4009440D01*
X5681421Y4015994D01*
X5683808Y4021632D01*
X5686602Y4026306D01*
X5689752Y4030167D01*
X5693206Y4033062D01*
X5696966Y4035196D01*
X5701030Y4036415D01*
X5705348Y4036822D01*
X5709615Y4036415D01*
X5713577Y4035196D01*
X5717286Y4033062D01*
X5720689Y4030167D01*
X5723788Y4026306D01*
X5726531Y4021632D01*
X5728919Y4015994D01*
X5730900Y4009440D01*
X5732475Y4001973D01*
X5733592Y3993591D01*
X5734304Y3984193D01*
X5734558Y3973829D01*
X5734304Y3963263D01*
X5733592Y3953713D01*
X5732475Y3945128D01*
X5730900Y3937508D01*
X5728919Y3930853D01*
X5726531Y3925112D01*
X5723788Y3920337D01*
X5720689Y3916426D01*
X5717286Y3913378D01*
X5713577Y3911244D01*
X5709615Y3909974D01*
X5705348Y3909568D01*
X5701030Y3909974D01*
X5696966Y3911244D01*
X5693206Y3913378D01*
X5689752Y3916426D01*
X5686602Y3920337D01*
X5683808Y3925112D01*
X5681421Y3930853D01*
X5679389Y3937508D01*
X5677763Y3945128D01*
X5676595Y3953713D01*
X5675884Y3963263D01*
X5675630Y3973829D01*
X5659628Y3973829D01*
X5659831Y3964381D01*
X5660440Y3955542D01*
X5661456Y3947363D01*
X5662828Y3939743D01*
X5664606Y3932783D01*
X5666740Y3926433D01*
X5669178Y3920693D01*
X5672023Y3915562D01*
X5675172Y3911041D01*
X5678627Y3907129D01*
X5682386Y3903827D01*
X5686399Y3901135D01*
X5690768Y3899052D01*
X5695340Y3897528D01*
X5700217Y3896664D01*
X5705348Y3896360D01*
X5710478Y3896664D01*
X5715304Y3897528D01*
X5719876Y3899052D01*
X5724194Y3901135D01*
X5728208Y3903827D01*
X5731916Y3907129D01*
X5735320Y3911041D01*
X5738418Y3915562D01*
X5741212Y3920693D01*
X5743600Y3926433D01*
X5745683Y3932783D01*
X5747410Y3939743D01*
X5748782Y3947363D01*
X5749747Y3955542D01*
X5750356Y3964381D01*
X5750560Y3973829D01*
X5750356Y3983177D01*
X5749747Y3991914D01*
X5748782Y4000042D01*
X5747410Y4007510D01*
X5745683Y4014419D01*
X5743600Y4020667D01*
X5741212Y4026357D01*
X5738418Y4031386D01*
X5735320Y4035856D01*
X5731916Y4039666D01*
X5728208Y4042918D01*
X5724194Y4045610D01*
X5719876Y4047642D01*
X5715304Y4049115D01*
X5710478Y4049979D01*
G37*
G36*
X5403342Y4049776D02*
G01*
X5397804Y4049471D01*
X5392521Y4048556D01*
X5387594Y4047032D01*
X5382971Y4045000D01*
X5378704Y4042410D01*
X5374944Y4039362D01*
X5371592Y4035856D01*
X5368798Y4031843D01*
X5366512Y4027474D01*
X5364835Y4022750D01*
X5363819Y4017619D01*
X5363464Y4012184D01*
X5378704Y4012184D01*
X5379161Y4017568D01*
X5380532Y4022445D01*
X5382666Y4026712D01*
X5385562Y4030370D01*
X5389118Y4033316D01*
X5393283Y4035501D01*
X5397957Y4036872D01*
X5403088Y4037329D01*
X5409031Y4036771D01*
X5414264Y4035145D01*
X5418836Y4032605D01*
X5422595Y4029252D01*
X5425541Y4025137D01*
X5427726Y4020515D01*
X5429046Y4015384D01*
X5429504Y4009898D01*
X5428437Y4001465D01*
X5425287Y3993438D01*
X5420156Y3985920D01*
X5413248Y3978910D01*
X5406644Y3981551D01*
X5400344Y3984447D01*
X5394502Y3987647D01*
X5389321Y3991254D01*
X5384952Y3995420D01*
X5381599Y4000246D01*
X5379466Y4005783D01*
X5378704Y4012184D01*
X5363464Y4012184D01*
X5363870Y4006596D01*
X5365038Y4001363D01*
X5366918Y3996537D01*
X5369407Y3992118D01*
X5372404Y3988054D01*
X5375808Y3984396D01*
X5379516Y3981094D01*
X5383530Y3978148D01*
X5383530Y3977386D01*
X5378399Y3974337D01*
X5373420Y3970629D01*
X5368747Y3966362D01*
X5364530Y3961434D01*
X5360974Y3955948D01*
X5358231Y3949903D01*
X5356453Y3943197D01*
X5355929Y3937000D01*
X5370830Y3937000D01*
X5371236Y3942486D01*
X5372404Y3947668D01*
X5374335Y3952595D01*
X5376875Y3957218D01*
X5380024Y3961434D01*
X5383682Y3965346D01*
X5387848Y3968902D01*
X5392420Y3972051D01*
X5402935Y3967734D01*
X5412536Y3963162D01*
X5416905Y3960672D01*
X5420817Y3957980D01*
X5424322Y3955034D01*
X5427319Y3951782D01*
X5429758Y3948226D01*
X5431536Y3944264D01*
X5432653Y3939844D01*
X5433060Y3934968D01*
X5432501Y3929481D01*
X5430926Y3924401D01*
X5428335Y3919931D01*
X5424830Y3916070D01*
X5420512Y3912870D01*
X5415381Y3910533D01*
X5409539Y3909060D01*
X5403088Y3908551D01*
X5396433Y3909110D01*
X5390337Y3910736D01*
X5384850Y3913276D01*
X5380075Y3916679D01*
X5376214Y3920845D01*
X5373319Y3925722D01*
X5371490Y3931107D01*
X5370830Y3937000D01*
X5355929Y3937000D01*
X5355844Y3935984D01*
X5356250Y3930345D01*
X5357418Y3925011D01*
X5359349Y3920032D01*
X5361990Y3915460D01*
X5365292Y3911244D01*
X5369204Y3907485D01*
X5373624Y3904234D01*
X5378653Y3901490D01*
X5384139Y3899306D01*
X5390083Y3897680D01*
X5396382Y3896715D01*
X5403088Y3896360D01*
X5409742Y3896715D01*
X5415991Y3897680D01*
X5421782Y3899306D01*
X5427116Y3901490D01*
X5431942Y3904234D01*
X5436260Y3907434D01*
X5439968Y3911041D01*
X5443067Y3915105D01*
X5445506Y3919524D01*
X5447334Y3924249D01*
X5448452Y3929227D01*
X5448808Y3934460D01*
X5448249Y3941673D01*
X5446725Y3948074D01*
X5444286Y3953764D01*
X5441086Y3958793D01*
X5437327Y3963212D01*
X5433060Y3967124D01*
X5428437Y3970528D01*
X5423662Y3973576D01*
X5423662Y3974592D01*
X5427065Y3977487D01*
X5430570Y3980891D01*
X5433923Y3984853D01*
X5437022Y3989273D01*
X5439714Y3994150D01*
X5441848Y3999331D01*
X5443220Y4004868D01*
X5443728Y4010660D01*
X5443423Y4016248D01*
X5442458Y4021480D01*
X5440934Y4026408D01*
X5438851Y4030979D01*
X5436158Y4035094D01*
X5432958Y4038803D01*
X5429250Y4042003D01*
X5424982Y4044696D01*
X5420258Y4046880D01*
X5415076Y4048455D01*
X5409438Y4049420D01*
G37*
G36*
X5605018Y4047744D02*
G01*
X5543269Y3953510D01*
X5559552Y3953510D01*
X5595366Y4006850D01*
X5607304Y4028440D01*
X5608320Y4028440D01*
X5607405Y4015130D01*
X5607050Y4002024D01*
X5607050Y3953510D01*
X5543269Y3953510D01*
X5541772Y3951224D01*
X5541772Y3940301D01*
X5607050Y3940301D01*
X5607050Y3898900D01*
X5622544Y3898900D01*
X5622544Y3940301D01*
X5642864Y3940301D01*
X5642864Y3953510D01*
X5622544Y3953510D01*
X5622544Y4047744D01*
G37*
D10*
X3733800Y2488184D02*
G01*
X3733800Y2344928D01*
X3733800Y2344928D02*
G01*
X3815588Y2344928D01*
X3860545Y2488184D02*
G01*
X3860545Y2344928D01*
X3860545Y2488184D02*
G01*
X3949191Y2488184D01*
X3860545Y2419857D02*
G01*
X3915156Y2419857D01*
X3860545Y2344928D02*
G01*
X3949191Y2344928D01*
X3994150Y2488184D02*
G01*
X3994150Y2344928D01*
X3994150Y2488184D02*
G01*
X4041902Y2488184D01*
X4062475Y2481326D01*
X4076191Y2467610D01*
X4082795Y2454147D01*
X4089654Y2433573D01*
X4089654Y2399537D01*
X4082795Y2378963D01*
X4076191Y2365502D01*
X4062475Y2351786D01*
X4041902Y2344928D01*
X3994150Y2344928D01*
X4175506Y2488184D02*
G01*
X4155186Y2481326D01*
X4141470Y2461005D01*
X4134611Y2426715D01*
X4134611Y2406395D01*
X4141470Y2372360D01*
X4155186Y2351786D01*
X4175506Y2344928D01*
X4189222Y2344928D01*
X4209795Y2351786D01*
X4223258Y2372360D01*
X4230115Y2406395D01*
X4230115Y2426715D01*
X4223258Y2461005D01*
X4209795Y2481326D01*
X4189222Y2488184D01*
X4175506Y2488184D01*
X4406900Y2488184D02*
G01*
X4406900Y2344928D01*
X4406900Y2344928D02*
G01*
X4488688Y2344928D01*
X4533645Y2488184D02*
G01*
X4533645Y2344928D01*
X4533645Y2488184D02*
G01*
X4622291Y2488184D01*
X4533645Y2419857D02*
G01*
X4588256Y2419857D01*
X4533645Y2344928D02*
G01*
X4622291Y2344928D01*
X4667250Y2488184D02*
G01*
X4667250Y2344928D01*
X4667250Y2488184D02*
G01*
X4715002Y2488184D01*
X4735575Y2481326D01*
X4749291Y2467610D01*
X4755895Y2454147D01*
X4762754Y2433573D01*
X4762754Y2399537D01*
X4755895Y2378963D01*
X4749291Y2365502D01*
X4735575Y2351786D01*
X4715002Y2344928D01*
X4667250Y2344928D01*
X4807711Y2461005D02*
G01*
X4821427Y2467610D01*
X4842002Y2488184D01*
X4842002Y2344928D01*
X5054600Y2488184D02*
G01*
X5054600Y2344928D01*
X5054600Y2344928D02*
G01*
X5136388Y2344928D01*
X5181345Y2488184D02*
G01*
X5181345Y2344928D01*
X5181345Y2488184D02*
G01*
X5269991Y2488184D01*
X5181345Y2419857D02*
G01*
X5235956Y2419857D01*
X5181345Y2344928D02*
G01*
X5269991Y2344928D01*
X5314950Y2488184D02*
G01*
X5314950Y2344928D01*
X5314950Y2488184D02*
G01*
X5362702Y2488184D01*
X5383275Y2481326D01*
X5396991Y2467610D01*
X5403595Y2454147D01*
X5410454Y2433573D01*
X5410454Y2399537D01*
X5403595Y2378963D01*
X5396991Y2365502D01*
X5383275Y2351786D01*
X5362702Y2344928D01*
X5314950Y2344928D01*
X5462270Y2454147D02*
G01*
X5462270Y2461005D01*
X5469127Y2474468D01*
X5475986Y2481326D01*
X5489702Y2488184D01*
X5516879Y2488184D01*
X5530595Y2481326D01*
X5537200Y2474468D01*
X5544058Y2461005D01*
X5544058Y2447289D01*
X5537200Y2433573D01*
X5523738Y2413254D01*
X5455411Y2344928D01*
X5550915Y2344928D01*
X5765800Y2488184D02*
G01*
X5765800Y2344928D01*
X5765800Y2344928D02*
G01*
X5847588Y2344928D01*
X5892545Y2488184D02*
G01*
X5892545Y2344928D01*
X5892545Y2488184D02*
G01*
X5981191Y2488184D01*
X5892545Y2419857D02*
G01*
X5947156Y2419857D01*
X5892545Y2344928D02*
G01*
X5981191Y2344928D01*
X6026150Y2488184D02*
G01*
X6026150Y2344928D01*
X6026150Y2488184D02*
G01*
X6073902Y2488184D01*
X6094475Y2481326D01*
X6108191Y2467610D01*
X6114795Y2454147D01*
X6121654Y2433573D01*
X6121654Y2399537D01*
X6114795Y2378963D01*
X6108191Y2365502D01*
X6094475Y2351786D01*
X6073902Y2344928D01*
X6026150Y2344928D01*
X6180327Y2488184D02*
G01*
X6255258Y2488184D01*
X6214363Y2433573D01*
X6234938Y2433573D01*
X6248400Y2426715D01*
X6255258Y2419857D01*
X6262115Y2399537D01*
X6262115Y2385821D01*
X6255258Y2365502D01*
X6241795Y2351786D01*
X6221222Y2344928D01*
X6200902Y2344928D01*
X6180327Y2351786D01*
X6173470Y2358644D01*
X6166611Y2372360D01*
D11*
G01*
X4000505Y5588000D03*
G01*
X5854705Y5461000D03*
G01*
X5702305Y5257800D03*
G01*
X4521205Y4305300D03*
G01*
X5003805Y4305300D03*
G01*
X5473705Y4305300D03*
D12*
G01*
X4650790Y5956300D03*
G01*
X4650790Y5829300D03*
G01*
X4650790Y5702300D03*
G01*
X4650790Y5575300D03*
G01*
X5356809Y5956300D03*
G01*
X5356809Y5829300D03*
G01*
X5356809Y5702300D03*
G01*
X5356809Y5575300D03*
D11*
G01*
X4418004Y4991100D03*
D13*
G01*
X4217995Y4991100D03*
D11*
G01*
X5116504Y6172200D03*
D13*
G01*
X4916495Y6172200D03*
D14*
G01*
X5753100Y5678497D03*
D15*
G01*
X5753100Y5878502D03*
D16*
G01*
X4241800Y5878502D03*
D17*
G01*
X4241800Y5678497D03*
D11*
G01*
X5903904Y4610100D03*
D13*
G01*
X5703895Y4610100D03*
D11*
G01*
X5421304Y4610100D03*
D13*
G01*
X5221295Y4610100D03*
D11*
G01*
X4938704Y4610100D03*
D13*
G01*
X4738695Y4610100D03*
D11*
G01*
X4443404Y4610100D03*
D13*
G01*
X4243395Y4610100D03*
D18*
G01*
X4267225Y4386554D03*
G01*
X4267225Y4173194D03*
G01*
X4762525Y4386554D03*
G01*
X4762525Y4173194D03*
G01*
X5245125Y4386554D03*
G01*
X5245125Y4173194D03*
G01*
X5727725Y4386554D03*
G01*
X5727725Y4173194D03*
D19*
G01*
X4636508Y4991096D03*
G01*
X5396494Y4991096D03*
D20*
G01*
X5689600Y5003800D03*
G01*
X5994400Y5003800D03*
G01*
X4254500Y4826000D03*
G01*
X5016500Y4991100D03*
G01*
X4318000Y5384800D03*
M02*
