G04 Layer: TopLayer*
G04 EasyEDA v6.5.34, 2023-09-24 11:42:33*
G04 85920c42d4f548bdae791b01a5babccf,ed70181f279245e6aff80281ee7dc86a,10*
G04 Gerber Generator version 0.2*
G04 Scale: 100 percent, Rotated: No, Reflected: No *
G04 Dimensions in millimeters *
G04 leading zeros omitted , absolute positions ,4 integer and 5 decimal *
%FSLAX45Y45*%
%MOMM*%

%AMMACRO1*21,1,$1,$2,0,0,$3*%
%ADD10C,0.4000*%
%ADD11C,0.5000*%
%ADD12MACRO1,1.377X1.1325X90.0000*%
%ADD13O,2.2500082X0.6299962*%
%ADD14MACRO1,1.35X1.41X0.0000*%
%ADD15R,1.3500X1.4100*%
%ADD16R,1.3970X1.0160*%
%ADD17R,1.4000X1.5000*%
%ADD18C,1.0000*%
%ADD19C,0.0143*%

%LPD*%
G36*
X4330446Y3974795D02*
G01*
X4326534Y3975557D01*
X4323232Y3977792D01*
X4226509Y4074566D01*
X4224375Y4077665D01*
X4223512Y4081322D01*
X4224070Y4085082D01*
X4225950Y4088333D01*
X4225950Y4141419D01*
X4163771Y4141419D01*
X4159910Y4142232D01*
X4156608Y4144416D01*
X4053992Y4247032D01*
X4051757Y4250334D01*
X4050995Y4254246D01*
X4050995Y4991354D01*
X4051757Y4995265D01*
X4053992Y4998567D01*
X4113529Y5058105D01*
X4116832Y5060289D01*
X4120692Y5061051D01*
X4124604Y5060289D01*
X4127906Y5058105D01*
X4130090Y5054803D01*
X4130852Y5050891D01*
X4130852Y5031892D01*
X4183329Y5031892D01*
X4183329Y5090464D01*
X4170426Y5090464D01*
X4166514Y5091226D01*
X4163212Y5093411D01*
X4161028Y5096713D01*
X4160265Y5100624D01*
X4161028Y5104485D01*
X4163212Y5107787D01*
X4221632Y5166207D01*
X4224934Y5168442D01*
X4228846Y5169204D01*
X4368596Y5169204D01*
X4373219Y5169408D01*
X4377588Y5169966D01*
X4381855Y5170932D01*
X4386072Y5172252D01*
X4390136Y5173929D01*
X4394047Y5175961D01*
X4397756Y5178348D01*
X4401261Y5181041D01*
X4404664Y5184140D01*
X4480560Y5260035D01*
X4483658Y5263438D01*
X4486351Y5266944D01*
X4488738Y5270652D01*
X4490770Y5274564D01*
X4492447Y5278628D01*
X4493768Y5282844D01*
X4494733Y5287111D01*
X4495292Y5291480D01*
X4495495Y5296103D01*
X4495495Y5542686D01*
X4496460Y5547055D01*
X4499203Y5550560D01*
X4503166Y5552541D01*
X4507636Y5552643D01*
X4511700Y5550865D01*
X4514596Y5547512D01*
X4517898Y5541416D01*
X4524197Y5533339D01*
X4531715Y5526379D01*
X4540300Y5520791D01*
X4549698Y5516676D01*
X4559604Y5514187D01*
X4570222Y5513273D01*
X4588205Y5513273D01*
X4588205Y5553202D01*
X4505655Y5553202D01*
X4501794Y5553964D01*
X4498492Y5556199D01*
X4496257Y5559450D01*
X4495495Y5563362D01*
X4495495Y5587238D01*
X4496257Y5591149D01*
X4498492Y5594400D01*
X4501794Y5596636D01*
X4505655Y5597398D01*
X4588205Y5597398D01*
X4588205Y5630113D01*
X4588967Y5634024D01*
X4591151Y5637326D01*
X4594453Y5639511D01*
X4598365Y5640273D01*
X4703216Y5640273D01*
X4707128Y5639511D01*
X4710430Y5637326D01*
X4712614Y5634024D01*
X4713376Y5630113D01*
X4713376Y5597398D01*
X4789525Y5597398D01*
X4788560Y5600192D01*
X4783683Y5609183D01*
X4777384Y5617260D01*
X4769866Y5624220D01*
X4760569Y5630367D01*
X4757724Y5633161D01*
X4756200Y5636869D01*
X4756200Y5640832D01*
X4757724Y5644540D01*
X4760569Y5647334D01*
X4764887Y5650128D01*
X4767529Y5651347D01*
X4770424Y5651804D01*
X4775454Y5651804D01*
X4779365Y5651042D01*
X4782667Y5648807D01*
X4836007Y5595467D01*
X4838242Y5592165D01*
X4839004Y5588254D01*
X4839004Y5524246D01*
X4838242Y5520334D01*
X4836007Y5517032D01*
X4600956Y5281980D01*
X4597857Y5278577D01*
X4595164Y5275072D01*
X4592777Y5271363D01*
X4590745Y5267452D01*
X4589068Y5263388D01*
X4587748Y5259171D01*
X4586782Y5254904D01*
X4586224Y5250535D01*
X4586020Y5245912D01*
X4586020Y5106771D01*
X4585258Y5102860D01*
X4583023Y5099558D01*
X4579721Y5097373D01*
X4575860Y5096611D01*
X4567021Y5096611D01*
X4560570Y5095951D01*
X4554829Y5094224D01*
X4549597Y5091430D01*
X4544974Y5087620D01*
X4541164Y5082997D01*
X4538370Y5077764D01*
X4536643Y5072024D01*
X4535982Y5065572D01*
X4535982Y5056784D01*
X4535220Y5052872D01*
X4533036Y5049570D01*
X4529734Y5047386D01*
X4525822Y5046624D01*
X4515307Y5046624D01*
X4511395Y5047386D01*
X4508093Y5049570D01*
X4505909Y5052872D01*
X4505147Y5056784D01*
X4505147Y5059426D01*
X4504486Y5065877D01*
X4502759Y5071618D01*
X4499965Y5076850D01*
X4496155Y5081473D01*
X4491532Y5085283D01*
X4486300Y5088077D01*
X4480560Y5089804D01*
X4474108Y5090464D01*
X4361891Y5090464D01*
X4355439Y5089804D01*
X4349699Y5088077D01*
X4344466Y5085283D01*
X4339844Y5081473D01*
X4336034Y5076850D01*
X4333240Y5071618D01*
X4331512Y5065877D01*
X4330852Y5059426D01*
X4330852Y4922723D01*
X4331512Y4916322D01*
X4333240Y4910582D01*
X4336034Y4905349D01*
X4339844Y4900726D01*
X4344466Y4896916D01*
X4349699Y4894122D01*
X4355439Y4892395D01*
X4361891Y4891735D01*
X4474108Y4891735D01*
X4480560Y4892395D01*
X4486300Y4894122D01*
X4491532Y4896916D01*
X4496155Y4900726D01*
X4499965Y4905349D01*
X4502759Y4910582D01*
X4504486Y4916322D01*
X4505147Y4922723D01*
X4505147Y4925415D01*
X4505909Y4929327D01*
X4508093Y4932629D01*
X4511395Y4934813D01*
X4515307Y4935575D01*
X4525822Y4935575D01*
X4529734Y4934813D01*
X4533036Y4932629D01*
X4535220Y4929327D01*
X4535982Y4925415D01*
X4535982Y4916576D01*
X4536643Y4910175D01*
X4538370Y4904435D01*
X4541164Y4899152D01*
X4544974Y4894580D01*
X4549597Y4890770D01*
X4554829Y4887976D01*
X4560570Y4886198D01*
X4567021Y4885588D01*
X4675327Y4885588D01*
X4679238Y4884826D01*
X4682490Y4882591D01*
X4684725Y4879340D01*
X4685487Y4875428D01*
X4684725Y4871516D01*
X4682490Y4868265D01*
X4642967Y4828692D01*
X4639665Y4826457D01*
X4635754Y4825695D01*
X4496003Y4825695D01*
X4491380Y4825492D01*
X4487011Y4824933D01*
X4482744Y4823968D01*
X4478528Y4822647D01*
X4474464Y4820970D01*
X4470552Y4818938D01*
X4466844Y4816551D01*
X4463338Y4813858D01*
X4459935Y4810760D01*
X4407916Y4758740D01*
X4404817Y4755337D01*
X4402124Y4751832D01*
X4399737Y4748123D01*
X4397705Y4744212D01*
X4396028Y4740148D01*
X4394708Y4735931D01*
X4393742Y4731664D01*
X4393184Y4727346D01*
X4392980Y4718964D01*
X4392218Y4715408D01*
X4390237Y4712309D01*
X4387342Y4710125D01*
X4383786Y4709109D01*
X4380839Y4708804D01*
X4375099Y4707077D01*
X4369866Y4704283D01*
X4365244Y4700473D01*
X4361434Y4695850D01*
X4358640Y4690618D01*
X4356912Y4684877D01*
X4356252Y4678426D01*
X4356252Y4541723D01*
X4356912Y4535322D01*
X4358640Y4529582D01*
X4361434Y4524349D01*
X4365244Y4519726D01*
X4369866Y4515916D01*
X4375099Y4513122D01*
X4380839Y4511395D01*
X4387291Y4510735D01*
X4409744Y4510735D01*
X4413605Y4509973D01*
X4416907Y4507788D01*
X4419142Y4504486D01*
X4419904Y4500575D01*
X4419904Y4457903D01*
X4420108Y4453280D01*
X4420666Y4448911D01*
X4421632Y4444644D01*
X4422952Y4440428D01*
X4424629Y4436364D01*
X4426661Y4432452D01*
X4429048Y4428744D01*
X4431741Y4425238D01*
X4434840Y4421835D01*
X4444949Y4411726D01*
X4447286Y4408170D01*
X4447946Y4404004D01*
X4446879Y4399940D01*
X4444238Y4396689D01*
X4443018Y4395673D01*
X4439259Y4391050D01*
X4436414Y4385818D01*
X4434687Y4380077D01*
X4434078Y4373626D01*
X4434078Y4236923D01*
X4434687Y4230522D01*
X4436414Y4224782D01*
X4439259Y4219549D01*
X4443018Y4214926D01*
X4447641Y4211116D01*
X4452924Y4208322D01*
X4458614Y4206595D01*
X4465066Y4205935D01*
X4577334Y4205935D01*
X4583785Y4206595D01*
X4589475Y4208322D01*
X4594758Y4211116D01*
X4599381Y4214926D01*
X4603140Y4219549D01*
X4605985Y4224782D01*
X4607712Y4230522D01*
X4608322Y4236923D01*
X4608322Y4373626D01*
X4607712Y4380077D01*
X4605985Y4385818D01*
X4603140Y4391050D01*
X4599381Y4395673D01*
X4594758Y4399483D01*
X4589475Y4402277D01*
X4583785Y4404004D01*
X4580229Y4404360D01*
X4576876Y4405325D01*
X4574032Y4407306D01*
X4572050Y4410151D01*
X4571136Y4413504D01*
X4569968Y4419955D01*
X4568647Y4424172D01*
X4566970Y4428236D01*
X4564938Y4432147D01*
X4562551Y4435856D01*
X4559858Y4439361D01*
X4556760Y4442764D01*
X4523892Y4475632D01*
X4521657Y4478934D01*
X4520895Y4482846D01*
X4520895Y4515256D01*
X4521504Y4518710D01*
X4523232Y4521708D01*
X4525365Y4524349D01*
X4528159Y4529582D01*
X4529886Y4535322D01*
X4530547Y4541723D01*
X4530547Y4678426D01*
X4529886Y4684877D01*
X4528159Y4690618D01*
X4525365Y4695850D01*
X4521555Y4700473D01*
X4516932Y4704283D01*
X4512665Y4707382D01*
X4510786Y4710633D01*
X4510227Y4714392D01*
X4511040Y4718050D01*
X4513732Y4721707D01*
X4517034Y4723942D01*
X4520946Y4724704D01*
X4662525Y4724755D01*
X4666335Y4724196D01*
X4669688Y4722215D01*
X4672076Y4719116D01*
X4673092Y4715357D01*
X4672634Y4711496D01*
X4670755Y4708093D01*
X4667758Y4705654D01*
X4665167Y4704283D01*
X4660544Y4700473D01*
X4656734Y4695850D01*
X4653940Y4690618D01*
X4652213Y4684877D01*
X4651552Y4678426D01*
X4651552Y4541723D01*
X4652213Y4535322D01*
X4653940Y4529582D01*
X4656734Y4524349D01*
X4660544Y4519726D01*
X4665167Y4515916D01*
X4670399Y4513122D01*
X4676140Y4511395D01*
X4679035Y4511090D01*
X4682591Y4510074D01*
X4685538Y4507788D01*
X4687519Y4504639D01*
X4688179Y4500981D01*
X4688179Y4475226D01*
X4687316Y4471009D01*
X4684776Y4467606D01*
X4675733Y4462678D01*
X4671161Y4458868D01*
X4667351Y4454296D01*
X4664557Y4449013D01*
X4662779Y4443272D01*
X4662170Y4436872D01*
X4662170Y4336237D01*
X4662779Y4329836D01*
X4664557Y4324096D01*
X4667351Y4318812D01*
X4671161Y4314240D01*
X4675733Y4310430D01*
X4681016Y4307636D01*
X4686757Y4305858D01*
X4693158Y4305249D01*
X4831892Y4305249D01*
X4838293Y4305858D01*
X4844034Y4307636D01*
X4849317Y4310430D01*
X4853889Y4314240D01*
X4857699Y4318812D01*
X4860493Y4324096D01*
X4862271Y4329836D01*
X4862880Y4336237D01*
X4862880Y4436872D01*
X4862271Y4443272D01*
X4860493Y4449013D01*
X4857699Y4454296D01*
X4853889Y4458868D01*
X4849317Y4462678D01*
X4844034Y4465472D01*
X4838293Y4467250D01*
X4831892Y4467860D01*
X4799380Y4467860D01*
X4795469Y4468622D01*
X4792167Y4470857D01*
X4789982Y4474159D01*
X4789220Y4478020D01*
X4789220Y4500981D01*
X4789881Y4504639D01*
X4791862Y4507788D01*
X4794808Y4510074D01*
X4798364Y4511090D01*
X4801260Y4511395D01*
X4807000Y4513122D01*
X4812233Y4515916D01*
X4816856Y4519726D01*
X4820666Y4524349D01*
X4823460Y4529582D01*
X4825187Y4535322D01*
X4825847Y4541723D01*
X4825847Y4653991D01*
X4826609Y4657902D01*
X4828794Y4661204D01*
X4832096Y4663389D01*
X4836007Y4664151D01*
X4839868Y4663389D01*
X4843170Y4661204D01*
X4848606Y4655769D01*
X4850790Y4652467D01*
X4851552Y4648606D01*
X4851552Y4541723D01*
X4852212Y4535322D01*
X4853940Y4529582D01*
X4856734Y4524349D01*
X4860544Y4519726D01*
X4865166Y4515916D01*
X4870399Y4513122D01*
X4876139Y4511395D01*
X4879086Y4511090D01*
X4882692Y4510024D01*
X4885639Y4507788D01*
X4887569Y4504639D01*
X4888280Y4500981D01*
X4888280Y4472127D01*
X4888484Y4467504D01*
X4889042Y4463135D01*
X4890008Y4458868D01*
X4891328Y4454652D01*
X4893005Y4450588D01*
X4895037Y4446676D01*
X4897424Y4442968D01*
X4900117Y4439462D01*
X4903216Y4436059D01*
X4927549Y4411726D01*
X4929886Y4408170D01*
X4930546Y4404004D01*
X4929479Y4399940D01*
X4926838Y4396689D01*
X4925618Y4395673D01*
X4921859Y4391050D01*
X4919014Y4385818D01*
X4917287Y4380077D01*
X4916678Y4373626D01*
X4916678Y4236923D01*
X4917287Y4230522D01*
X4919014Y4224782D01*
X4921859Y4219549D01*
X4925618Y4214926D01*
X4930241Y4211116D01*
X4935524Y4208322D01*
X4941214Y4206595D01*
X4947666Y4205935D01*
X5059934Y4205935D01*
X5066385Y4206595D01*
X5072075Y4208322D01*
X5077358Y4211116D01*
X5081981Y4214926D01*
X5085740Y4219549D01*
X5088585Y4224782D01*
X5090312Y4230522D01*
X5090922Y4236923D01*
X5090922Y4373626D01*
X5090312Y4380077D01*
X5088585Y4385818D01*
X5085740Y4391050D01*
X5081981Y4395673D01*
X5077358Y4399483D01*
X5072075Y4402277D01*
X5066385Y4404004D01*
X5062829Y4404360D01*
X5059476Y4405325D01*
X5056632Y4407306D01*
X5054650Y4410151D01*
X5053736Y4413504D01*
X5052568Y4419955D01*
X5051247Y4424172D01*
X5049570Y4428236D01*
X5047538Y4432147D01*
X5045151Y4435856D01*
X5042458Y4439361D01*
X5039360Y4442764D01*
X4992268Y4489856D01*
X4990033Y4493158D01*
X4989271Y4497070D01*
X4989271Y4500981D01*
X4989982Y4504639D01*
X4991912Y4507788D01*
X4994859Y4510074D01*
X4998466Y4511090D01*
X5001260Y4511395D01*
X5007000Y4513122D01*
X5012232Y4515916D01*
X5016855Y4519726D01*
X5020665Y4524349D01*
X5023459Y4529582D01*
X5025186Y4535322D01*
X5025847Y4541723D01*
X5025847Y4678426D01*
X5025186Y4684877D01*
X5023459Y4690618D01*
X5020665Y4695850D01*
X5016855Y4700473D01*
X5012232Y4704283D01*
X5007000Y4707077D01*
X5001260Y4708804D01*
X4994808Y4709464D01*
X4941976Y4709464D01*
X4938115Y4710226D01*
X4934813Y4712411D01*
X4904892Y4742332D01*
X4902657Y4745634D01*
X4901895Y4749546D01*
X4901895Y5097526D01*
X4902708Y5101437D01*
X4904943Y5104790D01*
X5199329Y5394858D01*
X5202631Y5397042D01*
X5206492Y5397804D01*
X5416143Y5397804D01*
X5420004Y5397042D01*
X5423306Y5394807D01*
X5425541Y5391505D01*
X5426303Y5387644D01*
X5425541Y5383733D01*
X5423306Y5380431D01*
X5171440Y5128564D01*
X5168341Y5125161D01*
X5165648Y5121656D01*
X5163261Y5117947D01*
X5161229Y5114036D01*
X5159552Y5109972D01*
X5158232Y5105755D01*
X5157266Y5101488D01*
X5156708Y5097119D01*
X5156504Y5092496D01*
X5156504Y4864303D01*
X5156708Y4859680D01*
X5157266Y4855311D01*
X5158232Y4851044D01*
X5159552Y4846828D01*
X5161229Y4842764D01*
X5163261Y4838852D01*
X5165648Y4835144D01*
X5168341Y4831638D01*
X5171440Y4828235D01*
X5272887Y4726787D01*
X5275072Y4723485D01*
X5275834Y4719624D01*
X5275072Y4715713D01*
X5272887Y4712411D01*
X5269585Y4710226D01*
X5265674Y4709464D01*
X5165191Y4709464D01*
X5158740Y4708804D01*
X5152999Y4707077D01*
X5147767Y4704283D01*
X5143144Y4700473D01*
X5139334Y4695850D01*
X5136540Y4690618D01*
X5134813Y4684877D01*
X5134152Y4678426D01*
X5134152Y4541723D01*
X5134813Y4535322D01*
X5136540Y4529582D01*
X5139334Y4524349D01*
X5143144Y4519726D01*
X5147767Y4515916D01*
X5152999Y4513122D01*
X5158740Y4511395D01*
X5161635Y4511090D01*
X5165191Y4510074D01*
X5168138Y4507788D01*
X5170119Y4504639D01*
X5170779Y4500981D01*
X5170779Y4475226D01*
X5169916Y4471009D01*
X5167376Y4467606D01*
X5158333Y4462678D01*
X5153761Y4458868D01*
X5149951Y4454296D01*
X5147157Y4449013D01*
X5145379Y4443272D01*
X5144770Y4436872D01*
X5144770Y4336237D01*
X5145379Y4329836D01*
X5147157Y4324096D01*
X5149951Y4318812D01*
X5153761Y4314240D01*
X5158333Y4310430D01*
X5163616Y4307636D01*
X5169357Y4305858D01*
X5175758Y4305249D01*
X5314492Y4305249D01*
X5320893Y4305858D01*
X5326634Y4307636D01*
X5331917Y4310430D01*
X5336489Y4314240D01*
X5340299Y4318812D01*
X5343093Y4324096D01*
X5344871Y4329836D01*
X5345480Y4336237D01*
X5345480Y4436872D01*
X5344871Y4443272D01*
X5343093Y4449013D01*
X5340299Y4454296D01*
X5336489Y4458868D01*
X5331917Y4462678D01*
X5326634Y4465472D01*
X5320893Y4467250D01*
X5314492Y4467860D01*
X5281980Y4467860D01*
X5278069Y4468622D01*
X5274767Y4470857D01*
X5272582Y4474159D01*
X5271820Y4478020D01*
X5271820Y4500981D01*
X5272481Y4504639D01*
X5274462Y4507788D01*
X5277408Y4510074D01*
X5280964Y4511090D01*
X5283860Y4511395D01*
X5289600Y4513122D01*
X5294833Y4515916D01*
X5299456Y4519726D01*
X5303266Y4524349D01*
X5306060Y4529582D01*
X5307787Y4535322D01*
X5308447Y4541723D01*
X5308447Y4666691D01*
X5309209Y4670602D01*
X5311394Y4673904D01*
X5314696Y4676089D01*
X5318607Y4676851D01*
X5322468Y4676089D01*
X5325770Y4673904D01*
X5331206Y4668469D01*
X5333390Y4665167D01*
X5334152Y4661306D01*
X5334152Y4541723D01*
X5334812Y4535322D01*
X5336540Y4529582D01*
X5339334Y4524349D01*
X5343144Y4519726D01*
X5347766Y4515916D01*
X5352999Y4513122D01*
X5358739Y4511395D01*
X5361686Y4511090D01*
X5365292Y4510024D01*
X5368239Y4507788D01*
X5370169Y4504639D01*
X5370880Y4500981D01*
X5370880Y4484827D01*
X5371084Y4480204D01*
X5371642Y4475835D01*
X5372608Y4471568D01*
X5373928Y4467352D01*
X5375605Y4463288D01*
X5377637Y4459376D01*
X5380024Y4455668D01*
X5382717Y4452162D01*
X5385816Y4448759D01*
X5414060Y4420514D01*
X5416296Y4417060D01*
X5417007Y4412945D01*
X5415991Y4408932D01*
X5413451Y4405630D01*
X5409793Y4403598D01*
X5405424Y4402277D01*
X5400141Y4399483D01*
X5395518Y4395673D01*
X5391759Y4391050D01*
X5388914Y4385818D01*
X5387187Y4380077D01*
X5386578Y4373626D01*
X5386578Y4236923D01*
X5387187Y4230522D01*
X5388914Y4224782D01*
X5391759Y4219549D01*
X5395518Y4214926D01*
X5400141Y4211116D01*
X5405424Y4208322D01*
X5411114Y4206595D01*
X5417566Y4205935D01*
X5529834Y4205935D01*
X5536285Y4206595D01*
X5541975Y4208322D01*
X5547258Y4211116D01*
X5551881Y4214926D01*
X5555640Y4219549D01*
X5558485Y4224782D01*
X5560212Y4230522D01*
X5560822Y4236923D01*
X5560822Y4373626D01*
X5560212Y4380077D01*
X5558485Y4385818D01*
X5555640Y4391050D01*
X5551881Y4395673D01*
X5547258Y4399483D01*
X5542280Y4402124D01*
X5539435Y4404410D01*
X5537555Y4407509D01*
X5536895Y4411116D01*
X5536895Y4419396D01*
X5536692Y4424019D01*
X5536133Y4428388D01*
X5535168Y4432655D01*
X5533847Y4436872D01*
X5532170Y4440936D01*
X5530138Y4444847D01*
X5527751Y4448556D01*
X5525058Y4452061D01*
X5521960Y4455464D01*
X5482183Y4495241D01*
X5479897Y4498746D01*
X5479237Y4502810D01*
X5480253Y4506874D01*
X5482793Y4510176D01*
X5486400Y4512157D01*
X5489600Y4513122D01*
X5494832Y4515916D01*
X5499455Y4519726D01*
X5503265Y4524349D01*
X5506059Y4529582D01*
X5507786Y4535322D01*
X5508447Y4541723D01*
X5508447Y4678426D01*
X5507786Y4684877D01*
X5506059Y4690618D01*
X5503265Y4695850D01*
X5499455Y4700473D01*
X5494832Y4704283D01*
X5489600Y4707077D01*
X5483860Y4708804D01*
X5477408Y4709464D01*
X5437276Y4709464D01*
X5433415Y4710226D01*
X5430113Y4712411D01*
X5260492Y4882032D01*
X5258257Y4885334D01*
X5257495Y4889246D01*
X5257495Y5067554D01*
X5258257Y5071465D01*
X5260492Y5074767D01*
X5636260Y5450535D01*
X5639358Y5453938D01*
X5642051Y5457444D01*
X5644438Y5461152D01*
X5646470Y5465064D01*
X5648147Y5469128D01*
X5649468Y5473344D01*
X5650433Y5477611D01*
X5650992Y5481980D01*
X5651195Y5486603D01*
X5651195Y5575503D01*
X5651906Y5579262D01*
X5653938Y5582462D01*
X5657037Y5584698D01*
X5660694Y5585663D01*
X5664454Y5585206D01*
X5668670Y5582666D01*
X5673953Y5579872D01*
X5679643Y5578144D01*
X5686094Y5577484D01*
X5713018Y5577484D01*
X5713018Y5636920D01*
X5661355Y5636920D01*
X5657494Y5637682D01*
X5654192Y5639866D01*
X5651957Y5643168D01*
X5651195Y5647080D01*
X5651195Y5709920D01*
X5651957Y5713831D01*
X5654192Y5717133D01*
X5657494Y5719318D01*
X5661355Y5720080D01*
X5713018Y5720080D01*
X5713018Y5767324D01*
X5713780Y5771235D01*
X5715965Y5774537D01*
X5719267Y5776722D01*
X5723178Y5777484D01*
X5783021Y5777484D01*
X5786932Y5776722D01*
X5790234Y5774537D01*
X5792419Y5771235D01*
X5793181Y5767324D01*
X5793181Y5720080D01*
X5851093Y5720080D01*
X5851093Y5748477D01*
X5850483Y5754928D01*
X5850890Y5759043D01*
X5852922Y5762650D01*
X5856224Y5765139D01*
X5860237Y5766104D01*
X5864301Y5765393D01*
X5867755Y5763107D01*
X5935929Y5694984D01*
X5938113Y5691682D01*
X5938875Y5687822D01*
X5938875Y5566460D01*
X5938062Y5562346D01*
X5935624Y5558993D01*
X5932068Y5556859D01*
X5927953Y5556300D01*
X5917285Y5559704D01*
X5910834Y5560364D01*
X5836361Y5560364D01*
X5831992Y5561330D01*
X5828487Y5564073D01*
X5826506Y5568035D01*
X5826353Y5572506D01*
X5828182Y5576570D01*
X5831535Y5579465D01*
X5837529Y5582666D01*
X5842152Y5586476D01*
X5845911Y5591098D01*
X5848756Y5596331D01*
X5850483Y5602071D01*
X5851093Y5608472D01*
X5851093Y5636920D01*
X5793181Y5636920D01*
X5793181Y5567578D01*
X5792520Y5563971D01*
X5790641Y5560822D01*
X5787694Y5558586D01*
X5781090Y5555132D01*
X5776518Y5551373D01*
X5772759Y5546750D01*
X5769914Y5541518D01*
X5768187Y5535777D01*
X5767578Y5529326D01*
X5767578Y5392623D01*
X5768187Y5386222D01*
X5769914Y5380482D01*
X5772759Y5375249D01*
X5774588Y5373014D01*
X5776468Y5369509D01*
X5776823Y5365546D01*
X5775706Y5361736D01*
X5773166Y5358688D01*
X5769660Y5356809D01*
X5765749Y5356453D01*
X5758434Y5357164D01*
X5736945Y5357164D01*
X5736945Y5298592D01*
X5789422Y5298592D01*
X5789422Y5326126D01*
X5788812Y5332577D01*
X5787085Y5338318D01*
X5784240Y5343550D01*
X5782411Y5345785D01*
X5780532Y5349290D01*
X5780176Y5353253D01*
X5781344Y5357063D01*
X5783834Y5360111D01*
X5787339Y5361990D01*
X5791250Y5362346D01*
X5798566Y5361635D01*
X5910834Y5361635D01*
X5917285Y5362295D01*
X5927953Y5365699D01*
X5932068Y5365140D01*
X5935624Y5363006D01*
X5938062Y5359654D01*
X5938875Y5355539D01*
X5938875Y5066233D01*
X5938062Y5062169D01*
X5935421Y5058562D01*
X5927902Y5049113D01*
X5921908Y5038699D01*
X5917488Y5027523D01*
X5914796Y5015788D01*
X5914034Y5005425D01*
X5913120Y5001920D01*
X5911088Y4998974D01*
X5796584Y4884470D01*
X5793282Y4882286D01*
X5789422Y4881524D01*
X5500878Y4881524D01*
X5497017Y4882286D01*
X5492546Y4885639D01*
X5490464Y4888687D01*
X5489600Y4892243D01*
X5490057Y4895900D01*
X5494629Y4904435D01*
X5496356Y4910175D01*
X5497017Y4916576D01*
X5497017Y5065572D01*
X5496356Y5072024D01*
X5494629Y5077764D01*
X5491835Y5082997D01*
X5488025Y5087620D01*
X5483402Y5091430D01*
X5478170Y5094224D01*
X5472430Y5095951D01*
X5465978Y5096611D01*
X5326989Y5096611D01*
X5320538Y5095951D01*
X5314848Y5094224D01*
X5309565Y5091430D01*
X5304942Y5087620D01*
X5301183Y5082997D01*
X5298338Y5077764D01*
X5296611Y5072024D01*
X5296001Y5065572D01*
X5296001Y4916576D01*
X5296611Y4910175D01*
X5298338Y4904435D01*
X5301183Y4899152D01*
X5304942Y4894580D01*
X5309565Y4890770D01*
X5314848Y4887976D01*
X5320538Y4886198D01*
X5326989Y4885588D01*
X5336997Y4885588D01*
X5340604Y4884928D01*
X5343753Y4882997D01*
X5345988Y4880102D01*
X5348427Y4875479D01*
X5351018Y4871364D01*
X5353964Y4867554D01*
X5357368Y4863795D01*
X5434279Y4786884D01*
X5438038Y4783480D01*
X5441848Y4780534D01*
X5445963Y4777943D01*
X5450230Y4775708D01*
X5454700Y4773828D01*
X5459323Y4772406D01*
X5464048Y4771339D01*
X5468874Y4770729D01*
X5473903Y4770475D01*
X5816396Y4770475D01*
X5821426Y4770729D01*
X5826252Y4771339D01*
X5830976Y4772406D01*
X5835599Y4773828D01*
X5840069Y4775708D01*
X5844336Y4777943D01*
X5848451Y4780534D01*
X5852261Y4783480D01*
X5856020Y4786884D01*
X5989675Y4920589D01*
X5992977Y4922774D01*
X5996838Y4923536D01*
X6000394Y4923536D01*
X6012332Y4925314D01*
X6023813Y4928870D01*
X6034633Y4934102D01*
X6044590Y4940858D01*
X6053378Y4949037D01*
X6060897Y4958486D01*
X6066891Y4968900D01*
X6071311Y4980076D01*
X6074003Y4991811D01*
X6074867Y5003800D01*
X6074003Y5015788D01*
X6071311Y5027523D01*
X6066891Y5038699D01*
X6060897Y5049113D01*
X6053175Y5058765D01*
X6050737Y5062169D01*
X6049924Y5066233D01*
X6049924Y5714796D01*
X6049670Y5719826D01*
X6049060Y5724652D01*
X6047994Y5729376D01*
X6046571Y5733999D01*
X6044692Y5738469D01*
X6042456Y5742736D01*
X6039866Y5746851D01*
X6036919Y5750661D01*
X6033516Y5754420D01*
X5870295Y5917590D01*
X5866587Y5920994D01*
X5862726Y5923940D01*
X5856986Y5927293D01*
X5853887Y5929528D01*
X5851804Y5932779D01*
X5851093Y5936538D01*
X5851093Y5948527D01*
X5850483Y5954928D01*
X5848756Y5960668D01*
X5845911Y5965901D01*
X5842152Y5970524D01*
X5837529Y5974334D01*
X5832246Y5977128D01*
X5826556Y5978855D01*
X5820105Y5979515D01*
X5686094Y5979515D01*
X5679643Y5978855D01*
X5673953Y5977128D01*
X5668670Y5974334D01*
X5664047Y5970524D01*
X5660288Y5965901D01*
X5657443Y5960668D01*
X5655716Y5954928D01*
X5655106Y5948527D01*
X5655106Y5944260D01*
X5654294Y5940348D01*
X5652109Y5937046D01*
X5648807Y5934862D01*
X5644946Y5934100D01*
X5642102Y5934100D01*
X5638241Y5934862D01*
X5634939Y5937046D01*
X5576620Y5995416D01*
X5572861Y5998819D01*
X5569051Y6001766D01*
X5564936Y6004356D01*
X5560669Y6006592D01*
X5556199Y6008471D01*
X5551576Y6009894D01*
X5546852Y6010960D01*
X5542026Y6011570D01*
X5536996Y6011824D01*
X5467146Y6011824D01*
X5463032Y6012688D01*
X5457901Y6014923D01*
X5447995Y6017412D01*
X5437378Y6018326D01*
X5276240Y6018326D01*
X5265623Y6017412D01*
X5255666Y6014923D01*
X5246319Y6010808D01*
X5242712Y6008471D01*
X5240070Y6007252D01*
X5237175Y6006795D01*
X5219446Y6006795D01*
X5215534Y6007557D01*
X5212232Y6009792D01*
X5169966Y6052058D01*
X5167782Y6055360D01*
X5167020Y6059220D01*
X5167020Y6063081D01*
X5167680Y6066739D01*
X5169662Y6069888D01*
X5172608Y6072174D01*
X5176164Y6073190D01*
X5179060Y6073495D01*
X5184800Y6075222D01*
X5190032Y6078016D01*
X5194655Y6081826D01*
X5198465Y6086449D01*
X5201259Y6091682D01*
X5202986Y6097422D01*
X5203647Y6103823D01*
X5203647Y6240526D01*
X5202986Y6246977D01*
X5201259Y6252718D01*
X5198465Y6257950D01*
X5194655Y6262573D01*
X5190032Y6266383D01*
X5184800Y6269177D01*
X5179060Y6270904D01*
X5172608Y6271564D01*
X5060391Y6271564D01*
X5053939Y6270904D01*
X5048199Y6269177D01*
X5042966Y6266383D01*
X5038344Y6262573D01*
X5034534Y6257950D01*
X5031740Y6252718D01*
X5030012Y6246977D01*
X5029352Y6240526D01*
X5029352Y6103823D01*
X5030012Y6097422D01*
X5031740Y6091682D01*
X5034534Y6086449D01*
X5038344Y6081826D01*
X5042966Y6078016D01*
X5048199Y6075222D01*
X5053939Y6073495D01*
X5056835Y6073190D01*
X5060391Y6072174D01*
X5063337Y6069888D01*
X5065318Y6066739D01*
X5065979Y6063081D01*
X5065979Y6034328D01*
X5066182Y6029706D01*
X5066792Y6025337D01*
X5067706Y6021019D01*
X5069027Y6016853D01*
X5070754Y6012738D01*
X5072786Y6008827D01*
X5075123Y6005118D01*
X5077815Y6001664D01*
X5080965Y5998210D01*
X5158435Y5920740D01*
X5161838Y5917641D01*
X5165344Y5914948D01*
X5169052Y5912561D01*
X5172964Y5910529D01*
X5177028Y5908852D01*
X5181244Y5907532D01*
X5185511Y5906566D01*
X5189880Y5906008D01*
X5194503Y5905804D01*
X5237175Y5905804D01*
X5240121Y5905347D01*
X5242814Y5904077D01*
X5247081Y5901232D01*
X5249926Y5898388D01*
X5251399Y5894730D01*
X5251399Y5890717D01*
X5249875Y5887059D01*
X5247030Y5884265D01*
X5237734Y5878220D01*
X5230215Y5871260D01*
X5223916Y5863183D01*
X5219039Y5854192D01*
X5215737Y5844489D01*
X5214061Y5834430D01*
X5214061Y5824169D01*
X5215737Y5814110D01*
X5219039Y5804408D01*
X5223916Y5795416D01*
X5230215Y5787339D01*
X5237734Y5780379D01*
X5247030Y5774232D01*
X5249875Y5771438D01*
X5251399Y5767730D01*
X5251399Y5763768D01*
X5249875Y5760059D01*
X5247030Y5757265D01*
X5237734Y5751220D01*
X5230215Y5744260D01*
X5223916Y5736183D01*
X5219039Y5727192D01*
X5215737Y5717489D01*
X5214061Y5707430D01*
X5214061Y5697169D01*
X5215737Y5687110D01*
X5219039Y5677408D01*
X5223916Y5668416D01*
X5230215Y5660339D01*
X5237734Y5653379D01*
X5247030Y5647232D01*
X5249875Y5644438D01*
X5251399Y5640730D01*
X5251399Y5636768D01*
X5249875Y5633059D01*
X5247030Y5630265D01*
X5242712Y5627471D01*
X5240070Y5626252D01*
X5237175Y5625795D01*
X5131003Y5625795D01*
X5126380Y5625592D01*
X5122011Y5625033D01*
X5117744Y5624068D01*
X5113528Y5622747D01*
X5109464Y5621070D01*
X5105552Y5619038D01*
X5101844Y5616651D01*
X5098338Y5613958D01*
X5094935Y5610860D01*
X4952593Y5468518D01*
X4949291Y5466334D01*
X4945430Y5465572D01*
X4941519Y5466334D01*
X4938217Y5468518D01*
X4936032Y5471820D01*
X4935270Y5475732D01*
X4936032Y5479592D01*
X4938268Y5486044D01*
X4939233Y5490311D01*
X4939792Y5494680D01*
X4939995Y5499303D01*
X4939995Y5613196D01*
X4939792Y5617819D01*
X4939233Y5622188D01*
X4938268Y5626455D01*
X4936947Y5630672D01*
X4935270Y5634736D01*
X4933238Y5638647D01*
X4930851Y5642356D01*
X4928158Y5645861D01*
X4925060Y5649264D01*
X4836464Y5737860D01*
X4833061Y5740958D01*
X4829556Y5743651D01*
X4825847Y5746038D01*
X4821936Y5748070D01*
X4817872Y5749747D01*
X4813655Y5751068D01*
X4809388Y5752033D01*
X4805019Y5752592D01*
X4800396Y5752795D01*
X4770424Y5752795D01*
X4767478Y5753252D01*
X4764786Y5754522D01*
X4760518Y5757367D01*
X4757674Y5760212D01*
X4756200Y5763869D01*
X4756200Y5767882D01*
X4757724Y5771540D01*
X4760569Y5774334D01*
X4769866Y5780379D01*
X4777384Y5787339D01*
X4783683Y5795416D01*
X4788560Y5804408D01*
X4791862Y5814110D01*
X4793538Y5824169D01*
X4793538Y5834430D01*
X4791862Y5844489D01*
X4788560Y5854192D01*
X4783683Y5863183D01*
X4777384Y5871260D01*
X4769866Y5878220D01*
X4760569Y5884367D01*
X4757724Y5887161D01*
X4756200Y5890869D01*
X4756200Y5894832D01*
X4757724Y5898540D01*
X4760569Y5901334D01*
X4764887Y5904128D01*
X4767529Y5905347D01*
X4770424Y5905804D01*
X4863896Y5905804D01*
X4868519Y5906008D01*
X4872888Y5906566D01*
X4877155Y5907532D01*
X4881372Y5908852D01*
X4885436Y5910529D01*
X4889347Y5912561D01*
X4893056Y5914948D01*
X4896561Y5917641D01*
X4899964Y5920740D01*
X4951984Y5972759D01*
X4955082Y5976162D01*
X4957775Y5979668D01*
X4960162Y5983376D01*
X4962194Y5987288D01*
X4963871Y5991352D01*
X4965192Y5995568D01*
X4966157Y5999835D01*
X4966716Y6004204D01*
X4966919Y6008827D01*
X4966919Y6063081D01*
X4967630Y6066739D01*
X4969560Y6069888D01*
X4972507Y6072124D01*
X4976114Y6073190D01*
X4979060Y6073495D01*
X4984800Y6075222D01*
X4990033Y6078016D01*
X4994656Y6081826D01*
X4998466Y6086449D01*
X5001260Y6091682D01*
X5002987Y6097422D01*
X5003647Y6103823D01*
X5003647Y6240526D01*
X5002987Y6246977D01*
X5001260Y6252718D01*
X4998466Y6257950D01*
X4994656Y6262573D01*
X4990033Y6266383D01*
X4984800Y6269177D01*
X4979060Y6270904D01*
X4972608Y6271564D01*
X4860391Y6271564D01*
X4853940Y6270904D01*
X4848199Y6269177D01*
X4842967Y6266383D01*
X4838344Y6262573D01*
X4834534Y6257950D01*
X4831740Y6252718D01*
X4830013Y6246977D01*
X4829352Y6240526D01*
X4829352Y6103823D01*
X4830013Y6097422D01*
X4831740Y6091682D01*
X4834534Y6086449D01*
X4838344Y6081826D01*
X4842967Y6078016D01*
X4848199Y6075222D01*
X4853940Y6073495D01*
X4856734Y6073190D01*
X4860340Y6072174D01*
X4863287Y6069888D01*
X4865217Y6066739D01*
X4865928Y6063081D01*
X4865928Y6033770D01*
X4865166Y6029858D01*
X4862931Y6026556D01*
X4846167Y6009792D01*
X4842865Y6007557D01*
X4838954Y6006795D01*
X4770424Y6006795D01*
X4767529Y6007252D01*
X4764887Y6008471D01*
X4761280Y6010808D01*
X4751933Y6014923D01*
X4741976Y6017412D01*
X4731359Y6018326D01*
X4570222Y6018326D01*
X4559604Y6017412D01*
X4549698Y6014923D01*
X4540300Y6010808D01*
X4536744Y6008471D01*
X4534052Y6007252D01*
X4531156Y6006795D01*
X4483303Y6006795D01*
X4478680Y6006592D01*
X4474311Y6006033D01*
X4470044Y6005068D01*
X4465828Y6003747D01*
X4461764Y6002070D01*
X4457852Y6000038D01*
X4454144Y5997651D01*
X4450638Y5994958D01*
X4447235Y5991860D01*
X4387342Y5931966D01*
X4384040Y5929782D01*
X4380179Y5929020D01*
X4349953Y5929020D01*
X4346092Y5929782D01*
X4342790Y5931966D01*
X4340606Y5935268D01*
X4339793Y5939180D01*
X4339793Y5948527D01*
X4339183Y5954928D01*
X4337456Y5960668D01*
X4334611Y5965901D01*
X4330852Y5970524D01*
X4326229Y5974334D01*
X4320946Y5977128D01*
X4315256Y5978855D01*
X4308805Y5979515D01*
X4174794Y5979515D01*
X4168343Y5978855D01*
X4162653Y5977128D01*
X4157370Y5974334D01*
X4152747Y5970524D01*
X4148988Y5965901D01*
X4146143Y5960668D01*
X4144416Y5954928D01*
X4143806Y5948527D01*
X4143806Y5931001D01*
X4143248Y5927699D01*
X4141622Y5924702D01*
X4139082Y5922467D01*
X4135018Y5919876D01*
X4131564Y5917184D01*
X4128109Y5914034D01*
X3964940Y5750864D01*
X3961841Y5747461D01*
X3959148Y5743956D01*
X3956761Y5740247D01*
X3954729Y5736336D01*
X3953052Y5732272D01*
X3951732Y5728055D01*
X3950766Y5723788D01*
X3950208Y5719419D01*
X3950004Y5714796D01*
X3950004Y5697118D01*
X3949293Y5693460D01*
X3947363Y5690311D01*
X3944416Y5688025D01*
X3940810Y5687009D01*
X3937914Y5686704D01*
X3932224Y5684977D01*
X3926941Y5682183D01*
X3922318Y5678373D01*
X3918559Y5673750D01*
X3915714Y5668518D01*
X3913987Y5662777D01*
X3913378Y5656326D01*
X3913378Y5519623D01*
X3913987Y5513222D01*
X3915714Y5507482D01*
X3918559Y5502249D01*
X3922318Y5497626D01*
X3926941Y5493816D01*
X3932224Y5491022D01*
X3937914Y5489295D01*
X3944365Y5488635D01*
X4056634Y5488635D01*
X4063085Y5489295D01*
X4068775Y5491022D01*
X4074058Y5493816D01*
X4078681Y5497626D01*
X4082440Y5502249D01*
X4085285Y5507482D01*
X4087012Y5513222D01*
X4087622Y5519623D01*
X4087622Y5656326D01*
X4087012Y5662777D01*
X4085285Y5668518D01*
X4082440Y5673750D01*
X4078681Y5678373D01*
X4074058Y5682183D01*
X4068775Y5684977D01*
X4064406Y5686348D01*
X4060748Y5688330D01*
X4058208Y5691632D01*
X4057192Y5695645D01*
X4057904Y5699760D01*
X4060139Y5703214D01*
X4130548Y5773623D01*
X4133951Y5775858D01*
X4138015Y5776569D01*
X4142028Y5775655D01*
X4145279Y5773216D01*
X4147362Y5769660D01*
X4147870Y5765596D01*
X4144416Y5754928D01*
X4143806Y5748477D01*
X4143806Y5720080D01*
X4201718Y5720080D01*
X4201718Y5767324D01*
X4202480Y5771235D01*
X4204665Y5774537D01*
X4207967Y5776722D01*
X4211878Y5777484D01*
X4271721Y5777484D01*
X4275632Y5776722D01*
X4278934Y5774537D01*
X4281119Y5771235D01*
X4281881Y5767324D01*
X4281881Y5720080D01*
X4339793Y5720080D01*
X4339793Y5748477D01*
X4339183Y5754928D01*
X4337456Y5760669D01*
X4334611Y5765901D01*
X4327956Y5774131D01*
X4326991Y5778500D01*
X4327956Y5782868D01*
X4334611Y5791098D01*
X4337456Y5796330D01*
X4339183Y5802071D01*
X4339793Y5808522D01*
X4339793Y5817819D01*
X4340606Y5821730D01*
X4342790Y5825032D01*
X4346092Y5827217D01*
X4349953Y5827979D01*
X4405071Y5827979D01*
X4409694Y5828182D01*
X4414062Y5828792D01*
X4418380Y5829706D01*
X4422546Y5831027D01*
X4426661Y5832754D01*
X4430572Y5834786D01*
X4434281Y5837123D01*
X4437735Y5839815D01*
X4441190Y5842965D01*
X4501032Y5902807D01*
X4504334Y5905042D01*
X4508246Y5905804D01*
X4531156Y5905804D01*
X4534103Y5905347D01*
X4536795Y5904077D01*
X4541113Y5901232D01*
X4543907Y5898388D01*
X4545431Y5894730D01*
X4545380Y5890717D01*
X4543856Y5887059D01*
X4541012Y5884265D01*
X4531055Y5877763D01*
X4521352Y5873038D01*
X4517644Y5870651D01*
X4514138Y5867958D01*
X4510735Y5864860D01*
X4409440Y5763564D01*
X4406341Y5760161D01*
X4403648Y5756656D01*
X4401261Y5752947D01*
X4399229Y5749036D01*
X4397552Y5744972D01*
X4396232Y5740755D01*
X4395266Y5736488D01*
X4394708Y5732119D01*
X4394504Y5727496D01*
X4394504Y5446572D01*
X4393742Y5442762D01*
X4391609Y5439511D01*
X4388408Y5437276D01*
X4384598Y5436412D01*
X4380738Y5437073D01*
X4377436Y5439156D01*
X4368190Y5447741D01*
X4358233Y5454497D01*
X4349343Y5458764D01*
X4349343Y5416143D01*
X4384344Y5416143D01*
X4388205Y5415381D01*
X4391507Y5413197D01*
X4393742Y5409895D01*
X4394504Y5405983D01*
X4394504Y5363616D01*
X4393742Y5359704D01*
X4391507Y5356402D01*
X4388205Y5354218D01*
X4384344Y5353456D01*
X4349343Y5353456D01*
X4349343Y5310835D01*
X4358233Y5315102D01*
X4368190Y5321858D01*
X4377436Y5330444D01*
X4380738Y5332526D01*
X4384598Y5333187D01*
X4388408Y5332323D01*
X4391609Y5330088D01*
X4393742Y5326837D01*
X4394504Y5323027D01*
X4394504Y5321046D01*
X4393742Y5317134D01*
X4391507Y5313832D01*
X4350867Y5273192D01*
X4347565Y5270957D01*
X4343654Y5270195D01*
X4203903Y5270195D01*
X4199280Y5269992D01*
X4194911Y5269433D01*
X4190644Y5268468D01*
X4186428Y5267147D01*
X4182364Y5265470D01*
X4178452Y5263438D01*
X4174744Y5261051D01*
X4171238Y5258358D01*
X4167835Y5255260D01*
X3964940Y5052364D01*
X3961841Y5048961D01*
X3959148Y5045456D01*
X3956761Y5041747D01*
X3954729Y5037836D01*
X3953052Y5033772D01*
X3951732Y5029555D01*
X3950766Y5025288D01*
X3950208Y5020919D01*
X3950004Y5016296D01*
X3950004Y4248962D01*
X3949090Y4244746D01*
X3946550Y4241342D01*
X3942842Y4239260D01*
X3938574Y4238853D01*
X3934561Y4240276D01*
X3931462Y4243171D01*
X3905808Y4280560D01*
X3878732Y4323537D01*
X3853383Y4367530D01*
X3829710Y4412488D01*
X3807815Y4458309D01*
X3787698Y4504944D01*
X3769410Y4552289D01*
X3752951Y4600346D01*
X3738422Y4649012D01*
X3725773Y4698187D01*
X3715004Y4747818D01*
X3706215Y4797856D01*
X3699357Y4848148D01*
X3694429Y4898694D01*
X3691483Y4949393D01*
X3690518Y5000193D01*
X3691483Y5050942D01*
X3694480Y5101640D01*
X3699357Y5152186D01*
X3706266Y5202529D01*
X3715105Y5252516D01*
X3725824Y5302148D01*
X3738524Y5351322D01*
X3753104Y5399989D01*
X3769563Y5448046D01*
X3787851Y5495442D01*
X3807968Y5542026D01*
X3829862Y5587847D01*
X3853535Y5632805D01*
X3878935Y5676747D01*
X3906062Y5719724D01*
X3934764Y5761583D01*
X3965092Y5802325D01*
X3996994Y5841847D01*
X4030370Y5880100D01*
X4065270Y5917031D01*
X4101490Y5952591D01*
X4139133Y5986729D01*
X4178046Y6019393D01*
X4218178Y6050483D01*
X4259478Y6079998D01*
X4301947Y6107887D01*
X4345432Y6134150D01*
X4389882Y6158687D01*
X4435297Y6181445D01*
X4481525Y6202476D01*
X4528515Y6221679D01*
X4576267Y6239002D01*
X4624628Y6254496D01*
X4673549Y6268110D01*
X4722977Y6279845D01*
X4772812Y6289598D01*
X4822952Y6297472D01*
X4873396Y6303365D01*
X4924044Y6307277D01*
X4974793Y6309258D01*
X5025593Y6309207D01*
X5076342Y6307226D01*
X5126939Y6303314D01*
X5177383Y6297422D01*
X5227574Y6289548D01*
X5277408Y6279743D01*
X5326837Y6268008D01*
X5375757Y6254394D01*
X5424119Y6238900D01*
X5471820Y6221526D01*
X5518810Y6202324D01*
X5565038Y6181293D01*
X5610453Y6158484D01*
X5654903Y6133947D01*
X5698388Y6107684D01*
X5740806Y6079794D01*
X5782106Y6050229D01*
X5822238Y6019139D01*
X5861151Y5986475D01*
X5898743Y5952337D01*
X5935014Y5916777D01*
X5969863Y5879846D01*
X6003239Y5841542D01*
X6035141Y5802020D01*
X6065418Y5761278D01*
X6094171Y5719419D01*
X6121247Y5676442D01*
X6146596Y5632450D01*
X6170269Y5587492D01*
X6192164Y5541670D01*
X6212281Y5495036D01*
X6230569Y5447690D01*
X6247028Y5399633D01*
X6261557Y5350967D01*
X6274206Y5301792D01*
X6284976Y5252161D01*
X6293764Y5202123D01*
X6300622Y5151831D01*
X6305550Y5101285D01*
X6308496Y5050586D01*
X6309461Y4999786D01*
X6308496Y4949037D01*
X6305499Y4898339D01*
X6300622Y4847793D01*
X6293713Y4797450D01*
X6284874Y4747463D01*
X6274155Y4697831D01*
X6261455Y4648657D01*
X6246876Y4599990D01*
X6230416Y4551934D01*
X6212128Y4504537D01*
X6192012Y4457954D01*
X6170117Y4412132D01*
X6146444Y4367174D01*
X6121044Y4323232D01*
X6093917Y4280255D01*
X6065215Y4238396D01*
X6034887Y4197654D01*
X6002934Y4158030D01*
X5998921Y4153560D01*
X5995619Y4151071D01*
X5991555Y4150156D01*
X5987491Y4150918D01*
X5984087Y4153204D01*
X5981852Y4156659D01*
X5981192Y4160774D01*
X5981395Y4165803D01*
X5981395Y4515256D01*
X5982004Y4518710D01*
X5983732Y4521708D01*
X5985865Y4524349D01*
X5988659Y4529582D01*
X5990386Y4535322D01*
X5991047Y4541723D01*
X5991047Y4678426D01*
X5990386Y4684877D01*
X5988659Y4690618D01*
X5985865Y4695850D01*
X5982055Y4700473D01*
X5977432Y4704283D01*
X5972200Y4707077D01*
X5966460Y4708804D01*
X5960008Y4709464D01*
X5847791Y4709464D01*
X5841339Y4708804D01*
X5835599Y4707077D01*
X5830366Y4704283D01*
X5825744Y4700473D01*
X5821934Y4695850D01*
X5819140Y4690618D01*
X5817412Y4684877D01*
X5816752Y4678426D01*
X5816752Y4541723D01*
X5817412Y4535322D01*
X5819140Y4529582D01*
X5821934Y4524349D01*
X5825744Y4519726D01*
X5830366Y4515916D01*
X5835599Y4513122D01*
X5841339Y4511395D01*
X5847791Y4510735D01*
X5870244Y4510735D01*
X5874105Y4509973D01*
X5877407Y4507788D01*
X5879642Y4504486D01*
X5880404Y4500575D01*
X5880404Y4190746D01*
X5879642Y4186834D01*
X5877407Y4183532D01*
X5838291Y4144416D01*
X5834989Y4142232D01*
X5831128Y4141419D01*
X5769000Y4141419D01*
X5769000Y4088282D01*
X5770829Y4084980D01*
X5771388Y4081272D01*
X5770524Y4077614D01*
X5768390Y4074566D01*
X5671667Y3977792D01*
X5668365Y3975557D01*
X5664454Y3974795D01*
G37*

%LPC*%
G36*
X4803800Y4091889D02*
G01*
X4831892Y4091889D01*
X4838293Y4092498D01*
X4844034Y4094276D01*
X4849317Y4097070D01*
X4853889Y4100880D01*
X4857699Y4105452D01*
X4860493Y4110736D01*
X4862271Y4116476D01*
X4862880Y4122877D01*
X4862880Y4141419D01*
X4803800Y4141419D01*
G37*
G36*
X4693158Y4091889D02*
G01*
X4721250Y4091889D01*
X4721250Y4141419D01*
X4662170Y4141419D01*
X4662170Y4122877D01*
X4662779Y4116476D01*
X4664557Y4110736D01*
X4667351Y4105452D01*
X4671161Y4100880D01*
X4675733Y4097070D01*
X4681016Y4094276D01*
X4686757Y4092498D01*
G37*
G36*
X5286400Y4091889D02*
G01*
X5314492Y4091889D01*
X5320893Y4092498D01*
X5326634Y4094276D01*
X5331917Y4097070D01*
X5336489Y4100880D01*
X5340299Y4105452D01*
X5343093Y4110736D01*
X5344871Y4116476D01*
X5345480Y4122877D01*
X5345480Y4141419D01*
X5286400Y4141419D01*
G37*
G36*
X5175758Y4091889D02*
G01*
X5203850Y4091889D01*
X5203850Y4141419D01*
X5144770Y4141419D01*
X5144770Y4122877D01*
X5145379Y4116476D01*
X5147157Y4110736D01*
X5149951Y4105452D01*
X5153761Y4100880D01*
X5158333Y4097070D01*
X5163616Y4094276D01*
X5169357Y4092498D01*
G37*
G36*
X4308500Y4091889D02*
G01*
X4336592Y4091889D01*
X4342993Y4092498D01*
X4348734Y4094276D01*
X4354017Y4097070D01*
X4358589Y4100880D01*
X4362399Y4105452D01*
X4365193Y4110736D01*
X4366971Y4116476D01*
X4367580Y4122877D01*
X4367580Y4141419D01*
X4308500Y4141419D01*
G37*
G36*
X5658358Y4091889D02*
G01*
X5686450Y4091889D01*
X5686450Y4141419D01*
X5627370Y4141419D01*
X5627370Y4122877D01*
X5627979Y4116476D01*
X5629757Y4110736D01*
X5632551Y4105452D01*
X5636361Y4100880D01*
X5640933Y4097070D01*
X5646216Y4094276D01*
X5651957Y4092498D01*
G37*
G36*
X4662170Y4204919D02*
G01*
X4721250Y4204919D01*
X4721250Y4254500D01*
X4693158Y4254500D01*
X4686757Y4253890D01*
X4681016Y4252112D01*
X4675733Y4249318D01*
X4671161Y4245508D01*
X4667351Y4240936D01*
X4664557Y4235653D01*
X4662779Y4229912D01*
X4662170Y4223512D01*
G37*
G36*
X5286400Y4204919D02*
G01*
X5345480Y4204919D01*
X5345480Y4223512D01*
X5344871Y4229912D01*
X5343093Y4235653D01*
X5340299Y4240936D01*
X5336489Y4245508D01*
X5331917Y4249318D01*
X5326634Y4252112D01*
X5320893Y4253890D01*
X5314492Y4254500D01*
X5286400Y4254500D01*
G37*
G36*
X4803800Y4204919D02*
G01*
X4862880Y4204919D01*
X4862880Y4223512D01*
X4862271Y4229912D01*
X4860493Y4235653D01*
X4857699Y4240936D01*
X4853889Y4245508D01*
X4849317Y4249318D01*
X4844034Y4252112D01*
X4838293Y4253890D01*
X4831892Y4254500D01*
X4803800Y4254500D01*
G37*
G36*
X4308500Y4204919D02*
G01*
X4367580Y4204919D01*
X4367580Y4223512D01*
X4366971Y4229912D01*
X4365193Y4235653D01*
X4362399Y4240936D01*
X4358589Y4245508D01*
X4354017Y4249318D01*
X4348734Y4252112D01*
X4342993Y4253890D01*
X4336592Y4254500D01*
X4308500Y4254500D01*
G37*
G36*
X5769000Y4204919D02*
G01*
X5828080Y4204919D01*
X5828080Y4223512D01*
X5827471Y4229912D01*
X5825693Y4235653D01*
X5822899Y4240936D01*
X5819089Y4245508D01*
X5814517Y4249318D01*
X5809234Y4252112D01*
X5803493Y4253890D01*
X5797092Y4254500D01*
X5769000Y4254500D01*
G37*
G36*
X5144770Y4204919D02*
G01*
X5203850Y4204919D01*
X5203850Y4254500D01*
X5175758Y4254500D01*
X5169357Y4253890D01*
X5163616Y4252112D01*
X5158333Y4249318D01*
X5153761Y4245508D01*
X5149951Y4240936D01*
X5147157Y4235653D01*
X5145379Y4229912D01*
X5144770Y4223512D01*
G37*
G36*
X5627370Y4204919D02*
G01*
X5686450Y4204919D01*
X5686450Y4254500D01*
X5658358Y4254500D01*
X5651957Y4253890D01*
X5646216Y4252112D01*
X5640933Y4249318D01*
X5636361Y4245508D01*
X5632551Y4240936D01*
X5629757Y4235653D01*
X5627979Y4229912D01*
X5627370Y4223512D01*
G37*
G36*
X4166870Y4204919D02*
G01*
X4225950Y4204919D01*
X4225950Y4254500D01*
X4197858Y4254500D01*
X4191457Y4253890D01*
X4185716Y4252112D01*
X4180433Y4249318D01*
X4175861Y4245508D01*
X4172051Y4240936D01*
X4169257Y4235653D01*
X4167479Y4229912D01*
X4166870Y4223512D01*
G37*
G36*
X5658358Y4305249D02*
G01*
X5797092Y4305249D01*
X5803493Y4305858D01*
X5809234Y4307636D01*
X5814517Y4310430D01*
X5819089Y4314240D01*
X5822899Y4318812D01*
X5825693Y4324096D01*
X5827471Y4329836D01*
X5828080Y4336237D01*
X5828080Y4436872D01*
X5827471Y4443272D01*
X5825693Y4449013D01*
X5822899Y4454296D01*
X5819089Y4458868D01*
X5814517Y4462678D01*
X5809234Y4465472D01*
X5803493Y4467250D01*
X5797092Y4467860D01*
X5777280Y4467860D01*
X5773369Y4468622D01*
X5770067Y4470857D01*
X5767882Y4474159D01*
X5767120Y4478020D01*
X5767120Y4504334D01*
X5767781Y4507890D01*
X5769610Y4510989D01*
X5772454Y4513275D01*
X5777433Y4515916D01*
X5782056Y4519726D01*
X5785866Y4524349D01*
X5788660Y4529582D01*
X5790387Y4535322D01*
X5791047Y4541723D01*
X5791047Y4678426D01*
X5790387Y4684877D01*
X5788660Y4690618D01*
X5785866Y4695850D01*
X5782056Y4700473D01*
X5777433Y4704283D01*
X5772200Y4707077D01*
X5766460Y4708804D01*
X5760008Y4709464D01*
X5647791Y4709464D01*
X5641340Y4708804D01*
X5635599Y4707077D01*
X5630367Y4704283D01*
X5625744Y4700473D01*
X5621934Y4695850D01*
X5619140Y4690618D01*
X5617413Y4684877D01*
X5616752Y4678426D01*
X5616752Y4541723D01*
X5617413Y4535322D01*
X5619140Y4529582D01*
X5621934Y4524349D01*
X5625744Y4519726D01*
X5630367Y4515916D01*
X5635599Y4513122D01*
X5641340Y4511395D01*
X5647791Y4510735D01*
X5655919Y4510735D01*
X5659831Y4509973D01*
X5663133Y4507788D01*
X5665317Y4504486D01*
X5666079Y4500575D01*
X5666079Y4477816D01*
X5665419Y4474159D01*
X5663438Y4471009D01*
X5660491Y4468774D01*
X5656935Y4467707D01*
X5651957Y4467250D01*
X5646216Y4465472D01*
X5640933Y4462678D01*
X5636361Y4458868D01*
X5632551Y4454296D01*
X5629757Y4449013D01*
X5627979Y4443272D01*
X5627370Y4436872D01*
X5627370Y4336237D01*
X5627979Y4329836D01*
X5629757Y4324096D01*
X5632551Y4318812D01*
X5636361Y4314240D01*
X5640933Y4310430D01*
X5646216Y4307636D01*
X5651957Y4305858D01*
G37*
G36*
X4197858Y4305249D02*
G01*
X4336592Y4305249D01*
X4342993Y4305858D01*
X4348734Y4307636D01*
X4354017Y4310430D01*
X4358589Y4314240D01*
X4362399Y4318812D01*
X4365193Y4324096D01*
X4366971Y4329836D01*
X4367580Y4336237D01*
X4367580Y4436872D01*
X4366971Y4443272D01*
X4365193Y4449013D01*
X4362399Y4454296D01*
X4358589Y4458868D01*
X4354017Y4462678D01*
X4348734Y4465472D01*
X4342993Y4467250D01*
X4336592Y4467860D01*
X4304080Y4467860D01*
X4300169Y4468622D01*
X4296867Y4470857D01*
X4294682Y4474159D01*
X4293920Y4478020D01*
X4293920Y4500981D01*
X4294581Y4504639D01*
X4296562Y4507788D01*
X4299508Y4510074D01*
X4303064Y4511090D01*
X4305960Y4511395D01*
X4311700Y4513122D01*
X4316933Y4515916D01*
X4321556Y4519726D01*
X4325366Y4524349D01*
X4328160Y4529582D01*
X4329887Y4535322D01*
X4330547Y4541723D01*
X4330547Y4678426D01*
X4329887Y4684877D01*
X4328160Y4690618D01*
X4325366Y4695850D01*
X4321556Y4700473D01*
X4316933Y4704283D01*
X4311700Y4707077D01*
X4305960Y4708804D01*
X4299508Y4709464D01*
X4187291Y4709464D01*
X4180840Y4708804D01*
X4175099Y4707077D01*
X4169867Y4704283D01*
X4165244Y4700473D01*
X4161434Y4695850D01*
X4158640Y4690618D01*
X4156913Y4684877D01*
X4156252Y4678426D01*
X4156252Y4541723D01*
X4156913Y4535322D01*
X4158640Y4529582D01*
X4161434Y4524349D01*
X4165244Y4519726D01*
X4169867Y4515916D01*
X4175099Y4513122D01*
X4180840Y4511395D01*
X4183735Y4511090D01*
X4187291Y4510074D01*
X4190237Y4507788D01*
X4192219Y4504639D01*
X4192879Y4500981D01*
X4192879Y4475226D01*
X4192015Y4471009D01*
X4189476Y4467606D01*
X4180433Y4462678D01*
X4175861Y4458868D01*
X4172051Y4454296D01*
X4169257Y4449013D01*
X4167479Y4443272D01*
X4166870Y4436872D01*
X4166870Y4336237D01*
X4167479Y4329836D01*
X4169257Y4324096D01*
X4172051Y4318812D01*
X4175861Y4314240D01*
X4180433Y4310430D01*
X4185716Y4307636D01*
X4191457Y4305858D01*
G37*
G36*
X4285843Y4752035D02*
G01*
X4294733Y4756302D01*
X4304690Y4763058D01*
X4313478Y4771237D01*
X4320997Y4780686D01*
X4326991Y4791100D01*
X4328414Y4794656D01*
X4285843Y4794656D01*
G37*
G36*
X4223156Y4752035D02*
G01*
X4223156Y4794656D01*
X4180586Y4794656D01*
X4182008Y4791100D01*
X4188002Y4780686D01*
X4195521Y4771237D01*
X4204309Y4763058D01*
X4214266Y4756302D01*
G37*
G36*
X4180586Y4857343D02*
G01*
X4223156Y4857343D01*
X4223156Y4871415D01*
X4193489Y4871415D01*
X4189018Y4872583D01*
X4188002Y4871313D01*
X4182008Y4860899D01*
G37*
G36*
X4285843Y4857343D02*
G01*
X4328414Y4857343D01*
X4326991Y4860899D01*
X4320997Y4871313D01*
X4313478Y4880762D01*
X4304690Y4888941D01*
X4302201Y4890617D01*
X4299559Y4893259D01*
X4298035Y4896662D01*
X4297832Y4900422D01*
X4299051Y4903978D01*
X4302810Y4910683D01*
X4304487Y4916322D01*
X4305147Y4922723D01*
X4305147Y4950307D01*
X4252671Y4950307D01*
X4252671Y4926584D01*
X4262780Y4926482D01*
X4276191Y4924450D01*
X4278680Y4923790D01*
X4282389Y4921707D01*
X4284929Y4918252D01*
X4285843Y4914087D01*
G37*
G36*
X4161891Y4891735D02*
G01*
X4183329Y4891735D01*
X4183329Y4950307D01*
X4130852Y4950307D01*
X4130852Y4922723D01*
X4131513Y4916322D01*
X4133240Y4910582D01*
X4136034Y4905349D01*
X4139844Y4900726D01*
X4144467Y4896916D01*
X4149699Y4894122D01*
X4155440Y4892395D01*
G37*
G36*
X5047843Y4917135D02*
G01*
X5056733Y4921402D01*
X5066690Y4928158D01*
X5075478Y4936337D01*
X5082997Y4945786D01*
X5088991Y4956200D01*
X5090414Y4959756D01*
X5047843Y4959756D01*
G37*
G36*
X4985156Y4917135D02*
G01*
X4985156Y4959756D01*
X4942586Y4959756D01*
X4944008Y4956200D01*
X4950002Y4945786D01*
X4957521Y4936337D01*
X4966309Y4928158D01*
X4976266Y4921402D01*
G37*
G36*
X5658256Y4929835D02*
G01*
X5658256Y4972456D01*
X5615686Y4972456D01*
X5617108Y4968900D01*
X5623102Y4958486D01*
X5630621Y4949037D01*
X5639409Y4940858D01*
X5649366Y4934102D01*
G37*
G36*
X5720943Y4929835D02*
G01*
X5729833Y4934102D01*
X5739790Y4940858D01*
X5748578Y4949037D01*
X5756097Y4958486D01*
X5762091Y4968900D01*
X5763514Y4972456D01*
X5720943Y4972456D01*
G37*
G36*
X4942586Y5022443D02*
G01*
X4985156Y5022443D01*
X4985156Y5065064D01*
X4976266Y5060797D01*
X4966309Y5054041D01*
X4957521Y5045862D01*
X4950002Y5036413D01*
X4944008Y5025999D01*
G37*
G36*
X5047843Y5022443D02*
G01*
X5090414Y5022443D01*
X5088991Y5025999D01*
X5082997Y5036413D01*
X5075478Y5045862D01*
X5066690Y5054041D01*
X5056733Y5060797D01*
X5047843Y5065064D01*
G37*
G36*
X4252671Y5031892D02*
G01*
X4305147Y5031892D01*
X4305147Y5059426D01*
X4304487Y5065877D01*
X4302760Y5071618D01*
X4299966Y5076850D01*
X4296156Y5081473D01*
X4291533Y5085283D01*
X4286300Y5088077D01*
X4280560Y5089804D01*
X4274108Y5090464D01*
X4252671Y5090464D01*
G37*
G36*
X5615686Y5035143D02*
G01*
X5658256Y5035143D01*
X5658256Y5077764D01*
X5649366Y5073497D01*
X5639409Y5066741D01*
X5630621Y5058562D01*
X5623102Y5049113D01*
X5617108Y5038699D01*
G37*
G36*
X5720943Y5035143D02*
G01*
X5763514Y5035143D01*
X5762091Y5038699D01*
X5756097Y5049113D01*
X5748578Y5058562D01*
X5739790Y5066741D01*
X5729833Y5073497D01*
X5720943Y5077764D01*
G37*
G36*
X5736945Y5158435D02*
G01*
X5758434Y5158435D01*
X5764885Y5159095D01*
X5770575Y5160822D01*
X5775858Y5163616D01*
X5780481Y5167426D01*
X5784240Y5172049D01*
X5787085Y5177282D01*
X5788812Y5183022D01*
X5789422Y5189423D01*
X5789422Y5217007D01*
X5736945Y5217007D01*
G37*
G36*
X5646166Y5158435D02*
G01*
X5667654Y5158435D01*
X5667654Y5217007D01*
X5615178Y5217007D01*
X5615178Y5189423D01*
X5615787Y5183022D01*
X5617514Y5177282D01*
X5620359Y5172049D01*
X5624118Y5167426D01*
X5628741Y5163616D01*
X5634024Y5160822D01*
X5639714Y5159095D01*
G37*
G36*
X5615178Y5298592D02*
G01*
X5667654Y5298592D01*
X5667654Y5357164D01*
X5646166Y5357164D01*
X5639714Y5356504D01*
X5634024Y5354777D01*
X5628741Y5351983D01*
X5624118Y5348173D01*
X5620359Y5343550D01*
X5617514Y5338318D01*
X5615787Y5332577D01*
X5615178Y5326126D01*
G37*
G36*
X4286656Y5310835D02*
G01*
X4286656Y5353456D01*
X4244086Y5353456D01*
X4245508Y5349900D01*
X4251502Y5339486D01*
X4259021Y5330037D01*
X4267809Y5321858D01*
X4277766Y5315102D01*
G37*
G36*
X4244086Y5416143D02*
G01*
X4286656Y5416143D01*
X4286656Y5458764D01*
X4277766Y5454497D01*
X4267809Y5447741D01*
X4259021Y5439562D01*
X4251502Y5430113D01*
X4245508Y5419699D01*
G37*
G36*
X4713376Y5513273D02*
G01*
X4731359Y5513273D01*
X4741976Y5514187D01*
X4751933Y5516676D01*
X4761280Y5520791D01*
X4769866Y5526379D01*
X4777384Y5533339D01*
X4783683Y5541416D01*
X4788560Y5550408D01*
X4789525Y5553202D01*
X4713376Y5553202D01*
G37*
G36*
X4281881Y5577484D02*
G01*
X4308805Y5577484D01*
X4315256Y5578144D01*
X4320946Y5579872D01*
X4326229Y5582666D01*
X4330852Y5586476D01*
X4334611Y5591098D01*
X4337456Y5596331D01*
X4339183Y5602071D01*
X4339793Y5608472D01*
X4339793Y5636920D01*
X4281881Y5636920D01*
G37*
G36*
X4174794Y5577484D02*
G01*
X4201718Y5577484D01*
X4201718Y5636920D01*
X4143806Y5636920D01*
X4143806Y5608472D01*
X4144416Y5602071D01*
X4146143Y5596331D01*
X4148988Y5591098D01*
X4152747Y5586476D01*
X4157370Y5582666D01*
X4162653Y5579872D01*
X4168343Y5578144D01*
G37*

%LPD*%
D10*
X5916675Y4584700D02*
G01*
X5930900Y4584700D01*
X5930900Y4165600D01*
X5689600Y3924300D01*
X4305300Y3924300D01*
X4000500Y4229100D01*
X4000500Y5016500D01*
X4203700Y5219700D01*
X4368800Y5219700D01*
X4445000Y5295900D01*
X4445000Y5727700D01*
X4546600Y5829300D01*
X4726431Y5829300D01*
X5421375Y4584700D02*
G01*
X5421375Y4649723D01*
X5207000Y4864100D01*
X5207000Y5092700D01*
X5600700Y5486400D01*
X5600700Y5753100D01*
X5524500Y5829300D01*
X5281168Y5829300D01*
D11*
X5854700Y5435600D02*
G01*
X5994400Y5435600D01*
X4417999Y4991100D02*
G01*
X4636515Y4991100D01*
X5281168Y5956300D02*
G01*
X5537200Y5956300D01*
X5614924Y5878576D01*
X5702300Y5878576D01*
D10*
X4726431Y5702300D02*
G01*
X4800600Y5702300D01*
X4889500Y5613400D01*
X4889500Y5499100D01*
X4636515Y5246115D01*
X4636515Y5195315D01*
X4726431Y5956300D02*
G01*
X4864100Y5956300D01*
X4916424Y6008623D01*
X4916424Y6172200D01*
X4726559Y5956300D02*
G01*
X4483100Y5956300D01*
X4405299Y5878499D01*
X4343400Y5878499D01*
X5281040Y5956300D02*
G01*
X5194300Y5956300D01*
X5116499Y6034100D01*
X5116499Y6172200D01*
X4000500Y5588000D02*
G01*
X4000500Y5715000D01*
X4163999Y5878499D01*
X4305300Y5878499D01*
X4636515Y5195315D02*
G01*
X4636515Y4991100D01*
X5181600Y5448300D02*
G01*
X4851400Y5122926D01*
X4851400Y4724400D01*
X4938775Y4637023D01*
X4938775Y4584700D01*
X5461000Y4305300D02*
G01*
X5486400Y4305300D01*
X5486400Y4419600D01*
X5421375Y4484623D01*
X5421375Y4584700D01*
X4521200Y4305300D02*
G01*
X4521200Y4406900D01*
X4470400Y4457700D01*
X4470400Y4584700D01*
X4443475Y4584700D01*
X5003800Y4305300D02*
G01*
X5003800Y4406900D01*
X4938775Y4471923D01*
X4938775Y4584700D01*
X4267225Y4386554D02*
G01*
X4243400Y4410379D01*
X4243400Y4584700D01*
X4762525Y4386554D02*
G01*
X4738700Y4410379D01*
X4738700Y4584700D01*
X5245125Y4386554D02*
G01*
X5221300Y4410379D01*
X5221300Y4584700D01*
X5727725Y4386554D02*
G01*
X5716600Y4397679D01*
X5716600Y4584700D01*
X5281168Y5575300D02*
G01*
X5130800Y5575300D01*
X4762500Y5207000D01*
X4762500Y4876800D01*
X4660900Y4775200D01*
X4495800Y4775200D01*
X4443475Y4722876D01*
X4443475Y4584700D01*
D11*
X5396484Y4991100D02*
G01*
X5396484Y4903215D01*
X5473700Y4826000D01*
X5816600Y4826000D01*
X5994400Y5003800D01*
X5994400Y5003800D02*
G01*
X5994400Y5715000D01*
X5830900Y5878499D01*
X5702300Y5878499D01*
D10*
X5356859Y5702300D02*
G01*
X5461000Y5702300D01*
X5524500Y5638800D01*
X5524500Y5524500D01*
X5448300Y5448300D01*
X5181600Y5448300D01*
D12*
G01*
X4000505Y5588000D03*
G01*
X5854705Y5461000D03*
G01*
X5702305Y5257800D03*
G01*
X4521205Y4305300D03*
G01*
X5003805Y4305300D03*
G01*
X5473705Y4305300D03*
D13*
G01*
X4650790Y5956300D03*
G01*
X4650790Y5829300D03*
G01*
X4650790Y5702300D03*
G01*
X4650790Y5575300D03*
G01*
X5356809Y5956300D03*
G01*
X5356809Y5829300D03*
G01*
X5356809Y5702300D03*
G01*
X5356809Y5575300D03*
D12*
G01*
X4418004Y4991100D03*
G01*
X4217995Y4991100D03*
G01*
X5116504Y6172200D03*
G01*
X4916495Y6172200D03*
D14*
G01*
X5753100Y5678497D03*
D15*
G01*
X5753100Y5878499D03*
D14*
G01*
X4241800Y5878502D03*
D15*
G01*
X4241800Y5678500D03*
D12*
G01*
X5903904Y4610100D03*
G01*
X5703895Y4610100D03*
G01*
X5421304Y4610100D03*
G01*
X5221295Y4610100D03*
G01*
X4938704Y4610100D03*
G01*
X4738695Y4610100D03*
G01*
X4443404Y4610100D03*
G01*
X4243395Y4610100D03*
D16*
G01*
X4267225Y4386554D03*
G01*
X4267225Y4173194D03*
G01*
X4762525Y4386554D03*
G01*
X4762525Y4173194D03*
G01*
X5245125Y4386554D03*
G01*
X5245125Y4173194D03*
G01*
X5727725Y4386554D03*
G01*
X5727725Y4173194D03*
D17*
G01*
X4636515Y4991100D03*
G01*
X5396484Y4991100D03*
D18*
G01*
X5689600Y5003800D03*
G01*
X5994400Y5003800D03*
G01*
X4254500Y4826000D03*
G01*
X5016500Y4991100D03*
G01*
X4318000Y5384800D03*
M02*
