G04 Layer: TopPasteMaskLayer*
G04 EasyEDA v6.5.34, 2023-09-03 14:00:07*
G04 0d370e9aff9448ea9080f85309a0253c,ed70181f279245e6aff80281ee7dc86a,10*
G04 Gerber Generator version 0.2*
G04 Scale: 100 percent, Rotated: No, Reflected: No *
G04 Dimensions in millimeters *
G04 leading zeros omitted , absolute positions ,4 integer and 5 decimal *
%FSLAX45Y45*%
%MOMM*%

%ADD10O,2.0450048X0.58801*%
%ADD11R,1.3970X1.0160*%
%ADD12R,1.4000X1.5000*%

%LPD*%
G36*
X4153001Y5060086D02*
G01*
X4147972Y5055108D01*
X4147972Y4927092D01*
X4153001Y4922113D01*
X4268012Y4922113D01*
X4272991Y4927092D01*
X4272483Y4969103D01*
X4228490Y4969103D01*
X4228490Y5014112D01*
X4273499Y5014112D01*
X4272991Y5055108D01*
X4268012Y5060086D01*
G37*
G36*
X4367987Y5060086D02*
G01*
X4363008Y5055108D01*
X4363516Y5014112D01*
X4407509Y5014112D01*
X4407509Y4969103D01*
X4363008Y4969103D01*
X4363008Y4927092D01*
X4367987Y4922113D01*
X4482998Y4922113D01*
X4487976Y4927092D01*
X4487976Y5055108D01*
X4482998Y5060086D01*
G37*
G36*
X4851501Y6241186D02*
G01*
X4846472Y6236208D01*
X4846472Y6108192D01*
X4851501Y6103213D01*
X4966512Y6103213D01*
X4971491Y6108192D01*
X4970983Y6150203D01*
X4926990Y6150203D01*
X4926990Y6195212D01*
X4971999Y6195212D01*
X4971491Y6236208D01*
X4966512Y6241186D01*
G37*
G36*
X5066487Y6241186D02*
G01*
X5061508Y6236208D01*
X5062016Y6195212D01*
X5106009Y6195212D01*
X5106009Y6150203D01*
X5061508Y6150203D01*
X5061508Y6108192D01*
X5066487Y6103213D01*
X5181498Y6103213D01*
X5186476Y6108192D01*
X5186476Y6236208D01*
X5181498Y6241186D01*
G37*
G36*
X5640324Y5945987D02*
G01*
X5635294Y5941009D01*
X5635294Y5825998D01*
X5640324Y5821019D01*
X5682284Y5821476D01*
X5682284Y5865520D01*
X5727293Y5865520D01*
X5727293Y5820511D01*
X5768289Y5821019D01*
X5773318Y5825998D01*
X5773318Y5941009D01*
X5768289Y5945987D01*
G37*
G36*
X5640324Y5731002D02*
G01*
X5635294Y5726023D01*
X5635294Y5611012D01*
X5640324Y5605983D01*
X5768289Y5605983D01*
X5773318Y5611012D01*
X5773318Y5726023D01*
X5768289Y5731002D01*
X5727293Y5730494D01*
X5727293Y5686501D01*
X5682284Y5686501D01*
X5682284Y5731002D01*
G37*
G36*
X4280306Y5736488D02*
G01*
X4239310Y5735980D01*
X4234281Y5731002D01*
X4234281Y5615990D01*
X4239310Y5611012D01*
X4367276Y5611012D01*
X4372305Y5615990D01*
X4372305Y5731002D01*
X4367276Y5735980D01*
X4325315Y5735523D01*
X4325315Y5691479D01*
X4280306Y5691479D01*
G37*
G36*
X4239310Y5951016D02*
G01*
X4234281Y5945987D01*
X4234281Y5830976D01*
X4239310Y5825998D01*
X4280306Y5826506D01*
X4280306Y5870498D01*
X4325315Y5870498D01*
X4325315Y5825998D01*
X4367276Y5825998D01*
X4372305Y5830976D01*
X4372305Y5945987D01*
X4367276Y5951016D01*
G37*
G36*
X5638901Y4679086D02*
G01*
X5633872Y4674108D01*
X5633872Y4546092D01*
X5638901Y4541113D01*
X5753912Y4541113D01*
X5758891Y4546092D01*
X5758383Y4588103D01*
X5714390Y4588103D01*
X5714390Y4633112D01*
X5759399Y4633112D01*
X5758891Y4674108D01*
X5753912Y4679086D01*
G37*
G36*
X5853887Y4679086D02*
G01*
X5848908Y4674108D01*
X5849416Y4633112D01*
X5893409Y4633112D01*
X5893409Y4588103D01*
X5848908Y4588103D01*
X5848908Y4546092D01*
X5853887Y4541113D01*
X5968898Y4541113D01*
X5973876Y4546092D01*
X5973876Y4674108D01*
X5968898Y4679086D01*
G37*
G36*
X5156301Y4679086D02*
G01*
X5151272Y4674108D01*
X5151272Y4546092D01*
X5156301Y4541113D01*
X5271312Y4541113D01*
X5276291Y4546092D01*
X5275783Y4588103D01*
X5231790Y4588103D01*
X5231790Y4633112D01*
X5276799Y4633112D01*
X5276291Y4674108D01*
X5271312Y4679086D01*
G37*
G36*
X5371287Y4679086D02*
G01*
X5366308Y4674108D01*
X5366816Y4633112D01*
X5410809Y4633112D01*
X5410809Y4588103D01*
X5366308Y4588103D01*
X5366308Y4546092D01*
X5371287Y4541113D01*
X5486298Y4541113D01*
X5491276Y4546092D01*
X5491276Y4674108D01*
X5486298Y4679086D01*
G37*
G36*
X4673701Y4679086D02*
G01*
X4668672Y4674108D01*
X4668672Y4546092D01*
X4673701Y4541113D01*
X4788712Y4541113D01*
X4793691Y4546092D01*
X4793183Y4588103D01*
X4749190Y4588103D01*
X4749190Y4633112D01*
X4794199Y4633112D01*
X4793691Y4674108D01*
X4788712Y4679086D01*
G37*
G36*
X4888687Y4679086D02*
G01*
X4883708Y4674108D01*
X4884216Y4633112D01*
X4928209Y4633112D01*
X4928209Y4588103D01*
X4883708Y4588103D01*
X4883708Y4546092D01*
X4888687Y4541113D01*
X5003698Y4541113D01*
X5008676Y4546092D01*
X5008676Y4674108D01*
X5003698Y4679086D01*
G37*
G36*
X4178401Y4679086D02*
G01*
X4173372Y4674108D01*
X4173372Y4546092D01*
X4178401Y4541113D01*
X4293412Y4541113D01*
X4298391Y4546092D01*
X4297883Y4588103D01*
X4253890Y4588103D01*
X4253890Y4633112D01*
X4298899Y4633112D01*
X4298391Y4674108D01*
X4293412Y4679086D01*
G37*
G36*
X4393387Y4679086D02*
G01*
X4388408Y4674108D01*
X4388916Y4633112D01*
X4432909Y4633112D01*
X4432909Y4588103D01*
X4388408Y4588103D01*
X4388408Y4546092D01*
X4393387Y4541113D01*
X4508398Y4541113D01*
X4513376Y4546092D01*
X4513376Y4674108D01*
X4508398Y4679086D01*
G37*
D10*
G01*
X4726559Y5956300D03*
G01*
X4726559Y5829300D03*
G01*
X4726559Y5702300D03*
G01*
X4726559Y5575300D03*
G01*
X5281040Y5956300D03*
G01*
X5281040Y5829300D03*
G01*
X5281040Y5702300D03*
G01*
X5281040Y5575300D03*
D11*
G01*
X4267225Y4386554D03*
G01*
X4267225Y4173194D03*
G01*
X4762525Y4386554D03*
G01*
X4762525Y4173194D03*
G01*
X5245125Y4386554D03*
G01*
X5245125Y4173194D03*
G01*
X5727725Y4386554D03*
G01*
X5727725Y4173194D03*
D12*
G01*
X4636515Y4991100D03*
G01*
X5396484Y4991100D03*
M02*
