G04 Layer: TopLayer*
G04 EasyEDA v6.5.34, 2023-09-03 14:00:07*
G04 0d370e9aff9448ea9080f85309a0253c,ed70181f279245e6aff80281ee7dc86a,10*
G04 Gerber Generator version 0.2*
G04 Scale: 100 percent, Rotated: No, Reflected: No *
G04 Dimensions in millimeters *
G04 leading zeros omitted , absolute positions ,4 integer and 5 decimal *
%FSLAX45Y45*%
%MOMM*%

%AMMACRO1*21,1,$1,$2,0,0,$3*%
%ADD10C,0.5000*%
%ADD11MACRO1,1.377X1.1325X90.0000*%
%ADD12O,2.0450048X0.58801*%
%ADD13MACRO1,1.35X1.41X0.0000*%
%ADD14R,1.3500X1.4100*%
%ADD15R,1.3970X1.0160*%
%ADD16R,1.4000X1.5000*%
%ADD17C,1.5240*%
%ADD18C,0.0132*%

%LPD*%
G36*
X4332478Y3979824D02*
G01*
X4328617Y3980586D01*
X4325315Y3982770D01*
X4228947Y4079189D01*
X4226712Y4082491D01*
X4225950Y4086351D01*
X4225950Y4141419D01*
X4170883Y4141419D01*
X4166971Y4142232D01*
X4163669Y4144416D01*
X4058970Y4249115D01*
X4056786Y4252417D01*
X4056024Y4256278D01*
X4056024Y5040122D01*
X4056786Y5043982D01*
X4058970Y5047284D01*
X4160215Y5148529D01*
X4163517Y5150713D01*
X4167378Y5151475D01*
X4330496Y5151475D01*
X4335526Y5151729D01*
X4340352Y5152339D01*
X4345076Y5153406D01*
X4349699Y5154828D01*
X4354169Y5156708D01*
X4358436Y5158943D01*
X4362551Y5161534D01*
X4366361Y5164480D01*
X4370120Y5167884D01*
X4598416Y5396179D01*
X4601819Y5399938D01*
X4604766Y5403748D01*
X4607356Y5407863D01*
X4609592Y5412130D01*
X4611471Y5416600D01*
X4612894Y5421223D01*
X4613960Y5425948D01*
X4614570Y5430774D01*
X4614824Y5435803D01*
X4614824Y5511647D01*
X4615586Y5515559D01*
X4617821Y5518912D01*
X4621174Y5521096D01*
X4625136Y5521807D01*
X4629048Y5520944D01*
X4634280Y5518658D01*
X4643831Y5516219D01*
X4654143Y5515406D01*
X4669078Y5515406D01*
X4669078Y5554268D01*
X4624984Y5554268D01*
X4621072Y5555030D01*
X4617770Y5557215D01*
X4615586Y5560517D01*
X4614824Y5564428D01*
X4614824Y5586171D01*
X4615586Y5590082D01*
X4617770Y5593384D01*
X4621072Y5595569D01*
X4624984Y5596331D01*
X4669078Y5596331D01*
X4669078Y5632246D01*
X4669840Y5636107D01*
X4672025Y5639409D01*
X4675327Y5641594D01*
X4679238Y5642406D01*
X4773879Y5642406D01*
X4777740Y5641594D01*
X4781042Y5639409D01*
X4783226Y5636107D01*
X4784039Y5632246D01*
X4784039Y5596331D01*
X4861915Y5596331D01*
X4865827Y5595569D01*
X4869129Y5593384D01*
X4871313Y5590082D01*
X4872075Y5586171D01*
X4872075Y5564428D01*
X4871313Y5560517D01*
X4869129Y5557215D01*
X4865827Y5555030D01*
X4861915Y5554268D01*
X4784039Y5554268D01*
X4784039Y5515406D01*
X4798974Y5515406D01*
X4809236Y5516219D01*
X4818837Y5518658D01*
X4827879Y5522620D01*
X4836160Y5528056D01*
X4843424Y5534761D01*
X4849520Y5542534D01*
X4852974Y5548985D01*
X4855921Y5552338D01*
X4859985Y5554116D01*
X4864404Y5553964D01*
X4868367Y5551982D01*
X4871110Y5548477D01*
X4872075Y5544159D01*
X4872075Y5513578D01*
X4871313Y5509717D01*
X4869129Y5506415D01*
X4597400Y5234736D01*
X4593996Y5230977D01*
X4591050Y5227167D01*
X4588459Y5223052D01*
X4586224Y5218785D01*
X4584344Y5214315D01*
X4582922Y5209692D01*
X4581855Y5204968D01*
X4581245Y5200142D01*
X4580991Y5195112D01*
X4580991Y5106771D01*
X4580229Y5102860D01*
X4578045Y5099558D01*
X4574743Y5097373D01*
X4570831Y5096611D01*
X4567021Y5096611D01*
X4560570Y5095951D01*
X4554829Y5094224D01*
X4549597Y5091430D01*
X4544974Y5087620D01*
X4541164Y5082997D01*
X4538370Y5077764D01*
X4536643Y5072024D01*
X4535982Y5065572D01*
X4535982Y5056784D01*
X4535220Y5052872D01*
X4533036Y5049570D01*
X4529734Y5047386D01*
X4525822Y5046624D01*
X4515307Y5046624D01*
X4511395Y5047386D01*
X4508093Y5049570D01*
X4505909Y5052872D01*
X4505147Y5056784D01*
X4505147Y5059426D01*
X4504486Y5065877D01*
X4502759Y5071618D01*
X4499965Y5076850D01*
X4496155Y5081473D01*
X4491532Y5085283D01*
X4486300Y5088077D01*
X4480560Y5089804D01*
X4474108Y5090464D01*
X4361891Y5090464D01*
X4355439Y5089804D01*
X4349699Y5088077D01*
X4344466Y5085283D01*
X4339844Y5081473D01*
X4336034Y5076850D01*
X4333240Y5071618D01*
X4331512Y5065877D01*
X4330852Y5059426D01*
X4330852Y4922266D01*
X4329938Y4918049D01*
X4327398Y4914595D01*
X4323638Y4912512D01*
X4319371Y4912156D01*
X4315307Y4913630D01*
X4309922Y4917033D01*
X4307332Y4919268D01*
X4305706Y4922266D01*
X4305147Y4925618D01*
X4305147Y4950307D01*
X4279341Y4950307D01*
X4288028Y4948529D01*
X4292041Y4947158D01*
X4295648Y4945024D01*
X4298086Y4941620D01*
X4298950Y4937506D01*
X4298950Y4870450D01*
X4351274Y4870450D01*
X4347768Y4877511D01*
X4346752Y4881676D01*
X4347514Y4885893D01*
X4349953Y4889449D01*
X4353610Y4891633D01*
X4357878Y4892141D01*
X4361891Y4891735D01*
X4474108Y4891735D01*
X4480560Y4892395D01*
X4486300Y4894122D01*
X4491532Y4896916D01*
X4496155Y4900726D01*
X4499965Y4905349D01*
X4502759Y4910582D01*
X4504486Y4916322D01*
X4505147Y4922723D01*
X4505147Y4925415D01*
X4505909Y4929327D01*
X4508093Y4932629D01*
X4511395Y4934813D01*
X4515307Y4935575D01*
X4525822Y4935575D01*
X4529734Y4934813D01*
X4533036Y4932629D01*
X4535220Y4929327D01*
X4535982Y4925415D01*
X4535982Y4916576D01*
X4536643Y4910175D01*
X4538370Y4904435D01*
X4541164Y4899152D01*
X4544974Y4894580D01*
X4549597Y4890770D01*
X4554829Y4887976D01*
X4560570Y4886198D01*
X4567021Y4885588D01*
X4668266Y4885588D01*
X4672126Y4884826D01*
X4675428Y4882591D01*
X4677664Y4879340D01*
X4678426Y4875428D01*
X4677664Y4871516D01*
X4675428Y4868265D01*
X4640884Y4833670D01*
X4637582Y4831486D01*
X4633722Y4830724D01*
X4496003Y4830724D01*
X4490974Y4830470D01*
X4486148Y4829860D01*
X4481423Y4828794D01*
X4476800Y4827371D01*
X4472330Y4825492D01*
X4468063Y4823256D01*
X4463948Y4820666D01*
X4460138Y4817719D01*
X4456379Y4814316D01*
X4404360Y4762296D01*
X4400956Y4758537D01*
X4398010Y4754727D01*
X4395419Y4750612D01*
X4393184Y4746345D01*
X4391304Y4741875D01*
X4389882Y4737252D01*
X4388815Y4732528D01*
X4388205Y4727803D01*
X4387951Y4718253D01*
X4386986Y4714189D01*
X4384446Y4710836D01*
X4380738Y4708804D01*
X4375099Y4707077D01*
X4369866Y4704283D01*
X4365244Y4700473D01*
X4361434Y4695850D01*
X4358640Y4690618D01*
X4356912Y4684877D01*
X4356252Y4678426D01*
X4356252Y4541723D01*
X4356912Y4535322D01*
X4358640Y4529582D01*
X4361434Y4524349D01*
X4365244Y4519726D01*
X4369866Y4515916D01*
X4375099Y4513122D01*
X4380839Y4511395D01*
X4387291Y4510735D01*
X4404715Y4510735D01*
X4408627Y4509973D01*
X4411929Y4507788D01*
X4414113Y4504486D01*
X4414875Y4500575D01*
X4414875Y4457903D01*
X4415129Y4452874D01*
X4415739Y4448048D01*
X4416806Y4443323D01*
X4418228Y4438700D01*
X4420108Y4434230D01*
X4422343Y4429963D01*
X4424934Y4425848D01*
X4427880Y4422038D01*
X4431284Y4418279D01*
X4441444Y4408170D01*
X4443526Y4405122D01*
X4444390Y4401464D01*
X4443882Y4397806D01*
X4442104Y4394555D01*
X4439259Y4391050D01*
X4436414Y4385818D01*
X4434687Y4380077D01*
X4434078Y4373626D01*
X4434078Y4236923D01*
X4434687Y4230522D01*
X4436414Y4224782D01*
X4439259Y4219549D01*
X4443018Y4214926D01*
X4447641Y4211116D01*
X4452924Y4208322D01*
X4458614Y4206595D01*
X4465066Y4205935D01*
X4577334Y4205935D01*
X4583785Y4206595D01*
X4589475Y4208322D01*
X4594758Y4211116D01*
X4599381Y4214926D01*
X4603140Y4219549D01*
X4605985Y4224782D01*
X4607712Y4230522D01*
X4608322Y4236923D01*
X4608322Y4373626D01*
X4607712Y4380077D01*
X4605985Y4385818D01*
X4603140Y4391050D01*
X4599381Y4395673D01*
X4594758Y4399483D01*
X4589475Y4402277D01*
X4583430Y4404106D01*
X4580026Y4405934D01*
X4577486Y4408932D01*
X4576318Y4412640D01*
X4575860Y4416602D01*
X4574794Y4421276D01*
X4573371Y4425899D01*
X4571492Y4430369D01*
X4569256Y4434636D01*
X4566666Y4438751D01*
X4563719Y4442561D01*
X4560316Y4446320D01*
X4528870Y4477715D01*
X4526686Y4481017D01*
X4525924Y4484878D01*
X4525924Y4522825D01*
X4526229Y4525264D01*
X4528159Y4529582D01*
X4529886Y4535322D01*
X4530547Y4541723D01*
X4530547Y4678426D01*
X4529886Y4684877D01*
X4528159Y4690618D01*
X4525365Y4695850D01*
X4521555Y4700473D01*
X4520133Y4701692D01*
X4517542Y4704892D01*
X4516424Y4708855D01*
X4516983Y4712970D01*
X4519168Y4716475D01*
X4522520Y4718862D01*
X4526584Y4719675D01*
X4655515Y4719675D01*
X4659579Y4718862D01*
X4662932Y4716475D01*
X4665116Y4712970D01*
X4665675Y4708855D01*
X4664557Y4704892D01*
X4661966Y4701692D01*
X4660544Y4700473D01*
X4656734Y4695850D01*
X4653940Y4690618D01*
X4652213Y4684877D01*
X4651552Y4678426D01*
X4651552Y4541723D01*
X4652213Y4535322D01*
X4653940Y4529582D01*
X4656734Y4524349D01*
X4660544Y4519726D01*
X4665167Y4515916D01*
X4670399Y4513122D01*
X4675987Y4511395D01*
X4679746Y4509312D01*
X4682286Y4505909D01*
X4683201Y4501692D01*
X4683201Y4472736D01*
X4682540Y4469180D01*
X4680661Y4466031D01*
X4677816Y4463796D01*
X4675733Y4462678D01*
X4671161Y4458868D01*
X4667351Y4454296D01*
X4664557Y4449013D01*
X4662779Y4443272D01*
X4662170Y4436872D01*
X4662170Y4336237D01*
X4662779Y4329836D01*
X4664557Y4324096D01*
X4667351Y4318812D01*
X4671161Y4314240D01*
X4675733Y4310430D01*
X4681016Y4307636D01*
X4686757Y4305858D01*
X4693158Y4305249D01*
X4831892Y4305249D01*
X4838293Y4305858D01*
X4844034Y4307636D01*
X4849317Y4310430D01*
X4853889Y4314240D01*
X4857699Y4318812D01*
X4860493Y4324096D01*
X4862271Y4329836D01*
X4862880Y4336237D01*
X4862880Y4436872D01*
X4862271Y4443272D01*
X4860493Y4449013D01*
X4857699Y4454296D01*
X4853889Y4458868D01*
X4849317Y4462678D01*
X4844034Y4465472D01*
X4838293Y4467250D01*
X4831892Y4467860D01*
X4804359Y4467860D01*
X4800498Y4468622D01*
X4797196Y4470857D01*
X4794961Y4474159D01*
X4794199Y4478020D01*
X4794199Y4501692D01*
X4795113Y4505909D01*
X4797653Y4509363D01*
X4801412Y4511446D01*
X4807000Y4513122D01*
X4812233Y4515916D01*
X4816856Y4519726D01*
X4820666Y4524349D01*
X4823460Y4529582D01*
X4825187Y4535322D01*
X4825847Y4541723D01*
X4825847Y4646930D01*
X4826609Y4650841D01*
X4828794Y4654143D01*
X4832096Y4656328D01*
X4836007Y4657090D01*
X4839868Y4656328D01*
X4843170Y4654143D01*
X4848606Y4648708D01*
X4850790Y4645406D01*
X4851552Y4641545D01*
X4851552Y4541723D01*
X4852212Y4535322D01*
X4853940Y4529582D01*
X4856734Y4524349D01*
X4860544Y4519726D01*
X4865166Y4515916D01*
X4870399Y4513122D01*
X4876038Y4511395D01*
X4879797Y4509312D01*
X4882388Y4505858D01*
X4883251Y4501692D01*
X4883251Y4472127D01*
X4883505Y4467098D01*
X4884115Y4462272D01*
X4885182Y4457547D01*
X4886604Y4452924D01*
X4888484Y4448454D01*
X4890719Y4444187D01*
X4893310Y4440072D01*
X4896256Y4436262D01*
X4899660Y4432503D01*
X4924044Y4408170D01*
X4926126Y4405122D01*
X4926990Y4401464D01*
X4926482Y4397806D01*
X4924704Y4394555D01*
X4921859Y4391050D01*
X4919014Y4385818D01*
X4917287Y4380077D01*
X4916678Y4373626D01*
X4916678Y4236923D01*
X4917287Y4230522D01*
X4919014Y4224782D01*
X4921859Y4219549D01*
X4925618Y4214926D01*
X4930241Y4211116D01*
X4935524Y4208322D01*
X4941214Y4206595D01*
X4947666Y4205935D01*
X5059934Y4205935D01*
X5066385Y4206595D01*
X5072075Y4208322D01*
X5077358Y4211116D01*
X5081981Y4214926D01*
X5085740Y4219549D01*
X5088585Y4224782D01*
X5090312Y4230522D01*
X5090922Y4236923D01*
X5090922Y4373626D01*
X5090312Y4380077D01*
X5088585Y4385818D01*
X5085740Y4391050D01*
X5081981Y4395673D01*
X5077358Y4399483D01*
X5072075Y4402277D01*
X5066030Y4404106D01*
X5062626Y4405934D01*
X5060086Y4408932D01*
X5058918Y4412640D01*
X5058460Y4416602D01*
X5057394Y4421276D01*
X5055971Y4425899D01*
X5054092Y4430369D01*
X5051856Y4434636D01*
X5049266Y4438751D01*
X5046319Y4442561D01*
X5042916Y4446320D01*
X4997246Y4491939D01*
X4995062Y4495241D01*
X4994300Y4499102D01*
X4994300Y4501743D01*
X4995214Y4505909D01*
X4997754Y4509363D01*
X5001514Y4511446D01*
X5007000Y4513122D01*
X5012232Y4515916D01*
X5016855Y4519726D01*
X5020665Y4524349D01*
X5023459Y4529582D01*
X5025186Y4535322D01*
X5025847Y4541723D01*
X5025847Y4678426D01*
X5025186Y4684877D01*
X5023459Y4690618D01*
X5020665Y4695850D01*
X5016855Y4700473D01*
X5012232Y4704283D01*
X5007000Y4707077D01*
X5001260Y4708804D01*
X4994808Y4709464D01*
X4949037Y4709464D01*
X4945176Y4710226D01*
X4941874Y4712411D01*
X4909769Y4744516D01*
X4907584Y4747818D01*
X4906822Y4751679D01*
X4906162Y4931105D01*
X4907026Y4935270D01*
X4909616Y4938776D01*
X4913325Y4940858D01*
X4917643Y4941214D01*
X4921656Y4939741D01*
X4924755Y4936794D01*
X4931867Y4926177D01*
X4941062Y4915662D01*
X4951577Y4906467D01*
X4963160Y4898694D01*
X4972050Y4894326D01*
X4972050Y4946650D01*
X4916220Y4946650D01*
X4912360Y4947412D01*
X4909058Y4949596D01*
X4906822Y4952898D01*
X4906060Y4956759D01*
X4905806Y5025339D01*
X4906568Y5029250D01*
X4908753Y5032552D01*
X4912055Y5034788D01*
X4915966Y5035550D01*
X4972050Y5035550D01*
X4972050Y5087874D01*
X4963160Y5083505D01*
X4951577Y5075732D01*
X4941062Y5066538D01*
X4931867Y5056022D01*
X4924348Y5044795D01*
X4921250Y5041798D01*
X4917236Y5040325D01*
X4912969Y5040680D01*
X4909210Y5042763D01*
X4906619Y5046218D01*
X4905705Y5050383D01*
X4905502Y5116271D01*
X4906264Y5120182D01*
X4908499Y5123484D01*
X5163413Y5377129D01*
X5166715Y5379313D01*
X5170576Y5380075D01*
X5302453Y5380075D01*
X5306364Y5379313D01*
X5309666Y5377129D01*
X5311851Y5373827D01*
X5312613Y5369915D01*
X5311851Y5366054D01*
X5309666Y5362752D01*
X5167884Y5221020D01*
X5164480Y5217261D01*
X5161534Y5213451D01*
X5158943Y5209336D01*
X5156708Y5205069D01*
X5154828Y5200599D01*
X5153406Y5195976D01*
X5152339Y5191252D01*
X5151729Y5186426D01*
X5151475Y5181396D01*
X5151475Y4864303D01*
X5151729Y4859274D01*
X5152339Y4854448D01*
X5153406Y4849723D01*
X5154828Y4845100D01*
X5156708Y4840630D01*
X5158943Y4836363D01*
X5161534Y4832248D01*
X5164480Y4828438D01*
X5167884Y4824679D01*
X5265775Y4726787D01*
X5268010Y4723485D01*
X5268772Y4719624D01*
X5268010Y4715713D01*
X5265775Y4712411D01*
X5262524Y4710226D01*
X5258612Y4709464D01*
X5165191Y4709464D01*
X5158740Y4708804D01*
X5152999Y4707077D01*
X5147767Y4704283D01*
X5143144Y4700473D01*
X5139334Y4695850D01*
X5136540Y4690618D01*
X5134813Y4684877D01*
X5134152Y4678426D01*
X5134152Y4541723D01*
X5134813Y4535322D01*
X5136540Y4529582D01*
X5139334Y4524349D01*
X5143144Y4519726D01*
X5147767Y4515916D01*
X5152999Y4513122D01*
X5158587Y4511395D01*
X5162346Y4509312D01*
X5164886Y4505909D01*
X5165801Y4501692D01*
X5165801Y4472736D01*
X5165140Y4469180D01*
X5163261Y4466031D01*
X5160416Y4463796D01*
X5158333Y4462678D01*
X5153761Y4458868D01*
X5149951Y4454296D01*
X5147157Y4449013D01*
X5145379Y4443272D01*
X5144770Y4436872D01*
X5144770Y4336237D01*
X5145379Y4329836D01*
X5147157Y4324096D01*
X5149951Y4318812D01*
X5153761Y4314240D01*
X5158333Y4310430D01*
X5163616Y4307636D01*
X5169357Y4305858D01*
X5175758Y4305249D01*
X5314492Y4305249D01*
X5320893Y4305858D01*
X5326634Y4307636D01*
X5331917Y4310430D01*
X5336489Y4314240D01*
X5340299Y4318812D01*
X5343093Y4324096D01*
X5344871Y4329836D01*
X5345480Y4336237D01*
X5345480Y4436872D01*
X5344871Y4443272D01*
X5343093Y4449013D01*
X5340299Y4454296D01*
X5336489Y4458868D01*
X5331917Y4462678D01*
X5326634Y4465472D01*
X5320893Y4467250D01*
X5314492Y4467860D01*
X5286959Y4467860D01*
X5283098Y4468622D01*
X5279796Y4470857D01*
X5277561Y4474159D01*
X5276799Y4478020D01*
X5276799Y4501692D01*
X5277713Y4505909D01*
X5280253Y4509363D01*
X5284012Y4511446D01*
X5289600Y4513122D01*
X5294833Y4515916D01*
X5299456Y4519726D01*
X5303266Y4524349D01*
X5306060Y4529582D01*
X5307787Y4535322D01*
X5308447Y4541723D01*
X5308447Y4659630D01*
X5309209Y4663541D01*
X5311394Y4666843D01*
X5314696Y4669028D01*
X5318607Y4669790D01*
X5322468Y4669028D01*
X5325770Y4666843D01*
X5331206Y4661408D01*
X5333390Y4658106D01*
X5334152Y4654245D01*
X5334152Y4541723D01*
X5334812Y4535322D01*
X5336540Y4529582D01*
X5339334Y4524349D01*
X5343144Y4519726D01*
X5347766Y4515916D01*
X5352999Y4513122D01*
X5358638Y4511395D01*
X5362397Y4509312D01*
X5364988Y4505858D01*
X5365851Y4501692D01*
X5365851Y4484827D01*
X5366105Y4479798D01*
X5366715Y4474972D01*
X5367782Y4470247D01*
X5369204Y4465624D01*
X5371084Y4461154D01*
X5373319Y4456887D01*
X5375910Y4452772D01*
X5378856Y4448962D01*
X5382260Y4445203D01*
X5408625Y4418888D01*
X5410758Y4415739D01*
X5411622Y4412081D01*
X5411063Y4408373D01*
X5409184Y4405071D01*
X5406237Y4402734D01*
X5400141Y4399483D01*
X5395518Y4395673D01*
X5391759Y4391050D01*
X5388914Y4385818D01*
X5387187Y4380077D01*
X5386578Y4373626D01*
X5386578Y4236923D01*
X5387187Y4230522D01*
X5388914Y4224782D01*
X5391759Y4219549D01*
X5395518Y4214926D01*
X5400141Y4211116D01*
X5405424Y4208322D01*
X5411114Y4206595D01*
X5417566Y4205935D01*
X5529834Y4205935D01*
X5536285Y4206595D01*
X5541975Y4208322D01*
X5547258Y4211116D01*
X5551881Y4214926D01*
X5555640Y4219549D01*
X5558485Y4224782D01*
X5560212Y4230522D01*
X5560822Y4236923D01*
X5560822Y4373626D01*
X5560212Y4380077D01*
X5558485Y4385818D01*
X5555640Y4391050D01*
X5551881Y4395673D01*
X5544413Y4401718D01*
X5542534Y4404868D01*
X5541924Y4408424D01*
X5541924Y4419396D01*
X5541670Y4424426D01*
X5541060Y4429252D01*
X5539994Y4433976D01*
X5538571Y4438599D01*
X5536692Y4443069D01*
X5534456Y4447336D01*
X5531866Y4451451D01*
X5528919Y4455261D01*
X5525516Y4459020D01*
X5487416Y4497070D01*
X5485282Y4500219D01*
X5484469Y4503877D01*
X5484977Y4507585D01*
X5486857Y4510887D01*
X5489803Y4513224D01*
X5494832Y4515916D01*
X5499455Y4519726D01*
X5503265Y4524349D01*
X5506059Y4529582D01*
X5507786Y4535322D01*
X5508447Y4541723D01*
X5508447Y4678426D01*
X5507786Y4684877D01*
X5506059Y4690618D01*
X5503265Y4695850D01*
X5499455Y4700473D01*
X5494832Y4704283D01*
X5489600Y4707077D01*
X5483860Y4708804D01*
X5477408Y4709464D01*
X5444337Y4709464D01*
X5440476Y4710226D01*
X5437174Y4712411D01*
X5265470Y4884115D01*
X5263286Y4887417D01*
X5262524Y4891278D01*
X5262524Y5154422D01*
X5263286Y5158282D01*
X5265470Y5161584D01*
X5576316Y5472379D01*
X5579719Y5476138D01*
X5582666Y5479948D01*
X5585256Y5484063D01*
X5587492Y5488330D01*
X5589371Y5492800D01*
X5590794Y5497423D01*
X5591860Y5502148D01*
X5592470Y5506974D01*
X5592724Y5512003D01*
X5592724Y5583123D01*
X5593537Y5587136D01*
X5595924Y5590540D01*
X5599430Y5592673D01*
X5603544Y5593232D01*
X5607507Y5592165D01*
X5610707Y5589574D01*
X5613247Y5586476D01*
X5617870Y5582666D01*
X5623153Y5579872D01*
X5628843Y5578144D01*
X5635294Y5577484D01*
X5662218Y5577484D01*
X5662218Y5636920D01*
X5602884Y5636920D01*
X5598972Y5637682D01*
X5595670Y5639866D01*
X5593486Y5643168D01*
X5592724Y5647080D01*
X5592724Y5709920D01*
X5593486Y5713831D01*
X5595670Y5717133D01*
X5598972Y5719318D01*
X5602884Y5720080D01*
X5662218Y5720080D01*
X5662218Y5767324D01*
X5662980Y5771235D01*
X5665165Y5774537D01*
X5668467Y5776722D01*
X5672378Y5777484D01*
X5732221Y5777484D01*
X5736132Y5776722D01*
X5739434Y5774537D01*
X5741619Y5771235D01*
X5742381Y5767324D01*
X5742381Y5720080D01*
X5800293Y5720080D01*
X5800293Y5748477D01*
X5799683Y5754928D01*
X5797956Y5760669D01*
X5795111Y5765901D01*
X5788456Y5774131D01*
X5787491Y5778500D01*
X5788456Y5782868D01*
X5795111Y5791098D01*
X5797956Y5796330D01*
X5799683Y5802071D01*
X5800191Y5807252D01*
X5801258Y5810859D01*
X5803595Y5813856D01*
X5806897Y5815787D01*
X5810605Y5816396D01*
X5814314Y5815584D01*
X5817463Y5813399D01*
X5935929Y5694984D01*
X5938113Y5691682D01*
X5938875Y5687822D01*
X5938875Y5566460D01*
X5938062Y5562346D01*
X5935624Y5558993D01*
X5932068Y5556859D01*
X5927953Y5556300D01*
X5917285Y5559704D01*
X5910834Y5560364D01*
X5798566Y5560364D01*
X5792114Y5559704D01*
X5786424Y5557977D01*
X5781141Y5555183D01*
X5776518Y5551373D01*
X5772759Y5546750D01*
X5769914Y5541518D01*
X5768187Y5535777D01*
X5767578Y5529326D01*
X5767578Y5392623D01*
X5768187Y5386222D01*
X5769914Y5380482D01*
X5772759Y5375249D01*
X5774588Y5373014D01*
X5776468Y5369509D01*
X5776823Y5365546D01*
X5775706Y5361736D01*
X5773166Y5358688D01*
X5769660Y5356809D01*
X5765749Y5356453D01*
X5758434Y5357164D01*
X5736945Y5357164D01*
X5736945Y5298592D01*
X5789422Y5298592D01*
X5789422Y5326126D01*
X5788812Y5332577D01*
X5787085Y5338318D01*
X5784240Y5343550D01*
X5782411Y5345785D01*
X5780532Y5349290D01*
X5780176Y5353253D01*
X5781344Y5357063D01*
X5783834Y5360111D01*
X5787339Y5361990D01*
X5791250Y5362346D01*
X5798566Y5361635D01*
X5910834Y5361635D01*
X5917285Y5362295D01*
X5927953Y5365699D01*
X5932068Y5365140D01*
X5935624Y5363006D01*
X5938062Y5359654D01*
X5938875Y5355539D01*
X5938875Y5100167D01*
X5938367Y5096916D01*
X5936792Y5093970D01*
X5934354Y5091734D01*
X5929477Y5088432D01*
X5918962Y5079238D01*
X5909767Y5068722D01*
X5901994Y5057140D01*
X5895848Y5044643D01*
X5891326Y5031435D01*
X5888634Y5017719D01*
X5887720Y5003800D01*
X5888634Y4989880D01*
X5889802Y4984089D01*
X5889904Y4980736D01*
X5888939Y4977587D01*
X5887008Y4974894D01*
X5796584Y4884470D01*
X5793282Y4882286D01*
X5789422Y4881524D01*
X5500878Y4881524D01*
X5497017Y4882286D01*
X5492546Y4885639D01*
X5490464Y4888687D01*
X5489600Y4892243D01*
X5490057Y4895900D01*
X5494629Y4904435D01*
X5496356Y4910175D01*
X5497017Y4916576D01*
X5497017Y5065572D01*
X5496356Y5072024D01*
X5494629Y5077764D01*
X5491835Y5082997D01*
X5488025Y5087620D01*
X5483402Y5091430D01*
X5478170Y5094224D01*
X5472430Y5095951D01*
X5465978Y5096611D01*
X5326989Y5096611D01*
X5320538Y5095951D01*
X5314848Y5094224D01*
X5309565Y5091430D01*
X5304942Y5087620D01*
X5301183Y5082997D01*
X5298338Y5077764D01*
X5296611Y5072024D01*
X5296001Y5065572D01*
X5296001Y4916576D01*
X5296611Y4910175D01*
X5298338Y4904435D01*
X5301183Y4899152D01*
X5304942Y4894580D01*
X5309565Y4890770D01*
X5314848Y4887976D01*
X5320538Y4886198D01*
X5326989Y4885588D01*
X5336997Y4885588D01*
X5340604Y4884928D01*
X5343753Y4882997D01*
X5345988Y4880102D01*
X5348427Y4875479D01*
X5351018Y4871364D01*
X5353964Y4867554D01*
X5357368Y4863795D01*
X5434279Y4786884D01*
X5438038Y4783480D01*
X5441848Y4780534D01*
X5445963Y4777943D01*
X5450230Y4775708D01*
X5454700Y4773828D01*
X5459323Y4772406D01*
X5464048Y4771339D01*
X5468874Y4770729D01*
X5473903Y4770475D01*
X5816396Y4770475D01*
X5821426Y4770729D01*
X5826252Y4771339D01*
X5830976Y4772406D01*
X5835599Y4773828D01*
X5840069Y4775708D01*
X5844336Y4777943D01*
X5848451Y4780534D01*
X5852261Y4783480D01*
X5856020Y4786884D01*
X5965494Y4896408D01*
X5968187Y4898339D01*
X5971336Y4899304D01*
X5974689Y4899202D01*
X5980480Y4898034D01*
X5994400Y4897120D01*
X6008319Y4898034D01*
X6022035Y4900726D01*
X6035243Y4905248D01*
X6047740Y4911394D01*
X6059322Y4919167D01*
X6069838Y4928362D01*
X6079032Y4938877D01*
X6086805Y4950460D01*
X6092952Y4962956D01*
X6097473Y4976164D01*
X6100165Y4989880D01*
X6101080Y5003800D01*
X6100165Y5017719D01*
X6097473Y5031435D01*
X6092952Y5044643D01*
X6086805Y5057140D01*
X6079032Y5068722D01*
X6069838Y5079238D01*
X6059322Y5088432D01*
X6054445Y5091734D01*
X6052007Y5093970D01*
X6050432Y5096916D01*
X6049924Y5100167D01*
X6049924Y5714796D01*
X6049670Y5719826D01*
X6049060Y5724652D01*
X6047994Y5729376D01*
X6046571Y5733999D01*
X6044692Y5738469D01*
X6042456Y5742736D01*
X6039866Y5746851D01*
X6036919Y5750661D01*
X6033516Y5754420D01*
X5870295Y5917590D01*
X5866587Y5920994D01*
X5862726Y5923940D01*
X5858662Y5926582D01*
X5854344Y5928817D01*
X5849874Y5930646D01*
X5845251Y5932119D01*
X5840526Y5933135D01*
X5835751Y5933795D01*
X5830671Y5933998D01*
X5810453Y5933998D01*
X5806592Y5934760D01*
X5803290Y5936996D01*
X5801106Y5940298D01*
X5800293Y5944158D01*
X5800293Y5948527D01*
X5799683Y5954928D01*
X5797956Y5960668D01*
X5795111Y5965901D01*
X5791352Y5970524D01*
X5786729Y5974334D01*
X5781446Y5977128D01*
X5775756Y5978855D01*
X5769305Y5979515D01*
X5635294Y5979515D01*
X5628843Y5978855D01*
X5623153Y5977128D01*
X5617870Y5974334D01*
X5613247Y5970524D01*
X5609488Y5965901D01*
X5606643Y5960668D01*
X5604916Y5954928D01*
X5604306Y5948527D01*
X5604306Y5944158D01*
X5603494Y5940298D01*
X5601309Y5936996D01*
X5598007Y5934760D01*
X5594146Y5933998D01*
X5578703Y5933998D01*
X5574792Y5934760D01*
X5571540Y5936996D01*
X5513120Y5995416D01*
X5509361Y5998819D01*
X5505551Y6001766D01*
X5501436Y6004356D01*
X5497169Y6006592D01*
X5492699Y6008471D01*
X5488076Y6009894D01*
X5483352Y6010960D01*
X5478526Y6011570D01*
X5473496Y6011824D01*
X5378043Y6011824D01*
X5363768Y6015380D01*
X5353456Y6016193D01*
X5217109Y6016193D01*
X5213197Y6017006D01*
X5209895Y6019190D01*
X5174996Y6054140D01*
X5172760Y6057392D01*
X5171998Y6061303D01*
X5171998Y6063792D01*
X5172913Y6068009D01*
X5175453Y6071412D01*
X5179212Y6073495D01*
X5184800Y6075222D01*
X5190032Y6078016D01*
X5194655Y6081826D01*
X5198465Y6086449D01*
X5201259Y6091682D01*
X5202986Y6097422D01*
X5203647Y6103823D01*
X5203647Y6240526D01*
X5202986Y6246977D01*
X5201259Y6252718D01*
X5198465Y6257950D01*
X5194655Y6262573D01*
X5190032Y6266383D01*
X5184800Y6269177D01*
X5179060Y6270904D01*
X5172608Y6271564D01*
X5060391Y6271564D01*
X5053939Y6270904D01*
X5048199Y6269177D01*
X5042966Y6266383D01*
X5038344Y6262573D01*
X5034534Y6257950D01*
X5031740Y6252718D01*
X5030012Y6246977D01*
X5029352Y6240526D01*
X5029352Y6103823D01*
X5030012Y6097422D01*
X5031740Y6091682D01*
X5034534Y6086449D01*
X5038344Y6081826D01*
X5042966Y6078016D01*
X5048199Y6075222D01*
X5053787Y6073546D01*
X5057546Y6071463D01*
X5060086Y6068009D01*
X5061000Y6063792D01*
X5061000Y6034328D01*
X5061204Y6029248D01*
X5061864Y6024473D01*
X5062880Y6019749D01*
X5064353Y6015126D01*
X5066182Y6010656D01*
X5068417Y6006338D01*
X5071059Y6002274D01*
X5074005Y5998413D01*
X5077409Y5994704D01*
X5154879Y5917184D01*
X5158638Y5913780D01*
X5162448Y5910834D01*
X5166563Y5908243D01*
X5170830Y5906008D01*
X5175199Y5904179D01*
X5181498Y5902401D01*
X5185156Y5900470D01*
X5187746Y5897270D01*
X5188864Y5893308D01*
X5188305Y5889244D01*
X5186172Y5885688D01*
X5182819Y5883300D01*
X5179720Y5881979D01*
X5171440Y5876544D01*
X5164175Y5869838D01*
X5158079Y5862066D01*
X5153355Y5853328D01*
X5150154Y5843981D01*
X5148529Y5834227D01*
X5148529Y5824372D01*
X5150154Y5814618D01*
X5153355Y5805271D01*
X5158079Y5796534D01*
X5164175Y5788761D01*
X5171440Y5782056D01*
X5179720Y5776620D01*
X5183225Y5775096D01*
X5186426Y5772861D01*
X5188559Y5769610D01*
X5189270Y5765800D01*
X5188559Y5761990D01*
X5186426Y5758738D01*
X5183225Y5756503D01*
X5179720Y5754979D01*
X5171440Y5749544D01*
X5164175Y5742838D01*
X5158079Y5735066D01*
X5153355Y5726328D01*
X5150154Y5716981D01*
X5148529Y5707227D01*
X5148529Y5697372D01*
X5150154Y5687618D01*
X5153355Y5678271D01*
X5158079Y5669534D01*
X5164175Y5661761D01*
X5171440Y5655056D01*
X5179974Y5649468D01*
X5182971Y5646420D01*
X5184495Y5642356D01*
X5184140Y5638088D01*
X5182057Y5634278D01*
X5178602Y5631738D01*
X5174386Y5630824D01*
X5131003Y5630824D01*
X5125974Y5630570D01*
X5121148Y5629960D01*
X5116423Y5628894D01*
X5111800Y5627471D01*
X5107330Y5625592D01*
X5103063Y5623356D01*
X5098948Y5620766D01*
X5095138Y5617819D01*
X5091379Y5614416D01*
X5000447Y5523433D01*
X4997145Y5521248D01*
X4993284Y5520486D01*
X4989372Y5521248D01*
X4986070Y5523433D01*
X4983886Y5526735D01*
X4983124Y5530646D01*
X4983124Y5625896D01*
X4982870Y5630926D01*
X4982260Y5635752D01*
X4981194Y5640476D01*
X4979771Y5645099D01*
X4977892Y5649569D01*
X4975656Y5653836D01*
X4973066Y5657951D01*
X4970119Y5661761D01*
X4966716Y5665520D01*
X4890820Y5741416D01*
X4887061Y5744819D01*
X4883251Y5747766D01*
X4879136Y5750356D01*
X4874869Y5752592D01*
X4870399Y5754471D01*
X4865776Y5755894D01*
X4861052Y5756960D01*
X4856226Y5757570D01*
X4851196Y5757824D01*
X4833213Y5757824D01*
X4828997Y5758738D01*
X4825542Y5761278D01*
X4823460Y5765088D01*
X4823104Y5769356D01*
X4824628Y5773420D01*
X4827625Y5776468D01*
X4836160Y5782056D01*
X4843424Y5788761D01*
X4849520Y5796534D01*
X4854244Y5805271D01*
X4857445Y5814618D01*
X4859070Y5824372D01*
X4859070Y5834227D01*
X4857445Y5843981D01*
X4854244Y5853328D01*
X4849520Y5862066D01*
X4843424Y5869838D01*
X4836160Y5876544D01*
X4827625Y5882132D01*
X4824628Y5885180D01*
X4823104Y5889244D01*
X4823460Y5893511D01*
X4825542Y5897321D01*
X4828997Y5899861D01*
X4833213Y5900775D01*
X4863896Y5900775D01*
X4868926Y5901029D01*
X4873752Y5901639D01*
X4878476Y5902706D01*
X4883099Y5904128D01*
X4887569Y5906008D01*
X4891836Y5908243D01*
X4895951Y5910834D01*
X4899761Y5913780D01*
X4903520Y5917184D01*
X4955540Y5969203D01*
X4958943Y5972962D01*
X4961890Y5976772D01*
X4964480Y5980887D01*
X4966716Y5985154D01*
X4968595Y5989624D01*
X4970018Y5994247D01*
X4971084Y5998972D01*
X4971694Y6003798D01*
X4971948Y6008827D01*
X4971948Y6063792D01*
X4972862Y6067958D01*
X4975402Y6071412D01*
X4979162Y6073495D01*
X4984800Y6075222D01*
X4990033Y6078016D01*
X4994656Y6081826D01*
X4998466Y6086449D01*
X5001260Y6091682D01*
X5002987Y6097422D01*
X5003647Y6103823D01*
X5003647Y6240526D01*
X5002987Y6246977D01*
X5001260Y6252718D01*
X4998466Y6257950D01*
X4994656Y6262573D01*
X4990033Y6266383D01*
X4984800Y6269177D01*
X4979060Y6270904D01*
X4972608Y6271564D01*
X4860391Y6271564D01*
X4853940Y6270904D01*
X4848199Y6269177D01*
X4842967Y6266383D01*
X4838344Y6262573D01*
X4834534Y6257950D01*
X4831740Y6252718D01*
X4830013Y6246977D01*
X4829352Y6240526D01*
X4829352Y6103823D01*
X4830013Y6097422D01*
X4831740Y6091682D01*
X4834534Y6086449D01*
X4838344Y6081826D01*
X4842967Y6078016D01*
X4848199Y6075222D01*
X4853686Y6073546D01*
X4857445Y6071463D01*
X4860036Y6068009D01*
X4860899Y6063843D01*
X4860899Y6035802D01*
X4860137Y6031941D01*
X4857953Y6028639D01*
X4844084Y6014770D01*
X4840782Y6012586D01*
X4836922Y6011824D01*
X4823510Y6011824D01*
X4809236Y6015380D01*
X4798974Y6016193D01*
X4654143Y6016193D01*
X4643831Y6015380D01*
X4633671Y6012688D01*
X4629556Y6011824D01*
X4483303Y6011824D01*
X4478274Y6011570D01*
X4473448Y6010960D01*
X4468723Y6009894D01*
X4464100Y6008471D01*
X4459630Y6006592D01*
X4455363Y6004356D01*
X4451248Y6001766D01*
X4447438Y5998819D01*
X4443679Y5995416D01*
X4413300Y5964986D01*
X4409795Y5962700D01*
X4405630Y5962040D01*
X4401566Y5963107D01*
X4398264Y5965748D01*
X4394352Y5970524D01*
X4389729Y5974334D01*
X4384446Y5977128D01*
X4378756Y5978855D01*
X4372305Y5979515D01*
X4238294Y5979515D01*
X4231843Y5978855D01*
X4226153Y5977128D01*
X4220870Y5974334D01*
X4216247Y5970524D01*
X4212488Y5965901D01*
X4209643Y5960668D01*
X4207916Y5954928D01*
X4207306Y5948527D01*
X4207306Y5927953D01*
X4206392Y5923788D01*
X4203903Y5920384D01*
X4200753Y5917539D01*
X4075125Y5791911D01*
X4071823Y5789726D01*
X4067962Y5788964D01*
X3995165Y5788964D01*
X3988714Y5788304D01*
X3983024Y5786577D01*
X3977741Y5783783D01*
X3973118Y5779973D01*
X3969359Y5775350D01*
X3966514Y5770118D01*
X3964787Y5764377D01*
X3964178Y5757926D01*
X3964178Y5621223D01*
X3964787Y5614822D01*
X3966514Y5609082D01*
X3969359Y5603849D01*
X3973118Y5599226D01*
X3977741Y5595416D01*
X3983024Y5592622D01*
X3988714Y5590895D01*
X3995165Y5590235D01*
X4107434Y5590235D01*
X4113885Y5590895D01*
X4119575Y5592622D01*
X4124858Y5595416D01*
X4129481Y5599226D01*
X4133240Y5603849D01*
X4136085Y5609082D01*
X4137812Y5614822D01*
X4138422Y5621223D01*
X4138422Y5694019D01*
X4139234Y5697931D01*
X4141419Y5701233D01*
X4189933Y5749747D01*
X4193235Y5751931D01*
X4197146Y5752744D01*
X4201007Y5751931D01*
X4204309Y5749747D01*
X4206494Y5746445D01*
X4207306Y5742584D01*
X4207306Y5720080D01*
X4265218Y5720080D01*
X4265218Y5767324D01*
X4265980Y5771235D01*
X4268165Y5774537D01*
X4271467Y5776722D01*
X4275378Y5777484D01*
X4335221Y5777484D01*
X4339132Y5776722D01*
X4342434Y5774537D01*
X4344619Y5771235D01*
X4345381Y5767324D01*
X4345381Y5720080D01*
X4403293Y5720080D01*
X4403293Y5748477D01*
X4402683Y5754928D01*
X4400956Y5760669D01*
X4398111Y5765901D01*
X4391456Y5774131D01*
X4390491Y5778500D01*
X4391456Y5782868D01*
X4398111Y5791098D01*
X4400956Y5796330D01*
X4402683Y5802071D01*
X4403293Y5808522D01*
X4403293Y5813501D01*
X4404004Y5817158D01*
X4405934Y5820359D01*
X4408881Y5822594D01*
X4412488Y5823610D01*
X4415078Y5823864D01*
X4419650Y5824880D01*
X4424273Y5826353D01*
X4428744Y5828182D01*
X4433062Y5830417D01*
X4437126Y5833059D01*
X4440986Y5836005D01*
X4444695Y5839409D01*
X4503115Y5897829D01*
X4506417Y5900013D01*
X4510278Y5900775D01*
X4586732Y5900775D01*
X4590643Y5900013D01*
X4593894Y5897829D01*
X4596130Y5894527D01*
X4596892Y5890615D01*
X4596130Y5886754D01*
X4593894Y5883452D01*
X4590643Y5881268D01*
X4586630Y5879592D01*
X4582363Y5877356D01*
X4578248Y5874766D01*
X4574438Y5871819D01*
X4570679Y5868416D01*
X4520184Y5817920D01*
X4516780Y5814161D01*
X4513834Y5810351D01*
X4511243Y5806236D01*
X4509008Y5801969D01*
X4507128Y5797499D01*
X4505706Y5792876D01*
X4504639Y5788152D01*
X4504029Y5783326D01*
X4503775Y5778296D01*
X4503775Y5577078D01*
X4502962Y5573064D01*
X4500676Y5569712D01*
X4497222Y5567578D01*
X4493209Y5566918D01*
X4489246Y5567934D01*
X4485995Y5570372D01*
X4482338Y5574538D01*
X4471822Y5583732D01*
X4460240Y5591505D01*
X4451350Y5595874D01*
X4451350Y5543550D01*
X4493615Y5543550D01*
X4497527Y5542788D01*
X4500829Y5540552D01*
X4503013Y5537301D01*
X4503775Y5533390D01*
X4503775Y5464810D01*
X4503013Y5460898D01*
X4500829Y5457647D01*
X4497527Y5455412D01*
X4493615Y5454650D01*
X4451350Y5454650D01*
X4451350Y5410352D01*
X4450588Y5406491D01*
X4448352Y5403189D01*
X4310684Y5265470D01*
X4307382Y5263286D01*
X4303522Y5262524D01*
X4140403Y5262524D01*
X4135374Y5262270D01*
X4130548Y5261660D01*
X4125823Y5260594D01*
X4121200Y5259171D01*
X4116730Y5257292D01*
X4112463Y5255056D01*
X4108348Y5252466D01*
X4104538Y5249519D01*
X4100779Y5246116D01*
X3961384Y5106720D01*
X3957980Y5102961D01*
X3955034Y5099151D01*
X3952443Y5095036D01*
X3950208Y5090769D01*
X3948328Y5086299D01*
X3946906Y5081676D01*
X3945839Y5076952D01*
X3945229Y5072126D01*
X3944975Y5067096D01*
X3944975Y4230827D01*
X3944112Y4226712D01*
X3941673Y4223308D01*
X3938015Y4221226D01*
X3933850Y4220718D01*
X3929837Y4221988D01*
X3926687Y4224782D01*
X3922674Y4230217D01*
X3893616Y4272534D01*
X3866235Y4316018D01*
X3840581Y4360468D01*
X3816654Y4405934D01*
X3794506Y4452264D01*
X3774186Y4499406D01*
X3755694Y4547311D01*
X3739083Y4595876D01*
X3724351Y4645101D01*
X3711549Y4694834D01*
X3700678Y4745024D01*
X3691788Y4795570D01*
X3684828Y4846472D01*
X3679850Y4897577D01*
X3676904Y4948834D01*
X3675887Y5000193D01*
X3676904Y5051552D01*
X3679901Y5102809D01*
X3684879Y5153914D01*
X3691839Y5204764D01*
X3700729Y5255361D01*
X3711651Y5305552D01*
X3724452Y5355285D01*
X3739184Y5404459D01*
X3755796Y5453024D01*
X3774338Y5500928D01*
X3794658Y5548071D01*
X3816807Y5594400D01*
X3840784Y5639866D01*
X3866438Y5684316D01*
X3893820Y5727750D01*
X3922877Y5770118D01*
X3953560Y5811266D01*
X3985818Y5851245D01*
X4019550Y5889955D01*
X4054805Y5927293D01*
X4091482Y5963259D01*
X4129532Y5997752D01*
X4168851Y6030722D01*
X4209440Y6062218D01*
X4251248Y6092037D01*
X4294124Y6120282D01*
X4338116Y6146800D01*
X4383074Y6171590D01*
X4428947Y6194653D01*
X4475734Y6215888D01*
X4523282Y6235293D01*
X4571542Y6252819D01*
X4620412Y6268516D01*
X4669891Y6282283D01*
X4719878Y6294120D01*
X4770272Y6304026D01*
X4820970Y6311950D01*
X4872024Y6317894D01*
X4923180Y6321856D01*
X4974488Y6323838D01*
X5025847Y6323838D01*
X5077155Y6321856D01*
X5128361Y6317843D01*
X5179364Y6311900D01*
X5230114Y6303924D01*
X5280507Y6294018D01*
X5330444Y6282182D01*
X5379923Y6268415D01*
X5428843Y6252718D01*
X5477103Y6235141D01*
X5524601Y6215735D01*
X5571388Y6194450D01*
X5617260Y6171387D01*
X5662218Y6146596D01*
X5706160Y6120028D01*
X5749086Y6091834D01*
X5790844Y6061964D01*
X5831433Y6030518D01*
X5870752Y5997498D01*
X5908802Y5962954D01*
X5945428Y5926988D01*
X5980684Y5889650D01*
X6014415Y5850940D01*
X6046673Y5810961D01*
X6077305Y5769762D01*
X6106363Y5727446D01*
X6133744Y5683961D01*
X6159398Y5639511D01*
X6183325Y5594045D01*
X6205474Y5547715D01*
X6225794Y5500573D01*
X6244285Y5452668D01*
X6260896Y5404104D01*
X6275628Y5354878D01*
X6288430Y5305145D01*
X6299301Y5254955D01*
X6308191Y5204409D01*
X6315151Y5153507D01*
X6320129Y5102402D01*
X6323076Y5051145D01*
X6324092Y4999786D01*
X6323076Y4948428D01*
X6320078Y4897170D01*
X6315100Y4846066D01*
X6308140Y4795215D01*
X6299250Y4744618D01*
X6288328Y4694428D01*
X6275527Y4644694D01*
X6260795Y4595520D01*
X6244183Y4546955D01*
X6225641Y4499051D01*
X6205321Y4451908D01*
X6183172Y4405579D01*
X6159195Y4360113D01*
X6133541Y4315663D01*
X6106160Y4272229D01*
X6077102Y4229862D01*
X6046419Y4188714D01*
X6014161Y4148734D01*
X6003442Y4136440D01*
X5999988Y4133850D01*
X5995822Y4132935D01*
X5991606Y4133850D01*
X5988151Y4136390D01*
X5986068Y4140149D01*
X5985713Y4144416D01*
X5986170Y4148074D01*
X5986424Y4153103D01*
X5986424Y4522825D01*
X5986729Y4525264D01*
X5988659Y4529582D01*
X5990386Y4535322D01*
X5991047Y4541723D01*
X5991047Y4678426D01*
X5990386Y4684877D01*
X5988659Y4690618D01*
X5985865Y4695850D01*
X5982055Y4700473D01*
X5977432Y4704283D01*
X5972200Y4707077D01*
X5966460Y4708804D01*
X5960008Y4709464D01*
X5847791Y4709464D01*
X5841339Y4708804D01*
X5835599Y4707077D01*
X5830366Y4704283D01*
X5825744Y4700473D01*
X5821934Y4695850D01*
X5819140Y4690618D01*
X5817412Y4684877D01*
X5816752Y4678426D01*
X5816752Y4541723D01*
X5817412Y4535322D01*
X5819140Y4529582D01*
X5821934Y4524349D01*
X5825744Y4519726D01*
X5830366Y4515916D01*
X5835599Y4513122D01*
X5841339Y4511395D01*
X5847791Y4510735D01*
X5865215Y4510735D01*
X5869127Y4509973D01*
X5872429Y4507788D01*
X5874613Y4504486D01*
X5875375Y4500575D01*
X5875375Y4180078D01*
X5874613Y4176217D01*
X5872429Y4172915D01*
X5843930Y4144416D01*
X5840628Y4142232D01*
X5836716Y4141419D01*
X5769000Y4141419D01*
X5769000Y4091635D01*
X5772912Y4089857D01*
X5775756Y4086606D01*
X5776976Y4082440D01*
X5776366Y4078173D01*
X5774029Y4074566D01*
X5682284Y3982770D01*
X5678982Y3980586D01*
X5675122Y3979824D01*
G37*

%LPC*%
G36*
X4803800Y4091889D02*
G01*
X4831892Y4091889D01*
X4838293Y4092498D01*
X4844034Y4094276D01*
X4849317Y4097070D01*
X4853889Y4100880D01*
X4857699Y4105452D01*
X4860493Y4110736D01*
X4862271Y4116476D01*
X4862880Y4122877D01*
X4862880Y4141419D01*
X4803800Y4141419D01*
G37*
G36*
X4693158Y4091889D02*
G01*
X4721250Y4091889D01*
X4721250Y4141419D01*
X4662170Y4141419D01*
X4662170Y4122877D01*
X4662779Y4116476D01*
X4664557Y4110736D01*
X4667351Y4105452D01*
X4671161Y4100880D01*
X4675733Y4097070D01*
X4681016Y4094276D01*
X4686757Y4092498D01*
G37*
G36*
X5286400Y4091889D02*
G01*
X5314492Y4091889D01*
X5320893Y4092498D01*
X5326634Y4094276D01*
X5331917Y4097070D01*
X5336489Y4100880D01*
X5340299Y4105452D01*
X5343093Y4110736D01*
X5344871Y4116476D01*
X5345480Y4122877D01*
X5345480Y4141419D01*
X5286400Y4141419D01*
G37*
G36*
X5175758Y4091889D02*
G01*
X5203850Y4091889D01*
X5203850Y4141419D01*
X5144770Y4141419D01*
X5144770Y4122877D01*
X5145379Y4116476D01*
X5147157Y4110736D01*
X5149951Y4105452D01*
X5153761Y4100880D01*
X5158333Y4097070D01*
X5163616Y4094276D01*
X5169357Y4092498D01*
G37*
G36*
X4308500Y4091889D02*
G01*
X4336592Y4091889D01*
X4342993Y4092498D01*
X4348734Y4094276D01*
X4354017Y4097070D01*
X4358589Y4100880D01*
X4362399Y4105452D01*
X4365193Y4110736D01*
X4366971Y4116476D01*
X4367580Y4122877D01*
X4367580Y4141419D01*
X4308500Y4141419D01*
G37*
G36*
X5658358Y4091889D02*
G01*
X5686450Y4091889D01*
X5686450Y4141419D01*
X5627370Y4141419D01*
X5627370Y4122877D01*
X5627979Y4116476D01*
X5629757Y4110736D01*
X5632551Y4105452D01*
X5636361Y4100880D01*
X5640933Y4097070D01*
X5646216Y4094276D01*
X5651957Y4092498D01*
G37*
G36*
X4166870Y4204919D02*
G01*
X4225950Y4204919D01*
X4225950Y4254500D01*
X4197858Y4254500D01*
X4191457Y4253890D01*
X4185716Y4252112D01*
X4180433Y4249318D01*
X4175861Y4245508D01*
X4172051Y4240936D01*
X4169257Y4235653D01*
X4167479Y4229912D01*
X4166870Y4223512D01*
G37*
G36*
X4308500Y4204919D02*
G01*
X4367580Y4204919D01*
X4367580Y4223512D01*
X4366971Y4229912D01*
X4365193Y4235653D01*
X4362399Y4240936D01*
X4358589Y4245508D01*
X4354017Y4249318D01*
X4348734Y4252112D01*
X4342993Y4253890D01*
X4336592Y4254500D01*
X4308500Y4254500D01*
G37*
G36*
X4803800Y4204919D02*
G01*
X4862880Y4204919D01*
X4862880Y4223512D01*
X4862271Y4229912D01*
X4860493Y4235653D01*
X4857699Y4240936D01*
X4853889Y4245508D01*
X4849317Y4249318D01*
X4844034Y4252112D01*
X4838293Y4253890D01*
X4831892Y4254500D01*
X4803800Y4254500D01*
G37*
G36*
X5769000Y4204919D02*
G01*
X5828080Y4204919D01*
X5828080Y4223512D01*
X5827471Y4229912D01*
X5825693Y4235653D01*
X5822899Y4240936D01*
X5819089Y4245508D01*
X5814517Y4249318D01*
X5809234Y4252112D01*
X5803493Y4253890D01*
X5797092Y4254500D01*
X5769000Y4254500D01*
G37*
G36*
X4662170Y4204919D02*
G01*
X4721250Y4204919D01*
X4721250Y4254500D01*
X4693158Y4254500D01*
X4686757Y4253890D01*
X4681016Y4252112D01*
X4675733Y4249318D01*
X4671161Y4245508D01*
X4667351Y4240936D01*
X4664557Y4235653D01*
X4662779Y4229912D01*
X4662170Y4223512D01*
G37*
G36*
X5286400Y4204919D02*
G01*
X5345480Y4204919D01*
X5345480Y4223512D01*
X5344871Y4229912D01*
X5343093Y4235653D01*
X5340299Y4240936D01*
X5336489Y4245508D01*
X5331917Y4249318D01*
X5326634Y4252112D01*
X5320893Y4253890D01*
X5314492Y4254500D01*
X5286400Y4254500D01*
G37*
G36*
X5144770Y4204919D02*
G01*
X5203850Y4204919D01*
X5203850Y4254500D01*
X5175758Y4254500D01*
X5169357Y4253890D01*
X5163616Y4252112D01*
X5158333Y4249318D01*
X5153761Y4245508D01*
X5149951Y4240936D01*
X5147157Y4235653D01*
X5145379Y4229912D01*
X5144770Y4223512D01*
G37*
G36*
X5627370Y4204919D02*
G01*
X5686450Y4204919D01*
X5686450Y4254500D01*
X5658358Y4254500D01*
X5651957Y4253890D01*
X5646216Y4252112D01*
X5640933Y4249318D01*
X5636361Y4245508D01*
X5632551Y4240936D01*
X5629757Y4235653D01*
X5627979Y4229912D01*
X5627370Y4223512D01*
G37*
G36*
X5658358Y4305249D02*
G01*
X5797092Y4305249D01*
X5803493Y4305858D01*
X5809234Y4307636D01*
X5814517Y4310430D01*
X5819089Y4314240D01*
X5822899Y4318812D01*
X5825693Y4324096D01*
X5827471Y4329836D01*
X5828080Y4336237D01*
X5828080Y4436872D01*
X5827471Y4443272D01*
X5825693Y4449013D01*
X5822899Y4454296D01*
X5819089Y4458868D01*
X5814517Y4462678D01*
X5809234Y4465472D01*
X5803493Y4467250D01*
X5797092Y4467860D01*
X5782259Y4467860D01*
X5778398Y4468622D01*
X5775096Y4470857D01*
X5772861Y4474159D01*
X5772099Y4478020D01*
X5772099Y4506976D01*
X5772759Y4510532D01*
X5774588Y4513681D01*
X5782056Y4519726D01*
X5785866Y4524349D01*
X5788660Y4529582D01*
X5790387Y4535322D01*
X5791047Y4541723D01*
X5791047Y4678426D01*
X5790387Y4684877D01*
X5788660Y4690618D01*
X5785866Y4695850D01*
X5782056Y4700473D01*
X5777433Y4704283D01*
X5772200Y4707077D01*
X5766460Y4708804D01*
X5760008Y4709464D01*
X5647791Y4709464D01*
X5641340Y4708804D01*
X5635599Y4707077D01*
X5630367Y4704283D01*
X5625744Y4700473D01*
X5621934Y4695850D01*
X5619140Y4690618D01*
X5617413Y4684877D01*
X5616752Y4678426D01*
X5616752Y4541723D01*
X5617413Y4535322D01*
X5619140Y4529582D01*
X5621934Y4524349D01*
X5625744Y4519726D01*
X5630367Y4515916D01*
X5635599Y4513122D01*
X5641340Y4511395D01*
X5647791Y4510735D01*
X5650941Y4510735D01*
X5654802Y4509973D01*
X5658104Y4507788D01*
X5660339Y4504486D01*
X5661101Y4500575D01*
X5661101Y4477359D01*
X5660390Y4473702D01*
X5658459Y4470501D01*
X5655513Y4468266D01*
X5646216Y4465472D01*
X5640933Y4462678D01*
X5636361Y4458868D01*
X5632551Y4454296D01*
X5629757Y4449013D01*
X5627979Y4443272D01*
X5627370Y4436872D01*
X5627370Y4336237D01*
X5627979Y4329836D01*
X5629757Y4324096D01*
X5632551Y4318812D01*
X5636361Y4314240D01*
X5640933Y4310430D01*
X5646216Y4307636D01*
X5651957Y4305858D01*
G37*
G36*
X4197858Y4305249D02*
G01*
X4336592Y4305249D01*
X4342993Y4305858D01*
X4348734Y4307636D01*
X4354017Y4310430D01*
X4358589Y4314240D01*
X4362399Y4318812D01*
X4365193Y4324096D01*
X4366971Y4329836D01*
X4367580Y4336237D01*
X4367580Y4436872D01*
X4366971Y4443272D01*
X4365193Y4449013D01*
X4362399Y4454296D01*
X4358589Y4458868D01*
X4354017Y4462678D01*
X4348734Y4465472D01*
X4342993Y4467250D01*
X4336592Y4467860D01*
X4309059Y4467860D01*
X4305198Y4468622D01*
X4301896Y4470857D01*
X4299661Y4474159D01*
X4298899Y4478020D01*
X4298899Y4501692D01*
X4299813Y4505909D01*
X4302353Y4509363D01*
X4306112Y4511446D01*
X4311700Y4513122D01*
X4316933Y4515916D01*
X4321556Y4519726D01*
X4325366Y4524349D01*
X4328160Y4529582D01*
X4329887Y4535322D01*
X4330547Y4541723D01*
X4330547Y4678426D01*
X4329887Y4684877D01*
X4328160Y4690618D01*
X4325366Y4695850D01*
X4321556Y4700473D01*
X4316933Y4704283D01*
X4311700Y4707077D01*
X4305960Y4708804D01*
X4301032Y4709312D01*
X4296918Y4710633D01*
X4295394Y4712055D01*
X4292701Y4710226D01*
X4288790Y4709464D01*
X4220210Y4709464D01*
X4216298Y4710226D01*
X4213250Y4712309D01*
X4210964Y4710480D01*
X4206544Y4709464D01*
X4187291Y4709464D01*
X4180840Y4708804D01*
X4175099Y4707077D01*
X4169867Y4704283D01*
X4165244Y4700473D01*
X4161434Y4695850D01*
X4158640Y4690618D01*
X4156913Y4684877D01*
X4156252Y4678426D01*
X4156252Y4541723D01*
X4156913Y4535322D01*
X4158640Y4529582D01*
X4161434Y4524349D01*
X4165244Y4519726D01*
X4169867Y4515916D01*
X4175099Y4513122D01*
X4180687Y4511395D01*
X4184446Y4509312D01*
X4186986Y4505909D01*
X4187901Y4501692D01*
X4187901Y4472736D01*
X4187240Y4469180D01*
X4185361Y4466031D01*
X4182516Y4463796D01*
X4180433Y4462678D01*
X4175861Y4458868D01*
X4172051Y4454296D01*
X4169257Y4449013D01*
X4167479Y4443272D01*
X4166870Y4436872D01*
X4166870Y4336237D01*
X4167479Y4329836D01*
X4169257Y4324096D01*
X4172051Y4318812D01*
X4175861Y4314240D01*
X4180433Y4310430D01*
X4185716Y4307636D01*
X4191457Y4305858D01*
G37*
G36*
X4210050Y4729226D02*
G01*
X4210050Y4781550D01*
X4157726Y4781550D01*
X4162094Y4772660D01*
X4169867Y4761077D01*
X4179062Y4750562D01*
X4189577Y4741367D01*
X4201160Y4733594D01*
G37*
G36*
X4298950Y4729226D02*
G01*
X4307840Y4733594D01*
X4319422Y4741367D01*
X4329938Y4750562D01*
X4339132Y4761077D01*
X4346905Y4772660D01*
X4351274Y4781550D01*
X4298950Y4781550D01*
G37*
G36*
X4157726Y4870450D02*
G01*
X4210050Y4870450D01*
X4210050Y4871415D01*
X4193489Y4871415D01*
X4189628Y4872177D01*
X4186326Y4874412D01*
X4184091Y4877714D01*
X4183329Y4881575D01*
X4183329Y4950307D01*
X4130852Y4950307D01*
X4130852Y4922723D01*
X4131513Y4916322D01*
X4133240Y4910582D01*
X4136034Y4905349D01*
X4139844Y4900726D01*
X4144467Y4896916D01*
X4149699Y4894122D01*
X4155389Y4892395D01*
X4159199Y4890262D01*
X4161739Y4886706D01*
X4162551Y4882438D01*
X4161536Y4878171D01*
G37*
G36*
X5060950Y4894326D02*
G01*
X5069840Y4898694D01*
X5081422Y4906467D01*
X5091938Y4915662D01*
X5101132Y4926177D01*
X5108905Y4937760D01*
X5113274Y4946650D01*
X5060950Y4946650D01*
G37*
G36*
X5645150Y4907026D02*
G01*
X5645150Y4959350D01*
X5592826Y4959350D01*
X5597194Y4950460D01*
X5604967Y4938877D01*
X5614162Y4928362D01*
X5624677Y4919167D01*
X5636260Y4911394D01*
G37*
G36*
X5734050Y4907026D02*
G01*
X5742940Y4911394D01*
X5754522Y4919167D01*
X5765038Y4928362D01*
X5774232Y4938877D01*
X5782005Y4950460D01*
X5786374Y4959350D01*
X5734050Y4959350D01*
G37*
G36*
X4130852Y5031892D02*
G01*
X4183329Y5031892D01*
X4183329Y5090464D01*
X4161891Y5090464D01*
X4155440Y5089804D01*
X4149699Y5088077D01*
X4144467Y5085283D01*
X4139844Y5081473D01*
X4136034Y5076850D01*
X4133240Y5071618D01*
X4131513Y5065877D01*
X4130852Y5059426D01*
G37*
G36*
X4252671Y5031892D02*
G01*
X4305147Y5031892D01*
X4305147Y5059426D01*
X4304487Y5065877D01*
X4302760Y5071618D01*
X4299966Y5076850D01*
X4296156Y5081473D01*
X4291533Y5085283D01*
X4286300Y5088077D01*
X4280560Y5089804D01*
X4274108Y5090464D01*
X4252671Y5090464D01*
G37*
G36*
X5060950Y5035550D02*
G01*
X5113274Y5035550D01*
X5108905Y5044440D01*
X5101132Y5056022D01*
X5091938Y5066538D01*
X5081422Y5075732D01*
X5069840Y5083505D01*
X5060950Y5087874D01*
G37*
G36*
X5592826Y5048250D02*
G01*
X5645150Y5048250D01*
X5645150Y5100574D01*
X5636260Y5096205D01*
X5624677Y5088432D01*
X5614162Y5079238D01*
X5604967Y5068722D01*
X5597194Y5057140D01*
G37*
G36*
X5734050Y5048250D02*
G01*
X5786374Y5048250D01*
X5782005Y5057140D01*
X5774232Y5068722D01*
X5765038Y5079238D01*
X5754522Y5088432D01*
X5742940Y5096205D01*
X5734050Y5100574D01*
G37*
G36*
X5736945Y5158435D02*
G01*
X5758434Y5158435D01*
X5764885Y5159095D01*
X5770575Y5160822D01*
X5775858Y5163616D01*
X5780481Y5167426D01*
X5784240Y5172049D01*
X5787085Y5177282D01*
X5788812Y5183022D01*
X5789422Y5189423D01*
X5789422Y5217007D01*
X5736945Y5217007D01*
G37*
G36*
X5646166Y5158435D02*
G01*
X5667654Y5158435D01*
X5667654Y5217007D01*
X5615178Y5217007D01*
X5615178Y5189423D01*
X5615787Y5183022D01*
X5617514Y5177282D01*
X5620359Y5172049D01*
X5624118Y5167426D01*
X5628741Y5163616D01*
X5634024Y5160822D01*
X5639714Y5159095D01*
G37*
G36*
X5615178Y5298592D02*
G01*
X5667654Y5298592D01*
X5667654Y5357164D01*
X5646166Y5357164D01*
X5639714Y5356504D01*
X5634024Y5354777D01*
X5628741Y5351983D01*
X5624118Y5348173D01*
X5620359Y5343550D01*
X5617514Y5338318D01*
X5615787Y5332577D01*
X5615178Y5326126D01*
G37*
G36*
X4362450Y5402326D02*
G01*
X4362450Y5454650D01*
X4310126Y5454650D01*
X4314494Y5445760D01*
X4322267Y5434177D01*
X4331462Y5423662D01*
X4341977Y5414467D01*
X4353560Y5406694D01*
G37*
G36*
X4310126Y5543550D02*
G01*
X4362450Y5543550D01*
X4362450Y5610606D01*
X4363313Y5614720D01*
X4365752Y5618124D01*
X4369358Y5620258D01*
X4374692Y5621934D01*
X4389678Y5624931D01*
X4403293Y5625896D01*
X4403293Y5636920D01*
X4345381Y5636920D01*
X4345381Y5567324D01*
X4344619Y5563463D01*
X4342434Y5560161D01*
X4339132Y5557926D01*
X4335221Y5557164D01*
X4317644Y5557164D01*
X4314494Y5552440D01*
G37*
G36*
X4238294Y5577484D02*
G01*
X4265218Y5577484D01*
X4265218Y5636920D01*
X4207306Y5636920D01*
X4207306Y5608472D01*
X4207916Y5602071D01*
X4209643Y5596331D01*
X4212488Y5591098D01*
X4216247Y5586476D01*
X4220870Y5582666D01*
X4226153Y5579872D01*
X4231843Y5578144D01*
G37*
G36*
X5742381Y5577484D02*
G01*
X5769305Y5577484D01*
X5775756Y5578144D01*
X5781446Y5579872D01*
X5786729Y5582666D01*
X5791352Y5586476D01*
X5795111Y5591098D01*
X5797956Y5596331D01*
X5799683Y5602071D01*
X5800293Y5608472D01*
X5800293Y5636920D01*
X5742381Y5636920D01*
G37*

%LPD*%
D10*
X5421375Y4584700D02*
G01*
X5421375Y4649723D01*
X5207000Y4864100D01*
X5207000Y5181600D01*
X5537200Y5511800D01*
X5537200Y5740400D01*
X5448300Y5829300D01*
X5281168Y5829300D01*
X5994400Y5003800D02*
G01*
X5994400Y5715000D01*
X5830900Y5878499D01*
X5702300Y5878499D01*
X4051300Y5689600D02*
G01*
X4240199Y5878499D01*
X4305300Y5878499D01*
X4726431Y5702300D02*
G01*
X4851400Y5702300D01*
X4927600Y5626100D01*
X4927600Y5486400D01*
X4838700Y5397500D01*
X5461000Y4305300D02*
G01*
X5486400Y4305300D01*
X5486400Y4419600D01*
X5421375Y4484623D01*
X5421375Y4584700D01*
X5281168Y5575300D02*
G01*
X5130800Y5575300D01*
X4762500Y5207000D01*
X4762500Y4876800D01*
X4660900Y4775200D01*
X4495800Y4775200D01*
X4443475Y4722876D01*
X4443475Y4584700D01*
X5245125Y4386554D02*
G01*
X5221300Y4410379D01*
X5221300Y4584700D01*
X4762525Y4386554D02*
G01*
X4738700Y4410379D01*
X4738700Y4584700D01*
X4267225Y4386554D02*
G01*
X4243400Y4410379D01*
X4243400Y4584700D01*
X4521200Y4305300D02*
G01*
X4521200Y4406900D01*
X4470400Y4457700D01*
X4470400Y4584700D01*
X4443475Y4584700D01*
X5003800Y4305300D02*
G01*
X5003800Y4406900D01*
X4938775Y4471923D01*
X4938775Y4584700D01*
X4726431Y5829300D02*
G01*
X4610100Y5829300D01*
X4559300Y5778500D01*
X4559300Y5435600D01*
X4330700Y5207000D01*
X4140200Y5207000D01*
X4000500Y5067300D01*
X4000500Y4229100D01*
X4305300Y3924300D01*
X5702300Y3924300D01*
X5930900Y4152900D01*
X5930900Y4584700D01*
X5916675Y4584700D01*
X4938775Y4584700D02*
G01*
X4938775Y4637023D01*
X4851400Y4724400D01*
X4849875Y5143500D01*
X5143500Y5435600D01*
X5346700Y5435600D01*
X5448300Y5537200D01*
X5448300Y5651500D01*
X5397500Y5702300D01*
X5281168Y5702300D01*
X4838700Y5397500D02*
G01*
X4636515Y5195315D01*
X5281040Y5956300D02*
G01*
X5194300Y5956300D01*
X5116499Y6034100D01*
X5116499Y6172200D01*
X5281040Y5956300D02*
G01*
X5473700Y5956300D01*
X5551500Y5878499D01*
X5702300Y5878499D01*
X4726431Y5956300D02*
G01*
X4864100Y5956300D01*
X4916424Y6008623D01*
X4916424Y6172200D01*
X4726559Y5956300D02*
G01*
X4483100Y5956300D01*
X4405299Y5878499D01*
X4343400Y5878499D01*
X4417999Y4991100D02*
G01*
X4636515Y4991100D01*
X4636515Y5195315D02*
G01*
X4636515Y4991100D01*
X5396484Y4991100D02*
G01*
X5396484Y4903215D01*
X5473700Y4826000D01*
X5816600Y4826000D01*
X5994400Y5003800D01*
X5854700Y5435600D02*
G01*
X5994400Y5435600D01*
X5727725Y4386554D02*
G01*
X5716600Y4397679D01*
X5716600Y4584700D01*
D11*
G01*
X4051305Y5689600D03*
G01*
X5854705Y5461000D03*
G01*
X5702305Y5257800D03*
G01*
X4521205Y4305300D03*
G01*
X5003805Y4305300D03*
G01*
X5473705Y4305300D03*
D12*
G01*
X4726559Y5956300D03*
G01*
X4726559Y5829300D03*
G01*
X4726559Y5702300D03*
G01*
X4726559Y5575300D03*
G01*
X5281040Y5956300D03*
G01*
X5281040Y5829300D03*
G01*
X5281040Y5702300D03*
G01*
X5281040Y5575300D03*
D11*
G01*
X4418004Y4991100D03*
G01*
X4217995Y4991100D03*
G01*
X5116504Y6172200D03*
G01*
X4916495Y6172200D03*
D13*
G01*
X5702300Y5678497D03*
D14*
G01*
X5702300Y5878499D03*
D13*
G01*
X4305300Y5878502D03*
D14*
G01*
X4305300Y5678500D03*
D11*
G01*
X5903904Y4610100D03*
G01*
X5703895Y4610100D03*
G01*
X5421304Y4610100D03*
G01*
X5221295Y4610100D03*
G01*
X4938704Y4610100D03*
G01*
X4738695Y4610100D03*
G01*
X4443404Y4610100D03*
G01*
X4243395Y4610100D03*
D15*
G01*
X4267225Y4386554D03*
G01*
X4267225Y4173194D03*
G01*
X4762525Y4386554D03*
G01*
X4762525Y4173194D03*
G01*
X5245125Y4386554D03*
G01*
X5245125Y4173194D03*
G01*
X5727725Y4386554D03*
G01*
X5727725Y4173194D03*
D16*
G01*
X4636515Y4991100D03*
G01*
X5396484Y4991100D03*
D17*
G01*
X5689600Y5003800D03*
G01*
X5994400Y5003800D03*
G01*
X4406900Y5499100D03*
G01*
X4254500Y4826000D03*
G01*
X5016500Y4991100D03*
M02*
